<?xml version="1.0" encoding="utf-8"?>
<svg version="1.1" xmlns="http://www.w3.org/2000/svg" xmlns:xlink="http://www.w3.org/1999/xlink" x="0px"
	 y="0px" viewBox="0 0 40 40" style="enable-background:new 0 0 40 40;" xml:space="preserve">
	<title>Social Button/GitHub</title>
	<path class="social_btn_color" d="M39.5,18.9L21.1,0.5C20.8,0.2,20.4,0,20,0s-0.8,0.2-1.1,0.5L0.5,18.9c-0.6,0.6-0.6,1.6,0,2.2l18.4,18.4
		c0.3,0.3,0.7,0.5,1.1,0.5s0.8-0.2,1.1-0.5l18.4-18.4C40.2,20.5,40.2,19.5,39.5,18.9z M23.6,31c-0.6,0.1-0.8-0.3-0.8-0.5
		c0-0.4,0-1.6,0-3.1c0-1.1-0.4-1.7-0.8-2.1c2.5-0.3,5.2-1.2,5.2-5.6c0-1.2-0.4-2.2-1.2-3c0.1-0.3,0.5-1.4-0.1-3
		c-0.9-0.3-3.1,1.2-3.1,1.2c-0.9-0.3-1.9-0.4-2.8-0.4s-1.9,0.1-2.8,0.4c0,0-2.2-1.5-3.1-1.2c-0.6,1.6-0.2,2.7-0.1,3
		c-0.7,0.8-1.2,1.8-1.2,3c0,4.3,2.6,5.3,5.2,5.6c-0.3,0.3-0.6,0.8-0.7,1.5c-0.6,0.3-2.3,0.8-3.3-0.9c-0.6-1.1-1.7-1.2-1.7-1.2
		c-1.1,0-0.1,0.7-0.1,0.7c0.7,0.3,1.3,1.7,1.3,1.7c0.7,2,3.8,1.3,3.8,1.3c0,0.9,0,1.8,0,2.1c0,0.3-0.2,0.6-0.8,0.5
		c-4.5-1.5-7.8-5.8-7.8-10.8C8.7,14,13.7,8.9,20,8.9S31.3,14,31.3,20.3C31.3,25.3,28.1,29.5,23.6,31z M17.1,27.3
		c0,0.1-0.1,0.2-0.2,0.2c-0.1,0-0.3,0-0.3-0.1c0-0.1,0.1-0.2,0.2-0.2C17,27.2,17.1,27.2,17.1,27.3z M16.2,27.5c0,0.1-0.1,0.2-0.2,0.2
		c-0.1,0-0.3-0.1-0.3-0.2c0-0.1,0.1-0.2,0.2-0.2C16.1,27.3,16.2,27.4,16.2,27.5z M15.3,27.4c0,0.1-0.2,0.1-0.3,0.1
		c-0.1,0-0.2-0.1-0.2-0.2c0-0.1,0.2-0.1,0.3-0.1C15.3,27.2,15.3,27.3,15.3,27.4z M14.5,27c-0.1,0.1-0.2,0.1-0.3,0
		c-0.1-0.1-0.1-0.2-0.1-0.3c0.1-0.1,0.2-0.1,0.3,0C14.5,26.8,14.5,27,14.5,27z M13.9,26.4c-0.1,0-0.2,0-0.3-0.1
		c-0.1-0.1-0.1-0.2,0-0.3c0.1-0.1,0.2,0,0.3,0.1C13.9,26.2,13.9,26.3,13.9,26.4z M13.4,25.7c-0.1,0.1-0.2,0-0.2,0
		c-0.1-0.1-0.1-0.2,0-0.2c0.1-0.1,0.2,0,0.2,0C13.5,25.6,13.5,25.7,13.4,25.7z M13,25.2c0,0.1-0.1,0.1-0.2,0c-0.1,0-0.1-0.1-0.1-0.2
		c0,0,0.1-0.1,0.2,0C12.9,25.1,13,25.2,13,25.2z"/>
	</svg>
