<?xml version="1.0" encoding="utf-8"?>
<svg version="1.1" id="social_btn_email" xmlns="http://www.w3.org/2000/svg" xmlns:xlink="http://www.w3.org/1999/xlink" x="0px" y="0px"
	 viewBox="0 0 40 40" style="enable-background:new 0 0 40 40;" xml:space="preserve">
	<style type="text/css">
		.social_btn_color{fill:#CFD7DB;}
	</style>
	<title>Social Button Email</title>
	<path id="btn_email" class="social_btn_color" d="M39.5,18.9c0.7,0.6,0.7,1.6,0,2.2L21.1,39.5C20.8,39.8,20.4,40,20,40s-0.8-0.2-1.1-0.5L0.5,21.1
		c-0.6-0.6-0.6-1.6,0-2.2L18.9,0.5C19.2,0.2,19.6,0,20,0s0.8,0.2,1.1,0.5L39.5,18.9z M28,17.8c-0.3,0.3-0.6,0.6-0.9,0.8
		c-1.5,1-3,2-4.4,3.1c-0.8,0.6-1.7,1.2-2.7,1.2h0c-1,0-1.9-0.7-2.7-1.2c-1.5-1.1-3-2.1-4.4-3.1c-0.3-0.2-0.6-0.5-0.9-0.8v7.1
		c0,0.8,0.6,1.4,1.4,1.4h13.1c0.8,0,1.4-0.6,1.4-1.4V17.8z M28,15.1c0-0.8-0.7-1.4-1.4-1.4H13.4c-1,0-1.4,0.8-1.4,1.6
		c0,0.8,0.9,1.8,1.5,2.2c1.4,1,2.8,1.9,4.2,2.9c0.6,0.4,1.6,1.2,2.3,1.2h0c0.7,0,1.7-0.8,2.3-1.2c1.4-1,2.8-1.9,4.2-2.9
		C27.3,17,28,16.1,28,15.1z"/>
</svg>
