<?xml version="1.0" encoding="utf-8"?>
<svg version="1.1" id="deco_logo" xmlns="http://www.w3.org/2000/svg" xmlns:xlink="http://www.w3.org/1999/xlink" x="0px" y="0px"
	 viewBox="0 0 160 282" style="enable-background:new 0 0 160 282;" xml:space="preserve">
	<style type="text/css">
		.deco-logo{fill:#CFD8DC;}
	</style>
	<path class="deco-logo" d="M80,282c-1.8,0-3.6-0.7-5-2.1L2.1,207.1c-1.3-1.3-2.1-3.1-2.1-5c0-1.9,0.7-3.7,2.1-5L58.2,141L2.1,84.9
		c-1.3-1.3-2.1-3.1-2.1-5c0-1.9,0.7-3.7,2.1-5L75,2.1c2.8-2.8,7.2-2.8,10,0l72.9,72.9c1.3,1.3,2.1,3.1,2.1,5c0,1.9-0.7,3.7-2.1,5
		L101.8,141l56.1,56.1c1.3,1.3,2.1,3.1,2.1,5c0,1.9-0.7,3.7-2.1,5L85,279.9C83.6,281.3,81.8,282,80,282z M11.4,202.1L80,270.7
		l68.6-68.6L92.5,146c-1.3-1.3-2.1-3.1-2.1-5c0-1.9,0.7-3.7,2.1-5l56.1-56.1L80,11.3L11.4,79.9L67.5,136c2.8,2.8,2.8,7.2,0,10
		L11.4,202.1z"/>
	<path class="deco-logo" d="M108,59.5H52L32.8,78.8L80,126l47.2-47.2L108,59.5z M108.1,85.7l-2.2-6.3l-5.9-2.5l5.9-2.5l2.2-6.3l2.2,6.3
		l5.6,2.5l-5.6,2.5L108.1,85.7z"/>
	<path class="deco-logo" d="M81.8,154c-0.5,9.8,2.6,16.1,8.7,22.8c8.7,9.7,8.2,16.1,6.3,21.6c-3,8.8-12.3,11.6-20.1,10.5
		c-10.1-1.4-16.6-9.5-14.3-23.2C64.3,174.9,72.9,160.3,81.8,154z M89.9,228.9c-8.8-0.7-12.1-8.8-22.6-8.9
		c-12.1-0.1-16.3,7.5-16.3,7.5l29,29l28.8-28.8C102.9,223.5,97.6,229.5,89.9,228.9z"/>
</svg>
