<?xml version="1.0" encoding="utf-8"?>
<svg version="1.1" class="deco_wave_gradient bg-deco" xmlns="http://www.w3.org/2000/svg" xmlns:xlink="http://www.w3.org/1999/xlink" x="0px" y="0px"
	 viewBox="0 0 69 181" style="enable-background:new 0 0 69 181;" xml:space="preserve">
	<style type="text/css">
		.gradient_wave{stroke:url(#deco-gradient_wave)}
	</style>
	<title>Deco/Gradient Wave</title>
	<linearGradient id="deco-gradient_wave" gradientUnits="userSpaceOnUse" x1="34.3775" y1="119.777" x2="34.3775" y2="59.5077">
		<stop  offset="0" style="stop-color:#652F8B"/>
		<stop  offset="1" style="stop-color:#CC1D23"/>
	</linearGradient>
	<path class="deco-line gradient_wave" d="M20.1,0.2C20.1,18.1,1,18.1,1,36s19.1,17.9,19.1,35.8S1,89.6,1,107.5s19.1,17.9,19.1,35.8S1,161.2,1,179
		M43.9,0.2c0,17.9-19.1,17.9-19.1,35.8s19.1,17.9,19.1,35.8s-19.1,17.9-19.1,35.8s19.1,17.9,19.1,35.8S24.8,161.2,24.8,179
		M67.8,0.2c0,17.9-19.1,17.9-19.1,35.8s19.1,17.9,19.1,35.8s-19.1,17.9-19.1,35.8s19.1,17.9,19.1,35.8S48.7,161.2,48.7,179"/>
</svg>
