<?xml version="1.0" encoding="utf-8"?>
<svg version="1.1" id="icon_program" xmlns="http://www.w3.org/2000/svg" xmlns:xlink="http://www.w3.org/1999/xlink" x="0px" y="0px"
	 viewBox="0 0 60 60" style="enable-background:new 0 0 60 60;" xml:space="preserve">
	<style type="text/css">
		.icon_gradient{fill:url(#icon_gradient);}
	</style>
	<title>Icon/Program</title>
	<linearGradient id="icon_gradient" gradientUnits="userSpaceOnUse" x1="-555.0833" y1="443.3733" x2="-555.0833" y2="444.3733" gradientTransform="matrix(60 0 0 -60 33335 26662.4004)">
		<stop  offset="0" style="stop-color:#652F8B"/>
		<stop  offset="1" style="stop-color:#CC1D23"/>
	</linearGradient>
	<path class="icon_gradient" d="M1.4,60c-0.2,0-0.4,0-0.6-0.1C0.4,59.7,0,59.1,0,58.6V7.8C0,3.5,3.5,0,7.8,0h44.5
		C56.5,0,60,3.5,60,7.8v31.7c0,4.3-3.5,7.8-7.8,7.8H14.8L2.5,59.6C2.2,59.8,1.8,60,1.4,60z M7.8,2.9c-2.8,0-5,2.2-5,5v47.3l10.3-10.3
		c0.3-0.3,0.7-0.4,1-0.4h38.1c2.7,0,5-2.2,5-5V7.8c-0.1-2.8-2.3-5-5-5H7.8z"/>
</svg>
