<?xml version="1.0" encoding="utf-8"?>
<svg version="1.1" id="main_logo" xmlns="http://www.w3.org/2000/svg" xmlns:xlink="http://www.w3.org/1999/xlink" x="0px" y="0px"
	 viewBox="0 0 183 50" style="enable-background:new 0 0 183 50;" xml:space="preserve">
	<style type="text/css">
		.logotype{fill:#3F4C6B;}
		.logotype_ruby{fill:url(#logotype_ruby_gradient);}
		.logotype_elixir{fill:url(#logotype_elixir_gradient);}
		.deco-color{fill:#CFD8DC;}
		.logo_frame{fill:url(#logo_frame_gradient);}
	</style>
	<title>Main Logo</title>
	<g id="logotype">
		<g id="conf_taiwan_2018">
			<g id="conf">
				<path class="logotype" d="M51.8,40.5c-0.6,0.5-1.2,0.9-2,1.1c-0.7,0.3-1.5,0.4-2.2,0.4c-0.6,0-1.2-0.1-1.7-0.2
					c-0.5-0.2-1.1-0.4-1.5-0.7c-0.5-0.3-0.9-0.6-1.3-1c-0.4-0.4-0.7-0.8-1-1.3c-0.3-0.5-0.5-1-0.7-1.5c-0.2-0.5-0.2-1.1-0.2-1.7
					c0-0.6,0.1-1.2,0.2-1.7c0.2-0.6,0.4-1.1,0.7-1.5c0.3-0.5,0.6-0.9,1-1.3c0.4-0.4,0.8-0.7,1.3-1c0.5-0.3,1-0.5,1.5-0.7
					c0.5-0.2,1.1-0.2,1.7-0.2c0.8,0,1.5,0.1,2.2,0.4c0.7,0.3,1.4,0.6,2,1.2l-1.3,2.2c-0.4-0.4-0.8-0.7-1.3-0.9
					c-0.5-0.2-1-0.3-1.6-0.3c-0.6,0-1.1,0.1-1.6,0.3c-0.5,0.2-0.9,0.5-1.3,0.8c-0.4,0.4-0.6,0.8-0.9,1.3c-0.2,0.5-0.3,1-0.3,1.5
					c0,0.5,0.1,1.1,0.3,1.5c0.2,0.5,0.5,0.9,0.9,1.3c0.4,0.4,0.8,0.6,1.3,0.9c0.5,0.2,1,0.3,1.6,0.3c0.5,0,1.1-0.1,1.6-0.3
					c0.5-0.2,0.9-0.5,1.3-0.9L51.8,40.5z"/>
				<path class="logotype" d="M61.7,37.1c0,0.7-0.1,1.3-0.4,1.9c-0.2,0.6-0.6,1.1-1,1.6c-0.4,0.4-0.9,0.8-1.5,1c-0.6,0.3-1.2,0.4-1.9,0.4
					c-0.7,0-1.3-0.1-1.9-0.4c-0.6-0.3-1.1-0.6-1.5-1c-0.4-0.4-0.8-1-1-1.6c-0.2-0.6-0.4-1.3-0.4-1.9c0-0.7,0.1-1.4,0.4-2
					c0.2-0.6,0.6-1.1,1-1.6c0.4-0.4,0.9-0.8,1.5-1c0.6-0.2,1.2-0.4,1.9-0.4c0.7,0,1.3,0.1,1.9,0.4c0.6,0.2,1.1,0.6,1.5,1
					c0.4,0.4,0.8,1,1,1.6C61.6,35.7,61.7,36.3,61.7,37.1z M59.3,37.1c0-0.4-0.1-0.7-0.2-1c-0.1-0.3-0.3-0.6-0.5-0.8
					c-0.2-0.2-0.5-0.4-0.8-0.5c-0.3-0.1-0.6-0.2-0.9-0.2s-0.6,0.1-0.9,0.2c-0.3,0.1-0.5,0.3-0.7,0.5c-0.2,0.2-0.4,0.5-0.5,0.8
					c-0.1,0.3-0.2,0.7-0.2,1c0,0.4,0.1,0.7,0.2,1c0.1,0.3,0.3,0.6,0.5,0.8c0.2,0.2,0.5,0.4,0.7,0.5c0.3,0.1,0.6,0.2,0.9,0.2
					s0.6-0.1,0.9-0.2c0.3-0.1,0.5-0.3,0.8-0.5c0.2-0.2,0.4-0.5,0.5-0.8C59.2,37.8,59.3,37.5,59.3,37.1z"/>
				<path class="logotype" d="M65.1,41.8h-2.4v-9.3h0.6l0.8,0.9c0.4-0.3,0.8-0.6,1.3-0.8c0.5-0.2,1-0.3,1.5-0.3c0.6,0,1.1,0.1,1.6,0.3
					s0.9,0.5,1.3,0.9c0.4,0.4,0.7,0.8,0.9,1.3c0.2,0.5,0.3,1,0.3,1.6v5.3h-2.4v-5.3c0-0.2,0-0.5-0.1-0.7c-0.1-0.2-0.2-0.4-0.4-0.6
					c-0.2-0.2-0.4-0.3-0.6-0.4c-0.2-0.1-0.4-0.1-0.7-0.1c-0.2,0-0.5,0-0.7,0.1c-0.2,0.1-0.4,0.2-0.6,0.4c-0.2,0.2-0.3,0.4-0.4,0.6
					c-0.1,0.2-0.1,0.4-0.1,0.7V41.8z"/>
				<path class="logotype" d="M75.4,41.8h-2.4v-7h-1.2v-2.4h1.2V32c0-0.6,0.1-1.1,0.3-1.6c0.2-0.5,0.5-0.9,0.9-1.3
					c0.4-0.4,0.8-0.7,1.3-0.9s1-0.3,1.6-0.3H79v2.4h-1.8c-0.3,0-0.5,0-0.7,0.1c-0.2,0.1-0.4,0.2-0.6,0.4c-0.2,0.2-0.3,0.3-0.4,0.6
					c-0.1,0.2-0.1,0.5-0.1,0.7v0.4h2.9v2.4h-2.9V41.8z"/>
			</g>
			<g id="taiwan">
				<path class="logotype" d="M89.9,41.9h-2.5v-10h-3.8v-2.5h10v2.5h-3.7V41.9z"/>
				<path class="logotype" d="M102.3,41.9h-0.6l-0.9-1.3c-0.2,0.2-0.5,0.4-0.7,0.6c-0.3,0.2-0.5,0.3-0.8,0.5c-0.3,0.1-0.6,0.2-0.9,0.3
					C98.1,42,97.8,42,97.5,42c-0.7,0-1.3-0.1-1.9-0.3c-0.6-0.2-1.1-0.5-1.5-1c-0.4-0.4-0.8-0.9-1-1.5c-0.2-0.6-0.4-1.3-0.4-2.1
					c0-0.7,0.1-1.4,0.4-2c0.2-0.6,0.6-1.1,1-1.6c0.4-0.4,0.9-0.8,1.5-1c0.6-0.2,1.2-0.4,1.9-0.4c0.3,0,0.6,0,0.9,0.1
					c0.3,0.1,0.6,0.2,0.9,0.3c0.3,0.1,0.5,0.3,0.8,0.5c0.3,0.2,0.5,0.4,0.7,0.6l0.9-1.1h0.6V41.9z M99.9,37.1c0-0.3-0.1-0.6-0.2-0.9
					c-0.1-0.3-0.3-0.6-0.5-0.8c-0.2-0.2-0.5-0.4-0.8-0.6c-0.3-0.1-0.6-0.2-0.9-0.2s-0.6,0.1-0.9,0.2c-0.3,0.1-0.5,0.3-0.7,0.5
					c-0.2,0.2-0.4,0.5-0.5,0.8c-0.1,0.3-0.2,0.7-0.2,1.1s0.1,0.8,0.2,1.1c0.1,0.3,0.3,0.6,0.5,0.8c0.2,0.2,0.5,0.4,0.7,0.5
					c0.3,0.1,0.6,0.2,0.9,0.2s0.6-0.1,0.9-0.2c0.3-0.1,0.5-0.3,0.8-0.6c0.2-0.2,0.4-0.5,0.5-0.8C99.8,37.8,99.9,37.4,99.9,37.1z"/>
				<path class="logotype" d="M106.9,30c0,0.2,0,0.4-0.1,0.6c-0.1,0.2-0.2,0.4-0.3,0.5c-0.1,0.1-0.3,0.3-0.5,0.3c-0.2,0.1-0.4,0.1-0.6,0.1
					c-0.2,0-0.4,0-0.6-0.1c-0.2-0.1-0.4-0.2-0.5-0.3c-0.1-0.1-0.3-0.3-0.3-0.5c-0.1-0.2-0.1-0.4-0.1-0.6c0-0.2,0-0.4,0.1-0.6
					c0.1-0.2,0.2-0.4,0.3-0.5c0.1-0.1,0.3-0.3,0.5-0.3c0.2-0.1,0.4-0.1,0.6-0.1c0.2,0,0.4,0,0.6,0.1c0.2,0.1,0.4,0.2,0.5,0.3
					c0.1,0.1,0.3,0.3,0.3,0.5C106.9,29.6,106.9,29.8,106.9,30z M106.5,41.9h-2.4v-9.3h2.4V41.9z"/>
				<path class="logotype" d="M120.1,38.5c0,0.5-0.1,0.9-0.3,1.4c-0.2,0.4-0.4,0.8-0.8,1.1c-0.3,0.3-0.7,0.6-1.1,0.8
					c-0.4,0.2-0.9,0.3-1.4,0.3c-0.4,0-0.9-0.1-1.3-0.2c-0.4-0.2-0.8-0.4-1.1-0.7c-0.3,0.3-0.7,0.5-1.1,0.7c-0.4,0.2-0.8,0.2-1.3,0.2
					c-0.5,0-1-0.1-1.4-0.3c-0.4-0.2-0.8-0.4-1.1-0.8c-0.3-0.3-0.6-0.7-0.8-1.1c-0.2-0.4-0.3-0.9-0.3-1.4v-5.9h2.4v5.9
					c0,0.2,0,0.3,0.1,0.5c0.1,0.1,0.1,0.3,0.3,0.4c0.1,0.1,0.2,0.2,0.4,0.3c0.1,0.1,0.3,0.1,0.5,0.1c0.2,0,0.3,0,0.5-0.1
					c0.1-0.1,0.3-0.1,0.4-0.3c0.1-0.1,0.2-0.2,0.3-0.4c0.1-0.1,0.1-0.3,0.1-0.5v-5.9h2.4v5.9c0,0.2,0,0.3,0.1,0.5
					c0.1,0.1,0.1,0.3,0.3,0.4c0.1,0.1,0.2,0.2,0.4,0.3c0.1,0.1,0.3,0.1,0.5,0.1s0.3,0,0.5-0.1c0.1-0.1,0.3-0.1,0.4-0.3
					c0.1-0.1,0.2-0.2,0.3-0.4c0.1-0.1,0.1-0.3,0.1-0.5v-5.9h2.4V38.5z"/>
				<path class="logotype" d="M130.9,41.9h-0.6l-0.9-1.3c-0.2,0.2-0.5,0.4-0.7,0.6c-0.3,0.2-0.5,0.3-0.8,0.5c-0.3,0.1-0.6,0.2-0.9,0.3
					c-0.3,0.1-0.6,0.1-0.9,0.1c-0.7,0-1.3-0.1-1.9-0.3c-0.6-0.2-1.1-0.5-1.5-1c-0.4-0.4-0.8-0.9-1-1.5s-0.4-1.3-0.4-2.1
					c0-0.7,0.1-1.4,0.4-2c0.2-0.6,0.6-1.1,1-1.6c0.4-0.4,0.9-0.8,1.5-1c0.6-0.2,1.2-0.4,1.9-0.4c0.3,0,0.6,0,0.9,0.1
					c0.3,0.1,0.6,0.2,0.9,0.3c0.3,0.1,0.5,0.3,0.8,0.5c0.3,0.2,0.5,0.4,0.7,0.6l0.9-1.1h0.6V41.9z M128.5,37.1c0-0.3-0.1-0.6-0.2-0.9
					c-0.1-0.3-0.3-0.6-0.5-0.8c-0.2-0.2-0.5-0.4-0.8-0.6c-0.3-0.1-0.6-0.2-0.9-0.2s-0.6,0.1-0.9,0.2c-0.3,0.1-0.5,0.3-0.7,0.5
					c-0.2,0.2-0.4,0.5-0.5,0.8c-0.1,0.3-0.2,0.7-0.2,1.1s0.1,0.8,0.2,1.1c0.1,0.3,0.3,0.6,0.5,0.8c0.2,0.2,0.5,0.4,0.7,0.5
					c0.3,0.1,0.6,0.2,0.9,0.2s0.6-0.1,0.9-0.2c0.3-0.1,0.5-0.3,0.8-0.6c0.2-0.2,0.4-0.5,0.5-0.8C128.4,37.8,128.5,37.4,128.5,37.1z"
					/>
				<path class="logotype" d="M134.7,41.9h-2.4v-9.3h0.6l0.8,0.9c0.4-0.3,0.8-0.6,1.3-0.8c0.5-0.2,1-0.3,1.5-0.3c0.6,0,1.1,0.1,1.6,0.3
					c0.5,0.2,0.9,0.5,1.3,0.9c0.4,0.4,0.7,0.8,0.9,1.3c0.2,0.5,0.3,1,0.3,1.6v5.3h-2.4v-5.3c0-0.2,0-0.5-0.1-0.7
					c-0.1-0.2-0.2-0.4-0.4-0.6c-0.2-0.2-0.4-0.3-0.6-0.4c-0.2-0.1-0.4-0.1-0.7-0.1c-0.2,0-0.5,0-0.7,0.1c-0.2,0.1-0.4,0.2-0.6,0.4
					s-0.3,0.4-0.4,0.6c-0.1,0.2-0.1,0.4-0.1,0.7V41.9z"/>
			</g>
			<g id="year">
				<path class="logotype" d="M155,33.1c0,0.5-0.1,1-0.3,1.5c-0.2,0.5-0.5,0.9-0.8,1.2c-0.3,0.3-0.7,0.6-1.2,0.8s-0.9,0.3-1.5,0.3H150
					c-0.2,0-0.3,0-0.5,0.1s-0.3,0.2-0.4,0.3c-0.1,0.1-0.2,0.2-0.3,0.4c-0.1,0.2-0.1,0.3-0.1,0.5v1.2h5.9v2.5h-8.4v-3.7
					c0-0.5,0.1-1,0.3-1.5c0.2-0.5,0.5-0.9,0.8-1.2c0.3-0.3,0.7-0.6,1.2-0.8c0.5-0.2,0.9-0.3,1.5-0.3h1.3c0.2,0,0.3,0,0.5-0.1
					s0.3-0.2,0.4-0.3c0.1-0.1,0.2-0.2,0.3-0.4c0.1-0.2,0.1-0.3,0.1-0.5s0-0.3-0.1-0.5c-0.1-0.2-0.2-0.3-0.3-0.4
					c-0.1-0.1-0.2-0.2-0.4-0.3c-0.2-0.1-0.3-0.1-0.5-0.1h-4.5v-2.5h4.5c0.5,0,1,0.1,1.5,0.3c0.5,0.2,0.9,0.5,1.2,0.8
					c0.3,0.3,0.6,0.7,0.8,1.2C154.9,32.1,155,32.6,155,33.1z"/>
				<path class="logotype" d="M166.4,35.6c0,1.2-0.1,2.2-0.4,3s-0.6,1.5-1.1,2s-1,0.9-1.6,1.1c-0.6,0.2-1.3,0.3-1.9,0.3
					c-0.7,0-1.3-0.1-1.9-0.3c-0.6-0.2-1.1-0.6-1.6-1.1c-0.5-0.5-0.8-1.2-1.1-2c-0.3-0.8-0.4-1.8-0.4-3c0-1.2,0.1-2.2,0.4-3
					c0.3-0.8,0.6-1.5,1.1-2c0.5-0.5,1-0.9,1.6-1.1c0.6-0.2,1.3-0.3,1.9-0.3c0.7,0,1.3,0.1,1.9,0.3c0.6,0.2,1.1,0.6,1.6,1.1
					c0.5,0.5,0.8,1.2,1.1,2S166.4,34.5,166.4,35.6z M164,35.6c0-1.4-0.2-2.4-0.7-3.1c-0.5-0.7-1.1-1-1.9-1c-0.8,0-1.5,0.3-1.9,1
					c-0.5,0.7-0.7,1.7-0.7,3.1c0,1.4,0.2,2.4,0.7,3.1c0.5,0.7,1.1,1,1.9,1c0.4,0,0.8-0.1,1.1-0.2c0.3-0.2,0.6-0.4,0.8-0.8
					c0.2-0.3,0.4-0.8,0.5-1.3C163.9,36.9,164,36.3,164,35.6z"/>
				<path class="logotype" d="M171.5,41.9H169v-10h-1.2v-2.5h3.7V41.9z"/>
				<path class="logotype" d="M180.7,35.6l2-2c0.2-0.2,0.3-0.5,0.3-0.8c0-0.3-0.1-0.6-0.3-0.8l-3.3-3.3c-0.2-0.2-0.5-0.3-0.8-0.3
					c-0.3,0-0.6,0.1-0.8,0.3l-3.3,3.3c-0.2,0.2-0.3,0.5-0.3,0.8c0,0.3,0.1,0.6,0.3,0.8l2,2l-2,2c-0.2,0.2-0.3,0.5-0.3,0.8
					c0,0.3,0.1,0.6,0.3,0.8l3.3,3.3c0.2,0.2,0.5,0.3,0.8,0.3c0.3,0,0.6-0.1,0.8-0.3l3.3-3.3c0.2-0.2,0.3-0.5,0.3-0.8
					c0-0.3-0.1-0.6-0.3-0.8L180.7,35.6z M176.6,32.9l2-2l2,2l-2,2L176.6,32.9z M178.6,36.4l2,2l-2,2l-2-2L178.6,36.4z"/>
			</g>
		</g>
		<linearGradient id="logotype_ruby_gradient" gradientUnits="userSpaceOnUse" x1="62.7912" y1="24.9891" x2="62.7912" y2="8.3764">
			<stop  offset="0" style="stop-color:#CB1D23"/>
			<stop  offset="0.194" style="stop-color:#CC2126"/>
			<stop  offset="0.3949" style="stop-color:#D02E30"/>
			<stop  offset="0.5991" style="stop-color:#D64240"/>
			<stop  offset="0.8042" style="stop-color:#DE5F56"/>
			<stop  offset="1" style="stop-color:#E88271"/>
		</linearGradient>
		<path id="logotype_ruby" class="logotype_ruby" d="M45.1,21.4h-2.5V8.9h5c0.5,0,0.9,0.1,1.3,0.2c0.4,0.1,0.8,0.3,1.2,0.5c0.4,0.2,0.7,0.5,1,0.8
			c0.3,0.3,0.6,0.6,0.8,1c0.2,0.4,0.4,0.8,0.5,1.2c0.1,0.4,0.2,0.9,0.2,1.3c0,0.4-0.1,0.8-0.2,1.3c-0.1,0.4-0.3,0.8-0.5,1.2
			c-0.2,0.4-0.4,0.7-0.7,1c-0.3,0.3-0.6,0.6-1,0.8l1.4,3.3H49l-1.1-2.5l-2.8,0V21.4z M45.1,11.4v5h2.5c0.3,0,0.7-0.1,1-0.2
			s0.6-0.3,0.8-0.5c0.2-0.2,0.4-0.5,0.5-0.8c0.1-0.3,0.2-0.6,0.2-1c0-0.3-0.1-0.7-0.2-1c-0.1-0.3-0.3-0.6-0.5-0.8
			c-0.2-0.2-0.5-0.4-0.8-0.5c-0.3-0.1-0.6-0.2-1-0.2H45.1z M61,20.3c-0.2,0.2-0.4,0.3-0.6,0.5c-0.2,0.2-0.4,0.3-0.7,0.4
			c-0.2,0.1-0.5,0.2-0.7,0.3c-0.3,0.1-0.5,0.1-0.8,0.1c-0.6,0-1.1-0.1-1.6-0.3s-0.9-0.5-1.3-0.9c-0.4-0.4-0.7-0.8-0.9-1.4
			c-0.2-0.5-0.3-1.1-0.3-1.8v-5.2h2.4v5.2c0,0.3,0,0.6,0.1,0.8c0.1,0.2,0.2,0.5,0.4,0.6c0.2,0.2,0.4,0.3,0.6,0.4
			c0.2,0.1,0.5,0.1,0.7,0.1c0.2,0,0.5-0.1,0.7-0.2c0.2-0.1,0.4-0.3,0.6-0.4c0.2-0.2,0.3-0.4,0.4-0.6c0.1-0.2,0.1-0.5,0.1-0.7v-5.2
			h2.4v9.3h-0.6L61,20.3z M77,25v-2.4l1.3,0c0.2,0,0.5,0,0.7-0.1c0.2-0.1,0.4-0.2,0.6-0.3c0.2-0.1,0.3-0.3,0.5-0.5
			c0.1-0.2,0.3-0.4,0.3-0.6c-0.3,0.1-0.5,0.2-0.8,0.3c-0.3,0.1-0.5,0.2-0.8,0.2c-0.6,0-1.1-0.1-1.6-0.3s-0.9-0.5-1.3-0.9
			c-0.4-0.4-0.7-0.8-0.9-1.4c-0.2-0.5-0.3-1.1-0.3-1.8v-5.2H77v5.2c0,0.3,0,0.6,0.1,0.9c0.1,0.2,0.2,0.5,0.4,0.6
			c0.2,0.2,0.4,0.3,0.6,0.4c0.2,0.1,0.5,0.1,0.7,0.1c0.2,0,0.5-0.1,0.7-0.2c0.2-0.1,0.4-0.3,0.6-0.4c0.2-0.2,0.3-0.4,0.4-0.6
			c0.1-0.2,0.1-0.5,0.1-0.7v-5.2H83v8.2c0,0.7-0.1,1.3-0.4,1.8c-0.2,0.6-0.6,1.1-1,1.5c-0.4,0.4-0.9,0.8-1.5,1
			c-0.6,0.2-1.2,0.4-1.8,0.4L77,25z M73,14.7c-0.2-0.6-0.6-1.1-1-1.6c-0.4-0.4-0.9-0.8-1.5-1c-0.6-0.2-1.2-0.4-1.9-0.4
			c-0.2,0-0.4,0-0.7,0.1c-0.2,0-0.4,0.1-0.7,0.2c-0.2,0.1-0.4,0.2-0.6,0.3c-0.2,0.1-0.3,0.3-0.5,0.4V8.4h-2.4v8.3
			c0,0.7,0.1,1.4,0.4,2c0.2,0.6,0.6,1.1,1,1.6c0.4,0.4,0.9,0.8,1.5,1c0.6,0.2,1.2,0.4,1.9,0.4c0.7,0,1.3-0.1,1.9-0.4
			c0.6-0.2,1.1-0.6,1.5-1c0.4-0.4,0.8-1,1-1.6c0.2-0.6,0.4-1.3,0.4-2C73.3,16,73.2,15.3,73,14.7z M68.6,19.2l-2.7-2.9l1.3-1.5H70
			l1.3,1.5L68.6,19.2z"/>
		<linearGradient id="logotype_elixir_gradient" gradientUnits="userSpaceOnUse" x1="116.7219" y1="21.3671" x2="116.7219" y2="6.8366">
			<stop  offset="0" style="stop-color:#65308A"/>
			<stop  offset="0.1991" style="stop-color:#68348C"/>
			<stop  offset="0.4054" style="stop-color:#714194"/>
			<stop  offset="0.615" style="stop-color:#7F55A0"/>
			<stop  offset="0.8255" style="stop-color:#9472B1"/>
			<stop  offset="1" style="stop-color:#A990C2"/>
		</linearGradient>
		<path id="logotype_elixir" class="logotype_elixir" d="M106.4,21.4h-8.6V8.9h8.6v2.5h-6.1v2.5h4.1v2.5h-4.1v2.5h6.1V21.4z M110.3,21.4h-2.4v-13h2.4
			V21.4z M114.9,9.5c0,0.2,0,0.4-0.1,0.6c-0.1,0.2-0.2,0.4-0.3,0.5c-0.1,0.1-0.3,0.3-0.5,0.3c-0.2,0.1-0.4,0.1-0.6,0.1
			s-0.4,0-0.6-0.1c-0.2-0.1-0.4-0.2-0.5-0.3c-0.1-0.1-0.3-0.3-0.3-0.5c-0.1-0.2-0.1-0.4-0.1-0.6c0-0.2,0-0.4,0.1-0.6
			c0.1-0.2,0.2-0.4,0.3-0.5c0.1-0.1,0.3-0.3,0.5-0.3c0.2-0.1,0.4-0.1,0.6-0.1s0.4,0,0.6,0.1c0.2,0.1,0.4,0.2,0.5,0.3
			c0.1,0.1,0.3,0.3,0.3,0.5C114.9,9.1,114.9,9.3,114.9,9.5z M114.5,21.4h-2.4V12h2.4V21.4z M127.8,8.6c0.7,0.7,0.6,1.2,0.5,1.7
			c-0.2,0.7-0.9,0.9-1.5,0.8c-0.8-0.1-1.3-0.7-1.1-1.8c0.1-0.8,0.8-2,1.5-2.4C127.1,7.6,127.3,8.1,127.8,8.6z M125,21.4H122l-1.9-2.9
			l-1.9,2.9h-2.9l3.4-4.8l-3.4-4.6h2.9l1.9,2.7L122,12h2.9l-3.4,4.6L125,21.4z M128.2,21.4h-2.4V12h2.4V21.4z M131.7,21.4h-2.4V12
			h0.6l0.8,1.1c0.4-0.3,0.8-0.6,1.3-0.8c0.5-0.2,1-0.3,1.5-0.3h2.1v2.4h-2.1c-0.2,0-0.5,0-0.7,0.1c-0.2,0.1-0.4,0.2-0.6,0.4
			c-0.2,0.2-0.3,0.4-0.4,0.6c-0.1,0.2-0.1,0.5-0.1,0.7V21.4z"/>
		<g id="deco">
			<path class="deco-color" d="M90.7,20.7c-0.1,0-0.1,0-0.2-0.1l-2.9-2.9c-0.1-0.1-0.1-0.1-0.1-0.2c0-0.1,0-0.1,0.1-0.2l2.2-2.2L87.6,13
				c-0.1-0.1-0.1-0.1-0.1-0.2c0-0.1,0-0.1,0.1-0.2l2.9-2.9c0.1-0.1,0.3-0.1,0.4,0l2.9,2.9c0.1,0.1,0.1,0.1,0.1,0.2
				c0,0.1,0,0.1-0.1,0.2l-2.2,2.2l2.2,2.2c0.1,0.1,0.1,0.1,0.1,0.2c0,0.1,0,0.1-0.1,0.2l-2.9,2.9C90.8,20.7,90.8,20.7,90.7,20.7z"/>
		</g>
	</g>
	<g id="logo">
		<g id="frame">
			<linearGradient id="logo_frame_gradient" gradientUnits="userSpaceOnUse" x1="14.186" y1="50" x2="14.186" y2="-1.818989e-12">
				<stop  offset="0" style="stop-color:#3B4A69"/>
				<stop  offset="1" style="stop-color:#606B85"/>
			</linearGradient>
			<path class="logo_frame" d="M14.2,50c-0.3,0-0.6-0.1-0.9-0.4L0.4,36.7C0.1,36.5,0,36.2,0,35.8c0-0.3,0.1-0.6,0.4-0.9l10-9.9l-10-9.9
				C0.1,14.8,0,14.5,0,14.2c0-0.3,0.1-0.6,0.4-0.9L13.3,0.4c0.5-0.5,1.3-0.5,1.8,0L28,13.3c0.2,0.2,0.4,0.6,0.4,0.9
				c0,0.3-0.1,0.6-0.4,0.9L18,25l10,9.9c0.2,0.2,0.4,0.6,0.4,0.9c0,0.3-0.1,0.6-0.4,0.9L15.1,49.6C14.8,49.9,14.5,50,14.2,50z
				M2,35.8L14.2,48l12.2-12.2l-10-9.9C16.2,25.6,16,25.3,16,25c0-0.3,0.1-0.6,0.4-0.9l10-9.9L14.2,2L2,14.2l10,9.9
				c0.5,0.5,0.5,1.3,0,1.8L2,35.8z"/>
		</g>
		<path id="logo_ruby" class="logotype_ruby" d="M19.1,10.6H9.2L5.8,14l8.4,8.4l8.4-8.4L19.1,10.6z M19.2,15.2l-0.4-1.1l-1-0.4l1-0.4l0.4-1.1
			l0.4,1.1l1,0.4l-1,0.4L19.2,15.2z"/>
		<path id="logo_elixir" class="logotype_elixir" d="M14.5,27.3c-0.1,1.7,0.5,2.9,1.5,4c1.5,1.7,1.5,2.9,1.1,3.8c-0.5,1.6-2.2,2.1-3.6,1.9
			c-1.8-0.3-2.9-1.7-2.5-4.1C11.4,31,12.9,28.4,14.5,27.3z M15.9,40.6c-1.6-0.1-2.1-1.6-4-1.6c-2.1,0-2.9,1.3-2.9,1.3l5.1,5.1
			l5.1-5.1C18.2,39.6,17.3,40.7,15.9,40.6z"/>
	</g>
</svg>
