<?xml version="1.0" encoding="utf-8"?>
<svg version="1.1" class="main_logo_alt" xmlns="http://www.w3.org/2000/svg" xmlns:xlink="http://www.w3.org/1999/xlink" x="0px" y="0px"
	 viewBox="0 0 320 284" style="enable-background:new 0 0 320 284;" xml:space="preserve">
	<style type="text/css">
		.alt_logotype_ruby{fill:url(#alt_logotype_ruby_gradient);}
		.alt_logotype_elixir{fill:url(#alt_logotype_elixir_gradient);}
		.alt_logo_frame{fill:url(#alt_logo_frame_gradient);}
		.alt_logo_ruby{fill:url(#alt_logo_ruby_gradient);}
		.alt_logo_elixir{fill:url(#alt_logo_elixir_gradient);}
	</style>
	<title>Main Logo Alt</title>
	<g class="conf_taiwan_2018 swing-in-bottom-fwd">
		<path class="year logotype-color" d="M89.6,196.2c-0.8,0.8-1.7,1.4-2.8,1.9c-1,0.4-2.1,0.6-3.2,0.6c-1.1,0-2.1-0.2-3.1-0.6
		c-1-0.4-1.9-1-2.8-1.8l-2-2c-0.3-0.3-0.6-0.5-0.9-0.6c-0.3-0.1-0.7-0.2-1-0.2c-0.4,0-0.7,0.1-1,0.2s-0.6,0.3-0.9,0.6l-2,2l9.3,9.4
		l-3.9,4L62,196.2l5.9-6c0.8-0.8,1.7-1.4,2.8-1.8c1-0.4,2.1-0.6,3.2-0.6c1.1,0,2.1,0.2,3.1,0.6c1,0.4,1.9,1,2.8,1.9l2,2
		c0.3,0.3,0.6,0.5,0.9,0.6c0.3,0.1,0.7,0.2,1,0.2c0.4,0,0.7-0.1,1.1-0.2c0.3-0.1,0.7-0.4,0.9-0.6c0.3-0.3,0.5-0.6,0.6-0.9
		c0.1-0.3,0.2-0.7,0.2-1.1c0-0.4-0.1-0.7-0.2-1.1c-0.1-0.3-0.3-0.7-0.6-0.9l-7-7.1l3.9-4l7,7.1c0.8,0.8,1.4,1.8,1.8,2.8
		c0.4,1,0.6,2.1,0.6,3.2c0,1.1-0.2,2.1-0.6,3.2C91,194.4,90.4,195.3,89.6,196.2z M103.6,218.3c-1.9,1.9-3.7,3.3-5.4,4.2
		s-3.3,1.4-4.8,1.5c-1.5,0.1-2.9-0.2-4.2-0.8c-1.3-0.6-2.5-1.5-3.6-2.6s-1.9-2.3-2.5-3.6c-0.6-1.3-0.8-2.8-0.8-4.3
		c0.1-1.5,0.6-3.1,1.5-4.9c0.9-1.7,2.2-3.5,4.1-5.4c1.9-1.9,3.7-3.3,5.4-4.2c1.7-0.9,3.3-1.4,4.8-1.5c1.5-0.1,2.9,0.2,4.2,0.8
		c1.3,0.6,2.5,1.5,3.6,2.6c1.1,1.1,1.9,2.3,2.5,3.6c0.6,1.3,0.8,2.8,0.8,4.3c-0.1,1.5-0.6,3.2-1.4,4.9
		C106.8,214.6,105.5,216.4,103.6,218.3z M99.9,214.5c2.2-2.2,3.5-4.2,3.8-6c0.3-1.8-0.1-3.4-1.5-4.7c-1.3-1.3-2.8-1.8-4.6-1.4
		c-1.8,0.3-3.8,1.6-6,3.9c-2.2,2.2-3.5,4.2-3.8,6c-0.3,1.8,0.1,3.3,1.4,4.6c0.7,0.7,1.4,1.1,2.1,1.4c0.8,0.3,1.6,0.3,2.5,0.1
		c0.9-0.2,1.8-0.6,2.8-1.2C97.7,216.5,98.8,215.6,99.9,214.5z M101.9,236.4l-3.9-4l15.8-15.9l-2-2l3.9-4l5.9,6L101.9,236.4z
		M126.1,241.1h6.2c0.7,0,1.3-0.3,1.8-0.7c0.5-0.5,0.7-1.1,0.7-1.8l0-10.5c0-0.7-0.3-1.3-0.7-1.8c-0.5-0.5-1.1-0.7-1.8-0.7l-10.4,0
		c-0.7,0-1.3,0.3-1.8,0.7c-0.5,0.5-0.7,1.1-0.7,1.8v6.3l-6.2,0c-0.7,0-1.3,0.3-1.8,0.7c-0.5,0.5-0.7,1.1-0.7,1.8l0,10.5
		c0,0.7,0.3,1.3,0.7,1.8c0.5,0.5,1.1,0.7,1.8,0.7l10.4,0c0.7,0,1.3-0.3,1.8-0.7c0.5-0.5,0.7-1.1,0.7-1.8V241.1z M124,230.2l6.2,0
		l0,6.2l-6.2,0L124,230.2z M121.5,239l0,6.2l-6.2,0l0-6.2L121.5,239z"/>
		<path class="conf logotype-color" d="M172.9,268.6c-0.1,1.7-0.5,3.4-1.3,4.9c-0.7,1.6-1.7,3-2.9,4.2c-0.9,0.9-2,1.7-3.1,2.4
		c-1.1,0.6-2.3,1.1-3.5,1.4c-1.2,0.3-2.4,0.5-3.7,0.5c-1.2,0-2.5-0.2-3.7-0.5c-1.2-0.3-2.4-0.8-3.5-1.4c-1.1-0.6-2.1-1.4-3.1-2.4
		s-1.7-2-2.3-3.1c-0.6-1.1-1.1-2.3-1.4-3.5c-0.3-1.2-0.5-2.4-0.5-3.7c0-1.3,0.2-2.5,0.5-3.7c0.3-1.2,0.8-2.4,1.4-3.5
		c0.6-1.1,1.4-2.1,2.3-3.1c1.2-1.2,2.6-2.2,4.2-2.9c1.6-0.7,3.2-1.1,4.9-1.3l1.3,5.6c-1.2,0-2.4,0.2-3.5,0.6c-1.1,0.5-2.1,1.1-3,2
		c-0.9,0.9-1.5,1.9-2,3s-0.6,2.2-0.7,3.4c0,1.1,0.2,2.3,0.6,3.4c0.4,1.1,1.1,2.1,1.9,3c0.9,0.9,1.8,1.5,2.9,1.9s2.2,0.6,3.3,0.6
		c1.1,0,2.2-0.2,3.3-0.7s2.1-1.1,2.9-2c0.9-0.9,1.5-1.9,2-3c0.5-1.1,0.7-2.3,0.6-3.5L172.9,268.6z M183.1,247.4
		c1.1,1.1,1.9,2.3,2.5,3.7c0.6,1.4,0.8,2.7,0.9,4.1c0,1.4-0.2,2.7-0.7,4.1c-0.5,1.3-1.3,2.5-2.3,3.6c-1,1-2.2,1.8-3.5,2.3
		c-1.3,0.5-2.7,0.8-4,0.8c-1.4,0-2.7-0.3-4.1-0.9s-2.6-1.4-3.7-2.5c-1.1-1.1-2-2.4-2.5-3.7c-0.6-1.4-0.8-2.7-0.9-4.1
		c0-1.4,0.2-2.7,0.8-4.1c0.5-1.3,1.3-2.5,2.3-3.5c1-1.1,2.2-1.9,3.5-2.4c1.3-0.5,2.6-0.8,4-0.8c1.4,0,2.7,0.3,4.1,0.9
		C180.6,245.3,181.9,246.2,183.1,247.4z M179.3,251.2c-0.6-0.6-1.3-1.1-1.9-1.4c-0.7-0.3-1.4-0.5-2.1-0.5c-0.7,0-1.4,0.1-2,0.4
		c-0.6,0.3-1.2,0.7-1.7,1.2c-0.5,0.5-0.9,1.1-1.2,1.7c-0.3,0.6-0.4,1.3-0.4,2c0,0.7,0.2,1.4,0.5,2.1c0.3,0.7,0.7,1.3,1.4,1.9
		c0.6,0.6,1.2,1,1.9,1.3c0.7,0.3,1.4,0.5,2.1,0.5c0.7,0,1.4-0.1,2-0.3c0.7-0.2,1.2-0.6,1.8-1.2s0.9-1.1,1.2-1.8
		c0.3-0.7,0.4-1.3,0.4-2c0-0.7-0.2-1.4-0.5-2.1C180.3,252.4,179.9,251.8,179.3,251.2z M196,249.5l-3.8,3.8l-14.7-14.8l0.9-0.9
		l2.7,0.2c0.1-1.2,0.3-2.3,0.8-3.4c0.5-1.1,1.1-2,2-2.9c0.9-0.9,1.9-1.6,3.1-2s2.3-0.7,3.5-0.7c1.2,0,2.4,0.2,3.5,0.7
		c1.1,0.5,2.2,1.2,3.1,2.1l8.4,8.5l-3.8,3.8l-8.4-8.5c-0.4-0.4-0.8-0.7-1.3-0.9s-1-0.3-1.5-0.3c-0.5,0-1,0.1-1.5,0.3
		c-0.5,0.2-0.9,0.5-1.3,0.9c-0.4,0.4-0.7,0.8-0.9,1.3c-0.2,0.5-0.3,1-0.3,1.5c0,0.5,0.1,1,0.3,1.5c0.2,0.5,0.5,0.9,0.9,1.3
		L196,249.5z M212.2,233.1l-3.8,3.8l-11-11.1l-1.8,1.8l-3.7-3.8l1.8-1.8l-0.7-0.7c-0.9-0.9-1.6-1.9-2-3.1c-0.5-1.2-0.7-2.3-0.7-3.5
		c0-1.2,0.2-2.4,0.7-3.5s1.1-2.2,2-3.1l2.8-2.8l3.7,3.8l-2.8,2.8c-0.4,0.4-0.7,0.9-0.9,1.3c-0.2,0.5-0.3,1-0.3,1.5
		c0,0.5,0.1,1,0.3,1.5c0.2,0.5,0.5,0.9,0.9,1.4l0.7,0.7l4.6-4.6l3.7,3.8l-4.6,4.6L212.2,233.1z"/>
		<path class="taiwan logotype-color" d="M237.6,207.5l-3.9,4l-15.8-15.9l-5.9,6l-3.9-4l15.8-15.9l3.9,4l-5.9,6L237.6,207.5z M257.1,187.8
		l-0.9,0.9l-3.5-0.6c0,0.7-0.1,1.4-0.2,2c-0.1,0.7-0.3,1.4-0.5,2c-0.2,0.7-0.5,1.3-0.9,1.9c-0.3,0.6-0.8,1.1-1.2,1.6
		c-1,1-2.2,1.8-3.4,2.4c-1.3,0.6-2.6,0.9-3.9,0.9c-1.3,0-2.7-0.3-4.1-0.8c-1.4-0.6-2.6-1.5-3.9-2.7c-1.1-1.2-2-2.4-2.6-3.8
		c-0.6-1.4-0.8-2.7-0.9-4.1c0-1.4,0.3-2.7,0.8-4c0.5-1.3,1.3-2.5,2.3-3.5c0.5-0.5,1-0.9,1.6-1.2c0.6-0.4,1.2-0.6,1.9-0.9
		c0.7-0.2,1.3-0.4,2-0.5c0.7-0.1,1.4-0.2,2-0.2l-0.3-3.2l0.9-0.9L257.1,187.8z M245.8,184.1c-0.5-0.5-1.1-0.9-1.8-1.2
		c-0.7-0.3-1.4-0.4-2.1-0.5c-0.7,0-1.4,0.1-2.1,0.3c-0.7,0.2-1.3,0.6-1.8,1.1c-0.5,0.5-0.9,1.1-1.2,1.7c-0.3,0.6-0.4,1.3-0.4,2
		c0,0.7,0.2,1.4,0.5,2.1c0.3,0.7,0.8,1.4,1.4,2c0.6,0.6,1.3,1.1,2,1.4c0.7,0.3,1.4,0.5,2,0.5c0.7,0,1.3-0.1,2-0.4
		c0.6-0.3,1.2-0.7,1.7-1.2c0.5-0.5,0.9-1.1,1.1-1.8c0.2-0.7,0.3-1.4,0.3-2.1c0-0.7-0.2-1.4-0.5-2.1
		C246.7,185.2,246.3,184.6,245.8,184.1z M245.7,161.6c0.3,0.4,0.6,0.7,0.8,1.2c0.2,0.4,0.3,0.9,0.2,1.3c0,0.5-0.1,0.9-0.3,1.4
		c-0.2,0.4-0.4,0.8-0.8,1.2c-0.3,0.4-0.7,0.6-1.2,0.8c-0.4,0.2-0.9,0.3-1.3,0.3c-0.4,0-0.9-0.1-1.3-0.3c-0.4-0.2-0.8-0.4-1.2-0.8
		c-0.3-0.3-0.6-0.7-0.8-1.2c-0.2-0.4-0.3-0.9-0.3-1.3c0-0.5,0.1-0.9,0.3-1.3c0.2-0.4,0.4-0.8,0.8-1.2c0.3-0.4,0.7-0.6,1.2-0.8
		c0.4-0.2,0.9-0.3,1.3-0.3c0.5,0,0.9,0.1,1.3,0.3C244.9,161,245.3,161.3,245.7,161.6z M263.7,181.1l-3.8,3.8l-14.7-14.8l3.8-3.8
		L263.7,181.1z M279.8,154.2c0.8,0.8,1.3,1.7,1.7,2.6c0.4,1,0.6,2,0.6,3c0,1-0.2,2-0.6,3c-0.4,1-1,1.9-1.8,2.7
		c-0.7,0.7-1.5,1.3-2.4,1.7c-0.9,0.4-1.8,0.6-2.8,0.7c0,1-0.3,1.9-0.7,2.8c-0.4,0.9-0.9,1.7-1.6,2.4c-0.8,0.8-1.7,1.4-2.6,1.8
		c-1,0.4-2,0.6-3,0.6c-1,0-2-0.2-3-0.6c-1-0.4-1.8-1-2.6-1.8l-9.4-9.4l3.7-3.8l9.4,9.4c0.3,0.3,0.5,0.5,0.9,0.6
		c0.3,0.1,0.6,0.2,1,0.2c0.3,0,0.7-0.1,1-0.2c0.3-0.1,0.6-0.3,0.9-0.6c0.3-0.3,0.5-0.6,0.6-0.9c0.1-0.3,0.2-0.7,0.2-1
		c0-0.3-0.1-0.7-0.2-1c-0.1-0.3-0.3-0.6-0.6-0.9l-9.4-9.4l3.7-3.8l9.4,9.4c0.3,0.3,0.5,0.5,0.9,0.6c0.3,0.1,0.7,0.2,1,0.2
		c0.3,0,0.7-0.1,1-0.2c0.3-0.1,0.6-0.3,0.9-0.6s0.5-0.6,0.6-0.9c0.1-0.3,0.2-0.7,0.2-1c0-0.3-0.1-0.7-0.2-1
		c-0.1-0.3-0.3-0.6-0.6-0.9l-9.4-9.4l3.7-3.8L279.8,154.2z M302.1,142.4l-0.9,0.9l-3.5-0.6c0,0.7-0.1,1.4-0.2,2
		c-0.1,0.7-0.3,1.4-0.5,2c-0.2,0.7-0.5,1.3-0.9,1.9c-0.3,0.6-0.8,1.1-1.2,1.6c-1,1-2.2,1.8-3.4,2.4c-1.3,0.6-2.6,0.9-3.9,0.9
		c-1.3,0-2.7-0.3-4.1-0.8c-1.4-0.6-2.6-1.5-3.9-2.7c-1.1-1.2-2-2.4-2.6-3.8c-0.6-1.4-0.8-2.7-0.9-4.1c0-1.4,0.3-2.7,0.8-4
		c0.5-1.3,1.3-2.5,2.3-3.5c0.5-0.5,1-0.9,1.6-1.2s1.2-0.6,1.9-0.9c0.7-0.2,1.3-0.4,2-0.5c0.7-0.1,1.4-0.2,2-0.2l-0.3-3.2l0.9-0.9
		L302.1,142.4z M290.8,138.7c-0.5-0.5-1.1-0.9-1.8-1.2c-0.7-0.3-1.4-0.4-2.1-0.5c-0.7,0-1.4,0.1-2.1,0.3c-0.7,0.2-1.3,0.6-1.8,1.1
		c-0.5,0.5-0.9,1.1-1.2,1.7c-0.3,0.6-0.4,1.3-0.4,2c0,0.7,0.2,1.4,0.5,2.1c0.3,0.7,0.8,1.4,1.4,2c0.6,0.6,1.3,1.1,2,1.4
		c0.7,0.3,1.4,0.5,2,0.5c0.7,0,1.3-0.1,2-0.4c0.6-0.3,1.2-0.7,1.7-1.2c0.5-0.5,0.9-1.1,1.1-1.8c0.2-0.7,0.3-1.4,0.3-2.1
		c0-0.7-0.2-1.4-0.5-2.1C291.8,139.8,291.4,139.2,290.8,138.7z M308.1,136.4l-3.7,3.8l-14.7-14.8l0.9-0.9l2.7,0.2
		c0.1-1.2,0.3-2.3,0.8-3.4c0.5-1.1,1.1-2,2-2.9c0.9-0.9,1.9-1.6,3.1-2c1.1-0.5,2.3-0.7,3.5-0.7c1.2,0,2.4,0.2,3.5,0.7
		c1.1,0.5,2.2,1.1,3.1,2.1l8.4,8.5l-3.7,3.8l-8.4-8.5c-0.4-0.4-0.8-0.7-1.3-0.9c-0.5-0.2-1-0.3-1.5-0.3c-0.5,0-1,0.1-1.5,0.3
		c-0.5,0.2-0.9,0.5-1.3,0.9c-0.4,0.4-0.7,0.8-0.9,1.3c-0.2,0.5-0.3,1-0.3,1.5s0.1,1,0.3,1.5c0.2,0.5,0.5,0.9,0.9,1.3L308.1,136.4z"
		/>
	</g>
	<g class="logotype">
		<linearGradient id="alt_logotype_ruby_gradient" gradientUnits="userSpaceOnUse" x1="966.176" y1="-285.9514" x2="966.176" y2="-335.7051" gradientTransform="matrix(0.7071 -0.7071 0.7071 0.7071 -401.9659 1045.5944)">
			<stop  offset="0" style="stop-color:#C02224"/>
			<stop  offset="0.1794" style="stop-color:#C12726"/>
			<stop  offset="0.3653" style="stop-color:#C4332B"/>
			<stop  offset="0.5543" style="stop-color:#C94435"/>
			<stop  offset="0.7453" style="stop-color:#D05947"/>
			<stop  offset="0.9361" style="stop-color:#DA7463"/>
			<stop  offset="1" style="stop-color:#DE7F6F"/>
		</linearGradient>
		<path class="alt_logotype_ruby roll-in-left" d="M34.2,190.4l-5.3,5.3L2.5,169.1l10.6-10.7c1-1,2-1.8,3.2-2.4c1.1-0.7,2.3-1.1,3.6-1.5
			c1.2-0.3,2.5-0.5,3.8-0.5c1.3,0,2.6,0.2,3.8,0.5c1.2,0.3,2.4,0.8,3.6,1.5c1.1,0.7,2.2,1.5,3.2,2.4c0.9,0.9,1.7,1.9,2.3,3
			c0.6,1.1,1.1,2.2,1.5,3.5c0.4,1.2,0.5,2.4,0.6,3.7c0,1.3-0.1,2.5-0.4,3.8l9.8,4l-5.6,5.7l-7.6-3l-5.9,6L34.2,190.4z M13.1,169.1
			l10.6,10.7l5.3-5.3c0.7-0.7,1.3-1.6,1.6-2.5c0.4-0.9,0.5-1.9,0.5-2.8c0-1-0.2-1.9-0.6-2.8c-0.4-0.9-0.9-1.8-1.6-2.5
			c-0.7-0.7-1.5-1.3-2.5-1.7c-0.9-0.4-1.9-0.6-2.8-0.6s-1.9,0.2-2.8,0.5s-1.7,0.9-2.5,1.6L13.1,169.1z M65.3,154.4
			c0,0.8-0.1,1.6-0.3,2.4c-0.1,0.8-0.3,1.6-0.6,2.3c-0.3,0.7-0.6,1.5-1,2.1c-0.4,0.7-0.9,1.3-1.4,1.9c-1.2,1.2-2.6,2.2-4.1,2.8
			c-1.5,0.6-3,1-4.6,1c-1.6,0-3.2-0.3-4.8-1c-1.6-0.7-3.1-1.7-4.5-3.2l-10.9-11l5-5.1l10.9,11c0.7,0.7,1.4,1.2,2.1,1.5
			c0.7,0.3,1.4,0.5,2.1,0.5c0.7,0,1.4-0.1,2-0.4c0.6-0.3,1.2-0.7,1.8-1.2c0.5-0.5,0.9-1.1,1.1-1.8c0.2-0.7,0.3-1.4,0.3-2.2
			c0-0.7-0.2-1.5-0.5-2.2c-0.3-0.7-0.7-1.3-1.2-1.8l-10.9-11l5-5.1l19.7,19.9l-1.2,1.2L65.3,154.4z M109,130.2l-5.1-5.1l2.8-2.8
			c0.5-0.5,0.9-1.1,1.2-1.7c0.3-0.6,0.5-1.3,0.6-1.9c0.1-0.7,0.1-1.4,0-2c-0.1-0.7-0.3-1.4-0.5-2c-0.3,0.8-0.6,1.6-1,2.4
			c-0.3,0.8-0.8,1.5-1.4,2.1c-1.2,1.2-2.6,2.2-4.1,2.8s-3,1-4.6,1c-1.6,0-3.2-0.3-4.8-1c-1.6-0.7-3.1-1.7-4.5-3.2l-10.9-11l5-5.1
			l10.9,11c0.7,0.7,1.4,1.2,2.1,1.5c0.7,0.3,1.4,0.5,2.1,0.5s1.4-0.1,2-0.4c0.6-0.3,1.2-0.7,1.7-1.2c0.5-0.5,0.9-1.1,1.1-1.8
			c0.2-0.7,0.3-1.4,0.3-2.2c0-0.7-0.2-1.5-0.5-2.2c-0.3-0.7-0.7-1.3-1.2-1.8L89.3,95l5.1-5.1l17.2,17.4c1.4,1.4,2.4,3,3.1,4.8
			s1,3.6,1,5.4c0,1.8-0.4,3.6-1,5.4c-0.7,1.8-1.7,3.3-3.1,4.7L109,130.2z M78.8,116.8c-1.8-0.7-3.6-1.1-5.5-1.2c-1.8,0-3.6,0.3-5.4,1
			c-1.7,0.7-3.3,1.8-4.7,3.2c-0.5,0.5-0.9,1-1.3,1.6c-0.4,0.6-0.7,1.2-1,1.8c-0.3,0.6-0.5,1.3-0.6,1.9c-0.1,0.7-0.1,1.3-0.1,1.9
			l-9.2-9.3l-5,5.1l17.5,17.7c1.5,1.5,3.2,2.7,5,3.4c1.8,0.7,3.6,1.1,5.5,1.1c1.8,0,3.6-0.3,5.4-1.1c1.7-0.7,3.3-1.8,4.7-3.2
			c1.4-1.4,2.5-3,3.2-4.7c0.7-1.7,1.1-3.5,1.1-5.4c0-1.8-0.4-3.7-1.1-5.5c-0.7-1.8-1.9-3.5-3.4-5.1C82.3,118.7,80.6,117.5,78.8,116.8z
			M79,135.6l-11.9-0.4l-0.4-5.9l6-6l5.8,0.4L79,135.6z"/>
		<linearGradient id="alt_logotype_elixir_gradient" gradientUnits="userSpaceOnUse" x1="1155.6155" y1="-395.0706" x2="1155.6155" y2="-439.096" gradientTransform="matrix(0.7071 -0.7071 0.7071 0.7071 -273.2614 1195.9261)">
			<stop  offset="0" style="stop-color:#612E82"/>
			<stop  offset="0.181" style="stop-color:#633284"/>
			<stop  offset="0.3686" style="stop-color:#6A3B89"/>
			<stop  offset="0.5592" style="stop-color:#764B91"/>
			<stop  offset="0.7518" style="stop-color:#86629F"/>
			<stop  offset="0.9443" style="stop-color:#9D82B4"/>
			<stop  offset="1" style="stop-color:#A58DBB"/>
		</linearGradient>
		<path class="alt_logotype_elixir roll-in-right" d="M242.6,121.2l-18.1,18.3L198,112.9l18.1-18.3l5.3,5.3l-12.8,12.9l5.3,5.3l8.7-8.8
		l5.3,5.3l-8.7,8.8l5.3,5.3l12.8-12.9L242.6,121.2z M250.8,112.9l-5.1,5.1l-27.6-27.8l5.1-5.1L250.8,112.9z M235.5,77.8
		c0.5,0.5,0.8,1,1,1.6c0.2,0.6,0.3,1.2,0.3,1.8c0,0.6-0.1,1.2-0.4,1.8c-0.2,0.6-0.6,1.1-1.1,1.6c-0.5,0.5-1,0.8-1.6,1.1
		c-0.6,0.2-1.2,0.4-1.8,0.4c-0.6,0-1.2-0.1-1.8-0.3c-0.6-0.2-1.1-0.6-1.6-1c-0.5-0.5-0.8-1-1-1.6c-0.2-0.6-0.4-1.2-0.4-1.8
		c0-0.6,0.1-1.2,0.4-1.8c0.2-0.6,0.6-1.1,1.1-1.6c0.5-0.5,1-0.8,1.6-1.1c0.6-0.2,1.2-0.4,1.8-0.4c0.6,0,1.2,0.1,1.8,0.3
		C234.5,77,235,77.3,235.5,77.8z M259.7,103.9l-5.1,5.1l-19.7-19.9L240,84L259.7,103.9z M260.7,48.4c3,0.2,4,1.3,4.6,2.5
		c1,1.9-0.1,3.9-1.6,5c-1.9,1.4-4.3,1.2-6.1-1.5c-1.5-2.1-2.5-5.9-2-8.4C257.1,47.8,258.6,48.3,260.7,48.4z M281.7,81.8l-6.2,6.2
		l-10-2.1l2.1,10.1l-6.2,6.2l-2.9-17.5l-16.9-2.5l6.2-6.2l9.6,1.7l-1.7-9.7l6.2-6.2l2.5,17.1L281.7,81.8z M288.6,74.8l-5.1,5.1
		l-19.7-19.9l5.1-5.1L288.6,74.8z M295.9,67.4l-5,5.1l-19.7-19.9l1.2-1.2l4,0.7c0.1-1.6,0.4-3.1,1.1-4.5c0.6-1.4,1.5-2.7,2.6-3.8
		l4.4-4.5l5,5.1l-4.4,4.5c-0.5,0.5-0.9,1.1-1.2,1.8c-0.3,0.7-0.4,1.4-0.4,2c0,0.7,0.1,1.4,0.4,2c0.3,0.7,0.7,1.3,1.2,1.8L295.9,67.4z
		"/>
	</g>
	<g class="logo rotate-center">
		<linearGradient id="alt_logo_frame_gradient" gradientUnits="userSpaceOnUse" x1="156.1897" y1="223.3393" x2="156.1897" y2="2">
			<stop  offset="0" style="stop-color:#3A4967"/>
			<stop  offset="1" style="stop-color:#5F6A83"/>
		</linearGradient>
		<path class="alt_logo_frame" d="M156.2,223.3c-1.4,0-2.8-0.5-3.9-1.6l-56.7-57.2c-1-1-1.6-2.4-1.6-3.9
		c0-1.5,0.6-2.9,1.6-3.9l43.7-44l-43.7-44c-1-1-1.6-2.4-1.6-3.9c0-1.5,0.6-2.9,1.6-3.9l56.7-57.2c2.1-2.2,5.6-2.2,7.8,0l56.7,57.2
		c1,1,1.6,2.4,1.6,3.9c0,1.5-0.6,2.9-1.6,3.9l-43.7,44l43.7,44c1,1,1.6,2.4,1.6,3.9c0,1.5-0.6,2.9-1.6,3.9l-56.7,57.2
		C159,222.8,157.6,223.3,156.2,223.3z M102.8,160.6l53.4,53.8l53.4-53.8l-43.7-44c-1-1-1.6-2.4-1.6-3.9c0-1.5,0.6-2.9,1.6-3.9
		l43.6-44l-53.4-53.8l-53.4,53.8l43.7,44c2.1,2.2,2.1,5.7,0,7.8L102.8,160.6z"/>
		<linearGradient id="alt_logo_ruby_gradient" gradientUnits="userSpaceOnUse" x1="156.1897" y1="100.8628" x2="156.1897" y2="48.7272">
			<stop  offset="0" style="stop-color:#C02224"/>
			<stop  offset="0.1794" style="stop-color:#C12726"/>
			<stop  offset="0.3653" style="stop-color:#C4332B"/>
			<stop  offset="0.5543" style="stop-color:#C94435"/>
			<stop  offset="0.7453" style="stop-color:#D05947"/>
			<stop  offset="0.9361" style="stop-color:#DA7463"/>
			<stop  offset="1" style="stop-color:#DE7F6F"/>
		</linearGradient>
		<path class="alt_logo_ruby" d="M177.9,48.7h-43.5l-15,15.1l36.7,37l36.7-37L177.9,48.7z M178,69.3l-1.7-4.9l-4.6-2l4.6-2
			l1.7-4.9l1.7,4.9l4.4,2l-4.4,2L178,69.3z"/>
		<linearGradient id="alt_logo_elixir_gradient" gradientUnits="userSpaceOnUse" x1="156.1897" y1="203.2483" x2="156.1897" y2="122.8813">
			<stop  offset="0" style="stop-color:#612E82"/>
			<stop  offset="0.181" style="stop-color:#633284"/>
			<stop  offset="0.3686" style="stop-color:#6A3B89"/>
			<stop  offset="0.5592" style="stop-color:#764B91"/>
			<stop  offset="0.7518" style="stop-color:#86629F"/>
			<stop  offset="0.9443" style="stop-color:#9D82B4"/>
			<stop  offset="1" style="stop-color:#A58DBB"/>
		</linearGradient>
		<path class="alt_logo_elixir" d="M157.6,122.9c-0.4,7.7,2.1,12.6,6.8,17.9c6.8,7.6,6.4,12.7,4.9,17
			c-2.3,6.9-9.6,9.1-15.6,8.3c-7.8-1.1-12.9-7.5-11.1-18.2C144,139.3,150.7,127.8,157.6,122.9z M163.9,181.6c-6.8-0.6-9.4-6.9-17.5-7
			c-9.4-0.1-12.6,5.9-12.6,5.9l22.5,22.7l22.4-22.6C174,177.4,169.8,182.1,163.9,181.6z"/>
	</g>
</svg>
