<?xml version="1.0" encoding="UTF-8"?>
<svg width="30px" height="20px" viewBox="0 0 30 20" version="1.1" xmlns="http://www.w3.org/2000/svg" xmlns:xlink="http://www.w3.org/1999/xlink">
	<title>Menu</title>
	<linearGradient x1="50%" y1="100%" x2="50%" y2="0%" id="main_gradient">
		<stop stop-color="#652F8B" offset="0%"></stop>
		<stop stop-color="#CC1D23" offset="100%"></stop>
	</linearGradient>
	<g stroke="none" stroke-width="1" fill="none" fill-rule="evenodd">
		<g transform="translate(-270.000000, -25.000000)" fill="url(#main_gradient)">
			<path d="M270.36036,26.9181586 C270.24024,26.7988059 270.15015,26.6751925 270.09009,26.5473146 C270.03003,26.4194367 270,26.2702481 270,26.0997442 C270,25.9462908 270.03003,25.8013647 270.09009,25.6649616 C270.15015,25.5285586 270.24024,25.4092077 270.36036,25.3069054 C270.480481,25.2046031 270.62062,25.1278775 270.780781,25.0767263 C270.940942,25.0255752 271.11111,25 271.291291,25 L298.708709,25 C298.88889,25 299.059058,25.0255752 299.219219,25.0767263 C299.37938,25.1278775 299.519519,25.2046031 299.63964,25.3069054 C299.75976,25.4092077 299.84985,25.5285586 299.90991,25.6649616 C299.96997,25.8013647 300,25.9462908 300,26.0997442 C300,26.2702481 299.96997,26.4194367 299.90991,26.5473146 C299.84985,26.6751925 299.75976,26.7988059 299.63964,26.9181586 C299.519519,27.0204609 299.37938,27.0971864 299.219219,27.1483376 C299.059058,27.1994887 298.88889,27.2250639 298.708709,27.2250639 L271.291291,27.2250639 C271.11111,27.2250639 270.940942,27.1994887 270.780781,27.1483376 C270.62062,27.0971864 270.480481,27.0204609 270.36036,26.9181586 Z M299.63964,34.2071611 C299.75976,34.3094634 299.84985,34.4288143 299.90991,34.5652174 C299.96997,34.7016205 300,34.8465465 300,35 C300,35.1534535 299.96997,35.2983795 299.90991,35.4347826 C299.84985,35.5711857 299.75976,35.6905366 299.63964,35.7928389 C299.519519,35.8951412 299.37938,35.9718668 299.219219,36.0230179 C299.059058,36.0741691 298.88889,36.0997442 298.708709,36.0997442 L271.291291,36.0997442 C271.11111,36.0997442 270.940942,36.0741691 270.780781,36.0230179 C270.62062,35.9718668 270.480481,35.8951412 270.36036,35.7928389 C270.24024,35.6905366 270.15015,35.5711857 270.09009,35.4347826 C270.03003,35.2983795 270,35.1534535 270,35 C270,34.8465465 270.03003,34.7016205 270.09009,34.5652174 C270.15015,34.4288143 270.24024,34.3094634 270.36036,34.2071611 C270.480481,34.1048588 270.62062,34.0281332 270.780781,33.9769821 C270.940942,33.9258309 271.11111,33.9002558 271.291291,33.9002558 L298.708709,33.9002558 C298.88889,33.9002558 299.059058,33.9258309 299.219219,33.9769821 C299.37938,34.0281332 299.519519,34.1048588 299.63964,34.2071611 Z M299.63964,43.0818414 C299.75976,43.1841437 299.84985,43.3034946 299.90991,43.4398977 C299.96997,43.5763008 300,43.7212269 300,43.8746803 C300,44.0451841 299.96997,44.1943728 299.90991,44.3222506 C299.84985,44.4501285 299.75976,44.5737419 299.63964,44.6930946 C299.519519,44.7953969 299.37938,44.8721225 299.219219,44.9232737 C299.059058,44.9744248 298.88889,45 298.708709,45 L271.291291,45 C271.11111,45 270.940942,44.9744248 270.780781,44.9232737 C270.62062,44.8721225 270.480481,44.7953969 270.36036,44.6930946 C270.24024,44.5737419 270.15015,44.4501285 270.09009,44.3222506 C270.03003,44.1943728 270,44.0451841 270,43.8746803 C270,43.7212269 270.03003,43.5763008 270.09009,43.4398977 C270.15015,43.3034946 270.24024,43.1841437 270.36036,43.0818414 C270.480481,42.9795391 270.62062,42.9028136 270.780781,42.8516624 C270.940942,42.8005113 271.11111,42.7749361 271.291291,42.7749361 L298.708709,42.7749361 C298.88889,42.7749361 299.059058,42.8005113 299.219219,42.8516624 C299.37938,42.9028136 299.519519,42.9795391 299.63964,43.0818414 Z" id="menu"></path>
		</g>
	</g>
</svg>