<?xml version="1.0" encoding="UTF-8"?>
<svg width="183px" height="50px" viewBox="0 0 183 50" version="1.1" xmlns="http://www.w3.org/2000/svg" xmlns:xlink="http://www.w3.org/1999/xlink">
    <!-- Generator: Sketch 47 (45396) - http://www.bohemiancoding.com/sketch -->
    <title>logo_nav</title>
    <desc>Created with Sketch.</desc>
    <defs>
        <linearGradient x1="49.9782178%" y1="99.9343373%" x2="49.9782178%" y2="-0.142168675%" id="linearGradient-1">
            <stop stop-color="#CB1D23" offset="0%"></stop>
            <stop stop-color="#CC2126" offset="19.4%"></stop>
            <stop stop-color="#D02E30" offset="39.49%"></stop>
            <stop stop-color="#D64240" offset="59.91%"></stop>
            <stop stop-color="#DE5F56" offset="80.42%"></stop>
            <stop stop-color="#E88271" offset="100%"></stop>
        </linearGradient>
        <linearGradient x1="50.0579365%" y1="99.7731034%" x2="50.0579365%" y2="-0.437241379%" id="linearGradient-2">
            <stop stop-color="#65308A" offset="0%"></stop>
            <stop stop-color="#68348C" offset="19.91%"></stop>
            <stop stop-color="#714194" offset="40.54%"></stop>
            <stop stop-color="#7F55A0" offset="61.5%"></stop>
            <stop stop-color="#9472B1" offset="82.55%"></stop>
            <stop stop-color="#A990C2" offset="100%"></stop>
        </linearGradient>
        <linearGradient x1="49.9507042%" y1="100%" x2="49.9507042%" y2="-0.0500250125%" id="linearGradient-3">
            <stop stop-color="#3B4A69" offset="0%"></stop>
            <stop stop-color="#606B85" offset="100%"></stop>
        </linearGradient>
        <linearGradient x1="49.9166667%" y1="99.4313559%" x2="49.9166667%" y2="-0.376271186%" id="linearGradient-4">
            <stop stop-color="#CB1D23" offset="0%"></stop>
            <stop stop-color="#CC2126" offset="19.4%"></stop>
            <stop stop-color="#D02E30" offset="39.49%"></stop>
            <stop stop-color="#D64240" offset="59.91%"></stop>
            <stop stop-color="#DE5F56" offset="80.42%"></stop>
            <stop stop-color="#E88271" offset="100%"></stop>
        </linearGradient>
        <linearGradient x1="50.8431373%" y1="100.339779%" x2="50.8431373%" y2="0.0375690608%" id="linearGradient-5">
            <stop stop-color="#65308A" offset="0%"></stop>
            <stop stop-color="#68348C" offset="19.91%"></stop>
            <stop stop-color="#714194" offset="40.54%"></stop>
            <stop stop-color="#7F55A0" offset="61.5%"></stop>
            <stop stop-color="#9472B1" offset="82.55%"></stop>
            <stop stop-color="#A990C2" offset="100%"></stop>
        </linearGradient>
    </defs>
    <g id="Main" stroke="none" stroke-width="1" fill="none" fill-rule="evenodd">
        <g id="Desktop" transform="translate(-208.000000, -10.000000)" fill-rule="nonzero">
            <g id="Navbar">
                <g id="logo_nav" transform="translate(208.000000, 10.000000)">
                    <g id="logotype" transform="translate(41.000000, 6.000000)">
                        <g id="Group" transform="translate(0.000000, 21.000000)" fill="#3F4C6B">
                            <g id="Shape">
                                <path d="M10.8,13.5 C10.2,14 9.6,14.4 8.8,14.6 C8.1,14.9 7.3,15 6.6,15 C6,15 5.4,14.9 4.9,14.8 C4.4,14.6 3.8,14.4 3.4,14.1 C2.9,13.8 2.5,13.5 2.1,13.1 C1.7,12.7 1.4,12.3 1.1,11.8 C0.8,11.3 0.6,10.8 0.4,10.3 C0.2,9.8 0.2,9.2 0.2,8.6 C0.2,8 0.3,7.4 0.4,6.9 C0.6,6.3 0.8,5.8 1.1,5.4 C1.4,4.9 1.7,4.5 2.1,4.1 C2.5,3.7 2.9,3.4 3.4,3.1 C3.9,2.8 4.4,2.6 4.9,2.4 C5.4,2.2 6,2.2 6.6,2.2 C7.4,2.2 8.1,2.3 8.8,2.6 C9.5,2.9 10.2,3.2 10.8,3.8 L9.5,6 C9.1,5.6 8.7,5.3 8.2,5.1 C7.7,4.9 7.2,4.8 6.6,4.8 C6,4.8 5.5,4.9 5,5.1 C4.5,5.3 4.1,5.6 3.7,5.9 C3.3,6.3 3.1,6.7 2.8,7.2 C2.6,7.7 2.5,8.2 2.5,8.7 C2.5,9.2 2.6,9.8 2.8,10.2 C3,10.7 3.3,11.1 3.7,11.5 C4.1,11.9 4.5,12.1 5,12.4 C5.5,12.6 6,12.7 6.6,12.7 C7.1,12.7 7.7,12.6 8.2,12.4 C8.7,12.2 9.1,11.9 9.5,11.5 L10.8,13.5 Z"></path>
                                <path d="M20.7,10.1 C20.7,10.8 20.6,11.4 20.3,12 C20.1,12.6 19.7,13.1 19.3,13.6 C18.9,14 18.4,14.4 17.8,14.6 C17.2,14.9 16.6,15 15.9,15 C15.2,15 14.6,14.9 14,14.6 C13.4,14.3 12.9,14 12.5,13.6 C12.1,13.2 11.7,12.6 11.5,12 C11.3,11.4 11.1,10.7 11.1,10.1 C11.1,9.4 11.2,8.7 11.5,8.1 C11.7,7.5 12.1,7 12.5,6.5 C12.9,6.1 13.4,5.7 14,5.5 C14.6,5.3 15.2,5.1 15.9,5.1 C16.6,5.1 17.2,5.2 17.8,5.5 C18.4,5.7 18.9,6.1 19.3,6.5 C19.7,6.9 20.1,7.5 20.3,8.1 C20.6,8.7 20.7,9.3 20.7,10.1 Z M18.3,10.1 C18.3,9.7 18.2,9.4 18.1,9.1 C18,8.8 17.8,8.5 17.6,8.3 C17.4,8.1 17.1,7.9 16.8,7.8 C16.5,7.7 16.2,7.6 15.9,7.6 C15.6,7.6 15.3,7.7 15,7.8 C14.7,7.9 14.5,8.1 14.3,8.3 C14.1,8.5 13.9,8.8 13.8,9.1 C13.7,9.4 13.6,9.8 13.6,10.1 C13.6,10.5 13.7,10.8 13.8,11.1 C13.9,11.4 14.1,11.7 14.3,11.9 C14.5,12.1 14.8,12.3 15,12.4 C15.3,12.5 15.6,12.6 15.9,12.6 C16.2,12.6 16.5,12.5 16.8,12.4 C17.1,12.3 17.3,12.1 17.6,11.9 C17.8,11.7 18,11.4 18.1,11.1 C18.2,10.8 18.3,10.5 18.3,10.1 Z"></path>
                                <path d="M24.1,14.8 L21.7,14.8 L21.7,5.5 L22.3,5.5 L23.1,6.4 C23.5,6.1 23.9,5.8 24.4,5.6 C24.9,5.4 25.4,5.3 25.9,5.3 C26.5,5.3 27,5.4 27.5,5.6 C28,5.8 28.4,6.1 28.8,6.5 C29.2,6.9 29.5,7.3 29.7,7.8 C29.9,8.3 30,8.8 30,9.4 L30,14.7 L27.6,14.7 L27.6,9.4 C27.6,9.2 27.6,8.9 27.5,8.7 C27.4,8.5 27.3,8.3 27.1,8.1 C26.9,7.9 26.7,7.8 26.5,7.7 C26.3,7.6 26.1,7.6 25.8,7.6 C25.6,7.6 25.3,7.6 25.1,7.7 C24.9,7.8 24.7,7.9 24.5,8.1 C24.3,8.3 24.2,8.5 24.1,8.7 C24,8.9 24,9.1 24,9.4 L24,14.8 L24.1,14.8 Z"></path>
                                <path d="M34.4,14.8 L32,14.8 L32,7.8 L30.8,7.8 L30.8,5.4 L32,5.4 L32,5 C32,4.4 32.1,3.9 32.3,3.4 C32.5,2.9 32.8,2.5 33.2,2.1 C33.6,1.7 34,1.4 34.5,1.2 C35,1 35.5,0.9 36.1,0.9 L38,0.9 L38,3.3 L36.2,3.3 C35.9,3.3 35.7,3.3 35.5,3.4 C35.3,3.5 35.1,3.6 34.9,3.8 C34.7,4 34.6,4.1 34.5,4.4 C34.4,4.6 34.4,4.9 34.4,5.1 L34.4,5.5 L37.3,5.5 L37.3,7.9 L34.4,7.9 L34.4,14.8 Z"></path>
                            </g>
                            <g transform="translate(42.000000, 1.000000)" id="Shape">
                                <polygon points="6.9 13.9 4.4 13.9 4.4 3.9 0.6 3.9 0.6 1.4 10.6 1.4 10.6 3.9 6.9 3.9"></polygon>
                                <path d="M19.3,13.9 L18.7,13.9 L17.8,12.6 C17.6,12.8 17.3,13 17.1,13.2 C16.8,13.4 16.6,13.5 16.3,13.7 C16,13.8 15.7,13.9 15.4,14 C15.1,14 14.8,14 14.5,14 C13.8,14 13.2,13.9 12.6,13.7 C12,13.5 11.5,13.2 11.1,12.7 C10.7,12.3 10.3,11.8 10.1,11.2 C9.9,10.6 9.7,9.9 9.7,9.1 C9.7,8.4 9.8,7.7 10.1,7.1 C10.3,6.5 10.7,6 11.1,5.5 C11.5,5.1 12,4.7 12.6,4.5 C13.2,4.3 13.8,4.1 14.5,4.1 C14.8,4.1 15.1,4.1 15.4,4.2 C15.7,4.3 16,4.4 16.3,4.5 C16.6,4.6 16.8,4.8 17.1,5 C17.4,5.2 17.6,5.4 17.8,5.6 L18.7,4.5 L19.3,4.5 L19.3,13.9 L19.3,13.9 Z M16.9,9.1 C16.9,8.8 16.8,8.5 16.7,8.2 C16.6,7.9 16.4,7.6 16.2,7.4 C16,7.2 15.7,7 15.4,6.8 C15.1,6.7 14.8,6.6 14.5,6.6 C14.2,6.6 13.9,6.7 13.6,6.8 C13.3,6.9 13.1,7.1 12.9,7.3 C12.7,7.5 12.5,7.8 12.4,8.1 C12.3,8.4 12.2,8.8 12.2,9.2 C12.2,9.6 12.3,10 12.4,10.3 C12.5,10.6 12.7,10.9 12.9,11.1 C13.1,11.3 13.4,11.5 13.6,11.6 C13.9,11.7 14.2,11.8 14.5,11.8 C14.8,11.8 15.1,11.7 15.4,11.6 C15.7,11.5 15.9,11.3 16.2,11 C16.4,10.8 16.6,10.5 16.7,10.2 C16.8,9.8 16.9,9.4 16.9,9.1 Z"></path>
                                <path d="M23.9,2 C23.9,2.2 23.9,2.4 23.8,2.6 C23.7,2.8 23.6,3 23.5,3.1 C23.4,3.2 23.2,3.4 23,3.4 C22.8,3.5 22.6,3.5 22.4,3.5 C22.2,3.5 22,3.5 21.8,3.4 C21.6,3.3 21.4,3.2 21.3,3.1 C21.2,3 21,2.8 21,2.6 C20.9,2.4 20.9,2.2 20.9,2 C20.9,1.8 20.9,1.6 21,1.4 C21.1,1.2 21.2,1 21.3,0.9 C21.4,0.8 21.6,0.6 21.8,0.6 C22,0.5 22.2,0.5 22.4,0.5 C22.6,0.5 22.8,0.5 23,0.6 C23.2,0.7 23.4,0.8 23.5,0.9 C23.6,1 23.8,1.2 23.8,1.4 C23.9,1.6 23.9,1.8 23.9,2 Z M23.5,13.9 L21.1,13.9 L21.1,4.6 L23.5,4.6 L23.5,13.9 Z"></path>
                                <path d="M37.1,10.5 C37.1,11 37,11.4 36.8,11.9 C36.6,12.3 36.4,12.7 36,13 C35.7,13.3 35.3,13.6 34.9,13.8 C34.5,14 34,14.1 33.5,14.1 C33.1,14.1 32.6,14 32.2,13.9 C31.8,13.7 31.4,13.5 31.1,13.2 C30.8,13.5 30.4,13.7 30,13.9 C29.6,14.1 29.2,14.1 28.7,14.1 C28.2,14.1 27.7,14 27.3,13.8 C26.9,13.6 26.5,13.4 26.2,13 C25.9,12.7 25.6,12.3 25.4,11.9 C25.2,11.5 25.1,11 25.1,10.5 L25.1,4.6 L27.5,4.6 L27.5,10.5 C27.5,10.7 27.5,10.8 27.6,11 C27.7,11.1 27.7,11.3 27.9,11.4 C28,11.5 28.1,11.6 28.3,11.7 C28.4,11.8 28.6,11.8 28.8,11.8 C29,11.8 29.1,11.8 29.3,11.7 C29.4,11.6 29.6,11.6 29.7,11.4 C29.8,11.3 29.9,11.2 30,11 C30.1,10.9 30.1,10.7 30.1,10.5 L30.1,4.6 L32.5,4.6 L32.5,10.5 C32.5,10.7 32.5,10.8 32.6,11 C32.7,11.1 32.7,11.3 32.9,11.4 C33,11.5 33.1,11.6 33.3,11.7 C33.4,11.8 33.6,11.8 33.8,11.8 C34,11.8 34.1,11.8 34.3,11.7 C34.4,11.6 34.6,11.6 34.7,11.4 C34.8,11.3 34.9,11.2 35,11 C35.1,10.9 35.1,10.7 35.1,10.5 L35.1,4.6 L37.5,4.6 L37.5,10.5 L37.1,10.5 Z"></path>
                                <path d="M47.9,13.9 L47.3,13.9 L46.4,12.6 C46.2,12.8 45.9,13 45.7,13.2 C45.4,13.4 45.2,13.5 44.9,13.7 C44.6,13.8 44.3,13.9 44,14 C43.7,14.1 43.4,14.1 43.1,14.1 C42.4,14.1 41.8,14 41.2,13.8 C40.6,13.6 40.1,13.3 39.7,12.8 C39.3,12.4 38.9,11.9 38.7,11.3 C38.5,10.7 38.3,10 38.3,9.2 C38.3,8.5 38.4,7.8 38.7,7.2 C38.9,6.6 39.3,6.1 39.7,5.6 C40.1,5.2 40.6,4.8 41.2,4.6 C41.8,4.4 42.4,4.2 43.1,4.2 C43.4,4.2 43.7,4.2 44,4.3 C44.3,4.4 44.6,4.5 44.9,4.6 C45.2,4.7 45.4,4.9 45.7,5.1 C46,5.3 46.2,5.5 46.4,5.7 L47.3,4.6 L47.9,4.6 L47.9,13.9 Z M45.5,9.1 C45.5,8.8 45.4,8.5 45.3,8.2 C45.2,7.9 45,7.6 44.8,7.4 C44.6,7.2 44.3,7 44,6.8 C43.7,6.7 43.4,6.6 43.1,6.6 C42.8,6.6 42.5,6.7 42.2,6.8 C41.9,6.9 41.7,7.1 41.5,7.3 C41.3,7.5 41.1,7.8 41,8.1 C40.9,8.4 40.8,8.8 40.8,9.2 C40.8,9.6 40.9,10 41,10.3 C41.1,10.6 41.3,10.9 41.5,11.1 C41.7,11.3 42,11.5 42.2,11.6 C42.5,11.7 42.8,11.8 43.1,11.8 C43.4,11.8 43.7,11.7 44,11.6 C44.3,11.5 44.5,11.3 44.8,11 C45,10.8 45.2,10.5 45.3,10.2 C45.4,9.8 45.5,9.4 45.5,9.1 Z"></path>
                                <path d="M51.7,13.9 L49.3,13.9 L49.3,4.6 L49.9,4.6 L50.7,5.5 C51.1,5.2 51.5,4.9 52,4.7 C52.5,4.5 53,4.4 53.5,4.4 C54.1,4.4 54.6,4.5 55.1,4.7 C55.6,4.9 56,5.2 56.4,5.6 C56.8,6 57.1,6.4 57.3,6.9 C57.5,7.4 57.6,7.9 57.6,8.5 L57.6,13.8 L55.2,13.8 L55.2,8.5 C55.2,8.3 55.2,8 55.1,7.8 C55,7.6 54.9,7.4 54.7,7.2 C54.5,7 54.3,6.9 54.1,6.8 C53.9,6.7 53.7,6.7 53.4,6.7 C53.2,6.7 52.9,6.7 52.7,6.8 C52.5,6.9 52.3,7 52.1,7.2 C51.9,7.4 51.8,7.6 51.7,7.8 C51.6,8 51.6,8.2 51.6,8.5 L51.6,13.9 L51.7,13.9 Z"></path>
                                <g transform="translate(63.000000, 0.000000)">
                                    <path d="M9,5.1 C9,5.6 8.9,6.1 8.7,6.6 C8.5,7.1 8.2,7.5 7.9,7.8 C7.6,8.1 7.2,8.4 6.7,8.6 C6.2,8.8 5.8,8.9 5.2,8.9 L4,8.9 C3.8,8.9 3.7,8.9 3.5,9 C3.3,9.1 3.2,9.2 3.1,9.3 C3,9.4 2.9,9.5 2.8,9.7 C2.7,9.9 2.7,10 2.7,10.2 L2.7,11.4 L8.6,11.4 L8.6,13.9 L0.2,13.9 L0.2,10.2 C0.2,9.7 0.3,9.2 0.5,8.7 C0.7,8.2 1,7.8 1.3,7.5 C1.6,7.2 2,6.9 2.5,6.7 C3,6.5 3.4,6.4 4,6.4 L5.3,6.4 C5.5,6.4 5.6,6.4 5.8,6.3 C6,6.2 6.1,6.1 6.2,6 C6.3,5.9 6.4,5.8 6.5,5.6 C6.6,5.4 6.6,5.3 6.6,5.1 C6.6,4.9 6.6,4.8 6.5,4.6 C6.4,4.4 6.3,4.3 6.2,4.2 C6.1,4.1 6,4 5.8,3.9 C5.6,3.8 5.5,3.8 5.3,3.8 L0.8,3.8 L0.8,1.3 L5.3,1.3 C5.8,1.3 6.3,1.4 6.8,1.6 C7.3,1.8 7.7,2.1 8,2.4 C8.3,2.7 8.6,3.1 8.8,3.6 C8.9,4.1 9,4.6 9,5.1 Z"></path>
                                    <path d="M20.4,7.6 C20.4,8.8 20.3,9.8 20,10.6 C19.7,11.4 19.4,12.1 18.9,12.6 C18.4,13.1 17.9,13.5 17.3,13.7 C16.7,13.9 16,14 15.4,14 C14.7,14 14.1,13.9 13.5,13.7 C12.9,13.5 12.4,13.1 11.9,12.6 C11.4,12.1 11.1,11.4 10.8,10.6 C10.5,9.8 10.4,8.8 10.4,7.6 C10.4,6.4 10.5,5.4 10.8,4.6 C11.1,3.8 11.4,3.1 11.9,2.6 C12.4,2.1 12.9,1.7 13.5,1.5 C14.1,1.3 14.8,1.2 15.4,1.2 C16.1,1.2 16.7,1.3 17.3,1.5 C17.9,1.7 18.4,2.1 18.9,2.6 C19.4,3.1 19.7,3.8 20,4.6 C20.3,5.4 20.4,6.5 20.4,7.6 Z M18,7.6 C18,6.2 17.8,5.2 17.3,4.5 C16.8,3.8 16.2,3.5 15.4,3.5 C14.6,3.5 13.9,3.8 13.5,4.5 C13,5.2 12.8,6.2 12.8,7.6 C12.8,9 13,10 13.5,10.7 C14,11.4 14.6,11.7 15.4,11.7 C15.8,11.7 16.2,11.6 16.5,11.5 C16.8,11.3 17.1,11.1 17.3,10.7 C17.5,10.4 17.7,9.9 17.8,9.4 C17.9,8.9 18,8.3 18,7.6 Z"></path>
                                    <polygon points="25.5 13.9 23 13.9 23 3.9 21.8 3.9 21.8 1.4 25.5 1.4"></polygon>
                                    <path d="M34.7,7.6 L36.7,5.6 C36.9,5.4 37,5.1 37,4.8 C37,4.5 36.9,4.2 36.7,4 L33.4,0.7 C33.2,0.5 32.9,0.4 32.6,0.4 C32.3,0.4 32,0.5 31.8,0.7 L28.5,4 C28.3,4.2 28.2,4.5 28.2,4.8 C28.2,5.1 28.3,5.4 28.5,5.6 L30.5,7.6 L28.5,9.6 C28.3,9.8 28.2,10.1 28.2,10.4 C28.2,10.7 28.3,11 28.5,11.2 L31.8,14.5 C32,14.7 32.3,14.8 32.6,14.8 C32.9,14.8 33.2,14.7 33.4,14.5 L36.7,11.2 C36.9,11 37,10.7 37,10.4 C37,10.1 36.9,9.8 36.7,9.6 L34.7,7.6 Z M30.6,4.9 L32.6,2.9 L34.6,4.9 L32.6,6.9 L30.6,4.9 Z M32.6,8.4 L34.6,10.4 L32.6,12.4 L30.6,10.4 L32.6,8.4 Z"></path>
                                </g>
                            </g>
                        </g>
                        <path d="M4.1,15.4 L1.6,15.4 L1.6,2.9 L6.6,2.9 C7.1,2.9 7.5,3 7.9,3.1 C8.3,3.2 8.7,3.4 9.1,3.6 C9.5,3.8 9.8,4.1 10.1,4.4 C10.4,4.7 10.7,5 10.9,5.4 C11.1,5.8 11.3,6.2 11.4,6.6 C11.5,7 11.6,7.5 11.6,7.9 C11.6,8.3 11.5,8.7 11.4,9.2 C11.3,9.6 11.1,10 10.9,10.4 C10.7,10.8 10.5,11.1 10.2,11.4 C9.9,11.7 9.6,12 9.2,12.2 L10.6,15.5 L8,15.5 L6.9,13 L4.1,13 L4.1,15.4 Z M4.1,5.4 L4.1,10.4 L6.6,10.4 C6.9,10.4 7.3,10.3 7.6,10.2 C7.9,10.1 8.2,9.9 8.4,9.7 C8.6,9.5 8.8,9.2 8.9,8.9 C9,8.6 9.1,8.3 9.1,7.9 C9.1,7.6 9,7.2 8.9,6.9 C8.8,6.6 8.6,6.3 8.4,6.1 C8.2,5.9 7.9,5.7 7.6,5.6 C7.3,5.5 7,5.4 6.6,5.4 L4.1,5.4 L4.1,5.4 Z M20,14.3 C19.8,14.5 19.6,14.6 19.4,14.8 C19.2,15 19,15.1 18.7,15.2 C18.5,15.3 18.2,15.4 18,15.5 C17.7,15.6 17.5,15.6 17.2,15.6 C16.6,15.6 16.1,15.5 15.6,15.3 C15.1,15.1 14.7,14.8 14.3,14.4 C13.9,14 13.6,13.6 13.4,13 C13.2,12.5 13.1,11.9 13.1,11.2 L13.1,6 L15.5,6 L15.5,11.2 C15.5,11.5 15.5,11.8 15.6,12 C15.7,12.2 15.8,12.5 16,12.6 C16.2,12.8 16.4,12.9 16.6,13 C16.8,13.1 17.1,13.1 17.3,13.1 C17.5,13.1 17.8,13 18,12.9 C18.2,12.8 18.4,12.6 18.6,12.5 C18.8,12.3 18.9,12.1 19,11.9 C19.1,11.7 19.1,11.4 19.1,11.2 L19.1,6 L21.5,6 L21.5,15.3 L20.9,15.3 L20,14.3 Z M36,19 L36,16.6 L37.3,16.6 C37.5,16.6 37.8,16.6 38,16.5 C38.2,16.4 38.4,16.3 38.6,16.2 C38.8,16.1 38.9,15.9 39.1,15.7 C39.2,15.5 39.4,15.3 39.4,15.1 C39.1,15.2 38.9,15.3 38.6,15.4 C38.3,15.5 38.1,15.6 37.8,15.6 C37.2,15.6 36.7,15.5 36.2,15.3 C35.7,15.1 35.3,14.8 34.9,14.4 C34.5,14 34.2,13.6 34,13 C33.8,12.5 33.7,11.9 33.7,11.2 L33.7,6 L36,6 L36,11.2 C36,11.5 36,11.8 36.1,12.1 C36.2,12.3 36.3,12.6 36.5,12.7 C36.7,12.9 36.9,13 37.1,13.1 C37.3,13.2 37.6,13.2 37.8,13.2 C38,13.2 38.3,13.1 38.5,13 C38.7,12.9 38.9,12.7 39.1,12.6 C39.3,12.4 39.4,12.2 39.5,12 C39.6,11.8 39.6,11.5 39.6,11.3 L39.6,6.1 L42,6.1 L42,14.3 C42,15 41.9,15.6 41.6,16.1 C41.4,16.7 41,17.2 40.6,17.6 C40.2,18 39.7,18.4 39.1,18.6 C38.5,18.8 37.9,19 37.3,19 L36,19 Z M32,8.7 C31.8,8.1 31.4,7.6 31,7.1 C30.6,6.7 30.1,6.3 29.5,6.1 C28.9,5.9 28.3,5.7 27.6,5.7 C27.4,5.7 27.2,5.7 26.9,5.8 C26.7,5.8 26.5,5.9 26.2,6 C26,6.1 25.8,6.2 25.6,6.3 C25.4,6.4 25.3,6.6 25.1,6.7 L25.1,2.4 L22.7,2.4 L22.7,10.7 C22.7,11.4 22.8,12.1 23.1,12.7 C23.3,13.3 23.7,13.8 24.1,14.3 C24.5,14.7 25,15.1 25.6,15.3 C26.2,15.5 26.8,15.7 27.5,15.7 C28.2,15.7 28.8,15.6 29.4,15.3 C30,15.1 30.5,14.7 30.9,14.3 C31.3,13.9 31.7,13.3 31.9,12.7 C32.1,12.1 32.3,11.4 32.3,10.7 C32.3,10 32.2,9.3 32,8.7 Z M27.6,13.2 L24.9,10.3 L26.2,8.8 L29,8.8 L30.3,10.3 L27.6,13.2 Z" id="Shape" fill="url(#linearGradient-1)"></path>
                        <path d="M65.4,15.4 L56.8,15.4 L56.8,2.9 L65.4,2.9 L65.4,5.4 L59.3,5.4 L59.3,7.9 L63.4,7.9 L63.4,10.4 L59.3,10.4 L59.3,12.9 L65.4,12.9 L65.4,15.4 Z M69.3,15.4 L66.9,15.4 L66.9,2.4 L69.3,2.4 L69.3,15.4 Z M73.9,3.5 C73.9,3.7 73.9,3.9 73.8,4.1 C73.7,4.3 73.6,4.5 73.5,4.6 C73.4,4.7 73.2,4.9 73,4.9 C72.8,5 72.6,5 72.4,5 C72.2,5 72,5 71.8,4.9 C71.6,4.8 71.4,4.7 71.3,4.6 C71.2,4.5 71,4.3 71,4.1 C70.9,3.9 70.9,3.7 70.9,3.5 C70.9,3.3 70.9,3.1 71,2.9 C71.1,2.7 71.2,2.5 71.3,2.4 C71.4,2.3 71.6,2.1 71.8,2.1 C72,2 72.2,2 72.4,2 C72.6,2 72.8,2 73,2.1 C73.2,2.2 73.4,2.3 73.5,2.4 C73.6,2.5 73.8,2.7 73.8,2.9 C73.9,3.1 73.9,3.3 73.9,3.5 Z M73.5,15.4 L71.1,15.4 L71.1,6 L73.5,6 L73.5,15.4 Z M86.8,2.6 C87.5,3.3 87.4,3.8 87.3,4.3 C87.1,5 86.4,5.2 85.8,5.1 C85,5 84.5,4.4 84.7,3.3 C84.8,2.5 85.5,1.3 86.2,0.9 C86.1,1.6 86.3,2.1 86.8,2.6 Z M84,15.4 L81,15.4 L79.1,12.5 L77.2,15.4 L74.3,15.4 L77.7,10.6 L74.3,6 L77.2,6 L79.1,8.7 L81,6 L83.9,6 L80.5,10.6 L84,15.4 Z M87.2,15.4 L84.8,15.4 L84.8,6 L87.2,6 L87.2,15.4 Z M90.7,15.4 L88.3,15.4 L88.3,6 L88.9,6 L89.7,7.1 C90.1,6.8 90.5,6.5 91,6.3 C91.5,6.1 92,6 92.5,6 L94.6,6 L94.6,8.4 L92.5,8.4 C92.3,8.4 92,8.4 91.8,8.5 C91.6,8.6 91.4,8.7 91.2,8.9 C91,9.1 90.9,9.3 90.8,9.5 C90.7,9.7 90.7,10 90.7,10.2 L90.7,15.4 L90.7,15.4 Z" id="Shape" fill="url(#linearGradient-2)"></path>
                        <path d="M49.7,14.7 C49.6,14.7 49.6,14.7 49.5,14.6 L46.6,11.7 C46.5,11.6 46.5,11.6 46.5,11.5 C46.5,11.4 46.5,11.4 46.6,11.3 L48.8,9.1 L46.6,7 C46.5,6.9 46.5,6.9 46.5,6.8 C46.5,6.7 46.5,6.7 46.6,6.6 L49.5,3.7 C49.6,3.6 49.8,3.6 49.9,3.7 L52.8,6.6 C52.9,6.7 52.9,6.7 52.9,6.8 C52.9,6.9 52.9,6.9 52.8,7 L50.6,9.2 L52.8,11.4 C52.9,11.5 52.9,11.5 52.9,11.6 C52.9,11.7 52.9,11.7 52.8,11.8 L49.9,14.7 C49.8,14.7 49.8,14.7 49.7,14.7 Z" id="Shape" fill="#CFD8DC"></path>
                    </g>
                    <g id="logo">
                        <path d="M14.2,50 C13.9,50 13.6,49.9 13.3,49.6 L0.4,36.7 C0.1,36.5 0,36.2 0,35.8 C0,35.5 0.1,35.2 0.4,34.9 L10.4,25 L0.4,15.1 C0.1,14.8 0,14.5 0,14.2 C0,13.9 0.1,13.6 0.4,13.3 L13.3,0.4 C13.8,-0.1 14.6,-0.1 15.1,0.4 L28,13.3 C28.2,13.5 28.4,13.9 28.4,14.2 C28.4,14.5 28.3,14.8 28,15.1 L18,25 L28,34.9 C28.2,35.1 28.4,35.5 28.4,35.8 C28.4,36.1 28.3,36.4 28,36.7 L15.1,49.6 C14.8,49.9 14.5,50 14.2,50 Z M2,35.8 L14.2,48 L26.4,35.8 L16.4,25.9 C16.2,25.6 16,25.3 16,25 C16,24.7 16.1,24.4 16.4,24.1 L26.4,14.2 L14.2,2 L2,14.2 L12,24.1 C12.5,24.6 12.5,25.4 12,25.9 L2,35.8 Z" id="Shape" fill="url(#linearGradient-3)"></path>
                        <path d="M19.1,10.6 L9.2,10.6 L5.8,14 L14.2,22.4 L22.6,14 L19.1,10.6 Z M19.2,15.2 L18.8,14.1 L17.8,13.7 L18.8,13.3 L19.2,12.2 L19.6,13.3 L20.6,13.7 L19.6,14.1 L19.2,15.2 Z" id="Shape" fill="url(#linearGradient-4)"></path>
                        <path d="M14.5,27.3 C14.4,29 15,30.2 16,31.3 C17.5,33 17.5,34.2 17.1,35.1 C16.6,36.7 14.9,37.2 13.5,37 C11.7,36.7 10.6,35.3 11,32.9 C11.4,31 12.9,28.4 14.5,27.3 Z M15.9,40.6 C14.3,40.5 13.8,39 11.9,39 C9.8,39 9,40.3 9,40.3 L14.1,45.4 L19.2,40.3 C18.2,39.6 17.3,40.7 15.9,40.6 Z" id="Shape" fill="url(#linearGradient-5)"></path>
                    </g>
                </g>
            </g>
        </g>
    </g>
</svg>