<svg id="Platinum" xmlns="http://www.w3.org/2000/svg" viewBox="0 0 240 80"><defs><style>.cls-1{fill:#e96071;}.cls-2{fill:#303f6e;}</style></defs><title>cyberbiz</title><g id="Cyberbiz"><path id="Cyber" class="cls-1" d="M28.87,58.58c-3.39,0-5.84-.12-7.3-.28a19.87,19.87,0,0,1-10.51-4.47,21.25,21.25,0,0,1-6.39-8.52,22,22,0,0,1-1.59-8.4,21.33,21.33,0,0,1,7-16.23A19.79,19.79,0,0,1,22.18,15.2c1.49-.13,3.74-.19,6.69-.2v5.67h-.82a30.11,30.11,0,0,0-7.59.65,15.66,15.66,0,0,0-8.6,6.1,16,16,0,0,0-2.95,9.49,15.2,15.2,0,0,0,2.17,8,16,16,0,0,0,9.21,7.3,25.46,25.46,0,0,0,7.23.82h1.35Zm25.72,11.8c1.61-2,2.42-5,2.42-8.74V31.15H51.7V46.32a8.44,8.44,0,0,1-1.59,5.43,5.54,5.54,0,0,1-4.58,2.06,5.51,5.51,0,0,1-4.74-2.34,9,9,0,0,1-1.44-5.38V31.15H34V45.79c0,3.63.77,6.51,2.28,8.56A10.77,10.77,0,0,0,45.49,59a11.56,11.56,0,0,0,5.42-1.43l1-.51v4.77a9.67,9.67,0,0,1-1,5,6.18,6.18,0,0,1-5.63,3.11,6,6,0,0,1-5.56-3.15,7.52,7.52,0,0,1-.9-3.13H33.48v.07A10.58,10.58,0,0,0,37.31,72a11.75,11.75,0,0,0,8,3A11.31,11.31,0,0,0,54.59,70.38ZM83.31,57.53a14,14,0,0,0,5.76-5.06,13.8,13.8,0,0,0,.81-13.83,13.87,13.87,0,0,0-12.4-7.89,13,13,0,0,0-8,2.89l-1,.81V15H63.13V42.14a37.48,37.48,0,0,0,.29,5.55,12.86,12.86,0,0,0,5,8.3,14.13,14.13,0,0,0,8.75,3A13.82,13.82,0,0,0,83.31,57.53ZM77.1,35.93a9,9,0,0,1,6.09,2.31,8.69,8.69,0,0,1,2.87,6.6A8.58,8.58,0,0,1,83.61,51,8.87,8.87,0,0,1,77,53.81a8.62,8.62,0,0,1-5.69-2.1,8.92,8.92,0,0,1-3.09-7.07,8.34,8.34,0,0,1,2.21-5.8,8.61,8.61,0,0,1,6.66-2.91Zm37.59,21.83a14.25,14.25,0,0,0,4.81-3.46,13.54,13.54,0,0,0,2.35-3.72h-5.77a8.76,8.76,0,0,1-6.92,3.23A8.93,8.93,0,0,1,104,52.2a8.53,8.53,0,0,1-3.25-4.33l-.3-.86h22.32a16.91,16.91,0,0,0-1.07-8.34A13.19,13.19,0,0,0,119,34.9a14.05,14.05,0,0,0-19.17-.72A14.28,14.28,0,0,0,96.24,39a13.9,13.9,0,0,0,3.3,16.17,13.7,13.7,0,0,0,9.52,3.8A13.9,13.9,0,0,0,114.69,57.76Zm-.42-20.29a8.17,8.17,0,0,1,3.14,4.13l.3.86H100.46l.37-.9a9,9,0,0,1,3.32-4.14,9.21,9.21,0,0,1,10.12,0Zm18.92,21.12V44.11c0-2.9.48-4.89,1.47-6.06s2.5-1.74,4.81-1.94V30.92l-.93,0a10.56,10.56,0,0,0-7.63,2.72c-2,1.94-3,4.88-3,8.74V58.59Z"/><path id="biz" class="cls-2" d="M158.93,59a14.12,14.12,0,0,1-8.74-3,12.84,12.84,0,0,1-4.95-8.3,37.48,37.48,0,0,1-.29-5.55V15h5.31V34.45l1.05-.81a13,13,0,0,1,8-2.89A13.5,13.5,0,0,1,168.06,34a13.72,13.72,0,0,1,3.64,4.68,14.05,14.05,0,0,1,1.48,6.2,13.81,13.81,0,0,1-2.29,7.63,14,14,0,0,1-5.76,5.06A13.87,13.87,0,0,1,158.93,59Zm0-23a8.61,8.61,0,0,0-6.66,2.91,8.32,8.32,0,0,0-2.21,5.8,8.94,8.94,0,0,0,3.08,7.07,8.65,8.65,0,0,0,5.69,2.1,8.84,8.84,0,0,0,6.62-2.8,8.53,8.53,0,0,0,2.45-6.17,8.64,8.64,0,0,0-2.87-6.6,9,9,0,0,0-6.09-2.31Zm48.87,22.66V53.54H195.83l11.08-15.3a6.64,6.64,0,0,0,1.55-3.57,3.3,3.3,0,0,0-.53-1.79,3.06,3.06,0,0,0-1.34-1.24,8.77,8.77,0,0,0-3.56-.49H190.1v5h11.81L190.7,51.6a6,6,0,0,0-1.42,3.3,3.42,3.42,0,0,0,1.28,2.76,5.79,5.79,0,0,0,3.75.93Zm-24.32-7.86V31.15h-5.36V50.73Zm.7,6.27a3.38,3.38,0,1,0-3.38,3.38A3.38,3.38,0,0,0,184.15,57Z"/></g></svg>