<svg xmlns="http://www.w3.org/2000/svg" xmlns:xlink="http://www.w3.org/1999/xlink" viewBox="0 0 160 120"><defs><style>.cls-1{fill:url(#未命名漸層_8);}</style><linearGradient id="未命名漸層_8" x1="-588.48" y1="641.22" x2="-588.3" y2="641.22" gradientTransform="matrix(774.65, 111.79, 111.79, -774.65, 384186.29, 562561.3)" gradientUnits="userSpaceOnUse"><stop offset="0" stop-color="#f5b323"/><stop offset="0.46" stop-color="#f6a628"/><stop offset="1" stop-color="#f78536"/></linearGradient></defs><title>diing</title><g id="Gold"><path id="Diing" class="cls-1" d="M17.89,48.2v3a3.23,3.23,0,0,1,2,3,3.65,3.65,0,0,1-.08.74,13.16,13.16,0,0,1,2.4.44c.25.07.5.16.74.25a9.82,9.82,0,0,1,1.38.68,12.31,12.31,0,0,1,1.34.93l.42.34c.15.12.29.25.43.38a8.48,8.48,0,0,1,.85.95,10.34,10.34,0,0,1,1.75,3.57,8.08,8.08,0,0,1,.2.85,9,9,0,0,1,.15,1v.1a.41.41,0,0,0,.07.11c.1.17.21.32.32.48l.11.16a3.48,3.48,0,0,1,.39.77,2.38,2.38,0,0,1,.14.54A3,3,0,0,1,30.43,68a2.25,2.25,0,0,1-.24.52l0,0c.36.25.73.48,1.11.71l0,0,.13.08a1.74,1.74,0,0,1,.22.18,2.19,2.19,0,0,1,.61,1,2.29,2.29,0,0,1,.07.36.81.81,0,0,0,0,.15c0,.5,0,1,0,1.51,0,.08,0,.16,0,.24a2.4,2.4,0,0,1-.12.53,2.29,2.29,0,0,1-.55.89,2.6,2.6,0,0,1-.8.55,3,3,0,0,1-.57.16L30,75c-8.87.11-17.75,0-26.62,0l-.29,0a2.36,2.36,0,0,1-.46-.1,2.27,2.27,0,0,1-.76-.42,2.31,2.31,0,0,1-.72-1A2.74,2.74,0,0,1,1,72.88a1.94,1.94,0,0,1,0-.24V71.12a2,2,0,0,1,.05-.42,2.28,2.28,0,0,1,.54-1.06,2,2,0,0,1,.27-.24L2,69.28l.34-.2c.28-.17.56-.35.83-.55h0l0,0,0-.08a1.09,1.09,0,0,1-.08-.15,3.12,3.12,0,0,1-.15-.39,3,3,0,0,1-.06-1.29A2.61,2.61,0,0,1,3,66a3.6,3.6,0,0,1,.44-.85l.35-.51.1-.15h0c0-.05,0-.11,0-.17a1.49,1.49,0,0,0,0-.21,12,12,0,0,1,.43-2,10,10,0,0,1,1.91-3.55,7,7,0,0,1,.65-.68c.19-.17.38-.34.58-.5L8.11,57a10.32,10.32,0,0,1,1.12-.74,9.82,9.82,0,0,1,1.27-.6A11.77,11.77,0,0,1,13.55,55a3.47,3.47,0,0,1-.08-.73,3.23,3.23,0,0,1,2-3v-3H13.06A1.21,1.21,0,0,1,11.86,47v-.4A1.61,1.61,0,0,1,13.46,45h6.45a1.61,1.61,0,0,1,1.6,1.61V47a1.21,1.21,0,0,1-1.2,1.21ZM143.45,72.09c-.45.21-.84.37-1.16.5s-.63.26-.93.36-.73.25-1.29.42a24.69,24.69,0,0,1-2.86.6,20.75,20.75,0,0,1-3,.21,12.69,12.69,0,0,1-5.89-1.39,10.23,10.23,0,0,1-4.32-4.3,14.4,14.4,0,0,1-1.63-7.15,17.61,17.61,0,0,1,.84-5.37,9.51,9.51,0,0,1,2.56-4.22,11.81,11.81,0,0,1,2.88-2,11,11,0,0,1,2.85-.93,19.06,19.06,0,0,1,3.06-.23,17.54,17.54,0,0,1,4.56.49c1.2.33,2.52.77,4,1.31v5.89a16.61,16.61,0,0,0-3-1.65,10.37,10.37,0,0,0-4-.66,7.1,7.1,0,0,0-4.37,1.23,6.56,6.56,0,0,0-2.28,2.94,9.33,9.33,0,0,0-.64,3.31,8.11,8.11,0,0,0,.74,3.48,6,6,0,0,0,2.23,2.55,6.55,6.55,0,0,0,3.61,1,9.31,9.31,0,0,0,2.57-.38V65.13H135.1v-5h8.35v12ZM58.34,73.85H47V48.93h8.7a20.16,20.16,0,0,1,3.36.24,12.2,12.2,0,0,1,2.51.69,9,9,0,0,1,1.91,1A9.54,9.54,0,0,1,64.92,52a11,11,0,0,1,1.88,2.47,13.13,13.13,0,0,1,1.29,3.29,16.75,16.75,0,0,1,.47,4.06A13.69,13.69,0,0,1,67.39,68a12.69,12.69,0,0,1-2.76,3.76,8.87,8.87,0,0,1-6.29,2.1Zm20.46,0H72.49V48.93H78.8Zm11.63,0H84.12V48.93h6.31Zm11.54,0H95.72V48.93h5.61l10.83,13.81V48.93h6.29V73.85h-5.61L102,60Zm-76.73-7v0l1.83-.2-.15-.23a3.68,3.68,0,0,1-.24-.39,3.29,3.29,0,0,1-.33-.8,2.11,2.11,0,0,1-.05-.35c0-.08,0-.15,0-.23a.57.57,0,0,0,0-.13A7.49,7.49,0,0,0,26,63.21,7.09,7.09,0,0,0,24.93,61a5.17,5.17,0,0,0-.62-.71L24,60.07l-.35-.28A8.4,8.4,0,0,0,22.59,59a6.24,6.24,0,0,0-.91-.42,8.58,8.58,0,0,0-1.82-.41c-.63-.07-1.26-.11-1.89-.13H15.25c-.63,0-1.27.06-1.9.14a7.57,7.57,0,0,0-1.75.42,4.63,4.63,0,0,0-.78.37,8.22,8.22,0,0,0-.87.58L9.43,60l-.3.26-.33.33A6.45,6.45,0,0,0,8,61.69a8.3,8.3,0,0,0-.61,1.44,8.9,8.9,0,0,0-.24,1c0,.12,0,.23,0,.34a1.53,1.53,0,0,0,0,.3v.06c0,.08,0,.1,0,.18a1.91,1.91,0,0,1-.06.33,3.62,3.62,0,0,1-.34.78,6.65,6.65,0,0,1-.36.56l1.82.21,4.64.32-5.6,1.58L7,69.07l-.11.19a4.16,4.16,0,0,1-.41.62q-.13.16-.27.3a5.17,5.17,0,0,1-.55.5,12.25,12.25,0,0,1-1.32.95l-.08.05-.06,0v0H29.15v0l-.22-.14-.26-.18a11.09,11.09,0,0,1-1.17-.87,5.54,5.54,0,0,1-.63-.65,4.55,4.55,0,0,1-.48-.75l0,0-5.32-1.79,4.19-.42Zm30.8-13H53.35V68.69H56a6.78,6.78,0,0,0,4.29-1.4c1.21-.93,1.81-2.86,1.81-5.77a9.58,9.58,0,0,0-1-4.74,5.11,5.11,0,0,0-2.34-2.28A7.18,7.18,0,0,0,56,53.93Zm96-3.94H149.8v5.69h-.94V50h-2.23v-.83h5.44V50Zm1.79,5.69h-.93V49.17h.88L156,51.84l2.16-2.67H159v6.51h-.94V50.61l-2,2.52h-.17l-2-2.52v5.07ZM16.19,54.86a.8.8,0,0,0,.5.17.84.84,0,0,0,.49-.16Zm1,0a.81.81,0,1,0-1.3-.64.78.78,0,0,0,.31.63Z"/></g></svg>