<svg xmlns="http://www.w3.org/2000/svg" viewBox="0 0 160 80"><defs><style>.cls-1{fill:#393c41;}.cls-2{fill:#005aac;}</style></defs><title>gmo_pepabo</title><g id="Speaker"><g id="GMO_Pepabo" data-name="GMO Pepabo"><path class="cls-1" d="M74.11,37.71a3.75,3.75,0,0,1-.38,1.76,3.15,3.15,0,0,1-1,1.15,4.47,4.47,0,0,1-1.51.64,7.5,7.5,0,0,1-1.79.2H68V46H65.07V34h4.38a8.86,8.86,0,0,1,1.83.19,4.3,4.3,0,0,1,1.48.63,2.94,2.94,0,0,1,1,1.13A3.71,3.71,0,0,1,74.11,37.71Zm-2.87,0a1.31,1.31,0,0,0-.17-.69,1.24,1.24,0,0,0-.46-.42,2.07,2.07,0,0,0-.65-.21,6,6,0,0,0-.74,0H68v2.82h1.22a4.9,4.9,0,0,0,.77-.07,2.15,2.15,0,0,0,.66-.24,1.33,1.33,0,0,0,.47-.44A1.37,1.37,0,0,0,71.24,37.73Z"/><path class="cls-1" d="M75.83,46V34h8v2.43H78.61v2.25h5V41h-5V43.5h5.54V46Z"/><path class="cls-1" d="M95.76,37.71a3.63,3.63,0,0,1-.39,1.76,3,3,0,0,1-1,1.15,4.53,4.53,0,0,1-1.52.64,7.42,7.42,0,0,1-1.78.2H89.6V46H86.72V34H91.1a8.69,8.69,0,0,1,1.82.19,4.35,4.35,0,0,1,1.49.63,2.94,2.94,0,0,1,1,1.13A3.71,3.71,0,0,1,95.76,37.71Zm-2.88,0a1.22,1.22,0,0,0-.17-.69,1.14,1.14,0,0,0-.45-.42,2.16,2.16,0,0,0-.65-.21,6,6,0,0,0-.75,0H89.6v2.82h1.21a4.92,4.92,0,0,0,.78-.07,2.36,2.36,0,0,0,.66-.24,1.22,1.22,0,0,0,.46-.44A1.28,1.28,0,0,0,92.88,37.73Z"/><path class="cls-1" d="M104.51,46l-.92-2.34H99L98.1,46H95L100,34h2.79L107.71,46Zm-3.19-8.74L99.8,41.31h3Z"/><path class="cls-1" d="M118.38,42.49a3.29,3.29,0,0,1-.38,1.64,3,3,0,0,1-1,1.07,4.51,4.51,0,0,1-1.46.58,7.7,7.7,0,0,1-1.67.18h-4.75V34h4.75a7.66,7.66,0,0,1,1.41.14,4.44,4.44,0,0,1,1.32.49,2.67,2.67,0,0,1,1,.94,2.72,2.72,0,0,1,.38,1.49,2.5,2.5,0,0,1-.54,1.65,3,3,0,0,1-1.42.93v0a3,3,0,0,1,1,.32,2.67,2.67,0,0,1,1.3,1.4A2.78,2.78,0,0,1,118.38,42.49Zm-3.26-5a1,1,0,0,0-.47-.88,2.62,2.62,0,0,0-1.37-.28h-1.41v2.46h1.55a2.06,2.06,0,0,0,1.25-.33A1.12,1.12,0,0,0,115.12,37.49Zm.39,4.73a1,1,0,0,0-.56-1,3.12,3.12,0,0,0-1.48-.29h-1.6v2.73h1.62a4.2,4.2,0,0,0,.69-.06,2.32,2.32,0,0,0,.66-.21,1.25,1.25,0,0,0,.48-.43A1.33,1.33,0,0,0,115.51,42.22Z"/><path class="cls-1" d="M132.84,40a6.55,6.55,0,0,1-.49,2.58,5.84,5.84,0,0,1-1.35,2,6.13,6.13,0,0,1-2.06,1.28,7.09,7.09,0,0,1-2.59.46,7,7,0,0,1-2.59-.46,6.08,6.08,0,0,1-2.05-1.28,6,6,0,0,1-1.36-2,6.74,6.74,0,0,1-.49-2.58,6.63,6.63,0,0,1,.49-2.58,5.74,5.74,0,0,1,1.36-2,6.15,6.15,0,0,1,2.05-1.24,7.45,7.45,0,0,1,2.59-.44,7.53,7.53,0,0,1,2.59.44A6.2,6.2,0,0,1,131,35.4a5.58,5.58,0,0,1,1.35,2A6.45,6.45,0,0,1,132.84,40Zm-3.08,0a4.05,4.05,0,0,0-.25-1.45,3.41,3.41,0,0,0-.7-1.15,3.35,3.35,0,0,0-1.08-.76,3.57,3.57,0,0,0-2.77,0,3.42,3.42,0,0,0-1.07.76,3.12,3.12,0,0,0-.7,1.15,4.29,4.29,0,0,0-.25,1.45,4.24,4.24,0,0,0,.26,1.49,3.61,3.61,0,0,0,.7,1.17,3.12,3.12,0,0,0,1.06.76,3.57,3.57,0,0,0,2.77,0,3.26,3.26,0,0,0,1.07-.76,3.46,3.46,0,0,0,.71-1.17A4.24,4.24,0,0,0,129.76,40Z"/><path class="cls-1" d="M139.32,37.05a1.13,1.13,0,0,1-.1.49,1.46,1.46,0,0,1-.27.38,1.25,1.25,0,0,1-.41.26,1.37,1.37,0,0,1-.49.09,1.24,1.24,0,0,1-.91-.36,1.12,1.12,0,0,1-.37-.86,1.21,1.21,0,0,1,.37-.85,1.25,1.25,0,0,1,.41-.26,1.18,1.18,0,0,1,.5-.11,1.38,1.38,0,0,1,.49.1,1.25,1.25,0,0,1,.41.26,1.31,1.31,0,0,1,.27.38A1.12,1.12,0,0,1,139.32,37.05ZM136.94,46V39.21h2.22V46Z"/><path class="cls-1" d="M145.27,46V42.27a3.1,3.1,0,0,0-.05-.54,1.49,1.49,0,0,0-.15-.45,1,1,0,0,0-.31-.32,1,1,0,0,0-.49-.11,1.06,1.06,0,0,0-.9.43,1.45,1.45,0,0,0-.22.47,2,2,0,0,0-.08.55V46h-2.23V39.21H143v.93h0a2.34,2.34,0,0,1,.32-.42,1.84,1.84,0,0,1,.46-.36,3.38,3.38,0,0,1,.58-.25A2.29,2.29,0,0,1,145,39a2.51,2.51,0,0,1,1.15.24,2.42,2.42,0,0,1,.77.63,2.71,2.71,0,0,1,.42.89,4.36,4.36,0,0,1,.13,1V46Z"/><path class="cls-1" d="M153.65,41.39a1.4,1.4,0,0,0-.52-.39,1.58,1.58,0,0,0-.66-.15,1.47,1.47,0,0,0-.64.14,1.66,1.66,0,0,0-.49.38,2,2,0,0,0-.32.55,2.08,2.08,0,0,0-.11.66,1.85,1.85,0,0,0,.11.67,1.59,1.59,0,0,0,.32.55,1.42,1.42,0,0,0,.5.37,1.51,1.51,0,0,0,.65.14,2,2,0,0,0,.68-.13,1.23,1.23,0,0,0,.53-.38l1.23,1.51a3,3,0,0,1-1.08.64,4.34,4.34,0,0,1-1.41.23,4.52,4.52,0,0,1-1.49-.25,3.49,3.49,0,0,1-1.21-.71,3.27,3.27,0,0,1-.8-1.13,4,4,0,0,1,0-3,3.27,3.27,0,0,1,.8-1.13,3.67,3.67,0,0,1,1.21-.72,4.46,4.46,0,0,1,1.48-.25,3.51,3.51,0,0,1,.72.07,7,7,0,0,1,.69.18,2.86,2.86,0,0,1,.61.29,2,2,0,0,1,.48.37Z"/><path class="cls-1" d="M159,44.77a1.22,1.22,0,0,1-.4.94,1.31,1.31,0,0,1-1,.38,1.35,1.35,0,0,1-.53-.1,1.44,1.44,0,0,1-.44-.28,1.12,1.12,0,0,1-.3-.41,1.27,1.27,0,0,1-.11-.52,1.35,1.35,0,0,1,.11-.52,1.25,1.25,0,0,1,.3-.42,1.46,1.46,0,0,1,.44-.29,1.2,1.2,0,0,1,.53-.11,1.31,1.31,0,0,1,1,.38A1.24,1.24,0,0,1,159,44.77Z"/><path class="cls-2" d="M31,45.16h.82a.14.14,0,0,0,.11-.07l3.37-5.51,1.83,6.31a.1.1,0,0,0,.1.07h3.53s.07,0,.05-.07l-3.72-11.8A.13.13,0,0,0,37,34H35.66a.17.17,0,0,0-.12.07l-4.54,7-4.54-7a.14.14,0,0,0-.11-.07H25a.12.12,0,0,0-.1.08L21.2,45.89s0,.07.05.07h3.53a.11.11,0,0,0,.1-.07l1.83-6.31,3.37,5.51a.14.14,0,0,0,.11.07Z"/><path class="cls-2" d="M21.36,39.28h0a.08.08,0,0,0-.08-.06H11.21a1,1,0,0,0,0,1.93h6c-.72,1.88-3.13,3.26-6,3.26-3.42,0-6.2-2-6.2-4.42s2.78-4.43,6.2-4.43a7.38,7.38,0,0,1,4.68,1.53h4.17a.08.08,0,0,0,.08-.08l0,0h0c-1.75-1.87-5.08-3.12-8.9-3.12C5.57,33.86,1,36.6,1,40s4.57,6.13,10.21,6.13S21.42,43.38,21.42,40a4.17,4.17,0,0,0-.06-.71"/><path class="cls-2" d="M50.8,33.86c-5.64,0-10.21,2.74-10.21,6.13s4.57,6.13,10.21,6.13S61,43.38,61,40s-4.57-6.13-10.21-6.13m0,10.55c-3.43,0-6.2-2-6.2-4.42s2.77-4.43,6.2-4.43S57,37.54,57,40s-2.78,4.42-6.2,4.42"/></g></g></svg>