<svg xmlns="http://www.w3.org/2000/svg" xmlns:xlink="http://www.w3.org/1999/xlink" viewBox="0 0 160 120"><defs><style>.cls-1,.cls-8{fill:none;}.cls-1{stroke:#b5b5b6;stroke-miterlimit:10;stroke-width:0.3px;}.cls-2{fill:url(#未命名漸層_4);}.cls-3{fill:url(#未命名漸層_4-2);}.cls-4{fill:url(#未命名漸層_4-3);}.cls-5{opacity:0.2;fill:url(#未命名漸層_11);}.cls-15,.cls-21,.cls-5{isolation:isolate;}.cls-6{fill:url(#未命名漸層_4-4);}.cls-7{fill:url(#未命名漸層_9);}.cls-9{fill:url(#未命名漸層_4-16);}.cls-10{fill:url(#未命名漸層_7);}.cls-11{fill:url(#未命名漸層_4-41);}.cls-12{fill:url(#未命名漸層_4-42);}.cls-13{fill:url(#未命名漸層_6);}.cls-14{fill:url(#未命名漸層_4-80);}.cls-15{opacity:0.7;fill:url(#未命名漸層_5);}.cls-16{fill:url(#未命名漸層_4-81);}.cls-17{fill:#490509;}.cls-18{fill:url(#未命名漸層_4-82);}.cls-19{fill:url(#未命名漸層_3);}.cls-20{fill:url(#未命名漸層_3-2);}.cls-21{opacity:0.1;fill:url(#未命名漸層_2);}.cls-22{fill:#cc3717;}</style><radialGradient id="未命名漸層_4" cx="423.61" cy="-776.08" r="32.94" gradientTransform="matrix(0.75, 0, 0, -0.75, -274.94, -497.1)" gradientUnits="userSpaceOnUse"><stop offset="0" stop-color="#c2391e"/><stop offset="0.61" stop-color="#c2391e"/><stop offset="1" stop-color="#490509"/></radialGradient><radialGradient id="未命名漸層_4-2" cx="408.24" cy="-751.91" r="9.07" xlink:href="#未命名漸層_4"/><radialGradient id="未命名漸層_4-3" cx="33.23" cy="91.84" r="9" gradientTransform="matrix(0.99, 0, 0, -0.99, 0.5, 160.36)" xlink:href="#未命名漸層_4"/><radialGradient id="未命名漸層_11" cx="29.91" cy="100.55" r="5.3" gradientTransform="matrix(0.99, 0, 0, -0.99, 0.5, 160.36)" gradientUnits="userSpaceOnUse"><stop offset="0.31" stop-color="#ec9c14"/><stop offset="1" stop-color="#c2391e"/></radialGradient><radialGradient id="未命名漸層_4-4" cx="394.58" cy="-763.27" r="22.22" xlink:href="#未命名漸層_4"/><radialGradient id="未命名漸層_9" cx="394.58" cy="-763.27" r="22.22" gradientTransform="matrix(0.75, 0, 0, -0.75, -274.94, -497.1)" gradientUnits="userSpaceOnUse"><stop offset="0" stop-color="#fff"/><stop offset="1" stop-color="#fff" stop-opacity="0"/></radialGradient><radialGradient id="未命名漸層_4-16" cx="374.08" cy="-759.54" r="0.04" xlink:href="#未命名漸層_4"/><radialGradient id="未命名漸層_7" cx="423.61" cy="-776.08" r="32.94" gradientTransform="matrix(0.75, 0, 0, -0.75, -274.94, -497.1)" gradientUnits="userSpaceOnUse"><stop offset="0.4" stop-color="#c2391e"/><stop offset="0.45" stop-color="#ba3821"/><stop offset="1" stop-color="#490509"/></radialGradient><radialGradient id="未命名漸層_4-41" cx="428.31" cy="-780.44" r="42.84" xlink:href="#未命名漸層_4"/><radialGradient id="未命名漸層_4-42" cx="394.08" cy="-759.13" r="22.22" xlink:href="#未命名漸層_4"/><radialGradient id="未命名漸層_6" cx="391.74" cy="-761.06" r="20.28" gradientTransform="matrix(0.75, 0, 0, -0.75, -274.94, -497.1)" gradientUnits="userSpaceOnUse"><stop offset="0" stop-color="#be6c1c"/><stop offset="0.61" stop-color="#c2391e"/><stop offset="1" stop-color="#490509"/></radialGradient><radialGradient id="未命名漸層_4-80" cx="384.4" cy="-756.21" r="11.66" xlink:href="#未命名漸層_4"/><radialGradient id="未命名漸層_5" cx="383.91" cy="-755.37" r="14.9" gradientTransform="matrix(0.75, 0, 0, -0.75, -274.94, -497.1)" gradientUnits="userSpaceOnUse"><stop offset="0" stop-color="#be5326"/><stop offset="1" stop-color="#da3a30" stop-opacity="0"/></radialGradient><radialGradient id="未命名漸層_4-81" cx="22.01" cy="-499.07" r="28.12" gradientTransform="matrix(0.99, 0, 0, -0.99, -16.11, -412.5)" xlink:href="#未命名漸層_4"/><radialGradient id="未命名漸層_4-82" cx="8.38" cy="96.44" r="18.03" gradientTransform="matrix(0.99, 0, 0, -0.99, 0.5, 160.36)" xlink:href="#未命名漸層_4"/><linearGradient id="未命名漸層_3" x1="30.18" y1="-488.85" x2="44.14" y2="-473.72" gradientTransform="matrix(1, 0, 0, -1, -16.72, -415.49)" gradientUnits="userSpaceOnUse"><stop offset="0.27" stop-color="#e9bf37"/><stop offset="0.41" stop-color="#e7bc38"/><stop offset="0.52" stop-color="#dcb137"/><stop offset="0.62" stop-color="#caa136"/><stop offset="0.71" stop-color="#b38932"/><stop offset="0.81" stop-color="#946d2c"/><stop offset="0.89" stop-color="#704e23"/><stop offset="0.98" stop-color="#4a2a13"/><stop offset="1" stop-color="#40220f"/></linearGradient><linearGradient id="未命名漸層_3-2" x1="28.11" y1="-474.68" x2="54.46" y2="-462.78" xlink:href="#未命名漸層_3"/><radialGradient id="未命名漸層_2" cx="3.35" cy="95.04" r="15.03" gradientTransform="matrix(0.99, 0, 0, -0.99, 0.5, 160.36)" gradientUnits="userSpaceOnUse"><stop offset="0.2" stop-color="#c2391e"/><stop offset="0.37" stop-color="#c33d1e"/><stop offset="0.52" stop-color="#c7481d"/><stop offset="0.66" stop-color="#cd581b"/><stop offset="0.8" stop-color="#d76f18"/><stop offset="0.94" stop-color="#e48d15"/><stop offset="1" stop-color="#ec9c14"/></radialGradient></defs><title>goldenio</title><g id="Silver"><g id="GoldenIO"><g id="logo"><path class="cls-1" d="M34.64,60.94c3,5.71-4.1,13.91-14.8,16.34-9,2-14.79-1.55-14.29-6.76.45-4.37,5.32-9.25,11.58-11.79C24.17,56,32.2,56.4,34.64,60.94Z"/><path class="cls-2" d="M39.51,62.1C36.85,56.62,28,54.13,19.07,56c-9.64,2-18,8.58-18,15.56,0,8.31,11.25,12.91,24.05,9.09C36.74,77.12,42.61,68.53,39.51,62.1Zm-16,13.13c-10,3.16-19.11.28-19.61-5.87-.44-5.48,6.32-11.19,14.62-13.13,7.76-1.83,15.24.06,17.23,4.49C37.9,65.71,32.81,72.3,23.5,75.23Z"/><path class="cls-3" d="M35,59.5a9.27,9.27,0,0,0-7.31-3.66C40.29,61.88,30.42,72,30.42,72,37.29,67.2,37,62,35,59.5Z"/><path class="cls-4" d="M35,59.5a9.27,9.27,0,0,0-7.31-3.66h.06a9.37,9.37,0,0,1,6.92,3.49C37,62.22,37.07,67.09,30.42,72,37.29,67.2,37,62,35,59.5Z"/><path class="cls-5" d="M35,59.67a9.81,9.81,0,0,0-7.15-3.83C40.34,61.88,30.48,72,30.48,72,37,67,36.91,62.22,35,59.67Z"/><path class="cls-6" d="M26.49,74.13c-.94.44-1.94.77-3,1.16-10,3.1-19.11.22-19.61-5.93-.33-4.21,3.61-8.53,9.26-11.19L12.81,58h0C6.05,60.94,1,66.15,1,71.58V72C1.23,72.41,6.49,84,26.49,74.13Z"/><path class="cls-7" d="M12.31,78A12.74,12.74,0,0,1,3.67,75a8.73,8.73,0,0,1-2.44-3.16v-.33c0-4.76,4.1-9.69,10.47-12.85-5.21,2.88-8.31,6.92-8,10.69.34,4.38,5,7.31,11.75,7.31a25.65,25.65,0,0,0,6.92-1A27.56,27.56,0,0,1,12.31,78Z"/><path class="cls-8" d="M10.59,59.56a8.91,8.91,0,0,0-.88.55H9.65c-.28.22-.55.39-.83.61l-.06.06c-.27.22-.55.44-.77.66a.06.06,0,0,0-.06.06c-.11.11-.27.22-.38.33h0c-.11.11-.28.22-.39.33l-.06.06-.33.33,0,.05a1.08,1.08,0,0,0-.28.34L6.38,63a1.31,1.31,0,0,0-.27.33l-.06.06c-.11.11-.17.22-.28.33h0c0,.11-.16.22-.27.39s-.06.05-.06.05a4.8,4.8,0,0,0-.44.67c0,.05-.06.05-.06.05a6.78,6.78,0,0,0-.39.67,0,0,0,0,1,0,0,3.76,3.76,0,0,0-.17.39V66l-.16.33a.06.06,0,0,1-.06.06,1.56,1.56,0,0,1-.16.38c0,.06,0,.06-.06.06s-.06.22-.11.33,0,.06-.06.06a.88.88,0,0,0-.05.38v.06c.22-.06.22.06.22.17v0a.76.76,0,0,0-.06.39v0c0,.12-.05.23-.05.34v.88c.5,6.15,9.64,9,19.61,5.88a4.87,4.87,0,0,0,.78-.28s0,0,0-.06a3.52,3.52,0,0,0,.72-.27c.06,0,.06,0,.06-.06a4.63,4.63,0,0,0,.72-.28h.05a3.52,3.52,0,0,1,.72-.27c7.37-3.27,11.14-9,9.25-13.35-2-4.6-9.41-6.43-17.23-4.6a29.92,29.92,0,0,0-5.42,1.88,17.8,17.8,0,0,0-2.5,1.39Z"/><path class="cls-2" d="M10.43,59.11a11.72,11.72,0,0,1,1.16-.61C11.2,58.73,10.81,58.89,10.43,59.11Z"/><path class="cls-2" d="M12.25,58.17c.23-.11.39-.16.61-.28A1.63,1.63,0,0,1,12.25,58.17Z"/><path class="cls-2" d="M11.65,58.5c.22-.11.38-.16.6-.27A2.65,2.65,0,0,0,11.65,58.5Z"/><path class="cls-2" d="M6.16,62.1a3.6,3.6,0,0,1,.44-.38C6.44,61.88,6.27,62,6.16,62.1Z"/><path class="cls-2" d="M9.26,59.83c.39-.22.72-.44,1.11-.66C10,59.39,9.65,59.61,9.26,59.83Z"/><path class="cls-2" d="M6.66,61.72c.17-.17.33-.28.44-.39C6.94,61.44,6.83,61.61,6.66,61.72Z"/><path class="cls-2" d="M8.16,60.55a6.92,6.92,0,0,1,1.05-.66A7.69,7.69,0,0,0,8.16,60.55Z"/><path class="cls-2" d="M7.6,60.94c.17-.11.33-.28.5-.39A4.66,4.66,0,0,1,7.6,60.94Z"/><path class="cls-2" d="M4.11,67s0,0,.06,0S4.11,67,4.11,67Z"/><path class="cls-2" d="M25.05,74.68c-.05,0-.05,0-.05,0Z"/><path class="cls-2" d="M24.33,75s0,0,0,.06S24.28,75,24.33,75Z"/><path class="cls-9" d="M3.89,69V69C3.83,69,3.89,69,3.89,69Z"/><path class="cls-2" d="M1.56,68.48a2.5,2.5,0,0,1,.17-.39C1.62,68.2,1.62,68.36,1.56,68.48Z"/><path class="cls-2" d="M1.29,69.47a2.66,2.66,0,0,1,.11-.39C1.34,69.25,1.34,69.31,1.29,69.47Z"/><path class="cls-2" d="M1.73,68c.05-.16.11-.27.17-.44C1.84,67.76,1.78,67.87,1.73,68Z"/><path class="cls-2" d="M1.18,70a1.38,1.38,0,0,0,.05-.45A1.58,1.58,0,0,1,1.18,70Z"/><path class="cls-2" d="M4.22,66.65c0-.06,0-.06.06-.06A.06.06,0,0,0,4.22,66.65Z"/><path class="cls-2" d="M1.4,69a1.23,1.23,0,0,1,.16-.44A3.54,3.54,0,0,0,1.4,69Z"/><path class="cls-2" d="M1.12,70.47c0-.17.06-.28.06-.39A1,1,0,0,0,1.12,70.47Z"/><path class="cls-2" d="M1,71c0-.17.05-.28.05-.45A1.21,1.21,0,0,1,1,71Z"/><path class="cls-2" d="M2.45,66.54a2.21,2.21,0,0,1,.28-.45A1.49,1.49,0,0,0,2.45,66.54Z"/><path class="cls-2" d="M4.06,64.21a1.29,1.29,0,0,1,.38-.39Z"/><path class="cls-2" d="M3.67,64.71A2.24,2.24,0,0,1,4,64.32C3.89,64.43,3.78,64.6,3.67,64.71Z"/><path class="cls-2" d="M4.44,63.82a2.87,2.87,0,0,1,.39-.39A1.45,1.45,0,0,0,4.44,63.82Z"/><path class="cls-2" d="M3.34,65.15a2.63,2.63,0,0,1,.27-.39A2.63,2.63,0,0,0,3.34,65.15Z"/><path class="cls-2" d="M5.72,62.55a2.57,2.57,0,0,1,.44-.39A1.4,1.4,0,0,0,5.72,62.55Z"/><path class="cls-2" d="M2,67.48c.17-.28.28-.56.44-.89C2.23,66.92,2.06,67.2,2,67.48Z"/><path class="cls-2" d="M2.67,66.09A1.08,1.08,0,0,1,3,65.71C2.89,65.82,2.78,65.93,2.67,66.09Z"/><path class="cls-2" d="M3,65.59c.11-.16.17-.27.28-.44A2.81,2.81,0,0,1,3,65.59Z"/><path class="cls-2" d="M7.1,61.27a3,3,0,0,0,.45-.38A1.08,1.08,0,0,1,7.1,61.27Z"/><path class="cls-2" d="M5.66,63.93s.06,0,.06,0A.05.05,0,0,0,5.66,63.93Z"/><path class="cls-2" d="M5.16,64.71a.06.06,0,0,1,.06-.06A.06.06,0,0,0,5.16,64.71Z"/><path class="cls-2" d="M8,61.44Z"/><path class="cls-2" d="M5.66,62.55l-.77.77A9.27,9.27,0,0,1,5.66,62.55Z"/><path class="cls-2" d="M4.72,65.48s.06,0,.06,0S4.72,65.43,4.72,65.48Z"/><path class="cls-2" d="M4.39,66.26a.05.05,0,0,1,.05-.06C4.39,66.2,4.39,66.2,4.39,66.26Z"/><path class="cls-10" d="M39.51,62.1C36.85,56.62,28,54.13,19.07,56a32.82,32.82,0,0,0-6.15,1.93h0l.28.23h0a27.36,27.36,0,0,1,5.43-1.89c7.75-1.83,15.23.06,17.22,4.49S34,70.8,26.6,74.07h0C7.88,83.32,1.67,75,1.18,72.35c.72,7.76,11.63,12,24,8.26C36.74,77.12,42.61,68.53,39.51,62.1Z"/><path class="cls-11" d="M16.13,81.83A19.28,19.28,0,0,1,5.77,79.22,9.38,9.38,0,0,1,1.51,73.9c1.27,2,4.37,4.6,10,4.6h0c4.27,0,9.31-1.44,15-4.26a19.8,19.8,0,0,0,8.14-6.32c1.72-2.49,2.11-5.1,1.11-7.26-1-2.32-3.55-4-7-4.82,5,.78,8.86,3,10.47,6.32a8.61,8.61,0,0,1-.06,7.48c-2,4.71-7.36,8.7-14.29,10.8a29,29,0,0,1-8.81,1.39Z"/><path class="cls-12" d="M7.6,61.77c.11-.11.28-.22.39-.33A2.24,2.24,0,0,1,7.6,61.77Z"/><path class="cls-12" d="M1.4,69.08s0,0,.05,0S1.4,69,1.4,69.08Z"/><path class="cls-12" d="M3.28,65.21a.06.06,0,0,1,.06-.06Z"/><path class="cls-12" d="M4,64.27a.06.06,0,0,1,.06-.06Z"/><path class="cls-12" d="M1.06,72.41c0-.17-.05-.28-.05-.44A1.51,1.51,0,0,0,1.06,72.41Z"/><path class="cls-12" d="M3.61,64.76h0C3.67,64.71,3.61,64.71,3.61,64.76Z"/><path class="cls-12" d="M3,65.71a.06.06,0,0,1,.06-.06C3,65.59,3,65.65,3,65.71Z"/><path class="cls-12" d="M7.27,62.1a2.24,2.24,0,0,1,.39-.33A2.24,2.24,0,0,1,7.27,62.1Z"/><path class="cls-12" d="M1.23,69.53c0-.06,0-.06.06-.06A.06.06,0,0,1,1.23,69.53Z"/><path class="cls-12" d="M9.71,60.11a4.36,4.36,0,0,1,.88-.55A7.06,7.06,0,0,0,9.71,60.11Z"/><path class="cls-12" d="M1.9,67.59c0-.06.05-.06.05-.11S2,67.59,1.9,67.59Z"/><path class="cls-12" d="M13.09,58.12a25.73,25.73,0,0,0-2.5,1.38C11.42,59,12.25,58.56,13.09,58.12Z"/><path class="cls-12" d="M1.56,68.59c0-.06.06-.06.06-.11S1.56,68.53,1.56,68.59Z"/><path class="cls-12" d="M4.78,63.43l0,0Z"/><path class="cls-12" d="M1.12,70.08V70C1.18,70,1.12,70,1.12,70.08Z"/><path class="cls-12" d="M2.39,66.65a.06.06,0,0,1,.06-.06A.06.06,0,0,0,2.39,66.65Z"/><path class="cls-12" d="M8,61.38c.28-.22.5-.44.78-.66C8.54,61,8.27,61.16,8,61.38Z"/><path class="cls-12" d="M8.88,60.78a5.68,5.68,0,0,1,.83-.61A2.79,2.79,0,0,0,8.88,60.78Z"/><path class="cls-12" d="M24.22,75a4.87,4.87,0,0,0-.78.28C23.72,75.18,24,75.12,24.22,75Z"/><path class="cls-12" d="M4.72,65.43c.11-.22.28-.44.39-.67C5,64.93,4.89,65.15,4.72,65.43Z"/><path class="cls-12" d="M25.05,74.73c-.22.06-.44.17-.72.28A2.92,2.92,0,0,1,25.05,74.73Z"/><path class="cls-12" d="M5.16,64.65c.17-.22.28-.44.45-.66C5.5,64.15,5.33,64.38,5.16,64.65Z"/><path class="cls-12" d="M25.77,74.4c-.22.11-.44.17-.72.28C25.33,74.57,25.55,74.51,25.77,74.4Z"/><path class="cls-12" d="M4.22,66.59a2.72,2.72,0,0,1,.17-.39A3,3,0,0,0,4.22,66.59Z"/><path class="cls-12" d="M4,67.76c0-.12,0-.23,0-.34A.83.83,0,0,1,4,67.76Z"/><path class="cls-12" d="M4,67.37A.76.76,0,0,0,4.06,67,.46.46,0,0,1,4,67.37Z"/><path class="cls-12" d="M26.49,74.13a2.56,2.56,0,0,1-.72.27A5.59,5.59,0,0,1,26.49,74.13Z"/><path class="cls-12" d="M4.55,65.82a2.06,2.06,0,0,0,.17-.39A2.06,2.06,0,0,1,4.55,65.82Z"/><path class="cls-12" d="M3.89,68.53A.65.65,0,0,1,4,68.2.65.65,0,0,0,3.89,68.53Z"/><path class="cls-12" d="M5.66,62.55a.06.06,0,0,0,.06-.06Z"/><path class="cls-12" d="M3.89,68.14c0-.11.06-.22.06-.38A1,1,0,0,0,3.89,68.14Z"/><path class="cls-12" d="M4.44,66.15c.06-.11.06-.22.17-.33A.48.48,0,0,0,4.44,66.15Z"/><path class="cls-12" d="M6.6,62.82a1.17,1.17,0,0,0,.28-.33A1.17,1.17,0,0,1,6.6,62.82Z"/><path class="cls-12" d="M6.88,62.44l.33-.34C7.16,62.22,7,62.33,6.88,62.44Z"/><path class="cls-12" d="M6.27,63.16c.11-.11.17-.22.28-.34A1.44,1.44,0,0,1,6.27,63.16Z"/><path class="cls-12" d="M5.66,63.88c.06-.11.17-.22.28-.39A1,1,0,0,1,5.66,63.88Z"/><path class="cls-12" d="M4.11,67c.06-.11.06-.22.11-.33A.72.72,0,0,1,4.11,67Z"/><path class="cls-12" d="M6,63.54a1.31,1.31,0,0,1,.27-.33A1.31,1.31,0,0,0,6,63.54Z"/><path class="cls-13" d="M23.5,75.23c-10,3.16-19.11.28-19.61-5.87C3.56,65.21,7.44,60.89,13,58.17h0s0-.05.11-.05a.05.05,0,0,0,.05-.06h0a28,28,0,0,1,4.38-1.61c.22-.05,1.55-.44,1.55-.44-.22.06-1.66.33-2.11.44a17.79,17.79,0,0,0-2.71.89c-.17.06-1,.44-1.27.55h0a.06.06,0,0,0-.06.06h-.17C6.05,60.94,1,66.15,1,71.52v.39C.73,73.74,6.49,84,26.49,74.07A24.11,24.11,0,0,1,23.5,75.23Z"/><path class="cls-14" d="M12.81,61.88c7.59-5.43,12.91-6,15.18-6-.06-.06-.17-.06-.22-.11a24.26,24.26,0,0,0-9.26.44c-8.3,1.94-15.06,7.65-14.62,13.13C4.06,71.8,5.66,73.74,8.1,75,8.1,75,3,68.92,12.81,61.88Z"/><path class="cls-15" d="M7.82,74.73A6.87,6.87,0,0,1,4,69.36c-.23-2.55,1.21-5.32,4-7.75A24.18,24.18,0,0,1,18.46,56.4a27.69,27.69,0,0,1,5.93-.72,17.84,17.84,0,0,1,3,.22c-2.6.06-7.75,1.05-14.68,6C9,64.49,7.05,67.2,6.72,70A7.15,7.15,0,0,0,7.82,74.73Z"/><path class="cls-16" d="M8.1,75,7.93,75a6.76,6.76,0,0,1-4.1-5.54c-.22-2.61,1.22-5.43,4.1-7.87a25.11,25.11,0,0,1,10.58-5.26,27.07,27.07,0,0,1,5.88-.72,16.9,16.9,0,0,1,3.38.27h0a.18.18,0,0,0,.16.06l.28.11h-.28c-2.49,0-7.75.78-15.07,6-3.6,2.5-5.59,5.21-6,8a9.36,9.36,0,0,0-.06,1.27A6.33,6.33,0,0,0,8,74.85ZM24.33,55.57a26.18,26.18,0,0,0-5.82.72A25.64,25.64,0,0,0,7.93,61.5c-2.82,2.43-4.26,5.26-4,7.81.17,2.32,1.61,4.21,4,5.54A6.83,6.83,0,0,1,6.77,70c.39-2.83,2.38-5.6,6-8.15C20,56.73,25.38,56,27.93,56c-.05,0-.16-.12-.16-.12A17.15,17.15,0,0,0,24.33,55.57Z"/><path class="cls-17" d="M27.93,56h0c-2.27,0-7.86-1.11-15.4,4.32-2,1.44-5.59,5.54-5.76,10.19v.44c3.6-7.25,12.85-9.58,16.45-10s9.92.39,10.81,4.49C35,60.61,31.59,57.56,27.93,56Z"/><path class="cls-18" d="M12.59,60.39C17,57.29,20.84,56,25.22,56c.66,0,1.27,0,1.83,0,.38.06.72,0,.88.06,2.16,1,5.21,3,6.1,6.59C33.58,60.33,31.92,58,28,56h0c-2.27,0-7.87-1.11-15.4,4.32a13.4,13.4,0,0,0-4.27,4.88A13,13,0,0,1,12.59,60.39Z"/><path class="cls-19" d="M31.2,69.8C23.5,54.57,15.52,55.4,15.52,55.4,16,60.94,9.37,74.57,9.37,74.57c8,2.55,18-.83,21.72-4.6.17-.17.11-.17.11-.17Z"/><path class="cls-20" d="M22.34,39.39a12.77,12.77,0,0,0-8-1.16l3.22,2.55S6.38,49.47,3.67,51.52A14.56,14.56,0,0,1,1.4,53.07l1.11,2a27.8,27.8,0,0,0,11.19,1c1.38-.16,7.81-2.1,17.45,13.8C31.2,69.8,35.58,46.76,22.34,39.39Z"/><path class="cls-21" d="M11.59,78.22c-5.21,0-7.87-2.16-9-3.49A4.75,4.75,0,0,1,1.23,72h0v-.39c0-4.76,4-9.69,10.47-12.85-5.15,2.83-8.25,6.93-8,10.69.34,4.38,5.1,7.31,11.8,7.31a26.5,26.5,0,0,0,7-1,30.3,30.3,0,0,1-11,2.43Z"/></g><g id="logotype"><path class="cls-22" d="M62.89,62.27a11.44,11.44,0,0,1-3.22,1.22,14,14,0,0,1-3.43.39,10.46,10.46,0,0,1-3.82-.67,9.11,9.11,0,0,1-3-1.88,9,9,0,0,1-2-2.94,10.4,10.4,0,0,1-.72-3.76,9.61,9.61,0,0,1,.72-3.83,8.47,8.47,0,0,1,2-2.93A9.21,9.21,0,0,1,52.53,46a10.4,10.4,0,0,1,3.77-.66,11.6,11.6,0,0,1,3.37.5,6.76,6.76,0,0,1,2.88,1.77L61,49.25a5.62,5.62,0,0,0-2.22-1.49,7.57,7.57,0,0,0-5.43.11A8.27,8.27,0,0,0,51,49.36a6.5,6.5,0,0,0-1.49,2.33A7.27,7.27,0,0,0,49,54.63a7.42,7.42,0,0,0,.56,2.93A7.26,7.26,0,0,0,51,59.89a7.59,7.59,0,0,0,2.33,1.55,7.35,7.35,0,0,0,3,.55,11.41,11.41,0,0,0,2.27-.27,9.22,9.22,0,0,0,2.16-.78V55.51h-4.1V53.57h6.21v8.7Z"/><path class="cls-22" d="M66.27,57.62a6,6,0,0,1,.49-2.5,6.2,6.2,0,0,1,1.33-1.93,6.07,6.07,0,0,1,2-1.28,7.27,7.27,0,0,1,5,0,5.37,5.37,0,0,1,2,1.28,6,6,0,0,1,1.33,1.93,6.48,6.48,0,0,1,0,5,6,6,0,0,1-1.33,1.94,6.22,6.22,0,0,1-2,1.27,7.11,7.11,0,0,1-5,0,5.35,5.35,0,0,1-2-1.27,6.13,6.13,0,0,1-1.33-1.94A5.92,5.92,0,0,1,66.27,57.62Zm2.1,0a5.67,5.67,0,0,0,.28,1.71,4.36,4.36,0,0,0,.83,1.39,4.41,4.41,0,0,0,1.33.94,4.36,4.36,0,0,0,1.72.33,4,4,0,0,0,3-1.27,3.12,3.12,0,0,0,.83-1.39,5.37,5.37,0,0,0,.28-1.71,5.74,5.74,0,0,0-.28-1.72,4,4,0,0,0-.83-1.38,3.93,3.93,0,0,0-1.33-1,4.31,4.31,0,0,0-1.71-.33,4.36,4.36,0,0,0-1.72.33,4.62,4.62,0,0,0-1.33,1,3.09,3.09,0,0,0-.83,1.38A5.74,5.74,0,0,0,68.37,57.62Z"/><path class="cls-22" d="M82.05,44.6H84V63.43H82.05Z"/><path class="cls-22" d="M97.68,61.38h0a5.21,5.21,0,0,1-1.78,1.67,5.54,5.54,0,0,1-2.77.66,6.56,6.56,0,0,1-2.32-.44A6.25,6.25,0,0,1,88.92,62a5.46,5.46,0,0,1-1.22-1.94,7,7,0,0,1,0-4.87A5.14,5.14,0,0,1,89,53.24,5,5,0,0,1,90.92,52a6.17,6.17,0,0,1,2.55-.45,5.3,5.3,0,0,1,2.32.5,5.37,5.37,0,0,1,1.89,1.5h0V44.65h1.94V63.49H97.73V61.38Zm0-3.76a5.74,5.74,0,0,0-.28-1.72,4.38,4.38,0,0,0-.83-1.38,3.93,3.93,0,0,0-1.33-1,4.65,4.65,0,0,0-3.44,0,4.76,4.76,0,0,0-1.33,1,3.28,3.28,0,0,0-.83,1.38,5.8,5.8,0,0,0-.27,1.72,6,6,0,0,0,.27,1.71,3.92,3.92,0,0,0,2.16,2.33,4.65,4.65,0,0,0,3.44,0,4.41,4.41,0,0,0,1.33-.94,3.22,3.22,0,0,0,.83-1.39A5.37,5.37,0,0,0,97.68,57.62Z"/><path class="cls-22" d="M113.8,61.33a6,6,0,0,1-2.33,1.88,8,8,0,0,1-2.94.56,5.92,5.92,0,0,1-2.49-.5,5.82,5.82,0,0,1-1.88-1.33A6.36,6.36,0,0,1,103,60a6.87,6.87,0,0,1-.38-2.38,7.34,7.34,0,0,1,.44-2.5,5.2,5.2,0,0,1,1.27-1.93,6.25,6.25,0,0,1,1.89-1.28,6.74,6.74,0,0,1,2.43-.44,6.07,6.07,0,0,1,2.28.39,4.83,4.83,0,0,1,1.77,1.21A5.26,5.26,0,0,1,113.85,55a7.54,7.54,0,0,1,.39,2.61v.61h-9.53a4.46,4.46,0,0,0,.39,1.44,6.12,6.12,0,0,0,.83,1.22,4.45,4.45,0,0,0,1.16.83,3.35,3.35,0,0,0,1.5.27,5.13,5.13,0,0,0,2.16-.44,4.53,4.53,0,0,0,1.61-1.33Zm-1.72-4.77a3.26,3.26,0,0,0-1-2.38,3.48,3.48,0,0,0-2.55-.88,3.79,3.79,0,0,0-2.66.88,4,4,0,0,0-1.21,2.38Z"/><path class="cls-22" d="M117.23,54.57a14.06,14.06,0,0,0,0-1.5,9.36,9.36,0,0,1-.06-1.27H119v1.94h.06a3.61,3.61,0,0,1,.55-.83,3.79,3.79,0,0,1,.89-.72,4,4,0,0,1,1.11-.5,5.45,5.45,0,0,1,1.33-.17,5.18,5.18,0,0,1,2,.34,3.22,3.22,0,0,1,1.39,1,4.26,4.26,0,0,1,.83,1.5,7.39,7.39,0,0,1,.27,1.94v7.2h-1.93v-7a3.64,3.64,0,0,0-.67-2.32,2.42,2.42,0,0,0-2-.83,4.07,4.07,0,0,0-1.66.33,2.65,2.65,0,0,0-1.11.94,4.78,4.78,0,0,0-.66,1.44,6.2,6.2,0,0,0-.23,1.83v5.7h-1.93v-9Z"/><path class="cls-22" d="M130.53,63.32V63.1a3.35,3.35,0,0,0,1.16-.33,3.77,3.77,0,0,0,.94-.67.54.54,0,0,0,.17-.44c0-.16,0-.39.11-.66s.05-.5.05-.78V48.48a4.57,4.57,0,0,0-.05-.83,3,3,0,0,0-.11-.72,1.06,1.06,0,0,0-.22-.5,1.72,1.72,0,0,0-.89-.61,6.37,6.37,0,0,0-1.16-.28v-.28h7.53v.28c-.33.06-.72.17-1.11.28a1.61,1.61,0,0,0-.94.77,2.1,2.1,0,0,0-.22,1.06,7.78,7.78,0,0,1-.06,1.21V61.05A1.66,1.66,0,0,0,136,62a2,2,0,0,0,.94.67,6.62,6.62,0,0,0,1.16.28v.22h-7.53Z"/><path class="cls-22" d="M158.22,57.89a8.86,8.86,0,0,1-2.05,2.94,9.45,9.45,0,0,1-3,1.94,10.22,10.22,0,0,1-3.65.66,9.68,9.68,0,0,1-3.6-.66,8.23,8.23,0,0,1-3-1.88A9.64,9.64,0,0,1,140.89,58a9.08,9.08,0,0,1-.72-3.72,9.61,9.61,0,0,1,.77-3.87,7.81,7.81,0,0,1,2.11-2.88,9.36,9.36,0,0,1,3.1-1.83,10.29,10.29,0,0,1,3.71-.61,9.2,9.2,0,0,1,3.82.72,8.87,8.87,0,0,1,2.88,2,9.66,9.66,0,0,1,1.83,2.88,9.25,9.25,0,0,1,.61,3.44A9.09,9.09,0,0,1,158.22,57.89Zm-2.77-6.7a11.22,11.22,0,0,0-1.16-2.82,7,7,0,0,0-2-2,5.08,5.08,0,0,0-2.77-.78,5.14,5.14,0,0,0-2.83.78,6.36,6.36,0,0,0-1.94,2,9,9,0,0,0-1.1,2.82,14.92,14.92,0,0,0-.39,3.21,12.73,12.73,0,0,0,.39,3.27,8.23,8.23,0,0,0,1.21,2.77,6.73,6.73,0,0,0,2,1.94,5,5,0,0,0,2.77.72,5.16,5.16,0,0,0,2.77-.77,6.36,6.36,0,0,0,1.94-2,10.91,10.91,0,0,0,1.16-2.83,12.16,12.16,0,0,0,.39-3.16A14.59,14.59,0,0,0,155.45,51.19Z"/><path class="cls-22" d="M58.73,70.69a.28.28,0,0,1-.55,0c0-.55-.28-.89-.72-.89H55.52c-.44,0-.72.28-.72.89v2.83c0,.55.28.88.72.88h1.94c.44,0,.72-.33.72-.88V72.35H56.52a.25.25,0,1,1,0-.5h1.94a.26.26,0,0,1,.27.23v1.44a1.26,1.26,0,0,1-1.22,1.33H55.57a1.25,1.25,0,0,1-1.21-1.33V70.69a1.25,1.25,0,0,1,1.21-1.33h1.94A1.26,1.26,0,0,1,58.73,70.69Z"/><path class="cls-22" d="M60.06,71.85a1.09,1.09,0,0,1,1-1h1.22a1,1,0,0,1,1,1v1.94a1,1,0,0,1-1,1.06H61.06a1,1,0,0,1-1-1.06Zm.5,0v1.94c0,.39.11.56.44.56h1.22c.33,0,.45-.17.45-.56V71.85c0-.33-.17-.55-.45-.55H61C60.73,71.3,60.56,71.52,60.56,71.85Z"/><path class="cls-22" d="M64.55,69.31a.28.28,0,0,1,.55,0v4.48c0,.39.17.56.45.56a.25.25,0,0,1,0,.5,1,1,0,0,1-1-1.06Z"/><path class="cls-22" d="M70.37,71.08v3.54a.27.27,0,0,1-.28.23H68.15a1,1,0,0,1-1-1.06V71.85a1.09,1.09,0,0,1,1-1h1.66V69.31a.28.28,0,0,1,.56,0Zm-.56.22H68.15c-.28,0-.44.22-.44.55v1.94c0,.39.11.56.44.56h1.66Z"/><path class="cls-22" d="M71.7,72.85v-1a1.08,1.08,0,0,1,1-1H74a1,1,0,0,1,1,1v1a.25.25,0,0,1-.28.22H72.25v.72c0,.34.17.56.5.56h1.33c.33,0,.44-.22.44-.56a.28.28,0,0,1,.55,0,1,1,0,0,1-1,1.06H72.75a1,1,0,0,1-1-1.06v-.94Zm.49-.22h2.28v-.72c0-.39-.17-.55-.45-.55H72.69a.48.48,0,0,0-.5.55v.72Z"/><path class="cls-22" d="M76.85,74.62a.28.28,0,0,1-.56,0V71.85a1.09,1.09,0,0,1,1-1h1.22a1,1,0,0,1,1,1v2.77a.28.28,0,0,1-.56,0V71.85c0-.33-.16-.55-.44-.55H77.29c-.28,0-.44.22-.44.55Z"/><path class="cls-22" d="M80.89,71.08c0-.33.56-.33.56,0v3.54a.28.28,0,0,1-.56,0ZM81.17,70a.25.25,0,0,1,0-.5h0a.25.25,0,0,1,0,.5Z"/><path class="cls-22" d="M82.77,71.85a1.09,1.09,0,0,1,1-1H85a1,1,0,0,1,1,1v1.94a1,1,0,0,1-1,1.06H83.77a1,1,0,0,1-1-1.06Zm.56,0v1.94c0,.39.11.56.44.56H85c.33,0,.44-.17.44-.56V71.85c0-.33-.16-.55-.44-.55H83.77C83.49,71.3,83.33,71.52,83.33,71.85Z"/><path class="cls-22" d="M92.36,69.31H94.3a.25.25,0,1,1,0,.49H92.64v4.82a.28.28,0,0,1-.56,0V69.8H90.42a.25.25,0,1,1,0-.49Z"/><path class="cls-22" d="M95.9,72.85v-1a1.09,1.09,0,0,1,1-1h1.33a1,1,0,0,1,1,1v1a.25.25,0,0,1-.28.22H96.46v.72c0,.34.16.56.5.56h1.33c.33,0,.44-.22.44-.56a.28.28,0,0,1,.55,0,1,1,0,0,1-1,1.06H97a1,1,0,0,1-1-1.06v-.94Zm.56-.22h2.27v-.72c0-.39-.17-.55-.44-.55H97c-.34,0-.5.22-.5.55v.72Z"/><path class="cls-22" d="M103.77,71.85a.28.28,0,0,1-.55,0c0-.38-.17-.55-.45-.55h-1.22c-.27,0-.44.22-.44.55v2c0,.39.11.55.44.55h1.28c.28,0,.44-.16.44-.55s.56-.33.56,0a1,1,0,0,1-1,1.05h-1.27a1,1,0,0,1-1-1.05v-2a1.09,1.09,0,0,1,1-1h1.22A1.08,1.08,0,0,1,103.77,71.85Z"/><path class="cls-22" d="M105.6,71a1,1,0,0,1,.44-.11h1.22a1,1,0,0,1,1,1v2.77c0,.33-.56.33-.56,0V71.91c0-.33-.16-.55-.44-.55H106c-.28,0-.44.22-.44.55v2.77c0,.33-.56.33-.56,0V69.36c0-.33.56-.33.56,0Z"/><path class="cls-22" d="M110.14,74.62a.28.28,0,0,1-.55,0V71.85a1.08,1.08,0,0,1,1-1h1.22a1,1,0,0,1,1,1v2.77a.28.28,0,0,1-.55,0V71.85c0-.33-.17-.55-.45-.55h-1.22c-.27,0-.44.22-.44.55Z"/><path class="cls-22" d="M114.13,71.85a1.08,1.08,0,0,1,1-1h1.21a1,1,0,0,1,1,1v1.94a1,1,0,0,1-1,1.06h-1.21a1,1,0,0,1-1-1.06Zm.55,0v1.94c0,.39.11.56.45.56h1.21c.34,0,.45-.17.45-.56V71.85c0-.33-.17-.55-.45-.55h-1.21C114.85,71.3,114.68,71.52,114.68,71.85Z"/><path class="cls-22" d="M118.67,69.31a.28.28,0,0,1,.56,0v4.48c0,.39.16.56.44.56a.25.25,0,0,1,0,.5,1,1,0,0,1-1-1.06Z"/><path class="cls-22" d="M121.22,71.85a1.08,1.08,0,0,1,1-1h1.22a1,1,0,0,1,1,1v1.94a1,1,0,0,1-1,1.06h-1.22a1,1,0,0,1-1-1.06Zm.55,0v1.94c0,.39.11.56.45.56h1.22c.33,0,.44-.17.44-.56V71.85c0-.33-.17-.55-.44-.55h-1.22C121.94,71.3,121.77,71.52,121.77,71.85Z"/><path class="cls-22" d="M126.76,76.51a.25.25,0,0,1,0-.5H128a.51.51,0,0,0,.44-.55V74.9h-1.66a1,1,0,0,1-1-1.05v-2a1.09,1.09,0,0,1,1-1h1.94A.26.26,0,0,1,129,71V75.4a1.08,1.08,0,0,1-1,1h-1.22Zm1.66-2.11V71.3h-1.66c-.28,0-.44.22-.44.55v2c0,.39.11.55.44.55Z"/><path class="cls-22" d="M133.19,70.8c.11,0,.27.11.27.22v.11l-1.33,3.55c-.27.94-.72,1.77-1.22,1.77h-.33a.25.25,0,0,1,0-.5h.33c.17,0,.45-.49.72-1.38l-1.33-3.49c-.11-.28.39-.44.5-.17l1.11,2.88L133,70.91A.49.49,0,0,1,133.19,70.8Z"/><path class="cls-22" d="M138.28,69.58c0-.33.56-.33.56,0V74.4h2.82a.25.25,0,0,1,0,.5h-3.1a.25.25,0,0,1-.28-.22Z"/><path class="cls-22" d="M143.93,71.3v2.55c0,.33.11.55.33.55h.45a.25.25,0,0,1,0,.5h-.45a1,1,0,0,1-.88-1.05V71.3h-.06a.25.25,0,0,1,0-.5h.06V69.31a.28.28,0,0,1,.55,0V70.8h.5a.25.25,0,0,1,0,.5Z"/><path class="cls-22" d="M149.25,71.08v3.54a.26.26,0,0,1-.28.23H147a1,1,0,0,1-1-1.06V71.85a1.08,1.08,0,0,1,1-1h1.67V69.31a.28.28,0,0,1,.55,0Zm-.55.22H147c-.27,0-.44.22-.44.55v1.94c0,.39.11.56.44.56h1.67Z"/><path class="cls-22" d="M151.13,74.85a.25.25,0,0,1,0-.5h0c.39.05.39.5,0,.5Z"/></g></g></g></svg>