<svg xmlns="http://www.w3.org/2000/svg" viewBox="0 0 160 80"><defs><style>.cls-1{fill:#ea4647;}</style></defs><title>gusto</title><g id="Speaker"><g id="GUSTO"><path class="cls-1" d="M63.28,39.53h8a.3.3,0,0,1,.3.3v.39A14.17,14.17,0,0,1,71,44.37a8.71,8.71,0,0,1-1.81,3.12,9.44,9.44,0,0,1-7.37,3.26,10.15,10.15,0,0,1-7.48-3.15,10.85,10.85,0,0,1,.06-15.27,10.94,10.94,0,0,1,12.25-2.18,12.8,12.8,0,0,1,3.81,3,.28.28,0,0,1,0,.37l-1.83,1.76a.27.27,0,0,1-.4,0,7.58,7.58,0,0,0-11.59-.89A7.59,7.59,0,0,0,54.4,40,7.83,7.83,0,0,0,62,47.8a6.28,6.28,0,0,0,4.16-1.56,5.53,5.53,0,0,0,2.06-3.76H63.28a.3.3,0,0,1-.3-.3V39.83A.31.31,0,0,1,63.28,39.53Z"/><path class="cls-1" d="M81.32,29.56a.3.3,0,0,1,.3.3V42.08A6.84,6.84,0,0,0,82.5,46a4.68,4.68,0,0,0,7.36,0,6.74,6.74,0,0,0,.88-3.92V29.86a.3.3,0,0,1,.3-.3h2.54a.31.31,0,0,1,.3.3V43a7.49,7.49,0,0,1-2,5.42,7.92,7.92,0,0,1-11.3,0,7.49,7.49,0,0,1-2-5.42V29.86a.31.31,0,0,1,.3-.3Z"/><path class="cls-1" d="M113.21,32.89,111.35,34a.32.32,0,0,1-.44-.11,4,4,0,0,0-1.2-1.34,3.16,3.16,0,0,0-1.74-.43,3.2,3.2,0,0,0-2.16.74,2.3,2.3,0,0,0-.87,1.83c0,1,.76,1.84,2.27,2.46l2.07.85a8.74,8.74,0,0,1,3.7,2.5,5.59,5.59,0,0,1,1.18,3.62,6.35,6.35,0,0,1-1.92,4.74,6.54,6.54,0,0,1-4.78,1.89A6.4,6.4,0,0,1,103,49.13a7.2,7.2,0,0,1-2.09-4.07.47.47,0,0,1,.36-.55l2.39-.52a.32.32,0,0,1,.4.27,4.79,4.79,0,0,0,.71,2.18,3.24,3.24,0,0,0,2.82,1.35,3.29,3.29,0,0,0,2.44-1,3.4,3.4,0,0,0,1-2.49,3.33,3.33,0,0,0-.17-1.12,2.73,2.73,0,0,0-.52-.92,4.3,4.3,0,0,0-.92-.8,9.36,9.36,0,0,0-1.35-.7l-2-.84q-4.27-1.8-4.27-5.28a5,5,0,0,1,1.79-3.91A6.48,6.48,0,0,1,108,29.16a6.09,6.09,0,0,1,5.36,3.07A.46.46,0,0,1,113.21,32.89Z"/><path class="cls-1" d="M128.23,32.51V50.06a.3.3,0,0,1-.3.3h-2.54a.29.29,0,0,1-.3-.3V32.51h-5a.29.29,0,0,1-.3-.3V29.86a.3.3,0,0,1,.3-.3h13.23a.31.31,0,0,1,.3.3v2.35a.3.3,0,0,1-.3.3Z"/><path class="cls-1" d="M137.26,39.87a10.16,10.16,0,0,1,3.22-7.54,10.58,10.58,0,0,1,7.7-3.16A10.87,10.87,0,0,1,159,40a10.21,10.21,0,0,1-3.21,7.61,11,11,0,0,1-15,.35A10.23,10.23,0,0,1,137.26,39.87Zm3.17,0a7.71,7.71,0,0,0,13.16,5.63,8.08,8.08,0,0,0,0-11.15,7.35,7.35,0,0,0-5.47-2.26,7.67,7.67,0,0,0-7.71,7.78Z"/><path class="cls-1" d="M22,50.31a9.22,9.22,0,1,1,7.8-14.13,1.21,1.21,0,0,1-2,1.29A6.8,6.8,0,1,0,22,47.9c2.09,0,3.25-1.28,4.87-3,.57-.63,1.16-1.28,1.84-1.93a1.21,1.21,0,0,1,1.66,1.76c-.62.59-1.17,1.2-1.71,1.79C26.87,48.45,25.17,50.31,22,50.31Z"/><path class="cls-1" d="M30,50a1.21,1.21,0,0,1-1.21-1.2V43.58H24a1.21,1.21,0,1,1,0-2.42h6a1.21,1.21,0,0,1,1.21,1.21v6.4A1.21,1.21,0,0,1,30,50Z"/><path class="cls-1" d="M23.93,61.93a19,19,0,1,1,19-19A19.06,19.06,0,0,1,23.93,61.93Zm0-36.83a17.8,17.8,0,1,0,17.8,17.8A17.82,17.82,0,0,0,23.93,25.1Z"/><path class="cls-1" d="M20,61.93a19,19,0,1,1,19-19A19.06,19.06,0,0,1,20,61.93ZM20,25.1A17.8,17.8,0,1,0,37.83,42.9,17.83,17.83,0,0,0,20,25.1Z"/><path class="cls-1" d="M22.11,59a19,19,0,1,1,19-19A19.06,19.06,0,0,1,22.11,59Zm0-36.83A17.8,17.8,0,1,0,39.9,40,17.81,17.81,0,0,0,22.11,22.2Z"/></g></g></svg>