<svg xmlns="http://www.w3.org/2000/svg" xmlns:xlink="http://www.w3.org/1999/xlink" viewBox="0 0 160 120"><defs><style>.cls-1{fill:url(#linear-gradient);}.cls-13,.cls-2{fill:none;}.cls-3{fill:#dbdcdc;}.cls-4{clip-path:url(#clip-path);}.cls-5{fill:url(#radial-gradient);}.cls-6{fill:url(#linear-gradient-2);}.cls-7{opacity:0.2;}.cls-8{clip-path:url(#clip-path-2);}.cls-9{clip-path:url(#clip-path-3);}.cls-10{mask:url(#mask);}.cls-11{fill:url(#linear-gradient-3);}.cls-12{fill:#69bfbf;}.cls-13{stroke:#5ab5ad;stroke-miterlimit:10;stroke-width:0.28px;}.cls-14{fill:#595a5a;}</style><linearGradient id="linear-gradient" x1="-81.81" y1="494.67" x2="-81.41" y2="494.67" gradientTransform="matrix(31.92, 0, 0, -31.92, 2675.95, 15841.72)" gradientUnits="userSpaceOnUse"><stop offset="0" stop-color="#fff"/><stop offset="0.02" stop-color="#f1f1f1"/><stop offset="0.11" stop-color="silver"/><stop offset="0.19" stop-color="#999"/><stop offset="0.26" stop-color="#7d7d7d"/><stop offset="0.33" stop-color="#6c6c6c"/><stop offset="0.38" stop-color="#666"/><stop offset="1"/></linearGradient><clipPath id="clip-path"><path class="cls-2" d="M74.55,39.17,65.73,28.76V40l-5.6-3.2V40s1.6,24,19.22,24S98.58,40,98.58,40v-3.2L93.77,40V28.76L84.16,39.17,79.35,20.75Z"/></clipPath><radialGradient id="radial-gradient" cx="-83.01" cy="488.01" r="0.4" gradientTransform="matrix(-109.26, 0, 0, 109.26, -8970.24, -53279.61)" gradientUnits="userSpaceOnUse"><stop offset="0" stop-color="#fff"/><stop offset="0.01" stop-color="#f8fcfc"/><stop offset="0.08" stop-color="#cee9e7"/><stop offset="0.16" stop-color="#aad9d5"/><stop offset="0.24" stop-color="#8dcbc6"/><stop offset="0.33" stop-color="#76c1bb"/><stop offset="0.42" stop-color="#66bab3"/><stop offset="0.52" stop-color="#5db5ae"/><stop offset="0.66" stop-color="#5ab4ad"/><stop offset="0.86" stop-color="#44918b"/><stop offset="1" stop-color="#347772"/><stop offset="1" stop-color="#347772"/></radialGradient><linearGradient id="linear-gradient-2" x1="-83.5" y1="489.1" x2="-83.1" y2="489.1" gradientTransform="matrix(0, 98.96, 98.96, 0, -48319.76, 8285.63)" gradientUnits="userSpaceOnUse"><stop offset="0" stop-color="#65c1c2"/><stop offset="0.4" stop-color="#65c1c2"/><stop offset="0.51" stop-color="#60bcc0"/><stop offset="0.64" stop-color="#53afb9"/><stop offset="0.78" stop-color="#3d99ad"/><stop offset="0.91" stop-color="#1e7a9d"/><stop offset="1" stop-color="#076291"/></linearGradient><clipPath id="clip-path-2"><rect class="cls-2" x="61.39" y="38.34" width="22.93" height="24.6"/></clipPath><clipPath id="clip-path-3"><path class="cls-2" d="M83.82,61.92C69.48,61.92,65.37,46.59,64.26,40l-2.87-1.64v2.89s1.45,21.71,17.37,21.71a14.81,14.81,0,0,0,5.56-1h-.5"/></clipPath><mask id="mask" x="50.74" y="28.41" width="44.23" height="44.46" maskUnits="userSpaceOnUse"><rect class="cls-1" x="56.78" y="34.26" width="32.16" height="32.77" transform="translate(-15.56 43.21) rotate(-30)"/></mask><linearGradient id="linear-gradient-3" x1="-81.81" y1="494.67" x2="-81.41" y2="494.67" gradientTransform="matrix(31.92, 0, 0, -31.92, 2675.95, 15841.69)" gradientUnits="userSpaceOnUse"><stop offset="0" stop-color="#fff"/><stop offset="0.38" stop-color="#fff"/><stop offset="1" stop-color="#f7f7f7"/></linearGradient></defs><title>incubit</title><g id="Gold"><g id="Incubit"><g id="logo"><path class="cls-3" d="M93.32,63.6c0,.55-3.39,1-7.57,1s-7.58-.45-7.58-1,3.39-1,7.58-1,7.57.45,7.57,1"/><g class="cls-4"><rect class="cls-5" x="57.5" y="22.9" width="43.71" height="38.96" transform="translate(36.04 121.22) rotate(-89.32)"/><rect class="cls-6" x="50.72" y="13.45" width="57.26" height="57.85" transform="translate(-8.68 60.92) rotate(-40)"/><g class="cls-7"><g class="cls-8"><g class="cls-9"><g class="cls-10"><rect class="cls-11" x="56.78" y="34.26" width="32.16" height="32.77" transform="translate(-15.56 43.21) rotate(-30)"/></g></g></g></g></g><path class="cls-12" d="M79.35,13.2a1.6,1.6,0,1,0-1.6-1.6,1.59,1.59,0,0,0,1.6,1.6"/><path class="cls-13" d="M79.35,13.2a1.6,1.6,0,1,0-1.6-1.6A1.59,1.59,0,0,0,79.35,13.2Z"/><path class="cls-12" d="M64.93,28a1.6,1.6,0,1,0-1.6-1.6,1.61,1.61,0,0,0,1.6,1.6"/><path class="cls-13" d="M64.93,28a1.6,1.6,0,1,0-1.6-1.6A1.61,1.61,0,0,0,64.93,28Z"/><path class="cls-12" d="M94.57,28a1.6,1.6,0,1,0-1.6-1.6,1.6,1.6,0,0,0,1.6,1.6"/><path class="cls-13" d="M94.57,28a1.6,1.6,0,1,0-1.6-1.6A1.6,1.6,0,0,0,94.57,28Z"/></g><g id="logotype"><g id="it"><path class="cls-12" d="M114.31,71.83a1.81,1.81,0,0,1,1.62-1.8,1.83,1.83,0,0,1,1.69,1.86,1.66,1.66,0,0,1-3.31-.06m3.11,5.39V88.55a1.44,1.44,0,1,1-2.88,0V77.22A1.45,1.45,0,0,1,116,75.77a1.46,1.46,0,0,1,1.46,1.45"/><path class="cls-13" d="M114.31,71.83a1.81,1.81,0,0,1,1.62-1.8,1.83,1.83,0,0,1,1.69,1.86,1.66,1.66,0,0,1-3.31-.06Zm3.11,5.39V88.55a1.44,1.44,0,1,1-2.88,0V77.22A1.45,1.45,0,0,1,116,75.77,1.46,1.46,0,0,1,117.42,77.22Z"/><path class="cls-12" d="M127.34,86.15a1,1,0,0,0,1,1h2.54a1.44,1.44,0,1,1,0,2.88h-2.54a3.77,3.77,0,0,1-3.85-3.48v-15a1.44,1.44,0,1,1,2.88,0v4.36a5.15,5.15,0,0,1,1-.11h3.4a1.44,1.44,0,1,1,0,2.88h-3.4a1,1,0,0,0-1,1Z"/></g><path id="incub" class="cls-14" d="M32.89,87.31A2.37,2.37,0,0,1,35.47,90H26.84a2.32,2.32,0,0,1,2.62-2.68h.25V72.91H28.26a1.44,1.44,0,0,1,0-2.88H34a1.44,1.44,0,1,1,0,2.88H32.59v14.4h.3M45.1,75.74a3.84,3.84,0,0,0-3.85,3.85v9a1.44,1.44,0,1,0,2.88,0v-9a1,1,0,0,1,1-1H49a1,1,0,0,1,1,1v9a1.44,1.44,0,1,0,2.88,0v-9A3.83,3.83,0,0,0,49,75.74ZM69.44,88.57A1.47,1.47,0,0,0,68,87.12H63.56a1,1,0,0,1-1-1V79.59a1,1,0,0,1,1-1H67.7a1.46,1.46,0,0,0,1.45-1.46,1.45,1.45,0,0,0-1.45-1.42H63.48A4.06,4.06,0,0,0,59.71,80v5.82A4,4,0,0,0,63.48,90H68a1.46,1.46,0,0,0,1.46-1.43M84,90a3.83,3.83,0,0,0,3.85-3.85v-9a1.44,1.44,0,1,0-2.88,0v9a1,1,0,0,1-1,1H80.13a1,1,0,0,1-1-1v-9a1.44,1.44,0,1,0-2.88,0v9A3.83,3.83,0,0,0,80.13,90ZM96.17,70a1.46,1.46,0,0,0-1.43,1.46v15A3.77,3.77,0,0,0,98.59,90h3.88a3.85,3.85,0,0,0,3.85-3.85V79.59a3.87,3.87,0,0,0-3.85-3.85H98.59a3.45,3.45,0,0,0-1,.14V71.49A1.47,1.47,0,0,0,96.17,70m1.45,9.56a1,1,0,0,1,1-.94h3.88a1,1,0,0,1,.94.94v6.56a1,1,0,0,1-.94,1H98.59a1,1,0,0,1-1-1Z"/></g></g></g></svg>