<svg xmlns="http://www.w3.org/2000/svg" viewBox="0 0 160 80"><title>le_tote</title><g id="Speaker"><g id="Le_Tote" data-name="Le Tote"><path d="M1,50.38v-.71H3.55V30.33H1v-.71H9.42v.71H6.56V49.67h5.57c2.54,0,3.76-3.11,4.13-5.1h.59l-.34,5.81Z"/><path d="M25.55,50.38v-.71h2.74V30.33H25.55v-.71H41.31v5.07h-.69c-.52-3.7-2.45-4.36-5.28-4.36h-4v9c3.14,0,4.13,0,4.57-3.33h.68v7.86h-.68c-.19-3.32-1.49-3.73-4.57-3.76v9.61h3.76c4.1,0,5.47-.5,6.28-5.1h.81l-.41,5.81Z"/><path d="M69.59,50.38v-.71h2.58V30.33H70.06c-3,0-3.27,2.21-3.86,5.29h-.81l.35-6h16l.22,6h-.81c-.34-2.95-1.37-5.29-4.6-5.29H75.18V49.67h2.58v.71Z"/><path d="M90.6,40c0-5.5,3.57-10.82,8.92-10.82s8.92,5.32,8.92,10.82-3.58,10.88-8.92,10.88S90.6,45.47,90.6,40Zm14.29,0c0-6.43-1.08-10.13-5.37-10.13S94.14,33.57,94.14,40s1.09,10.13,5.38,10.13S104.89,46.4,104.89,40Z"/><path d="M121.27,50.38v-.71h2.58V30.33h-2.11c-3,0-3.27,2.21-3.86,5.29h-.8l.34-6h16l.22,6h-.81c-.34-2.95-1.37-5.29-4.6-5.29h-1.36V49.67h2.57v.71Z"/><path d="M142.4,50.38v-.71h2.74V30.33H142.4v-.71h15.76v5.07h-.68c-.53-3.7-2.46-4.36-5.29-4.36h-4v9c3.14,0,4.14,0,4.57-3.33h.69v7.86h-.69c-.18-3.32-1.49-3.73-4.57-3.76v9.61h3.76c4.11,0,5.47-.5,6.28-5.1H159l-.4,5.81Z"/></g></g></svg>