<svg xmlns="http://www.w3.org/2000/svg" viewBox="0 0 160 80"><defs><style>.cls-1{fill:#e71d1d;fill-rule:evenodd;}.cls-2{fill:#302c2c;}</style></defs><title>red_panthers</title><g id="Speaker"><g id="Red_Panthers" data-name="Red Panthers"><path class="cls-1" d="M29,36.47c.66.77,1.3,1.5,1.93,2.25a.54.54,0,0,1,0,.4c-.63,2.81-1.26,5.62-1.91,8.42a.71.71,0,0,0,.17.72c.91,1,1.68,2.09,2.64,3.21l2.85-3.26a.59.59,0,0,0,.16-.58c-.65-2.8-1.28-5.61-1.93-8.41a.7.7,0,0,1,.17-.69c.61-.66,1.19-1.35,1.83-2.1.57.41,1.16.78,1.7,1.22a11.88,11.88,0,0,1,4.38,8,9.09,9.09,0,0,1-.39,3.94q-1.08,3.53-2.14,7.05c-.27.9-.06,1.32.77,1.77a21.34,21.34,0,0,1,2.12,1.24,2.07,2.07,0,0,1,.84,2,1.55,1.55,0,0,1-1.61,1.44l-17.08,0a1.73,1.73,0,0,1-1.72-2.48,2.31,2.31,0,0,1,.68-.95,20.43,20.43,0,0,1,1.79-1.1c.25-.15.52-.27.76-.44a1,1,0,0,0,.43-1.25c-.49-1.66-1-3.32-1.48-5-.34-1.14-.73-2.27-1-3.43a10,10,0,0,1,.56-5.67,12,12,0,0,1,5-6.11Z"/><path class="cls-1" d="M44.33,19a11.35,11.35,0,0,1-1.2,5.24,1.28,1.28,0,0,0-.05.84,8.72,8.72,0,0,1-4.55,10.3l-.68.31a3.55,3.55,0,0,1-3.07.14,6.13,6.13,0,0,0-4.93-.12c-2.18.91-4,.08-5.63-1.16A8.2,8.2,0,0,1,21,25.78a4.12,4.12,0,0,0-.22-2.51,10.59,10.59,0,0,1-.62-5.6c.11-.66.3-.82,1-.76a9.35,9.35,0,0,1,4.87,2,.93.93,0,0,0,.92.18,18.84,18.84,0,0,1,10.55,0,.93.93,0,0,0,.93-.18,9.92,9.92,0,0,1,5-2c.57-.07.82.13.91.71,0,.1,0,.21,0,.32C44.34,18.3,44.33,18.64,44.33,19ZM25.38,24.74C25,27.87,26.85,30,30.31,29.65,30.58,26.23,28.61,24.44,25.38,24.74Zm9,4.93c3.23.28,5.26-1.5,4.94-4.93C36,24.42,34.07,26.29,34.33,29.67Z"/><path class="cls-1" d="M39.71,58a16.65,16.65,0,0,0,3-1.2,5.31,5.31,0,0,0,2.19-2,5.78,5.78,0,0,0-.34-3.11c-.48-1.2-1.47-2.69-2-3.91a7.16,7.16,0,0,1-.41-5.28c.75-1.76,3.7-3,4.4-2.37s.64,1.24.41,1.58-1.12.33-2,.77-1.15,2-.86,3.23,1.52,2.8,2.23,4S48.08,53.74,47,56s-5,3.36-5,3.36A18.36,18.36,0,0,0,39.71,58Z"/><path class="cls-2" d="M71.14,48.5l-4.25-8.08H61.23V48.5H53.6V19.3H66.72c3.86,0,6.86.89,9,2.69a9.33,9.33,0,0,1,3.19,7.56,11.58,11.58,0,0,1-1.33,5.68A9.2,9.2,0,0,1,73.68,39l6.08,9.54ZM61.23,34.34h5.54a5.13,5.13,0,0,0,3.6-1.17,4.34,4.34,0,0,0,1.27-3.37,4.16,4.16,0,0,0-1.27-3.27,5.17,5.17,0,0,0-3.6-1.15H61.23Z"/><path class="cls-2" d="M83.76,19.3h23v6.08H91.39v5.46H105.3v6l-13.91,0v5.5h15.83V48.5H83.76Z"/><path class="cls-2" d="M132.56,21.13A13.36,13.36,0,0,1,138,26.28a14.58,14.58,0,0,1,2,7.6,14.62,14.62,0,0,1-2,7.62,13.42,13.42,0,0,1-5.58,5.17,18,18,0,0,1-8.27,1.83H111.88V19.3h12.58A17.27,17.27,0,0,1,132.56,21.13Zm-4,20.16a7.13,7.13,0,0,0,2.66-2.95,9.66,9.66,0,0,0,1-4.38,9.23,9.23,0,0,0-1-4.41,7.48,7.48,0,0,0-2.81-3,7.86,7.86,0,0,0-4.08-1.06h-4.8V42.34h5.17A7.35,7.35,0,0,0,128.59,41.29Z"/><path class="cls-2" d="M59.78,54a2.87,2.87,0,0,1,.94,2.3,3.17,3.17,0,0,1-.94,2.45,3.75,3.75,0,0,1-2.64.87H55.55v2.46H53.23v-8.9h3.91A3.88,3.88,0,0,1,59.78,54Zm-1.66,3.41a1.33,1.33,0,0,0,.39-1,1.29,1.29,0,0,0-.39-1A1.57,1.57,0,0,0,57,55.06H55.55v2.73H57A1.57,1.57,0,0,0,58.12,57.44Z"/><path class="cls-2" d="M69.76,62.11l-.61-1.58H65.3l-.62,1.58H62.29l3.82-8.9H68.5l3.73,8.9ZM66,58.76h2.46l-1.22-3.18Z"/><path class="cls-2" d="M81.14,53.21H83.3v8.9h-2l-4-5.32v5.32H75.06v-8.9h2l4.05,5.36Z"/><path class="cls-2" d="M86.29,53.21h7.63v1.92H91.26v7H88.93v-7H86.29Z"/><path class="cls-2" d="M96.89,53.21h2.32v3.63h3.59V53.21h2.33v8.9H102.8V58.69H99.21v3.42H96.89Z"/><path class="cls-2" d="M108.88,53.21h7v1.85h-4.69v1.67h4.24v1.84h-4.24v1.67H116v1.86h-7.15Z"/><path class="cls-2" d="M124.82,62.11l-1.29-2.46H121.8v2.46h-2.32v-8.9h4a4.07,4.07,0,0,1,2.73.82,2.83,2.83,0,0,1,1,2.3,3.49,3.49,0,0,1-.41,1.73,2.82,2.82,0,0,1-1.18,1.14l1.85,2.91Zm-3-4.32h1.69a1.6,1.6,0,0,0,1.1-.35,1.33,1.33,0,0,0,.39-1,1.29,1.29,0,0,0-.39-1,1.6,1.6,0,0,0-1.1-.35H121.8Z"/><path class="cls-2" d="M135.31,55.2a4.59,4.59,0,0,0-1.35-.26,1.32,1.32,0,0,0-.68.15.54.54,0,0,0-.24.47.65.65,0,0,0,.21.49,1.72,1.72,0,0,0,.53.31l.94.32a10.65,10.65,0,0,1,1.53.53,2.66,2.66,0,0,1,1,.82,2.25,2.25,0,0,1,.43,1.44,2.45,2.45,0,0,1-.47,1.51,2.8,2.8,0,0,1-1.29,1,5,5,0,0,1-1.82.32,6.5,6.5,0,0,1-2.2-.39A6,6,0,0,1,130,60.8l.9-1.81a5.73,5.73,0,0,0,1.59,1,4.27,4.27,0,0,0,1.64.38,1.45,1.45,0,0,0,.81-.19.61.61,0,0,0,.3-.56.63.63,0,0,0-.22-.5,1.54,1.54,0,0,0-.56-.33c-.22-.08-.54-.17-.94-.28a10.4,10.4,0,0,1-1.51-.52,2.69,2.69,0,0,1-1-.78,2.19,2.19,0,0,1-.42-1.41,2.43,2.43,0,0,1,.44-1.44,2.69,2.69,0,0,1,1.24-1,4.73,4.73,0,0,1,1.87-.34,6.54,6.54,0,0,1,1.91.28,6.21,6.21,0,0,1,1.65.73l-.88,1.85A7.76,7.76,0,0,0,135.31,55.2Z"/></g></g></svg>