<?xml version="1.0" encoding="utf-8"?>
<!-- Generator: Adobe Illustrator 21.1.0, SVG Export Plug-In . SVG Version: 6.00 Build 0)  -->
<svg version="1.1" id="圖層_1" xmlns="http://www.w3.org/2000/svg" xmlns:xlink="http://www.w3.org/1999/xlink" x="0px" y="0px"
	 viewBox="0 0 160.9 42.7" style="enable-background:new 0 0 160.9 42.7;" xml:space="preserve">
<style type="text/css">
	.st0{fill:url(#SVGID_1_);}
	.st1{fill:#323333;}
</style>
<title>silver_5FPRO</title>
<g>
	
		<linearGradient id="SVGID_1_" gradientUnits="userSpaceOnUse" x1="28.4107" y1="-131.3491" x2="9.3214" y2="-98.2929" gradientTransform="matrix(1 0 0 -1 0 -98.72)">
		<stop  offset="0" style="stop-color:#3A2B84"/>
		<stop  offset="1" style="stop-color:#814590"/>
	</linearGradient>
	<path class="st0" d="M8.7,0h25.1c0.1,0,0.2,0.1,0.2,0.2c0,0.1,0,0.1-0.1,0.1L0.3,23.4c-0.1,0.1-0.2,0-0.2,0c0,0,0-0.1,0-0.2l8.4-23
		C8.4,0.1,8.6,0,8.7,0z M0.4,25.9h14.3c0.1,0,0.2,0.1,0.2,0.2c0,0,0,0,0,0l-4.1,16.4c0,0.1,0,0.2,0.1,0.2c0.1,0,0.1,0,0.2,0
		l25.1-25.1c0.1-0.1,0.1-0.2,0-0.2c0,0-0.1,0-0.1,0H12.5c-0.1,0-0.2,0-0.3,0.1l-12,8.2c-0.1,0-0.1,0.1-0.1,0.2
		C0.2,25.9,0.3,25.9,0.4,25.9z"/>
	<path class="st1" d="M56.4,31.2c-2.4,0.1-4.8-0.7-6.6-2.3c-1.2-1.1-2-2.6-2.3-4.2L47.4,24h3.8l0.1,0.4c0.4,1.4,1.5,2.4,2.9,2.8
		c0.6,0.2,1.3,0.3,2,0.3c0.7,0,1.4-0.1,2-0.4c0.6-0.2,1.1-0.6,1.5-1c1.8-1.8,1.8-4.6,0-6.4c-0.9-0.9-2.1-1.4-3.4-1.3
		c-0.9,0-1.7,0.2-2.5,0.5c-0.6,0.3-1.1,0.6-1.6,1.1L52,20.5l-3.2-1.9l1.7-11.8h13.1v3.7h-9.8l-0.8,5.1l0.3-0.1
		c0.9-0.3,1.8-0.5,2.7-0.5c1.2,0,2.5,0.2,3.7,0.6c1,0.4,1.9,1,2.6,1.7c1.6,1.5,2.4,3.7,2.3,5.8c0.1,2.2-0.8,4.3-2.3,5.8
		C60.9,30.4,58.7,31.3,56.4,31.2z"/>
	<polygon class="st1" points="69.3,31 69.3,6.7 87.1,6.7 85.2,10.4 73.1,10.4 73.1,17.2 85.6,17.2 83.7,20.9 73.1,20.9 73.1,31 	"/>
	<path class="st1" d="M91.6,30.9V6.7h10.8c2.2-0.1,4.3,0.6,6,2.1c1.5,1.5,2.2,3.5,2.1,5.5c0.1,2.1-0.7,4.1-2.2,5.5
		c-1.7,1.4-3.8,2.1-6,2h-9.2v9.1L91.6,30.9z M93.3,20.4h9c1.8,0.1,3.6-0.5,5-1.6c1.2-1.2,1.8-2.8,1.7-4.5c0.1-1.7-0.5-3.3-1.7-4.5
		c-1.4-1.2-3.2-1.8-5-1.6h-9L93.3,20.4z"/>
	<path class="st1" d="M131.5,30.9l-6.1-9.8h-9.8v9.8h-1.7V6.7h11.6c2.1-0.1,4.2,0.6,5.8,2c1.4,1.4,2.2,3.3,2.1,5.3
		c0,2.9-1.2,4.9-3.6,5.9c-0.7,0.3-1.4,0.5-2.1,0.7l-0.9,0.2l6.6,10.1L131.5,30.9z M115.6,19.6h9.4c2.9,0,5-1,6.1-2.8
		c1.2-2.4,0.7-5.2-1.2-7.1c-1.4-1.1-3.1-1.6-4.8-1.5h-9.6L115.6,19.6z"/>
	<path class="st1" d="M148.6,31.3c-3.3,0.1-6.6-1.2-8.9-3.6c-2.3-2.4-3.5-5.5-3.4-8.8c-0.1-3.3,1.1-6.4,3.4-8.8
		c5-4.8,12.9-4.8,17.8,0c2.3,2.4,3.5,5.5,3.4,8.8c0.1,3.3-1.2,6.5-3.5,8.8C155.1,30,151.9,31.3,148.6,31.3z M148.6,8
		c-2.9-0.1-5.8,1-7.8,3.2c-1.9,2.1-3,4.8-2.9,7.7c-0.1,2.8,0.9,5.6,2.9,7.7c4.3,4.2,11.2,4.2,15.6,0c1.9-2.1,3-4.8,2.9-7.7
		c0.1-2.8-0.9-5.6-2.9-7.7C154.3,9,151.5,7.9,148.6,8z"/>
</g>
</svg>
