<svg xmlns="http://www.w3.org/2000/svg" viewBox="0 0 180 80"><defs><style>.cls-1{fill:#d7233b;}</style></defs><title>5xruby</title><g id="Partner"><g id="text"><path class="cls-1" d="M3.7,53.61V50.8a11.9,11.9,0,0,0,4.48.94,4.84,4.84,0,0,0,3.68-1.38,5.21,5.21,0,0,0,1.33-3.75q0-5.32-7.34-5.32a12.75,12.75,0,0,0-1.75.11V29.83h12v2.81H6.87v6.19A10.93,10.93,0,0,1,14,40.92a7,7,0,0,1,2.56,5.78,6.68,6.68,0,0,1-2.33,5.45,9.73,9.73,0,0,1-6.45,2A19.11,19.11,0,0,1,3.7,53.61Z"/><path class="cls-1" d="M33.9,47H30.62l-2-2.81-2,2.81H23.23l3.69-5.25-3.6-5.13h3.3l2,2.82,2-2.82H33.9l-3.65,5.16Z"/><path class="cls-1" d="M43.89,41.68a6,6,0,0,1,1.43,2,7.63,7.63,0,0,1,.37,2.68v8.24a3.8,3.8,0,0,0,.38,2.12,2.41,2.41,0,0,0,1.76.46H48.9v3.32H47.58a5,5,0,0,1-4.17-1.63q-1.33-1.62-1.33-5.11v-7.3a4.36,4.36,0,0,0-.39-2.16,2.05,2.05,0,0,0-1.39-.93l-.16-.06H40l-.21-.06V39.85a.84.84,0,0,1,.51-.28c1.19-.23,1.78-1.18,1.78-2.87V28.89q0-6.16,5.3-6.17h.84a1.07,1.07,0,0,1,.65.18v3.31h-1c-.94,0-1.53.19-1.78.57a6.46,6.46,0,0,0-.36,2.76V37a10,10,0,0,1-.09,1.55,5.86,5.86,0,0,1-.31,1.25,4.14,4.14,0,0,1-.56,1A5.43,5.43,0,0,1,43.89,41.68Z"/><path class="cls-1" d="M131.2,39.81h3.57v3.58H131.2Z"/><path class="cls-1" d="M147.43,51.83a4.94,4.94,0,0,1-3.75-1.38,5.25,5.25,0,0,1-1.34-3.82V36.39h-2.17V34.07h2.17V30.91l3.15-.3v3.45H150v2.33h-4.56v9.67q0,3.4,2.95,3.4a6.55,6.55,0,0,0,1.52-.21v2.14A9.38,9.38,0,0,1,147.43,51.83Z"/><path class="cls-1" d="M156.48,51.39,151.5,34h3.09l3.8,13.45L162.5,34h3.15l3.6,13.45,4.35-13.4h2.7l-5.62,17.37h-3.17L163.83,38l-4.16,13.41Z"/><path class="cls-1" d="M120.9,41.59a7.15,7.15,0,0,1-1.45-2,8.64,8.64,0,0,1-.35-2.67V28.62a3.55,3.55,0,0,0-.4-2.1,2.49,2.49,0,0,0-1.77-.44h-1V22.71h1.3a5,5,0,0,1,4.18,1.59q1.32,1.62,1.32,5.11v7.36a4.7,4.7,0,0,0,.37,2.16,2.1,2.1,0,0,0,1.41.94l.16.06h.14l.21,0v3.41a.91.91,0,0,1-.51.29c-1.19.22-1.78,1.18-1.78,2.87v7.81c0,4.12-1.77,6.17-5.32,6.17h-.83a1,1,0,0,1-.64-.17V57h1c.94,0,1.53-.19,1.78-.57a6,6,0,0,0,.38-2.76v-7.5a7.42,7.42,0,0,1,.39-2.81A4.7,4.7,0,0,1,120.9,41.59Z"/></g><g id="ruby"><polygon class="cls-1" points="83.22 43.01 83.22 64.5 97.54 40.97 83.22 43.01"/><polygon class="cls-1" points="83.58 41.49 97.66 39.48 88.61 27.42 83.58 41.49"/><polygon class="cls-1" points="101.83 23.04 99.83 39.06 111.84 36.05 101.83 23.04"/><polygon class="cls-1" points="98.47 38.14 100.46 22.28 89.55 26.25 98.47 38.14"/><polygon class="cls-1" points="65.54 40.66 54.25 37.84 78.71 62.29 65.54 40.66"/><polygon class="cls-1" points="81.76 43.01 67.44 40.97 81.76 64.5 81.76 43.01"/><polygon class="cls-1" points="99.44 40.66 86.27 62.29 110.73 37.84 99.44 40.66"/><path class="cls-1" d="M66.16,21.32l10.57,3.82H88.28L98.86,21.3a75,75,0,0,0-32.67,0Z"/><polygon class="cls-1" points="82.5 40.22 87.34 26.63 77.64 26.63 82.5 40.22"/><polygon class="cls-1" points="81.4 41.49 76.37 27.42 67.33 39.48 81.4 41.49"/><polygon class="cls-1" points="65.15 39.06 63.15 23.04 53.14 36.05 65.15 39.06"/><polygon class="cls-1" points="66.51 38.14 75.43 26.25 64.53 22.28 66.51 38.14"/></g></g></svg>