<svg xmlns="http://www.w3.org/2000/svg" viewBox="0 0 160 120"><defs><style>.cls-1{fill:#d7233b;}</style></defs><title>5xruby</title><g id="Partner"><g id="text"><path class="cls-1" d="M7.5,69.76V67.39a9.94,9.94,0,0,0,3.77.79A4,4,0,0,0,14.35,67a4.34,4.34,0,0,0,1.12-3.15c0-3-2.05-4.47-6.17-4.47a11.8,11.8,0,0,0-1.46.09V49.77H17.9v2.37H10.16v5.2a9.2,9.2,0,0,1,6,1.75A5.94,5.94,0,0,1,18.29,64a5.64,5.64,0,0,1-2,4.58,8.11,8.11,0,0,1-5.42,1.64A15.66,15.66,0,0,1,7.5,69.76Z"/><path class="cls-1" d="M32.87,64.23H30.11l-1.69-2.37-1.69,2.37H23.91L27,59.82l-3-4.31h2.77l1.64,2.36,1.65-2.36h2.82l-3.06,4.33Z"/><path class="cls-1" d="M41.27,59.73a5,5,0,0,1,1.19,1.7,6.39,6.39,0,0,1,.32,2.25V70.6a3.22,3.22,0,0,0,.31,1.78,2,2,0,0,0,1.49.39h.89v2.79H44.36a4.17,4.17,0,0,1-3.5-1.37,6.76,6.76,0,0,1-1.11-4.29V63.76A3.77,3.77,0,0,0,39.42,62a1.81,1.81,0,0,0-1.17-.79l-.13,0H38l-.18,0V58.19a.7.7,0,0,1,.43-.23c1-.19,1.5-1,1.5-2.41V49q0-5.19,4.45-5.19h.7a.9.9,0,0,1,.55.15v2.78h-.88q-1.18,0-1.5.48a5.41,5.41,0,0,0-.3,2.32v6.3a8.16,8.16,0,0,1-.08,1.31,4.75,4.75,0,0,1-.26,1A3.22,3.22,0,0,1,42,59,5.62,5.62,0,0,1,41.27,59.73Z"/><path class="cls-1" d="M114.61,58.16h3v3h-3Z"/><path class="cls-1" d="M128.25,68.26a4.17,4.17,0,0,1-3.15-1.16A4.39,4.39,0,0,1,124,63.89v-8.6h-1.83v-2H124V50.68l2.65-.25v2.9h3.81v2H126.6v8.12c0,1.9.83,2.86,2.48,2.86a5.48,5.48,0,0,0,1.27-.18v1.8A7.92,7.92,0,0,1,128.25,68.26Z"/><path class="cls-1" d="M135.85,67.89,131.67,53.3h2.59l3.2,11.3,3.45-11.3h2.64l3,11.3,3.65-11.27h2.27l-4.73,14.6h-2.66L142,56.63l-3.49,11.26Z"/><path class="cls-1" d="M106,59.66a6.12,6.12,0,0,1-1.22-1.72,7.71,7.71,0,0,1-.3-2.24V48.76a2.94,2.94,0,0,0-.33-1.77,2.13,2.13,0,0,0-1.48-.37h-.86V43.8h1.1a4.16,4.16,0,0,1,3.5,1.33,6.7,6.7,0,0,1,1.12,4.29V55.6a3.77,3.77,0,0,0,.31,1.82,1.79,1.79,0,0,0,1.18.79l.14,0h.11l.19,0v2.87a.77.77,0,0,1-.44.24c-1,.19-1.49,1-1.49,2.42v6.56q0,5.17-4.47,5.18h-.7a.87.87,0,0,1-.54-.15v-2.8h.87q1.18,0,1.5-.48a5.09,5.09,0,0,0,.31-2.32v-6.3a6.31,6.31,0,0,1,.33-2.36A3.83,3.83,0,0,1,106,59.66Z"/></g><g id="ruby"><polygon class="cls-1" points="74.3 60.85 74.3 78.9 86.34 59.13 74.3 60.85"/><polygon class="cls-1" points="74.61 59.57 86.43 57.88 78.83 47.75 74.61 59.57"/><polygon class="cls-1" points="89.94 44.07 88.26 57.53 98.35 55 89.94 44.07"/><polygon class="cls-1" points="87.12 56.76 88.79 43.43 79.62 46.77 87.12 56.76"/><polygon class="cls-1" points="59.45 58.87 49.97 56.5 70.51 77.04 59.45 58.87"/><polygon class="cls-1" points="73.08 60.85 61.05 59.13 73.08 78.9 73.08 60.85"/><polygon class="cls-1" points="87.93 58.87 76.87 77.04 97.41 56.5 87.93 58.87"/><path class="cls-1" d="M60,42.63l8.88,3.21h9.7l8.89-3.23a63.19,63.19,0,0,0-27.44,0Z"/><polygon class="cls-1" points="73.69 58.5 77.77 47.09 69.61 47.09 73.69 58.5"/><polygon class="cls-1" points="72.77 59.57 68.55 47.75 60.96 57.88 72.77 59.57"/><polygon class="cls-1" points="59.12 57.53 57.45 44.07 49.03 55 59.12 57.53"/><polygon class="cls-1" points="60.27 56.76 67.76 46.77 58.6 43.43 60.27 56.76"/></g></g></svg>