<svg xmlns="http://www.w3.org/2000/svg" viewBox="0 0 160 120"><defs><style>.cls-1{fill:#d7233b;}</style></defs><title>5xruby</title><g id="Partner"><g id="text"><path class="cls-1" d="M10,69.42V67.14a9.75,9.75,0,0,0,3.64.76,4,4,0,0,0,3-1.12,4.23,4.23,0,0,0,1.08-3q0-4.32-6-4.32a11.66,11.66,0,0,0-1.41.09V50.13H20v2.28H12.57v5a8.88,8.88,0,0,1,5.77,1.7,5.75,5.75,0,0,1,2.08,4.69,5.43,5.43,0,0,1-1.89,4.42,7.89,7.89,0,0,1-5.23,1.59A15.64,15.64,0,0,1,10,69.42Z"/><path class="cls-1" d="M34.5,64.08H31.83L30.2,61.8l-1.64,2.28H25.84l3-4.26-2.92-4.16h2.68l1.59,2.28,1.59-2.28H34.5l-3,4.18Z"/><path class="cls-1" d="M42.6,59.74a4.78,4.78,0,0,1,1.16,1.64,6.17,6.17,0,0,1,.3,2.17v6.68a3,3,0,0,0,.3,1.72,1.94,1.94,0,0,0,1.43.37h.87V75H45.59a4.05,4.05,0,0,1-3.38-1.32,6.52,6.52,0,0,1-1.07-4.14V63.63a3.58,3.58,0,0,0-.32-1.75,1.7,1.7,0,0,0-1.13-.76l-.13,0h-.11l-.17,0V58.26a.71.71,0,0,1,.42-.23q1.44-.27,1.44-2.33V49.37q0-5,4.3-5h.68a.86.86,0,0,1,.53.14v2.68h-.85q-1.14,0-1.44.46a5.22,5.22,0,0,0-.29,2.24V56A9,9,0,0,1,44,57.24a4.71,4.71,0,0,1-.25,1,3.25,3.25,0,0,1-.46.82A4.56,4.56,0,0,1,42.6,59.74Z"/><path class="cls-1" d="M113.42,58.23h2.9v2.9h-2.9Z"/><path class="cls-1" d="M126.58,68a4,4,0,0,1-3-1.12,4.25,4.25,0,0,1-1.09-3.1v-8.3h-1.76V53.56h1.76V51l2.56-.24v2.8h3.68v1.89H125v7.84q0,2.76,2.39,2.76a5.6,5.6,0,0,0,1.23-.17v1.73A7.91,7.91,0,0,1,126.58,68Z"/><path class="cls-1" d="M133.92,67.62l-4-14.09h2.5l3.09,10.91,3.33-10.91h2.56l2.92,10.91,3.53-10.88H150l-4.56,14.09h-2.57l-3-10.91-3.38,10.88Z"/><path class="cls-1" d="M105.06,59.67A5.79,5.79,0,0,1,103.89,58a6.93,6.93,0,0,1-.29-2.17v-6.7a2.91,2.91,0,0,0-.32-1.7,2,2,0,0,0-1.44-.36H101V44.35h1.06a4.05,4.05,0,0,1,3.38,1.29,6.52,6.52,0,0,1,1.07,4.14v6a3.8,3.8,0,0,0,.3,1.76,1.72,1.72,0,0,0,1.14.76l.13,0h.11l.17,0v2.77a.71.71,0,0,1-.42.23q-1.44.27-1.44,2.33V70q0,5-4.31,5h-.68a.84.84,0,0,1-.52-.14V72.18h.84q1.14,0,1.44-.46a4.94,4.94,0,0,0,.3-2.24V63.4a6.14,6.14,0,0,1,.32-2.28A3.76,3.76,0,0,1,105.06,59.67Z"/></g><g id="ruby"><polygon class="cls-1" points="74.5 60.82 74.5 78.25 86.12 59.16 74.5 60.82"/><polygon class="cls-1" points="74.79 59.59 86.21 57.95 78.87 48.17 74.79 59.59"/><polygon class="cls-1" points="89.59 44.62 87.97 57.62 97.72 55.18 89.59 44.62"/><polygon class="cls-1" points="86.87 56.87 88.48 44.01 79.63 47.22 86.87 56.87"/><polygon class="cls-1" points="60.16 58.91 51.01 56.62 70.84 76.45 60.16 58.91"/><polygon class="cls-1" points="73.32 60.82 61.7 59.16 73.32 78.25 73.32 60.82"/><polygon class="cls-1" points="87.65 58.91 76.98 76.45 96.81 56.62 87.65 58.91"/><path class="cls-1" d="M60.66,43.23l8.57,3.1H78.6l8.58-3.12a61,61,0,0,0-26.5,0Z"/><polygon class="cls-1" points="73.91 58.55 77.84 47.53 69.97 47.53 73.91 58.55"/><polygon class="cls-1" points="73.02 59.59 68.95 48.17 61.62 57.95 73.02 59.59"/><polygon class="cls-1" points="59.84 57.62 58.22 44.62 50.1 55.18 59.84 57.62"/><polygon class="cls-1" points="60.95 56.87 68.19 47.22 59.34 44.01 60.95 56.87"/></g></g></svg>