<?xml version="1.0" encoding="utf-8"?>
<!-- Generator: Adobe Illustrator 21.1.0, SVG Export Plug-In . SVG Version: 6.00 Build 0)  -->
<svg version="1.1" id="圖層_1" xmlns="http://www.w3.org/2000/svg" xmlns:xlink="http://www.w3.org/1999/xlink" x="0px" y="0px"
	 viewBox="0 0 184.1 48" style="enable-background:new 0 0 184.1 48;" xml:space="preserve">
<style type="text/css">
	.st0{fill:#D7233B;}
</style>
<title>Platinum_2</title>
<g>
	<g id="text">
		<path class="st0" d="M0,36.4v-3c1.5,0.6,3.1,1,4.8,1c1.5,0.1,2.9-0.5,3.9-1.5c1-1.1,1.5-2.5,1.4-4c0-3.8-2.6-5.7-7.8-5.7
			c-0.6,0-1.2,0-1.9,0.1V11h12.8v3H3.4v6.6c3.2,0,5.8,0.7,7.6,2.2c1.8,1.5,2.8,3.8,2.7,6.2c0.1,2.2-0.8,4.4-2.5,5.8
			c-2,1.5-4.4,2.2-6.9,2.1C2.9,36.9,1.4,36.7,0,36.4z"/>
		<path class="st0" d="M32.2,29.4h-3.5l-2.2-3l-2.2,3h-3.6l3.9-5.6l-3.8-5.5h3.5l2.1,3l2.1-3h3.6l-3.9,5.5L32.2,29.4z"/>
		<path class="st0" d="M42.9,23.7c0.7,0.6,1.2,1.3,1.5,2.2c0.3,0.9,0.4,1.9,0.4,2.9v7.9v0.9c-0.1,0.8,0,1.6,0.4,2.3
			c0.5,0.4,1.2,0.6,1.9,0.5h1.1v3.6h-1.4c-1.7,0.2-3.3-0.5-4.4-1.7c-0.9-1.2-1.4-3-1.4-5.4v-7.8c0.1-0.8-0.1-1.6-0.4-2.3
			c-0.3-0.5-0.9-0.9-1.5-1l-0.2-0.1h-0.2l-0.2-0.1v-3.6c0.1-0.2,0.3-0.3,0.6-0.3c1.3-0.2,1.9-1.3,1.9-3.1V10c0-4.4,1.9-6.6,5.7-6.6
			h0.9c0.2,0,0.5,0.1,0.7,0.2v3.5h-1.1c-1,0-1.6,0.2-1.9,0.6c-0.3,0.9-0.5,1.9-0.4,2.9v8c0,0.6,0,1.1-0.1,1.7
			c-0.1,0.5-0.2,0.9-0.3,1.3c-0.1,0.4-0.3,0.8-0.6,1.1C43.5,23.1,43.2,23.4,42.9,23.7z"/>
		<path class="st0" d="M136,21.7h3.8v3.8H136V21.7z"/>
		<path class="st0" d="M153.3,34.5c-1.5,0.1-2.9-0.4-4-1.5c-1-1.1-1.5-2.6-1.4-4.1V18h-2.3v-2.5h2.3v-3.4l3.4-0.3v3.7h4.8V18h-4.9
			v10.3c0,2.4,1,3.6,3.1,3.6c0.5,0,1.1-0.1,1.6-0.2V34C155.1,34.3,154.2,34.4,153.3,34.5z"/>
		<path class="st0" d="M163,34l-5.3-18.5h3.3l4.1,14.3l4.4-14.3h3.4l3.8,14.3l4.6-14.3h2.9l-6,18.5h-3.4l-3.9-14.3L166.4,34H163z"/>
		<path class="st0" d="M125,23.6c-0.6-0.6-1.2-1.4-1.5-2.2c-0.3-0.9-0.4-1.9-0.4-2.8v-7.9V9.7c0.1-0.8-0.1-1.6-0.4-2.2
			c-0.3-0.3-0.9-0.5-1.9-0.5h-1.1V3.4h1.4c1.7-0.2,3.3,0.5,4.4,1.7c0.9,1.2,1.4,3,1.4,5.5v7.9c-0.1,0.8,0.1,1.6,0.4,2.3
			c0.3,0.5,0.9,0.9,1.5,1l0.2,0.1h0.1l0.2,0.1v3.6c-0.1,0.2-0.3,0.3-0.6,0.3c-1.3,0.2-1.9,1.3-1.9,3.1v8.3c0,4.4-1.9,6.6-5.7,6.6
			h-0.9c-0.2,0-0.5-0.1-0.7-0.2V40h1.1c1,0,1.6-0.2,1.9-0.6c0.4-0.9,0.5-1.9,0.4-2.9v-8c-0.1-1,0.1-2,0.4-3
			C123.8,24.7,124.4,24.1,125,23.6z"/>
	</g>
	<g id="ruby">
		<polygon class="st0" points="84.8,25.1 84.8,48 100.1,22.9 		"/>
		<polygon class="st0" points="85.2,23.5 100.2,21.3 90.6,8.4 		"/>
		<polygon class="st0" points="104.7,3.8 102.5,20.9 115.3,17.7 		"/>
		<polygon class="st0" points="101.1,19.9 103.2,3 91.6,7.2 		"/>
		<polygon class="st0" points="66,22.6 53.9,19.6 80,45.6 		"/>
		<polygon class="st0" points="83.3,25.1 68,22.9 83.3,48 		"/>
		<polygon class="st0" points="102.1,22.6 88.1,45.6 114.2,19.6 		"/>
		<path class="st0" d="M66.6,1.9L77.9,6h12.3l11.3-4.1C90-0.6,78.1-0.6,66.6,1.9L66.6,1.9z"/>
		<polygon class="st0" points="84,22.1 89.2,7.6 78.9,7.6 		"/>
		<polygon class="st0" points="82.9,23.5 77.5,8.4 67.9,21.3 		"/>
		<polygon class="st0" points="65.5,20.9 63.4,3.8 52.7,17.7 		"/>
		<polygon class="st0" points="67,19.9 76.5,7.2 64.9,3 		"/>
	</g>
</g>
</svg>
