<?xml version="1.0" encoding="utf-8"?>
<!-- Generator: Adobe Illustrator 21.1.0, SVG Export Plug-In . SVG Version: 6.00 Build 0)  -->
<svg version="1.1" id="圖層_1" xmlns="http://www.w3.org/2000/svg" xmlns:xlink="http://www.w3.org/1999/xlink" x="0px" y="0px"
	 viewBox="0 0 200 37.9" style="enable-background:new 0 0 200 37.9;" xml:space="preserve">
<style type="text/css">
	.st0{fill:#FFFFFF;}
	.st1{fill:#727171;}
	.st2{fill:none;}
	.st3{fill:#92308D;}
	.st4{fill:#0086CD;}
	.st5{fill:#00A9E4;}
	.st6{fill:#45B035;}
	.st7{fill:#009D85;}
	.st8{fill:#E61478;}
	.st9{fill:#D95097;}
	.st10{fill:#F39800;}
	.st11{fill:#E8382F;}
	.st12{fill:#8FC31F;}
	.st13{fill:#FDD000;}
</style>
<title>Platinum_1</title>
<g>
	<circle class="st0" cx="19" cy="19" r="14.9"/>
	<path class="st1" d="M64,7.9l10.1,21.9h-1.8l-3.4-7.5H58.2l-3.4,7.5H53L63.1,7.9H64z M68.2,20.9l-4.7-10.3l-4.7,10.2L68.2,20.9z"/>
	<path class="st1" d="M84,29.9h-1.5V8.1H84V29.9z M94.2,15.5l-7.8,6.8l9,7.5h-2.1l-9-7.5l7.9-6.8H94.2z"/>
	<path class="st1" d="M114,27.3v1.3c-0.8,0.8-1.8,1.3-2.9,1.5c-0.3,0-0.6-0.1-0.7-0.3c-0.2-0.5-0.3-0.9-0.3-1.4
		c-1.3,1.1-2.8,1.7-4.5,1.8c-1,0-2-0.4-2.7-1.1c-0.7-0.7-1.1-1.6-1.1-2.6c0-1.5,0.8-2.9,2.1-3.6c1.9-1,4-1.6,6.2-1.6v-1.8
		c0-2-1.1-2.9-3.2-2.9c-1.6,0.1-3.2,0.7-4.4,1.8v-1.6c1.4-0.9,3-1.5,4.6-1.5c1.2,0,2.3,0.3,3.2,1c0.9,0.7,1.3,1.7,1.3,2.8v8.8
		c0,0.5,0.1,0.7,0.3,0.7c0.8-0.3,1.4-0.7,2-1.3 M110,27v-4.5c-1.7-0.1-3.4,0.2-4.9,1c-1.1,0.5-1.9,1.7-1.9,2.9
		c0,0.7,0.3,1.3,0.8,1.7c0.6,0.5,1.3,0.7,2,0.7C107.5,28.7,109,28.1,110,27"/>
	<path class="st1" d="M125.3,10.8v4.8h4v1.2h-4v8.5c-0.1,0.9,0,1.8,0.3,2.7c0.2,0.4,0.8,0.7,1.8,0.7c0.9,0,1.8-0.3,2.6-0.7v1.5
		c-0.9,0.5-2,0.7-3,0.7c-0.9,0-1.7-0.3-2.4-0.8c-0.7-0.6-1-1.4-1-2.2V16.8h-3.9v-1.2h3.9v-3.4l1-1.3H125.3z"/>
	<path class="st1" d="M146.4,16.5v1.7c-1.1-0.9-2.5-1.4-3.9-1.5c-0.8,0-1.6,0.2-2.2,0.7c-0.6,0.4-0.9,1-0.9,1.7c0,0.5,0.2,1,0.5,1.3
		c0.9,0.7,1.9,1.2,3,1.6c1.2,0.4,2.3,1.1,3.2,2c0.5,0.7,0.8,1.4,0.8,2.3c0,1.1-0.5,2.1-1.4,2.8c-0.9,0.8-2.1,1.2-3.4,1.2
		c-1.5,0-3-0.5-4.3-1.3v-1.5c1.4,0.8,2.9,1.2,4.5,1.3c0.8,0,1.6-0.2,2.2-0.7c0.5-0.4,0.9-1.1,0.9-1.8c0-0.5-0.2-1-0.6-1.4
		c-0.9-0.7-1.9-1.3-3-1.6c-1.2-0.4-2.3-1-3.2-1.9c-0.5-0.6-0.7-1.3-0.7-2.1c0-1.1,0.5-2.1,1.4-2.8c0.9-0.8,2.1-1.2,3.3-1.2
		C144,15.3,145.3,15.8,146.4,16.5"/>
	<path class="st1" d="M166.3,29.9v-2.4h-0.1c-0.5,0.8-1.2,1.5-2,2c-0.8,0.4-1.7,0.6-2.7,0.6c-1.4,0-2.8-0.5-3.8-1.5
		c-1.1-1.1-1.6-2.7-1.5-4.2v-8.8h1.5v8.8c-0.1,1.1,0.3,2.3,1.1,3.1c0.7,0.8,1.8,1.2,2.8,1.1c0.9,0,1.8-0.2,2.6-0.7
		c0.9-0.6,1.6-1.4,2.1-2.4V15.5h1.5v14.3H166.3z"/>
	<path class="st1" d="M179.7,29.9h-1.5V8.1h1.5V29.9z M189.8,15.5l-7.8,6.8l9.1,7.5h-2.1l-9-7.5l7.9-6.8H189.8z"/>
	<path class="st1" d="M200,10.7h-1.5V8.1h1.5V10.7z M200,29.9h-1.5V15.5h1.5V29.9z"/>
	<polygon class="st2" points="19,19 19,19 19,19 	"/>
	<polygon class="st2" points="19,19 19,19 19,19 	"/>
	<polygon class="st2" points="19,19 19,19 19,19 	"/>
	<path class="st3" d="M11.5,29.2l-3.7,5.1c3.2,2.4,7.2,3.6,11.2,3.6v-6.3C16.3,31.7,13.7,30.8,11.5,29.2z"/>
	<path class="st4" d="M6.9,22.9l-6,1.9c1.2,3.8,3.7,7.1,6.9,9.5l3.7-5.1C9.3,27.6,7.7,25.4,6.9,22.9z"/>
	<path class="st5" d="M6.3,19c0-1.3,0.2-2.7,0.6-3.9l-6-1.9c-1.2,3.8-1.2,7.9,0,11.7l6-1.9C6.5,21.6,6.3,20.3,6.3,19z"/>
	<path class="st6" d="M19,6.3V0c-4,0-7.9,1.3-11.1,3.6l3.7,5.1C13.7,7.1,16.4,6.3,19,6.3z"/>
	<path class="st7" d="M11.5,8.7L7.9,3.6C4.6,6,2.2,9.3,1,13.1L7,15C7.8,12.5,9.4,10.3,11.5,8.7z"/>
	<path class="st8" d="M25.9,18.7c-0.1-3.8-3.2-6.8-7-6.7c-3.8,0.1-6.8,3.2-6.7,7c0.1,3.8,3.2,6.8,7,6.7c1.7,0,3.4-0.7,4.7-2v2.1h2.1
		L25.9,18.7L25.9,18.7z M19,23.7c-2.7,0-4.8-2.1-4.8-4.8c0-2.7,2.1-4.8,4.8-4.8c2.6,0,4.8,2.1,4.8,4.7V19
		C23.7,21.6,21.6,23.7,19,23.7L19,23.7z"/>
	<path class="st9" d="M19,31.7v6.3c4,0,7.9-1.3,11.1-3.6l-3.7-5.1C24.3,30.8,21.7,31.6,19,31.7z"/>
	<path class="st10" d="M37,13.1L31,15c0.8,2.5,0.8,5.3,0,7.8l6,2C38.3,21.1,38.3,17,37,13.1L37,13.1z"/>
	<path class="st11" d="M26.4,29.2l3.7,5.1c3.2-2.3,5.7-5.6,6.9-9.4l-6-2C30.2,25.4,28.6,27.6,26.4,29.2z"/>
	<path class="st12" d="M26.4,8.7l3.7-5.1C26.9,1.3,23,0,19,0v6.3C21.7,6.3,24.3,7.1,26.4,8.7z"/>
	<path class="st13" d="M31,15l6-1.9c-1.2-3.8-3.7-7.1-6.9-9.5l-3.7,5.1C28.6,10.3,30.2,12.5,31,15z"/>
</g>
</svg>
