<?xml version="1.0" encoding="utf-8"?>
<!-- Generator: Adobe Illustrator 21.1.0, SVG Export Plug-In . SVG Version: 6.00 Build 0)  -->
<svg version="1.1" id="圖層_1" xmlns="http://www.w3.org/2000/svg" xmlns:xlink="http://www.w3.org/1999/xlink" x="0px" y="0px"
	 viewBox="0 0 171 46.6" style="enable-background:new 0 0 171 46.6;" xml:space="preserve">
<style type="text/css">
	.st0{fill:#330000;}
	.st1{fill:#FF9933;}
	.st2{fill:#FFFFFF;}
</style>
<title>speaker_cookpad</title>
<g>
	<g>
		<path class="st0" d="M146.2,14.9c-1.6,0-3.6,0.3-5.4,0.9c-0.4,0.1-1.1,0.4-1.1,0.4l0.9,3.2l0.2-0.1c0,0,0.6-0.2,1-0.3
			c0,0,2.1-0.7,4-0.7c1.3,0,2.2,0.3,2.8,0.8c0.5,0.5,0.8,1.3,0.8,2.4h-3.2c-2.4,0-4.2,0.5-5.5,1.5c-1.2,0.9-1.9,2.2-1.9,3.9
			c0,1.5,0.5,2.7,1.6,3.7c1,0.8,2.2,1.3,3.8,1.3c0.1,0,0.2,0,0.2,0c1,0,2.3-0.1,3.6-0.6c0.4-0.2,0.9-0.4,1.4-0.7v1.3h3.6V21.3
			c0-1.7-0.5-3.2-1.6-4.4C150.1,15.5,148.3,14.9,146.2,14.9z M149.3,24.9v1.4c-0.4,0.5-1.1,1-1.8,1.4c-0.8,0.4-1.5,0.6-2.3,0.7
			c-2,0.1-3.1-0.5-3.1-1.7c0-0.6,0.6-1.2,1.3-1.4c0.8-0.3,1.9-0.3,3.1-0.3h2.8V24.9z"/>
		<path class="st0" d="M129,14.8c-1.5,0-2.9,0.3-4,0.9v-0.9h-3.9v21.8h3.9v-5.8c1.2,0.6,2.5,0.9,4,0.9c2.5,0,4.5-0.8,6-2.4
			c1.5-1.6,2.2-3.6,2.2-6.1s-0.8-4.5-2.2-6.1C133.5,15.6,131.5,14.8,129,14.8z M126,27.2c-0.4-0.4-0.8-0.9-1-1.5
			c-0.3-0.6-0.4-1.4-0.4-2.3c0-0.9,0.1-1.7,0.4-2.3c0.8-1.8,2.1-2.6,4-2.6c1.2,0,2.2,0.4,3,1.1c1,0.9,1.5,2.2,1.5,3.8
			c0,1.7-0.5,3-1.5,3.9c-0.4,0.4-0.9,0.7-1.4,0.8c-1.1,0.4-2.1,0.4-3.2,0C126.9,27.8,126.4,27.5,126,27.2z"/>
		<path class="st0" d="M167.1,9.9v5.8c-1.2-0.6-2.5-0.9-4-0.9c-2.5,0-4.5,0.8-6,2.4c-1.5,1.6-2.2,3.6-2.2,6.1s0.8,4.5,2.2,6.1
			c1.5,1.6,3.5,2.4,6,2.4c1.5,0,2.9-0.3,4-0.9v0.9h3.9V9.9H167.1z M167.5,23.3c0,0.9-0.1,1.7-0.4,2.3c-0.8,1.8-2.1,2.6-4,2.6
			c-1.2,0-2.2-0.4-3-1.1c-1-0.9-1.5-2.2-1.5-3.8c0-1.7,0.5-3,1.5-3.9c0.4-0.4,0.9-0.7,1.4-0.8c0.5-0.2,1.1-0.3,1.6-0.3
			s1,0.1,1.6,0.3c0.5,0.2,1,0.5,1.4,0.8c0.4,0.4,0.8,0.9,1,1.5C167.4,21.6,167.5,22.4,167.5,23.3z"/>
		<polygon class="st0" points="119.3,17.8 116.9,14.8 108.4,21.4 108.4,9.9 104.5,9.9 104.5,31.8 108.4,31.8 108.4,26.4 110.5,24.8 
			116.5,31.8 119.5,29.3 113.5,22.3 		"/>
		<path class="st0" d="M75.7,14.8c-2.6,0-4.7,0.8-6.2,2.4c-1.5,1.6-2.3,3.6-2.3,6.1s0.8,4.6,2.3,6.1s3.6,2.4,6.2,2.4
			s4.7-0.8,6.2-2.4c1.5-1.6,2.3-3.6,2.3-6.1s-0.8-4.6-2.3-6.1C80.4,15.6,78.2,14.8,75.7,14.8z M78.8,27.2c-0.4,0.4-0.9,0.7-1.5,0.8
			c-0.5,0.2-1.1,0.3-1.6,0.3s-1.1-0.1-1.6-0.3s-1-0.5-1.5-0.8c-1-0.9-1.5-2.2-1.5-3.9s0.5-2.9,1.5-3.8c0.8-0.7,1.9-1.1,3.1-1.1
			s2.3,0.4,3.1,1.1c1,0.9,1.5,2.2,1.5,3.8C80.3,25,79.8,26.3,78.8,27.2z"/>
		<path class="st0" d="M94,14.8c-2.6,0-4.7,0.8-6.2,2.4c-1.5,1.6-2.3,3.6-2.3,6.1s0.8,4.6,2.3,6.1s3.6,2.4,6.2,2.4s4.7-0.8,6.2-2.4
			c1.5-1.6,2.3-3.6,2.3-6.1s-0.8-4.6-2.3-6.1C98.7,15.6,96.6,14.8,94,14.8z M97.1,27.2c-0.4,0.4-0.9,0.7-1.5,0.8
			c-0.5,0.2-1.1,0.3-1.6,0.3s-1.1-0.1-1.6-0.3s-1-0.5-1.5-0.8c-1-0.9-1.5-2.2-1.5-3.9s0.5-2.9,1.5-3.8c0.8-0.7,1.9-1.1,3.1-1.1
			s2.3,0.4,3.1,1.1c1,0.9,1.5,2.2,1.5,3.8C98.6,25,98.1,26.3,97.1,27.2z"/>
		<path class="st0" d="M54.4,23.3c0,0.7,0.2,1.8,0.6,2.6c0.3,0.6,0.8,1.2,1.5,1.6c0.7,0.5,1.6,0.8,2.6,0.8c0.5,0,0.9-0.1,1.4-0.2
			c1.2-0.3,2.3-1,3.3-2.1l0.1-0.1l2.5,2.5c0,0-0.7,0.8-1.5,1.4c-1.6,1.2-3.6,2-5.9,2c-2.9,0-5.5-1.3-6.9-3.3
			c-1.1-1.5-1.6-3.4-1.6-5.2s0.5-3.7,1.6-5.2c1.4-2,4-3.3,6.9-3.3c2.4,0,4.3,0.8,5.9,2c0.8,0.6,1.5,1.4,1.5,1.4l-2.5,2.5l-0.1-0.1
			c-1-1.1-2.1-1.8-3.3-2.1c-0.5-0.1-0.9-0.2-1.4-0.2c-1,0-1.9,0.3-2.6,0.8c-0.6,0.4-1.1,1-1.5,1.6C54.6,21.5,54.4,22.6,54.4,23.3z"
			/>
	</g>
	<g>
		<circle class="st1" cx="23.3" cy="23.3" r="23.3"/>
		<g>
			<path class="st2" d="M33.6,12.5c-1.6,0-3,0.5-4.1,1.4c-1-2.4-3.4-4.1-6.2-4.1c-2.3,0-4.4,1.2-5.6,3.1c-0.8-0.4-1.8-0.6-2.8-0.6
				c-3.7,0-6.7,3-6.7,6.7c0,2.9,1.9,5.4,4.4,6.3l-1.3,10.2c0,0.3,0.1,0.6,0.3,0.9c0.2,0.2,0.5,0.4,0.8,0.4h18.2c0.5,0,1-0.4,1.1-1
				l1.2-9.9c0.2,0,0.4,0,0.7,0c3.7,0,6.7-3,6.7-6.7C40.3,15.5,37.3,12.5,33.6,12.5z"/>
			<path class="st0" d="M34.2,11.8c-1.7,0-3.2,0.6-4.4,1.5c-1.1-2.6-3.6-4.4-6.5-4.4c-2.5,0-4.7,1.3-6,3.3c-0.9-0.4-1.9-0.6-3-0.6
				c-3.9,0-7.1,3.2-7.1,7.1c0,3.1,2,5.7,4.7,6.7l-1.3,10.9c0,0.3,0.1,0.7,0.3,0.9c0.2,0.2,0.5,0.4,0.8,0.4H31c0.6,0,1.1-0.4,1.1-1
				l1.4-10.5c0.2,0,0.5,0,0.7,0c3.9,0,7.1-3.2,7.1-7.2C41.3,15,38.1,11.8,34.2,11.8z M34.2,23.8c-0.1,0-0.3,0-0.4,0l0.2-1.3
				c0.1-0.6-0.4-1.2-1-1.3s-1.2,0.4-1.3,1c0,0-0.5,3.8-0.9,7.3H16c-0.6,0-1.1,0.5-1.1,1.2c0,0.6,0.5,1.2,1.1,1.2h14.5
				c-0.2,1.6-0.4,2.9-0.4,3.4c-1.7,0-14.9,0-17.1,0c0.2-1.7,1.1-9,1.4-11.7h-0.1c-2.7,0-4.8-2.2-4.8-4.8c0-2.7,2.2-4.8,4.8-4.8
				c1.5,0,2.9,0.7,3.8,1.8c0.1,0.2,0.3,0.2,0.3-0.1c0.2-2.4,2.3-4.3,4.8-4.3c2.4,0,4.4,1.8,4.8,4.1c-0.2,0.3-0.3,0.6-0.5,1l2,1.1
				c0.6-1.9,2.5-3.3,4.6-3.3c2.7,0,4.8,2.2,4.8,4.8S36.8,23.8,34.2,23.8z"/>
		</g>
	</g>
</g>
</svg>
