<svg xmlns="http://www.w3.org/2000/svg" viewBox="0 0 160 80"><defs><style>.cls-1{fill:#f93;}.cls-2{fill:#fff;}.cls-3{fill:#300;}</style></defs><title>cookpad</title><g id="Speaker"><g id="Cookpad"><path class="cls-1" d="M110.41,31.41A30.41,30.41,0,1,0,80,61.82a30.41,30.41,0,0,0,30.41-30.41"/><path class="cls-2" d="M93.33,17.3a8.65,8.65,0,0,0-5.39,1.88A8.7,8.7,0,0,0,72.6,17.82,8.67,8.67,0,0,0,69,17a8.78,8.78,0,0,0-2.94,17L64.39,47.38a1.43,1.43,0,0,0,.34,1.12,1.35,1.35,0,0,0,1,.49H89.52a1.41,1.41,0,0,0,1.37-1.25l1.59-12.93c.28,0,.56,0,.85,0a8.78,8.78,0,0,0,0-17.55"/><path class="cls-3" d="M94.1,16.41a9.16,9.16,0,0,0-5.73,2A9.25,9.25,0,0,0,72.06,17a9.19,9.19,0,0,0-3.86-.84,9.33,9.33,0,0,0-3.12,18.1L63.33,48.38a1.62,1.62,0,0,0,.36,1.2,1.5,1.5,0,0,0,1.11.52H90a1.5,1.5,0,0,0,1.46-1.34L93.19,35c.3,0,.61,0,.91,0a9.33,9.33,0,0,0,0-18.66m0,15.6a4.58,4.58,0,0,1-.53,0l.2-1.65a1.51,1.51,0,0,0-1.27-1.71,1.49,1.49,0,0,0-1.66,1.32l-1.18,9.59H70.42a1.53,1.53,0,0,0,0,3H89.29c-.26,2.09-.47,3.8-.55,4.46H66.48c.27-2.27,1.44-11.73,1.88-15.32H68.2a6.27,6.27,0,1,1,4.92-10.21c.16.22.37.22.42-.08a6.33,6.33,0,0,1,12.53-.36,8.87,8.87,0,0,0-.6,1.24l2.64,1.43a6.31,6.31,0,1,1,6,8.27"/><path class="cls-3" d="M97.89,68a8.94,8.94,0,0,0-2.74.46l-.55.22.45,1.62.08,0,.48-.15a7.49,7.49,0,0,1,2-.37,2.17,2.17,0,0,1,1.4.38,1.62,1.62,0,0,1,.43,1.2H97.83a4.57,4.57,0,0,0-2.8.75,2.31,2.31,0,0,0-1,2,2.37,2.37,0,0,0,.81,1.85,3,3,0,0,0,1.9.67h.12a4.83,4.83,0,0,0,1.84-.31,4.75,4.75,0,0,0,.71-.36v.66h1.83V71.22a3.14,3.14,0,0,0-.82-2.22,3.34,3.34,0,0,0-2.58-1m1.57,5.07v.72a3.06,3.06,0,0,1-.94.71,2.78,2.78,0,0,1-1.16.34c-1,.07-1.56-.26-1.56-.88a.89.89,0,0,1,.64-.72A4.87,4.87,0,0,1,98,73.05Z"/><path class="cls-3" d="M89.21,68a4.35,4.35,0,0,0-2,.46V68h-2V79h2V76.07a4.35,4.35,0,0,0,2,.46,4,4,0,0,0,3-1.19,4.79,4.79,0,0,0,0-6.18,4,4,0,0,0-3-1.19M87.69,74.2a2.09,2.09,0,0,1-.52-.77,3.45,3.45,0,0,1,0-2.37,2,2,0,0,1,2-1.32,2.19,2.19,0,0,1,1.51.55,3,3,0,0,1,0,3.91,2.14,2.14,0,0,1-.73.42,2.32,2.32,0,0,1-1.6,0,2.05,2.05,0,0,1-.71-.42"/><path class="cls-3" d="M108.45,65.49v2.94a4.32,4.32,0,0,0-2-.46,4,4,0,0,0-3,1.19,4.79,4.79,0,0,0,0,6.18,4,4,0,0,0,3,1.19,4.32,4.32,0,0,0,2-.46v.46h2v-11Zm.21,6.77a3.16,3.16,0,0,1-.2,1.18,2,2,0,0,1-2,1.32,2.19,2.19,0,0,1-1.51-.55,3,3,0,0,1,0-3.91,2.14,2.14,0,0,1,.73-.42,2.5,2.5,0,0,1,.8-.14,2.54,2.54,0,0,1,.8.14,2.05,2.05,0,0,1,.71.42,2.28,2.28,0,0,1,.53.78,3.09,3.09,0,0,1,.2,1.18"/><polygon class="cls-3" points="84.3 69.48 83.08 67.94 78.8 71.3 78.8 65.49 76.84 65.49 76.84 76.53 78.8 76.53 78.8 73.8 79.84 72.98 82.9 76.57 84.4 75.29 81.39 71.77 84.3 69.48"/><path class="cls-3" d="M62.27,68A4.05,4.05,0,0,0,58,72.25,4.43,4.43,0,1,0,62.27,68m1.57,6.22a2.3,2.3,0,0,1-.76.43,2.54,2.54,0,0,1-.81.13,2.6,2.6,0,0,1-.82-.13,2.16,2.16,0,0,1-.75-.43,2.88,2.88,0,0,1,0-3.9,2.3,2.3,0,0,1,1.57-.55,2.27,2.27,0,0,1,1.56.55,2.9,2.9,0,0,1,0,3.9"/><path class="cls-3" d="M71.53,68a4,4,0,1,0,3.15,1.19A4.24,4.24,0,0,0,71.53,68m1.57,6.22a2.16,2.16,0,0,1-.75.43,2.62,2.62,0,0,1-1.63,0,2.16,2.16,0,0,1-.75-.43,2.88,2.88,0,0,1,0-3.9,2.5,2.5,0,0,1,3.13,0,2.88,2.88,0,0,1,0,3.9"/><path class="cls-3" d="M51.55,72.25a2.93,2.93,0,0,0,.29,1.3,2.34,2.34,0,0,0,.75.82,2.31,2.31,0,0,0,1.33.38,2.82,2.82,0,0,0,.71-.09,3.23,3.23,0,0,0,1.67-1l.06-.06,1.28,1.25a5.55,5.55,0,0,1-.77.71,5,5,0,0,1-3,1,4.27,4.27,0,0,1-3.48-1.66,4.76,4.76,0,0,1,0-5.25A4.26,4.26,0,0,1,53.86,68a5,5,0,0,1,3,1,6,6,0,0,1,.77.72l-1.28,1.24-.06-.06a3.23,3.23,0,0,0-1.67-1,2.82,2.82,0,0,0-.71-.09,2.34,2.34,0,0,0-2.08,1.2,2.94,2.94,0,0,0-.29,1.31"/></g></g></svg>