<?xml version="1.0" encoding="utf-8"?>
<!-- Generator: Adobe Illustrator 21.1.0, SVG Export Plug-In . SVG Version: 6.00 Build 0)  -->
<svg version="1.1" id="圖層_1" xmlns="http://www.w3.org/2000/svg" xmlns:xlink="http://www.w3.org/1999/xlink" x="0px" y="0px"
	 viewBox="0 0 168.8 47.6" style="enable-background:new 0 0 168.8 47.6;" xml:space="preserve">
<style type="text/css">
	.st0{fill:#4FB5E8;}
	.st1{fill:none;}
	.st2{fill:#1F8ACC;}
	.st3{fill:#FFFFFF;}
</style>
<title>speaker_coupa</title>
<g>
	<path class="st0" d="M71.6,35.1c-1.9,1.1-4,1.6-6.2,1.6c-7,0-11-4.8-11-13.1c0-5.8,2.2-9.7,5.2-11.7c1.9-1.2,4.1-1.9,6.3-1.9
		c1.7,0,3.4,0.4,4.9,1.1c0.9,0.5,1.7,1.1,2.5,1.8l-3.3,4.4c-1-1.1-2.5-1.8-4-2c-3,0-4.3,2.6-4.3,8.5c0,3.3,0.4,5.3,1.3,6.4
		c0.7,0.9,1.8,1.4,3,1.4c1.7-0.1,3.4-0.8,4.6-2.1l0.4-0.3l3,4C73.3,34,72.5,34.6,71.6,35.1z"/>
	<path class="st0" d="M93.7,33.1c-2.1,2.4-5.2,3.7-8.4,3.5c-6.9,0-11.4-5.2-11.4-13.1s4.6-13.3,11.4-13.3c3.3-0.1,6.5,1.3,8.6,3.8
		c2,2.4,2.9,5.2,2.9,9.3C96.9,27.7,95.9,30.7,93.7,33.1z M88.4,16.5c-1.3-1.6-3.6-1.8-5.1-0.5c-0.6,0.5-1,1.1-1.2,1.8
		c-0.5,1.8-0.8,3.7-0.7,5.6c-0.1,2.2,0.2,4.3,0.8,6.4c0.6,1.3,1.9,2.1,3.4,2.1c2.9,0,4.1-2.6,4.1-8.6C89.7,19.9,89.2,17.6,88.4,16.5
		z"/>
	<path class="st0" d="M115.6,36.8c-0.9-0.6-1.6-1.5-2-2.5c-1.8,1.7-4.2,2.5-6.7,2.5c-3.6,0-6.6-1.7-7.5-4.1c-0.5-1.6-0.6-3.3-0.5-5
		V11.4l6.5-1.2v16.3c-0.1,1.4,0.1,2.8,0.5,4.2c0.5,0.8,1.4,1.3,2.4,1.2c1.7-0.1,3.2-1,4.1-2.5V11.5l6.3-1.3v19.4
		c0,1.7,0.5,3.3,1.5,4.6L115.6,36.8z"/>
	<path class="st0" d="M141.6,33.8c-1.7,1.9-4.2,2.9-6.8,2.9c-1.9,0-3.7-0.4-5.3-1.3c0.1,0.7,0.1,1.4,0.1,2.1v7.9l-6.4,1.7V17.7
		c0.1-2.1-0.1-4.3-0.4-6.4l5.9-1c0.2,0.8,0.4,1.6,0.4,2.4c1.1-1.4,3.7-2.4,6.2-2.4c1.8,0,3.5,0.5,5,1.5c2.7,1.8,4.7,5.1,4.7,10.9
		C145.1,28.2,144.2,31,141.6,33.8z M137.2,17.8c-0.4-1.4-1.7-2.3-3.2-2.1c-1.7,0-3.3,0.7-4.4,1.9v12.3c1,0.9,2.3,1.4,3.7,1.5
		c3.3,0,4.6-2.2,4.6-8C137.9,21.5,137.7,19.6,137.2,17.8z"/>
	<path class="st0" d="M165.2,37.4c-1.5-0.6-2.8-1.7-3.6-3.1c-0.5,0.5-1,0.9-1.5,1.3c-1.5,1-3.3,1.5-5.1,1.4c-5.6,0-8.7-2.9-8.7-7.9
		c0-5.9,4.1-8.7,12.2-8.7c0.5,0,0.9,0,1.5,0v-1c0-2.8-0.5-3.8-3-3.8c-2.1,0-4.6,1-7.3,2.9l-2.8-4.7c1.3-0.8,2.7-1.5,4.1-2.1
		c2.2-1,4.5-1.5,6.9-1.5c4.3,0,7.2,1.6,8.2,4.4c0.4,1.5,0.6,3,0.4,4.6l-0.1,8.5c0,2.8,0.1,4,2.4,5.6L165.2,37.4z M159.6,25
		c-4.6,0-6.2,0.8-6.2,3.9c-0.2,1.6,1,3.1,2.7,3.3c0.1,0,0.2,0,0.3,0c1.3-0.1,2.6-0.7,3.5-1.7l0.1-5.5H159.6z"/>
	<path class="st1" d="M47.4,23.4c1.5-0.1,2.9-0.8,4-1.8c0.4-0.5,0.6-1.2,0.5-1.8c-0.3-1.6-2.3-2.8-4.5-3.5c0.8-0.5,1.5-1.2,1.9-2.1
		c0.3-0.6,0.2-1.4-0.1-2c-0.7-1.2-2.5-1.8-5.4-1.8l0,0c0.6-0.8,0.9-1.7,0.9-2.7c0-0.7-0.3-1.3-0.8-1.8c-0.6-0.5-1.3-0.7-2.1-0.6
		c-0.9,0-1.9,0.2-2.7,0.5c0.1-0.7,0-1.5-0.2-2.2c-0.2-0.7-0.8-1.3-1.5-1.6c-0.3-0.1-0.7-0.2-1-0.2C35,2,33.7,2.6,32.7,3.5
		c-0.6-2.1-1.7-3.4-3-3.5h-0.3c-1.2,0-2.4,0.9-3.3,2.4c-1.1-1.4-2.4-2.3-3.6-2.3c-0.1,0-0.3,0-0.4,0c-0.8,0.1-1.4,0.6-1.8,1.2
		c-0.5,0.8-0.7,1.7-0.8,2.6c-1.2-0.9-2.7-1.4-4.2-1.5c-0.4,0-0.9,0.1-1.3,0.3c-0.6,0.3-1.1,0.9-1.2,1.6c-0.2,0.9-0.1,1.8,0.2,2.6
		c-0.9-0.2-1.9-0.3-2.8-0.3C9.1,6.5,8,6.8,7.2,7.5c-0.5,0.5-0.8,1.3-0.6,2c0.3,1.2,1,2.2,1.9,3c-2.8,0.3-5.9,1-6.6,2.8
		c-0.3,0.6-0.2,1.4,0.1,2c0.8,1.1,2,2,3.4,2.4c-3,1.4-5.3,3.2-5.3,5c0,1.3,1.1,2.8,5.8,2.8H7c-2.6,2.7-5,5.9-3.8,8
		c0.6,0.9,1.6,1.4,2.6,1.3c1.9-0.2,3.8-0.7,5.5-1.6c-1,2.6-1.5,5-1.2,6.6c0.1,0.8,0.6,1.5,1.3,1.9c0.4,0.2,0.9,0.4,1.4,0.4
		c2,0,4.7-2.1,7.3-5.1c0.2,3.2,0.8,6,2.1,7.5c0.5,0.6,1.2,1,2,1.1c0,0,0.1,0,0.1,0c2.6,0,4.4-3.6,5.4-7.1c1.8,3.1,3.8,5.2,5.7,5.2
		c0.3,0,0.7-0.1,1-0.2c2.3-0.9,2.6-4.7,2-9c2.3,1.7,4.4,2.6,5.9,2.6l0,0c0.8,0,1.5-0.3,2.1-0.9c1.4-1.7,0.3-4.6-1.3-7.3
		c0.9,0.2,1.7,0.3,2.6,0.3l0,0c2.4,0,3.2-1,3.5-1.9C51.8,27.6,49.9,25.4,47.4,23.4z"/>
	<path class="st0" d="M39.6,20.1c-0.8-0.4-1.7-0.8-2.5-1.1c0.8-0.2,1.6-0.4,2.5-0.6c5.8-1.6,9.4-4,8.5-5.6s-5.7-1.6-11.2-0.3
		c-0.8,0.2-1.6,0.4-2.3,0.6c0.4-0.6,0.8-1.2,1.1-1.8c2.3-4.1,2.8-7.6,1.2-8.2s-4.6,1.7-7.3,5.5c-0.4,0.6-0.8,1.1-1.1,1.7
		C28.4,9.7,28.2,9,28,8.4c-1.6-4.3-4.1-7.3-5.8-7S20,5.2,21.3,9.8c0.2,0.7,0.4,1.3,0.7,2c-0.7-0.4-1.4-0.8-2.2-1.1
		C14.5,8.1,9.3,7.2,8,8.5s1.9,4.7,7.5,7.5c0.8,0.4,1.6,0.8,2.4,1.1c-0.9,0.2-1.9,0.4-2.9,0.6c-7.5,1.8-13.9,5-13.8,7.1
		s7.1,2.2,15.1,0c1.1-0.3,2.1-0.6,3.1-1c-0.6,0.8-1.2,1.6-1.8,2.5c-4.9,7.1-7.7,15-5.4,16.4s8.4-4.7,12.8-12.4c0.5-1,1-1.9,1.5-2.8
		c0.2,1,0.4,2,0.7,3c2.3,8.2,6.5,14.9,9,13.9s1.8-8.9-1-16.4c-0.3-1-0.7-1.9-1.1-2.8c0.8,0.5,1.7,1,2.6,1.4
		c6.8,3.4,12.9,4.5,13.5,2.5S45.9,23.1,39.6,20.1z"/>
	<g id="Layer_2">
		<path class="st2" d="M21.3,22.5c-0.7,0.2-1.5,0.5-2.3,0.7c-2.1,0.6-4.3,1-6.5,1.2C7,28.5,3.1,33.2,4.2,35s6.4-0.1,12.2-3.9
			c0.9-2.4,2.1-4.6,3.5-6.7C20.4,23.7,20.8,23,21.3,22.5z"/>
		<path class="st2" d="M20,17.3c-0.6-0.3-1.2-0.5-1.9-0.9c-1.6-0.8-3.1-1.7-4.4-2.8c-5.6-0.2-10.2,0.7-10.9,2.3s2.9,3.3,8.3,4.2
			c2.1-1,4.4-1.8,6.7-2.3C18.6,17.5,19.3,17.4,20,17.3z"/>
		<path class="st2" d="M23.1,13c-0.2-0.5-0.4-1-0.5-1.6c-0.4-1.3-0.6-2.7-0.6-4.1c-3.1-2.7-6.1-4.2-7.5-3.5s-0.7,3.3,1.5,6.4
			c1.9,0.4,3.7,1.1,5.4,1.9C22,12.4,22.6,12.8,23.1,13z"/>
		<path class="st2" d="M33.1,14.1c0.6-0.2,1.2-0.3,1.8-0.5c1.6-0.4,3.3-0.6,5-0.7c2.9-2.7,4.1-5.1,3-6.1s-4-0.2-7.2,1.7
			c-0.3,1.5-0.9,2.9-1.7,4.2C33.8,13.2,33.5,13.7,33.1,14.1z"/>
		<path class="st2" d="M26.7,25.2c-0.3,0.7-0.7,1.4-1.1,2.1c-1.2,2-2.5,3.9-4.1,5.6c-0.6,7.2,0.4,13.4,2.9,13.5S29,41,30.1,34.2
			c-1.2-2.1-2.2-4.4-2.9-6.8C27,26.7,26.8,25.9,26.7,25.2z"/>
		<path class="st2" d="M28.4,11.9c0.3-0.5,0.5-0.9,0.9-1.4C30,9.3,30.9,8.2,32,7.2c-0.1-3.5-1.1-5.9-2.5-6.1s-2.8,1.9-3.7,5
			c0.9,1.3,1.6,2.6,2.1,4.1C28.1,10.8,28.2,11.4,28.4,11.9z"/>
		<path class="st2" d="M50.7,20c-0.2-1.5-3.8-3-8.5-3.8c-1.6,0.9-3.4,1.6-5.2,2.1c-0.7,0.2-1.3,0.3-2,0.5c0.6,0.3,1.3,0.5,1.9,0.9
			c1.8,0.8,3.4,1.8,5,3C47.2,22.7,50.9,21.6,50.7,20z"/>
		<path class="st2" d="M32.5,23.5c0.3,0.7,0.5,1.4,0.8,2.1c0.7,2,1.2,4.1,1.5,6.2c4.7,4.6,9.4,7.3,10.7,5.7s-0.9-6-4.7-10.5
			c-2.2-0.5-4.4-1.3-6.4-2.4C33.8,24.2,33.1,23.9,32.5,23.5z"/>
	</g>
	<path class="st3" d="M42,22.6c-1.6-1.2-3.2-2.2-5-3c-0.7-0.3-1.3-0.6-1.9-0.9c0.6-0.1,1.3-0.3,2-0.5c1.8-0.5,3.6-1.1,5.2-2.1
		c1.4-0.9,2.2-1.7,1.8-2.4s-1.9-1-4-1c-1.7,0.1-3.4,0.3-5,0.7c-0.6,0.2-1.2,0.3-1.8,0.5c0.3-0.5,0.6-0.9,0.9-1.4
		c0.8-1.3,1.4-2.7,1.7-4.2c0.3-1.3,0.1-2.3-0.6-2.6s-1.9,0.2-3.2,1.4c-1,1-2,2-2.8,3.2c-0.3,0.5-0.6,0.9-0.9,1.4
		c-0.1-0.5-0.3-1-0.5-1.6c-0.5-1.5-1.2-2.9-2.1-4.1C24.9,5,24,4.3,23.3,4.4S22,5.7,22,7.3c0,1.4,0.2,2.8,0.6,4.1
		c0.2,0.5,0.3,1.1,0.5,1.6c-0.5-0.3-1.1-0.6-1.7-0.9c-1.7-0.9-3.6-1.5-5.5-1.9c-1.9-0.4-3.4-0.4-3.9,0.2s0.1,1.8,1.6,3.2
		c1.4,1.1,2.8,2.1,4.4,2.8c0.6,0.3,1.3,0.6,1.9,0.9c-0.7,0.1-1.5,0.3-2.2,0.5c-2.3,0.5-4.5,1.3-6.7,2.3c-2.2,1.1-3.6,2.2-3.5,3.1
		s2,1.4,4.8,1.2c2.2-0.2,4.4-0.5,6.5-1.1c0.8-0.2,1.6-0.5,2.3-0.7c-0.5,0.6-0.9,1.2-1.4,1.9c-1.4,2.1-2.6,4.3-3.5,6.7
		c-0.9,2.5-1,4.4-0.1,5s3-0.7,5.2-3c1.5-1.7,2.9-3.6,4.1-5.6c0.4-0.7,0.8-1.4,1.1-2.1c0.2,0.7,0.3,1.5,0.6,2.2
		c0.7,2.4,1.6,4.7,2.9,6.8c1.3,2.2,2.7,3.5,3.7,3.1s1.4-2.6,1-5.5c-0.3-2.1-0.8-4.2-1.6-6.3c-0.3-0.7-0.5-1.4-0.8-2.1
		c0.6,0.4,1.3,0.7,2,1.1c2,1,4.2,1.8,6.4,2.4c2.2,0.5,3.7,0.3,4-0.5S44,24.2,42,22.6z"/>
</g>
</svg>
