<svg id="Platinum" xmlns="http://www.w3.org/2000/svg" viewBox="0 0 240 80"><defs><style>.cls-1{fill:#e96071;}.cls-2{fill:#303f6e;}</style></defs><title>cyberbiz</title><g id="Cyberbiz"><path id="Cyber" class="cls-1" d="M43.11,58.58c-3.39,0-5.84-.13-7.3-.29a19.89,19.89,0,0,1-10.52-4.46,21.23,21.23,0,0,1-6.38-8.52,21.88,21.88,0,0,1-1.6-8.4,21.34,21.34,0,0,1,7-16.23A19.84,19.84,0,0,1,36.41,15.2c1.49-.12,3.74-.19,6.7-.19v5.67h-.83a30.17,30.17,0,0,0-7.58.65,15.68,15.68,0,0,0-8.6,6.1,16,16,0,0,0-3,9.49,15.26,15.26,0,0,0,2.17,8,15.94,15.94,0,0,0,9.22,7.29,25.38,25.38,0,0,0,7.23.82h1.35ZM68.82,70.38c1.61-2,2.42-5,2.42-8.74V31.15H65.93V46.32a8.52,8.52,0,0,1-1.59,5.44,5.57,5.57,0,0,1-4.59,2.05A5.5,5.5,0,0,1,55,51.47a9,9,0,0,1-1.44-5.38V31.15H48.27V45.79c0,3.63.77,6.51,2.27,8.56A10.8,10.8,0,0,0,59.72,59a11.56,11.56,0,0,0,5.42-1.44l1-.51v4.77a9.65,9.65,0,0,1-1,5,6.16,6.16,0,0,1-5.62,3.11,6,6,0,0,1-5.56-3.15,7.54,7.54,0,0,1-.9-3.13H47.71v.07A10.58,10.58,0,0,0,51.54,72a11.76,11.76,0,0,0,8,3A11.31,11.31,0,0,0,68.82,70.38ZM97.54,57.53a14.06,14.06,0,0,0,5.76-5.06,13.78,13.78,0,0,0,2.29-7.64,14,14,0,0,0-1.48-6.2A13.73,13.73,0,0,0,100.47,34a13.5,13.5,0,0,0-8.76-3.21,13,13,0,0,0-8,2.89l-1,.8V15H77.37V42.14a37.44,37.44,0,0,0,.29,5.55A12.86,12.86,0,0,0,82.6,56a14.18,14.18,0,0,0,8.75,3A14,14,0,0,0,97.54,57.53ZM91.33,35.93a9,9,0,0,1,6.09,2.31,8.66,8.66,0,0,1,2.87,6.6A8.56,8.56,0,0,1,97.84,51a8.87,8.87,0,0,1-6.62,2.8,8.61,8.61,0,0,1-5.69-2.1,8.91,8.91,0,0,1-3.09-7.07,8.35,8.35,0,0,1,2.21-5.8,8.62,8.62,0,0,1,6.67-2.91Zm37.59,21.83a14.13,14.13,0,0,0,4.81-3.46,13.58,13.58,0,0,0,2.35-3.71h-5.77a8.75,8.75,0,0,1-6.92,3.22,8.92,8.92,0,0,1-5.19-1.61,8.5,8.5,0,0,1-3.25-4.32l-.29-.86H137a16.84,16.84,0,0,0-1.06-8.34,13.23,13.23,0,0,0-2.65-3.77,14.06,14.06,0,0,0-19.17-.72A14.53,14.53,0,0,0,110.47,39a13.9,13.9,0,0,0,3.3,16.17A13.67,13.67,0,0,0,123.29,59,13.82,13.82,0,0,0,128.92,57.76Zm-.42-20.28a8.16,8.16,0,0,1,3.14,4.12l.3.87H114.69l.37-.9a9,9,0,0,1,3.31-4.14,8.88,8.88,0,0,1,5.05-1.49A8.76,8.76,0,0,1,128.5,37.47Zm18.92,21.11V44.11c0-2.91.48-4.89,1.47-6.06s2.5-1.74,4.81-1.95V30.92l-.93,0a10.56,10.56,0,0,0-7.64,2.71c-2,1.95-3,4.89-3,8.74V58.59Z"/><path id="biz" class="cls-2" d="M173.16,59a14.17,14.17,0,0,1-8.75-3,12.86,12.86,0,0,1-4.95-8.31,37.49,37.49,0,0,1-.29-5.55V15h5.31V34.45l1-.8a13,13,0,0,1,8-2.89A13.5,13.5,0,0,1,182.29,34a13.74,13.74,0,0,1,3.64,4.68,14,14,0,0,1,1.48,6.2,13.78,13.78,0,0,1-2.29,7.64,14.41,14.41,0,0,1-12,6.51Zm0-23.05a8.62,8.62,0,0,0-6.67,2.91,8.34,8.34,0,0,0-2.21,5.8,8.91,8.91,0,0,0,3.09,7.07,8.61,8.61,0,0,0,5.69,2.1,8.86,8.86,0,0,0,6.62-2.8,8.56,8.56,0,0,0,2.45-6.17,8.66,8.66,0,0,0-2.87-6.6,9,9,0,0,0-6.09-2.31ZM222,58.59v-5H210.06l11.08-15.31a6.61,6.61,0,0,0,1.55-3.56,3.36,3.36,0,0,0-.53-1.8,3.07,3.07,0,0,0-1.34-1.23,8.67,8.67,0,0,0-3.56-.49H204.33v5h11.81L204.93,51.6a6.12,6.12,0,0,0-1.42,3.3,3.44,3.44,0,0,0,1.29,2.76,5.81,5.81,0,0,0,3.75.93Zm-24.32-7.86V31.15h-5.36V50.73Zm.7,6.27A3.38,3.38,0,1,0,195,60.38,3.38,3.38,0,0,0,198.38,57Z"/></g></svg>