<?xml version="1.0" encoding="utf-8"?>
<!-- Generator: Adobe Illustrator 21.1.0, SVG Export Plug-In . SVG Version: 6.00 Build 0)  -->
<svg version="1.1" id="圖層_1" xmlns="http://www.w3.org/2000/svg" xmlns:xlink="http://www.w3.org/1999/xlink" x="0px" y="0px"
	 viewBox="0 0 145.7 56.5" style="enable-background:new 0 0 145.7 56.5;" xml:space="preserve">
<style type="text/css">
	.st0{fill:#C93130;}
</style>
<title>speaker_fastly</title>
<path class="st0" d="M99.2,5.8v38h11.4V38h-3.7V0h-7.7L99.2,5.8L99.2,5.8z M0,38h3.9V19.7H0v-5L3.9,14V8.9C3.9,2.7,5.2,0,13.1,0
	c1.8,0,3.7,0.2,5.5,0.6l-1,6.2c-0.8-0.1-1.7-0.2-2.5-0.2c-2.8,0-3.5,0.3-3.5,3V14h5.8v5.7h-5.8V38h3.8v5.8H0V38z M95.3,36.2
	c-1,0.2-2,0.3-3,0.2c-3.2,0.1-2.9-1-2.9-3.9V19.7h6V14h-6V0h-7.6v34.1c0,6.7,1.7,9.7,8.8,9.7c2-0.1,3.9-0.4,5.8-0.8L95.3,36.2z
	 M72.2,19.7v-1c-1.9-0.3-3.9-0.5-5.8-0.4c-3.6,0-4,1.9-4,2.9c0,1.5,0.5,2.2,4.3,3.1c5.6,1.3,11.3,2.6,11.3,9.6c0,6.6-3.4,10-10.6,10
	c-4.4-0.1-8.8-0.8-13-1.9v-5.7h5.8v1c2.1,0.3,4.3,0.5,6.5,0.4c3.8,0,4.4-2,4.4-3.1c0-1.5-1.1-2.2-4.7-3c-6.7-1.2-12-3.4-12-10.2
	c0-6.5,4.3-9,11.5-9c4.1,0,8.2,0.6,12.1,1.7v5.7L72.2,19.7L72.2,19.7z M33.5,36.2v-0.9h-0.9v0.9c-4.1-0.2-7.4-3.5-7.6-7.7h0.9v-0.9
	H25c0.2-4.1,3.5-7.3,7.6-7.6v0.9h0.9V20c4,0.2,7.3,3.4,7.6,7.4v0.3h-0.9v0.9h0.9v0.2C40.7,32.8,37.5,35.9,33.5,36.2L33.5,36.2z
	 M48.7,36.2V12.4h-7.7v2.2c-1.6-1-3.4-1.7-5.2-2l0,0V10h1V8.1h-7.7V10h0.9v2.6h0C21.6,14.3,16,22.5,17.6,31S27.4,45.2,36,43.6
	c1.8-0.3,3.6-1,5.2-2l1.4,2.2h8.1v-7.6L48.7,36.2L48.7,36.2z M129.9,14h15.8v5.7h-3.8l-9.7,23.8c-2.8,6.7-7.3,13-14.3,13
	c-1.9,0-3.7-0.2-5.6-0.6l0.7-6.9c1,0.2,2,0.3,3,0.3c3.5,0,6.7-2.1,8-5.5l-9.8-24.1h-3.8V14h15.8v5.7h-3.8l5.6,13.7l5.6-13.7h-3.8
	L129.9,14L129.9,14z M37,24.7l-0.6-0.6l-3,2.6c-0.2-0.1-0.3-0.1-0.5-0.1c-0.8,0-1.5,0.6-1.5,1.4c0,0.8,0.6,1.5,1.4,1.5
	c0.8,0,1.5-0.6,1.5-1.4c0,0,0,0,0,0c0-0.2,0-0.3-0.1-0.5L37,24.7"/>
</svg>
