<svg xmlns="http://www.w3.org/2000/svg" xmlns:xlink="http://www.w3.org/1999/xlink" viewBox="0 0 160 80"><defs><style>.cls-1{fill:none;}.cls-2{clip-path:url(#clip-path);}.cls-3{fill:url(#linear-gradient);}.cls-4{fill:#424242;}</style><clipPath id="clip-path"><path class="cls-1" d="M100.25,39.94c-.71,2.43-1.89,6.51-3,6.51s-2.3-4.08-3-6.51c-1.26-4.39-2.46-8.53-5.68-8.53s-4.42,4.14-5.69,8.53c-.7,2.43-1.88,6.51-3,6.51s-2.3-4.08-3-6.52c-1.27-4.38-2.47-8.52-5.69-8.52s-4.41,4.14-5.68,8.53c-.7,2.43-1.88,6.51-3,6.51s-2.31-4.08-3-6.51c-1.27-4.39-2.46-8.53-5.68-8.53a1.4,1.4,0,1,0,0,2.79c1.12,0,2.3,4.07,3,6.51,1.27,4.38,2.46,8.52,5.69,8.52s4.41-4.14,5.68-8.52c.7-2.44,1.88-6.51,3-6.51s2.3,4.07,3,6.51c1.26,4.38,2.46,8.52,5.68,8.52s4.42-4.14,5.68-8.52c.71-2.44,1.88-6.51,3-6.51s2.3,4.07,3,6.51c1.26,4.38,2.46,8.52,5.68,8.52s4.42-4.14,5.68-8.52c.71-2.44,1.89-6.51,3-6.51s2.3,4.07,3,6.51c1.26,4.38,2.46,8.52,5.68,8.52a1.39,1.39,0,1,0,0-2.78c-1.12,0-2.3-4.08-3-6.52-1.26-4.38-2.46-8.52-5.68-8.52s-4.42,4.14-5.68,8.53"/></clipPath><linearGradient id="linear-gradient" x1="-152" y1="-314.97" x2="-151.19" y2="-314.97" gradientTransform="matrix(78.56, 0, 0, -78.56, 11993.65, -24704.96)" gradientUnits="userSpaceOnUse"><stop offset="0" stop-color="#59c6d6"/><stop offset="0.19" stop-color="#59c6d6"/><stop offset="0.69" stop-color="#80c242"/><stop offset="1" stop-color="#80c242"/></linearGradient></defs><title>flowmail</title><g id="Speaker"><g id="Flowmail"><g class="cls-2"><rect class="cls-3" x="52.4" y="31.41" width="63.61" height="17.82"/></g><polygon class="cls-4" points="18.94 38.4 8.01 38.4 8.01 48.97 5 48.97 5 23.89 19.91 23.89 19.91 26.54 8.01 26.54 8.01 35.75 18.94 35.75 18.94 38.4"/><path class="cls-4" d="M26.75,22.71V42.45c0,3.9.72,4.73,4.33,4.26l.11,2c-5.27.86-7.27-1-7.27-6.3V22.71Z"/><path class="cls-4" d="M41.87,49.29c-4.52,0-9-3-9-9s4.59-8.92,9.14-8.92S51,34.32,51,40.3s-4.58,9-9.17,9M42,47c3.15,0,6.27-2.25,6.27-6.66a6.29,6.29,0,1,0-12.58,0A6.24,6.24,0,0,0,42,47"/><path class="cls-4" d="M124.83,49.29c-3.19,0-6.09-1.54-6.09-5,0-3.83,3-5.73,6.59-5.73a12.5,12.5,0,0,1,6,1.25V37.25c0-2.9-3.08-3.62-5.45-3.62a10.4,10.4,0,0,0-5.26,1.26l-.47-2.22a13.83,13.83,0,0,1,6.16-1.29c3.91,0,7.67,1.43,7.56,5.95v7.2c0,1.9-.1,3,2,2.72l0,1.83c-2.87.46-4.23-.07-4.23-3.23-1.26,2.4-4.19,3.44-6.81,3.44m6.41-7.38A11.69,11.69,0,0,0,126,40.69c-2.22,0-4.48.9-4.48,3.37,0,2.22,1.9,2.83,3.83,2.83,2.26,0,5.2-1.07,5.91-3.87Z"/><path class="cls-4" d="M142.78,26a1.78,1.78,0,1,1-3.55,0,1.78,1.78,0,0,1,3.55,0m-.39,23h-2.8V31.7h2.8Z"/><path class="cls-4" d="M150.56,22.71V42.45c0,3.9.71,4.73,4.33,4.26l.11,2c-5.27.86-7.27-1-7.27-6.3V22.71Z"/></g></g></svg>