<?xml version="1.0" encoding="utf-8"?>
<!-- Generator: Adobe Illustrator 21.1.0, SVG Export Plug-In . SVG Version: 6.00 Build 0)  -->
<svg version="1.1" id="圖層_1" xmlns="http://www.w3.org/2000/svg" xmlns:xlink="http://www.w3.org/1999/xlink" x="0px" y="0px"
	 viewBox="0 0 260 61.9" style="enable-background:new 0 0 260 61.9;" xml:space="preserve">
<style type="text/css">
	.st0{fill:url(#SVGID_1_);}
	.st1{fill:url(#SVGID_2_);}
	.st2{fill:url(#SVGID_3_);}
	.st3{fill:url(#SVGID_4_);}
	.st4{fill:url(#SVGID_5_);}
	.st5{fill:url(#SVGID_6_);}
	.st6{fill:url(#SVGID_7_);}
	.st7{fill:url(#SVGID_8_);}
	.st8{fill:url(#SVGID_9_);}
	.st9{fill:url(#SVGID_10_);}
</style>
<title>ruby_fusion</title>
<linearGradient id="SVGID_1_" gradientUnits="userSpaceOnUse" x1="-310.541" y1="73.9824" x2="-310.0761" y2="73.9824" gradientTransform="matrix(0 -130.44 130.44 0 -9628.9443 -40446.9023)">
	<stop  offset="0" style="stop-color:#1E1F1F"/>
	<stop  offset="1" style="stop-color:#515150"/>
</linearGradient>
<polygon class="st0" points="0,0 0,60.6 13.3,60.6 13.3,35.6 38.7,35.6 38.7,25.2 13.3,25.2 13.3,11.2 42.6,11.2 42.6,0 "/>
<linearGradient id="SVGID_2_" gradientUnits="userSpaceOnUse" x1="-311.8767" y1="73.6277" x2="-311.4121" y2="73.6277" gradientTransform="matrix(0 -97.01 97.01 0 -7072.9126 -30193.3906)">
	<stop  offset="0" style="stop-color:#1E1F1F"/>
	<stop  offset="1" style="stop-color:#515150"/>
</linearGradient>
<path class="st1" d="M78.2,16.7v23c0,8.9-2.8,12.6-9.3,12.6c-5.7,0-7.7-3.6-7.7-10.8V16.7H49.1v27c0,10.9,3.2,18.1,16.1,18.1
	c5.5,0.1,10.6-2.7,13.4-7.3h0.3v6.1h11.5V16.7H78.2z"/>
<linearGradient id="SVGID_3_" gradientUnits="userSpaceOnUse" x1="-311.7485" y1="71.3651" x2="-311.2839" y2="71.3651" gradientTransform="matrix(0 -99.57 99.57 0 -6988.1401 -30978.8105)">
	<stop  offset="0" style="stop-color:#1E1F1F"/>
	<stop  offset="1" style="stop-color:#515150"/>
</linearGradient>
<path class="st2" d="M124.1,34.2c-6.8-1.6-13.6-2.2-13.6-6.5c0-3.7,4-4.1,6.7-4.1c4.3,0,7.9,1.2,8.2,5.9h11.5
	c-0.9-10.8-9.9-14-19.4-14s-19.2,2.9-19.2,14.1c0,7.8,6.9,10.1,13.9,11.7c8.6,1.8,13.7,3.1,13.7,6.8c0,4.2-4.5,5.6-7.9,5.6
	c-4.7,0-9.3-2.2-9.3-7.3H97.3c0.4,11.6,10.4,15.5,20.6,15.5c9.9,0,20-3.7,20-15.3C138,38.4,131.1,35.8,124.1,34.2z"/>
<linearGradient id="SVGID_4_" gradientUnits="userSpaceOnUse" x1="-310.541" y1="72.8333" x2="-310.0764" y2="72.8333" gradientTransform="matrix(0 -130.44 130.44 0 -9348.9443 -40446.9023)">
	<stop  offset="0" style="stop-color:#1E1F1F"/>
	<stop  offset="1" style="stop-color:#515150"/>
</linearGradient>
<rect x="145.4" y="16.7" class="st3" width="12.1" height="43.9"/>
<linearGradient id="SVGID_5_" gradientUnits="userSpaceOnUse" x1="-310.541" y1="72.8333" x2="-310.0764" y2="72.8333" gradientTransform="matrix(0 -130.44 130.44 0 -9348.9443 -40446.9023)">
	<stop  offset="0" style="stop-color:#1E1F1F"/>
	<stop  offset="1" style="stop-color:#515150"/>
</linearGradient>
<rect x="145.4" class="st4" width="12.1" height="9.9"/>
<linearGradient id="SVGID_6_" gradientUnits="userSpaceOnUse" x1="-311.8941" y1="71.6141" x2="-311.4292" y2="71.6141" gradientTransform="matrix(0 -97.01 97.01 0 -6707.8735 -30196.4707)">
	<stop  offset="0" style="stop-color:#1E1F1F"/>
	<stop  offset="1" style="stop-color:#515150"/>
</linearGradient>
<path class="st5" d="M244,15.5c-5.5-0.1-10.6,2.7-13.4,7.3h-0.3v-6.1h-11.5v43.9h12.1v-23c0-8.9,2.8-12.6,9.3-12.6
	c5.7,0,7.7,3.6,7.7,10.8v24.8H260v-27C260.1,22.8,256.8,15.5,244,15.5z"/>
<linearGradient id="SVGID_7_" gradientUnits="userSpaceOnUse" x1="-311.1282" y1="59.8966" x2="-310.6639" y2="59.8966" gradientTransform="matrix(-33.84 -19.54 19.54 -33.84 -11510.1318 -4021.7249)">
	<stop  offset="0" style="stop-color:#1F9A60"/>
	<stop  offset="0.5" style="stop-color:#7BB945"/>
	<stop  offset="1" style="stop-color:#DAD84D"/>
</linearGradient>
<path class="st6" d="M186.9,15.6c-9.5,0-17.1,7.7-17.1,17.1c0,3.5,2.9,6.4,6.4,6.4c3.5,0,6.4-2.9,6.4-6.4v-1.9
	c0-6.9,5.6-12.5,12.4-12.5c0.4,0,0.9,0,1.3,0.1l0,0C193.5,16.6,190.2,15.6,186.9,15.6z"/>
<linearGradient id="SVGID_8_" gradientUnits="userSpaceOnUse" x1="-293.4868" y1="68.7752" x2="-293.0223" y2="68.7752" gradientTransform="matrix(-19.54 33.84 -33.84 -19.54 -3226.635 11314.1016)">
	<stop  offset="0" style="stop-color:#C26E2A"/>
	<stop  offset="0.5" style="stop-color:#E59D2A"/>
	<stop  offset="1" style="stop-color:#EAB72B"/>
</linearGradient>
<path class="st7" d="M182.7,44.8h-1.9c-6.9,0-12.4-5.6-12.4-12.4c0-0.4,0-0.9,0.1-1.2l0,0c-5.2,7.9-3,18.5,4.9,23.7
	c2.8,1.8,6,2.8,9.3,2.8c3.5,0,6.4-2.9,6.4-6.4S186.3,44.8,182.7,44.8L182.7,44.8L182.7,44.8z"/>
<linearGradient id="SVGID_9_" gradientUnits="userSpaceOnUse" x1="-302.377" y1="86.4204" x2="-301.9122" y2="86.4204" gradientTransform="matrix(33.84 19.54 -19.54 33.84 12109.502 3030.4548)">
	<stop  offset="0" style="stop-color:#801F56"/>
	<stop  offset="0.5" style="stop-color:#CC3627"/>
	<stop  offset="1" style="stop-color:#DB7129"/>
</linearGradient>
<path class="st8" d="M201.1,38.2c-3.5,0-6.4,2.9-6.4,6.4v1.9c0,6.9-5.6,12.4-12.5,12.4c-0.4,0-0.8,0-1.2-0.1l0,0
	c7.9,5.2,18.5,3.1,23.7-4.8c1.9-2.8,2.8-6.1,2.8-9.5C207.6,41,204.7,38.2,201.1,38.2z"/>
<linearGradient id="SVGID_10_" gradientUnits="userSpaceOnUse" x1="-320.1447" y1="81.952" x2="-319.6803" y2="81.952" gradientTransform="matrix(24.3 -24.3 24.3 24.3 5984.146 -9733.6533)">
	<stop  offset="0" style="stop-color:#114167"/>
	<stop  offset="0.5" style="stop-color:#4A727D"/>
	<stop  offset="1" style="stop-color:#53A4D4"/>
</linearGradient>
<path class="st9" d="M194.6,19.7c-3.5,0-6.4,2.9-6.4,6.4s2.9,6.4,6.4,6.4h1.9c6.9,0,12.4,5.6,12.4,12.5c0,0,0,0,0,0
	c0,0.4,0,0.9-0.1,1.2l0,0c5.2-7.9,3.1-18.5-4.8-23.7C201.2,20.7,197.9,19.7,194.6,19.7z"/>
</svg>
