<svg id="Platinum" xmlns="http://www.w3.org/2000/svg" viewBox="0 0 240 80"><defs><style>.cls-1{fill:#231f20;}</style></defs><title>gandi</title><path id="Gandi" class="cls-1" d="M73.47,42.46c-3.42,0-4.08-2.48-4.08-6.46,0-4.86,1.87-6.74,4.25-6.74,2.65,0,4,1.71,4,5.74C77.67,39.81,76.4,42.46,73.47,42.46ZM71.26,53.23a5.71,5.71,0,0,0,1,.12c4.87.33,6.3,1,6.3,3.53,0,1.93-1.71,4.25-5.63,4.25-3.76,0-4.64-1.38-4.64-3.14s1.32-3.6,2.92-4.76Zm5.31-26.84a10.88,10.88,0,0,0-2.76-.45c-5.42,0-9.18,3-9.18,10.39,0,3.54.83,6.57,3.37,8.23-1.6,1.33-3.42,3.59-3.48,5s1.22,2.43,3.32,3c-2.32,1.54-4.14,3.75-4.14,6.4,0,2.88,1.43,6.3,8.89,6.3S83.14,61,83.14,56.27c0-4.36-3.31-6-6.85-6.46-4.14-.55-7-.72-7-1.66a4.48,4.48,0,0,1,1.44-2.48,11.48,11.48,0,0,0,2.48.22c6.41,0,9-3.82,9-9.67A8.79,8.79,0,0,0,80.05,30a10.24,10.24,0,0,0,2,.27c.94,0,1.55-.55,1.55-1.77a4.36,4.36,0,0,0-.44-2.09Zm-32.75-5.1a4.34,4.34,0,0,0-6,1,18,18,0,0,1-5.72,5.42l-.6.33c-.19.09-.38.19-.57.27a16.94,16.94,0,0,1-6.8,1.49,16.91,16.91,0,0,1-6.8-1.49,17.44,17.44,0,0,1-6.9-6,4.34,4.34,0,1,0-7.08,5,26.16,26.16,0,0,0,10.33,8.88,25,25,0,0,0,2.4,1C12.64,39.63,9,43.06,7.22,47.76a20.72,20.72,0,0,0,.06,14.89A19.76,19.76,0,0,0,16.6,73a18.67,18.67,0,0,0,16,0c5.58-2.51,9.23-7.12,9.75-12.32.54-5.47-2.08-10.35-6.69-12.41-4.77-2.15-10.16-.62-13.71,3.89a4.34,4.34,0,1,0,6.81,5.38c1.06-1.34,2.28-1.83,3.34-1.35s1.81,1.58,1.61,3.63-2,4.06-4.68,5.27a10.12,10.12,0,0,1-8.5.17,11.06,11.06,0,0,1-5.2-5.82,11.94,11.94,0,0,1,0-8.66c1-2.76,3.62-5.36,8.16-8.18,1.93-1.2,4-2.32,6-3.4,2.3-1.25,4.49-2.43,6.41-3.7a26.7,26.7,0,0,0,8.94-8.18,4.34,4.34,0,0,0-1-6.05ZM99,50.58a4.68,4.68,0,0,1-3,.89c-2.15,0-3.54-.22-3.54-5s1.88-5.63,4.09-5.63a6,6,0,0,1,2.6.5c0,4-.17,9.22-.17,9.22ZM98,25.94c-5.14,0-8.84.72-9.67,1.33a1.7,1.7,0,0,0-.5,1.44,6.7,6.7,0,0,0,.61,2.87,23.28,23.28,0,0,1,7.79-1.27c1.71,0,2.93.66,2.93,3.26v4.64a10.4,10.4,0,0,0-4.2-.72c-3.53,0-7.18,1.38-7.18,9.06,0,8.4,3.87,8.73,7.9,8.67a14.67,14.67,0,0,0,7.68-1.82s.33-7.84.33-17.51V32.68C103.68,27.71,101.58,25.94,98,25.94ZM21.76,13.12a2.9,2.9,0,0,1,2.08-.87,2.93,2.93,0,0,1,2.08.87,2.95,2.95,0,0,1,0,4.16,2.92,2.92,0,0,1-2.08.86,2.93,2.93,0,0,1-2.08-5Zm2.08,12.1a10,10,0,1,0-7.09-2.94A10,10,0,0,0,23.84,25.22Zm147,23.32a3,3,0,0,0-3.1,3.2c0,1.94.78,3.15,3.1,3.15A3,3,0,0,0,174,51.74C174,49.81,173.12,48.54,170.86,48.54Zm18.55-22.6a25.41,25.41,0,0,0-9.12,1.83V54.39c4.59,0,4.48,0,4.48-.93V30.92a8.15,8.15,0,0,1,4.14-1.05c2.93,0,3.26,1.65,3.26,6v18.5c4.69,0,4.64,0,4.64-.93V36.11c0-7.63-.72-10.17-7.4-10.17ZM159.1,14c-1.76,0-2.54,1.32-2.54,3.31-.05,2.6.83,3.42,2.27,3.48,1.65,0,2.48-1.33,2.54-3.59S160.82,14,159.1,14ZM126.7,36.11c0-7.63-.72-10.17-7.4-10.17a25.41,25.41,0,0,0-9.12,1.83V54.39c4.59,0,4.48,0,4.48-.93V30.92a8.18,8.18,0,0,1,4.14-1.05c2.93,0,3.26,1.65,3.26,6v18.5c4.7,0,4.64,0,4.64-.93Zm88.05,2.82a30.35,30.35,0,0,1-7.51.6c.33-7.68,2.37-9.66,4.64-9.66S215,31.52,215,35.5a17.72,17.72,0,0,1-.28,3.43ZM219.39,35c0-5.91-2.37-9.06-7-9.06-4.91,0-9.77,1.72-9.77,16.08,0,11.27,3.7,13.2,8.84,13.2,4.14,0,7.62-1.32,7.62-2.1a16.78,16.78,0,0,0-.39-4,13.51,13.51,0,0,1-6.74,1.71c-3,0-4.53-1-4.69-7.68a65.42,65.42,0,0,0,11.54-.88,36.51,36.51,0,0,0,.61-7.3ZM145,50.36a5.75,5.75,0,0,1-3.26.83c-2.6,0-4.15-1.21-4.15-10.11,0-9.06,2.43-11.21,4.86-11.21a3.71,3.71,0,0,1,2.55.71V50.36Zm0-34.53V27.05a6.65,6.65,0,0,0-3.93-1.11c-4.75,0-8.51,4.7-8.51,15.64,0,12,3.76,13.64,9,13.64,3.43,0,6-.55,7.9-1.65V13.79c-3.65,0-4.47,0-4.47,2Zm11.64,13V54.39c4.53,0,4.58,0,4.58-.93V26.77C157.56,26.77,156.62,26.77,156.62,28.82Zm77.23,22.59c-2,0-2-2-2-4.36V30.64h4.75c.89,0,.89-.39.89-3.87h-5.64V16.83c-3.64,0-4.47,0-4.47,1.55v8.39h-2.82c-.94,0-1,.44-1,3.87h3.81V46.55c0,5,0,8.73,5.25,8.73,2.15,0,4.75-.44,4.75-1.77a13.4,13.4,0,0,0-.33-2.93,6.39,6.39,0,0,1-3.21.83"/></svg>