<?xml version="1.0" encoding="utf-8"?>
<!-- Generator: Adobe Illustrator 21.1.0, SVG Export Plug-In . SVG Version: 6.00 Build 0)  -->
<svg version="1.1" id="圖層_1" xmlns="http://www.w3.org/2000/svg" xmlns:xlink="http://www.w3.org/1999/xlink" x="0px" y="0px"
	 viewBox="0 0 175.2 51.9" style="enable-background:new 0 0 175.2 51.9;" xml:space="preserve">
<style type="text/css">
	.st0{fill:#241C1D;}
</style>
<title>Gold_gandi</title>
<g>
	<path id="gandi" class="st0" d="M52.9,27.8c-2.6,0-3-1.8-3-4.8c0-3.6,1.4-5,3.2-5c2,0,3,1.3,3,4.3C56,25.8,55.1,27.8,52.9,27.8z
		 M51.3,35.8c0.3,0,0.5,0.1,0.8,0.1c3.6,0.2,4.7,0.8,4.7,2.6c0,1.4-1.3,3.2-4.2,3.2s-3.5-1-3.5-2.3C49.2,37.9,50,36.6,51.3,35.8z
		 M55.3,15.8c-0.7-0.2-1.4-0.3-2.1-0.3c-4,0-6.8,2.3-6.8,7.7c0,2.6,0.6,4.9,2.5,6.1c-1.2,1-2.6,2.7-2.6,3.8s0.9,1.8,2.5,2.3
		c-1.8,1.2-3.2,2.8-3.2,4.8c0,2.1,1.1,4.7,6.6,4.7s7.9-3.2,7.9-6.8c0-3.2-2.5-4.5-5.1-4.8c-3.1-0.4-5.2-0.5-5.2-1.2
		c0.1-0.7,0.5-1.4,1.1-1.8c0.6,0.1,1.2,0.2,1.8,0.2c4.8,0,6.7-2.8,6.7-7.2c0.1-1.7-0.5-3.4-1.6-4.7c0.5,0.1,1,0.2,1.5,0.2
		c0.7,0,1.2-0.4,1.2-1.3c0-0.5-0.1-1.1-0.3-1.6L55.3,15.8L55.3,15.8z M30.8,11.9c-1.5-1-3.5-0.7-4.5,0.8c-1.1,1.6-2.6,3-4.3,4
		L21.6,17l-0.4,0.2c-3.2,1.5-6.9,1.5-10.1,0c-2.1-1-3.9-2.6-5.1-4.5c-1-1.5-3.1-1.8-4.5-0.8c-1.5,1-1.8,3.1-0.8,4.5
		c1.9,2.8,4.6,5.1,7.7,6.6c0.6,0.3,1.2,0.5,1.8,0.7c-2.9,1.9-5.2,4.7-6.6,7.9c-1.4,3.6-1.4,7.5,0,11.1c1.3,3.3,3.8,6.1,7,7.7
		c3.8,1.8,8.2,1.8,11.9,0c4.2-1.9,6.9-5.3,7.3-9.2c0.5-3.8-1.5-7.6-5-9.3c-3.6-1.6-7.6-0.5-10.2,2.9c-1.2,1.3-1.1,3.4,0.2,4.6
		c1.3,1.2,3.4,1.1,4.6-0.2c0.1-0.1,0.2-0.2,0.3-0.3c0.8-1,1.7-1.4,2.5-1c1,0.5,1.4,1.6,1.2,2.7c-0.2,1.5-1.5,3-3.5,3.9
		c-2,1-4.3,1-6.3,0.1c-1.7-0.9-3.1-2.5-3.8-4.3c-0.8-2.1-0.8-4.4,0-6.5c0.8-2,2.7-4,6.1-6.1c1.4-0.9,3-1.7,4.5-2.5
		c1.7-0.9,3.3-1.8,4.8-2.8c2.7-1.5,4.9-3.6,6.7-6.1C32.6,15,32.3,13,30.8,11.9C30.8,12,30.8,12,30.8,11.9z M71.9,33.8
		c-0.6,0.5-1.4,0.7-2.2,0.7c-1.6,0-2.6-0.2-2.6-3.7s1.4-4.2,3-4.2c0.7,0,1.3,0.1,1.9,0.4C72,29.9,71.9,33.8,71.9,33.8L71.9,33.8z
		 M71.2,15.5c-3.8,0-6.6,0.5-7.2,1c-0.3,0.3-0.4,0.7-0.4,1.1c0,0.7,0.1,1.5,0.4,2.1c1.9-0.6,3.8-1,5.8-1c1.3,0,2.2,0.5,2.2,2.4v3.5
		c-1-0.4-2.1-0.6-3.1-0.5c-2.6,0-5.3,1-5.3,6.8c0,6.3,2.9,6.5,5.9,6.5c2,0.1,4-0.4,5.7-1.3c0,0,0.2-5.8,0.2-13.1v-2.4
		C75.4,16.8,73.9,15.5,71.2,15.5z M14.3,5.9c0.9-0.9,2.2-0.9,3.1,0s0.9,2.2,0,3.1c-0.9,0.9-2.2,0.9-3.1,0c-0.4-0.4-0.6-1-0.6-1.5
		C13.7,6.9,13.9,6.4,14.3,5.9z M15.9,14.9c4.1,0,7.5-3.3,7.5-7.5S20,0,15.9,0c-4.1,0-7.5,3.3-7.5,7.5c0,2,0.8,3.9,2.2,5.3
		C12,14.1,13.9,14.9,15.9,14.9z M125.5,32.3c-1.2,0-2.3,0.9-2.3,2.2c0,0.1,0,0.1,0,0.2c0,1.4,0.6,2.3,2.3,2.3c1.2,0,2.3-0.9,2.3-2.2
		c0-0.1,0-0.1,0-0.2C127.8,33.2,127.2,32.3,125.5,32.3z M139.3,15.5c-2.3,0-4.6,0.5-6.8,1.4v19.9c3.4,0,3.3,0,3.3-0.7V19.2
		c0.9-0.5,2-0.8,3.1-0.8c2.2,0,2.4,1.2,2.4,4.5v13.8c3.5,0,3.5,0,3.5-0.7V23C144.9,17.4,144.3,15.5,139.3,15.5L139.3,15.5z
		 M116.8,6.5c-1.3,0-1.9,1-1.9,2.5c0,1.9,0.6,2.5,1.7,2.6c1.2,0,1.9-1,1.9-2.7S118,6.5,116.8,6.5L116.8,6.5z M92.6,23
		c0-5.7-0.5-7.6-5.5-7.6c-2.3,0-4.6,0.5-6.8,1.4v19.9c3.4,0,3.3,0,3.3-0.7V19.2c0.9-0.5,2-0.8,3.1-0.8c2.2,0,2.4,1.2,2.4,4.5v13.8
		c3.5,0,3.5,0,3.5-0.7L92.6,23z M158.2,25.1c-1.8,0.4-3.7,0.5-5.6,0.5c0.2-5.7,1.8-7.2,3.5-7.2s2.3,1.2,2.4,4.2
		C158.5,23.4,158.4,24.3,158.2,25.1L158.2,25.1z M161.7,22.2c0-4.4-1.8-6.8-5.2-6.8c-3.7,0-7.3,1.3-7.3,12c0,8.4,2.8,9.8,6.6,9.8
		c3.1,0,5.7-1,5.7-1.6c0-1-0.1-2-0.3-3c-1.5,0.9-3.3,1.3-5,1.3c-2.2,0-3.4-0.7-3.5-5.7c2.9,0,5.8-0.2,8.6-0.7
		C161.6,25.8,161.8,24,161.7,22.2L161.7,22.2z M106.2,33.7c-0.7,0.4-1.6,0.7-2.4,0.6c-1.9,0-3.1-0.9-3.1-7.5s1.8-8.4,3.6-8.4
		c0.7-0.1,1.4,0.1,1.9,0.5V33.7z M106.2,7.9v8.4c-0.9-0.6-1.9-0.9-2.9-0.8c-3.5,0-6.3,3.5-6.3,11.7c0,8.9,2.8,10.2,6.7,10.2
		c2.1,0.1,4.1-0.3,5.9-1.2V6.4C106.9,6.4,106.3,6.4,106.2,7.9L106.2,7.9z M114.9,17.6v19.1c3.4,0,3.4,0,3.4-0.7V16.1
		C115.6,16.1,114.9,16.1,114.9,17.6L114.9,17.6z M172.5,34.5c-1.5,0-1.5-1.5-1.5-3.2V18.9h3.5c0.7,0,0.7-0.3,0.7-2.9H171V8.7
		c-2.7,0-3.3,0-3.3,1.2v6.3h-2.1c-0.7,0-0.7,0.3-0.7,2.9h2.8v11.9c0,3.7,0,6.5,3.9,6.5c1.6,0,3.5-0.3,3.5-1.3c0-0.7-0.1-1.5-0.2-2.2
		C174.2,34.2,173.3,34.5,172.5,34.5"/>
</g>
</svg>
