<svg xmlns="http://www.w3.org/2000/svg" viewBox="0 0 160 120"><defs><style>.cls-1{fill:#0e0d0d;}</style></defs><title>github</title><g id="Party"><path class="cls-1" d="M37,57.27H25.2a.55.55,0,0,0-.55.55v5.76a.55.55,0,0,0,.55.55h4.59v7.14a14,14,0,0,1-3.88.35c-3.36,0-8.06-1.22-8.06-11.55s4.89-11.68,9.48-11.68a18.61,18.61,0,0,1,6.78,1,.55.55,0,0,0,.66-.54l1.31-5.56a.5.5,0,0,0-.21-.42c-.44-.32-3.14-1.83-10-1.83C18.06,41.07,10,44.41,10,60.47s9.22,18.46,17,18.46a19.16,19.16,0,0,0,10.34-2.75c.16-.09.17-.31.17-.42V57.82A.55.55,0,0,0,37,57.27Z"/><path class="cls-1" d="M97.59,43a.55.55,0,0,0-.54-.55H90.42a.55.55,0,0,0-.54.55V55.8H79.55V43a.55.55,0,0,0-.54-.55H72.38a.55.55,0,0,0-.55.55V77.66a.55.55,0,0,0,.55.55H79a.55.55,0,0,0,.54-.55V62.83H89.88l0,14.83a.55.55,0,0,0,.55.55h6.64a.55.55,0,0,0,.54-.55Z"/><path class="cls-1" d="M49.46,47.54a4.27,4.27,0,1,0-4.27,4.32A4.29,4.29,0,0,0,49.46,47.54Z"/><path class="cls-1" d="M49,70.34v-16a.55.55,0,0,0-.55-.55h-6.6a.63.63,0,0,0-.57.62V77.33c0,.68.42.88,1,.88h6c.65,0,.81-.32.81-.89Z"/><path class="cls-1" d="M122.77,53.84H116.2a.55.55,0,0,0-.55.56v17a7.39,7.39,0,0,1-4,1.23c-2.37,0-3-1.08-3-3.4V54.4a.56.56,0,0,0-.55-.56h-6.67a.56.56,0,0,0-.55.56V70.34c0,6.9,3.85,8.58,9.13,8.58a15.4,15.4,0,0,0,7.83-2.39s.17,1.26.24,1.41a.6.6,0,0,0,.49.3l4.24,0a.55.55,0,0,0,.55-.55V54.4A.56.56,0,0,0,122.77,53.84Z"/><path class="cls-1" d="M140.73,53.07a12.39,12.39,0,0,0-6.27,1.66V43a.55.55,0,0,0-.54-.55h-6.65a.55.55,0,0,0-.55.55V77.66a.55.55,0,0,0,.55.55h4.61a.55.55,0,0,0,.48-.29,10.21,10.21,0,0,0,.28-1.6,11.91,11.91,0,0,0,7.86,2.57c6,0,9.5-3.06,9.5-13.74S144.47,53.07,140.73,53.07ZM138.14,72.6a7.81,7.81,0,0,1-3.82-1.11v-11a8.78,8.78,0,0,1,3.39-1.1c2.37-.21,4.65.51,4.65,6.15C142.36,71.52,141.33,72.69,138.14,72.6Z"/><path class="cls-1" d="M68,53.79h-5V47.22c0-.24-.13-.37-.41-.37H55.87c-.27,0-.41.12-.41.37V54s-3.39.82-3.62.89a.56.56,0,0,0-.4.53v4.26a.55.55,0,0,0,.55.55h3.47V70.49c0,7.62,5.34,8.37,8.95,8.37a15,15,0,0,0,3.94-.65.52.52,0,0,0,.31-.5V73a.55.55,0,0,0-.55-.55c-.29,0-1,.11-1.79.11-2.44,0-3.27-1.13-3.27-2.6V60.23h5a.55.55,0,0,0,.55-.55V54.34A.55.55,0,0,0,68,53.79Z"/></g></svg>