<?xml version="1.0" encoding="utf-8"?>
<!-- Generator: Adobe Illustrator 21.1.0, SVG Export Plug-In . SVG Version: 6.00 Build 0)  -->
<svg version="1.1" id="圖層_1" xmlns="http://www.w3.org/2000/svg" xmlns:xlink="http://www.w3.org/1999/xlink" x="0px" y="0px"
	 viewBox="0 0 160.8 60.7" style="enable-background:new 0 0 160.8 60.7;" xml:space="preserve">
<style type="text/css">
	.st0{fill:#8B919C;}
	.st1{fill:#ED6B2C;}
	.st2{fill:#D6452C;}
	.st3{fill:#F29F2D;}
</style>
<title>gold_gitlab</title>
<g>
	<g id="g12">
		<path id="path14" class="st0" d="M120.4,19.5h-2.9v21.8h11.8v-2.7h-8.9V19.5z"/>
	</g>
	<g id="g24">
		<path id="path26" class="st0" d="M140.5,37.4c-0.9,1-2.3,1.5-3.6,1.5c-2.2,0-3.1-1.1-3.1-2.5c0-2.2,1.5-3.2,4.7-3.2
			c0.7,0,1.4,0.1,2.1,0.2V37.4L140.5,37.4z M137.5,24.2c-2.3,0-4.5,0.8-6.2,2.2l1,1.8c1.4-0.9,3.1-1.4,4.8-1.4
			c2.4,0,3.4,1.2,3.4,3.3v1.1c-0.7-0.1-1.3-0.2-2-0.2c-5.1,0-7.7,1.8-7.7,5.6c0,3.3,2.1,5,5.2,5c2.1,0,4.1-1,4.8-2.5l0.5,2.1h2V30.1
			C143.4,26.6,141.9,24.2,137.5,24.2L137.5,24.2z"/>
	</g>
	<g id="g28">
		<path id="path30" class="st0" d="M152.8,39c-1,0-1.9-0.1-2.8-0.5V28.5c1-0.9,2.4-1.4,3.8-1.4c2.8,0,3.9,2,3.9,5.2
			C157.7,36.9,156,39,152.8,39 M154.1,24.2c-1.5,0-3,0.6-4,1.8v-6.5h-2.9v21.2c1.8,0.7,3.6,1,5.5,0.9c5.4,0,8.1-3.5,8.1-9.5
			C160.8,27.4,158.4,24.2,154.1,24.2"/>
	</g>
	<g id="g32">
		<path id="path34" class="st0" d="M88.6,21.8c1.9-0.1,3.8,0.5,5.3,1.7l1.2-2.2c-1.8-1.5-4.1-2.3-6.5-2.3c-6.2,0-10.6,3.8-10.6,11.4
			c0,8,4.7,11.1,10.1,11.1c2.2,0,4.4-0.4,6.5-1.2l-0.1-8.6v-2.7h-8v2.7h5.1l0.1,6.5c-1.1,0.4-2.2,0.6-3.4,0.6
			c-4.3,0-7.2-2.7-7.2-8.4S84.2,21.8,88.6,21.8"/>
	</g>
	<g id="g36">
		<path id="path38" class="st0" d="M109.2,19.5h-2.9v16.3c0,3.5,1.5,5.9,5.9,5.9c0.6,0,1.2-0.1,1.8-0.2v-2.6
			c-0.4,0.1-0.9,0.1-1.3,0.1c-2.4,0-3.4-1.2-3.4-3.3V27h4.8v-2.4h-4.8V19.5z"/>
	</g>
	<path id="path40" class="st0" d="M99.1,41.2h2.9V24.6h-2.9V41.2z"/>
	<path id="path42" class="st0" d="M99.1,22.4h2.9v-2.9h-2.9V22.4z"/>
	<g id="g44">
		<path id="path46" class="st1" d="M65.8,34.7l-3.7-11.4L54.8,0.9c-0.2-0.7-0.9-1-1.6-0.8c-0.4,0.1-0.7,0.4-0.8,0.8l-7.3,22.5H20.8
			L13.5,0.9c-0.2-0.7-0.9-1-1.6-0.8c-0.4,0.1-0.7,0.4-0.8,0.8L3.8,23.4L0.1,34.7c-0.3,1,0,2.2,0.9,2.8L33,60.7l31.9-23.2
			C65.8,36.9,66.1,35.8,65.8,34.7"/>
	</g>
	<g id="g48">
		<path id="path50" class="st2" d="M33,60.7L33,60.7l12.1-37.4H20.8L33,60.7z"/>
	</g>
	<g id="g56">
		<path id="path58" class="st1" d="M33,60.7L20.8,23.4h-17L33,60.7z"/>
	</g>
	<g id="g64">
		<path id="path66" class="st3" d="M3.8,23.4L3.8,23.4L0.1,34.7c-0.3,1,0,2.2,0.9,2.8L33,60.7L3.8,23.4z"/>
	</g>
	<g id="g72">
		<path id="path74" class="st2" d="M3.8,23.4h17L13.5,0.9c-0.2-0.7-0.9-1-1.6-0.8c-0.4,0.1-0.7,0.4-0.8,0.8L3.8,23.4z"/>
	</g>
	<g id="g76">
		<path id="path78" class="st1" d="M33,60.7l12.1-37.4h17L33,60.7z"/>
	</g>
	<g id="g80">
		<path id="path82" class="st3" d="M62.1,23.4L62.1,23.4l3.7,11.4c0.3,1,0,2.2-0.9,2.8L33,60.7L62.1,23.4z"/>
	</g>
	<g id="g84">
		<path id="path86" class="st2" d="M62.1,23.4h-17l7.3-22.5c0.2-0.7,0.9-1,1.6-0.8c0.4,0.1,0.7,0.4,0.8,0.8L62.1,23.4z"/>
	</g>
</g>
</svg>
