<svg xmlns="http://www.w3.org/2000/svg" xmlns:xlink="http://www.w3.org/1999/xlink" viewBox="0 0 160 120"><defs><style>.cls-1,.cls-8{fill:none;}.cls-1{stroke:#b5b5b6;stroke-miterlimit:10;stroke-width:0.3px;}.cls-2{fill:url(#未命名漸層_4);}.cls-3{fill:url(#未命名漸層_4-2);}.cls-4{fill:url(#未命名漸層_4-3);}.cls-5{opacity:0.2;fill:url(#未命名漸層_9);}.cls-15,.cls-21,.cls-5{isolation:isolate;}.cls-6{fill:url(#未命名漸層_4-4);}.cls-7{fill:url(#未命名漸層_10);}.cls-9{fill:url(#未命名漸層_4-16);}.cls-10{fill:url(#未命名漸層_7);}.cls-11{fill:url(#未命名漸層_4-41);}.cls-12{fill:url(#未命名漸層_4-42);}.cls-13{fill:url(#未命名漸層_6);}.cls-14{fill:url(#未命名漸層_4-80);}.cls-15{opacity:0.7;fill:url(#未命名漸層_5);}.cls-16{fill:url(#未命名漸層_4-81);}.cls-17{fill:#480408;}.cls-18{fill:url(#未命名漸層_4-82);}.cls-19{fill:url(#未命名漸層_3);}.cls-20{fill:url(#未命名漸層_3-2);}.cls-21{opacity:0.1;fill:url(#未命名漸層_2);}.cls-22{fill:#c2391e;}</style><radialGradient id="未命名漸層_4" cx="448.62" cy="-1413.26" r="33.15" gradientTransform="matrix(0.75, 0, 0, -0.75, -296.18, -978.38)" gradientUnits="userSpaceOnUse"><stop offset="0" stop-color="#b93a21"/><stop offset="0.61" stop-color="#b93a21"/><stop offset="1" stop-color="#480408"/></radialGradient><radialGradient id="未命名漸層_4-2" cx="433.15" cy="-1388.94" r="9.12" xlink:href="#未命名漸層_4"/><radialGradient id="未命名漸層_4-3" cx="32.94" cy="-454.22" r="9.06" gradientTransform="matrix(1, 0, 0, -1, 0, -385)" xlink:href="#未命名漸層_4"/><radialGradient id="未命名漸層_9" cx="29.6" cy="-445.45" r="5.34" gradientTransform="matrix(1, 0, 0, -1, 0, -385)" gradientUnits="userSpaceOnUse"><stop offset="0.31" stop-color="#e3981f"/><stop offset="1" stop-color="#b93a21"/></radialGradient><radialGradient id="未命名漸層_4-4" cx="419.4" cy="-1400.37" r="22.36" xlink:href="#未命名漸層_4"/><radialGradient id="未命名漸層_10" cx="419.4" cy="-1400.37" r="22.36" gradientTransform="matrix(0.75, 0, 0, -0.75, -296.18, -978.38)" gradientUnits="userSpaceOnUse"><stop offset="0" stop-color="#fff"/><stop offset="1" stop-color="#fff" stop-opacity="0"/></radialGradient><radialGradient id="未命名漸層_4-16" cx="398.77" cy="-1396.61" r="0.04" xlink:href="#未命名漸層_4"/><radialGradient id="未命名漸層_7" cx="448.62" cy="-1413.26" r="33.15" gradientTransform="matrix(0.75, 0, 0, -0.75, -296.18, -978.38)" gradientUnits="userSpaceOnUse"><stop offset="0.4" stop-color="#b93a21"/><stop offset="0.45" stop-color="#b13a23"/><stop offset="1" stop-color="#480408"/></radialGradient><radialGradient id="未命名漸層_4-41" cx="453.34" cy="-1417.65" r="43.11" xlink:href="#未命名漸層_4"/><radialGradient id="未命名漸層_4-42" cx="418.89" cy="-1396.2" r="22.36" xlink:href="#未命名漸層_4"/><radialGradient id="未命名漸層_6" cx="416.55" cy="-1398.15" r="20.41" gradientTransform="matrix(0.75, 0, 0, -0.75, -296.18, -978.38)" gradientUnits="userSpaceOnUse"><stop offset="0" stop-color="#b86a20"/><stop offset="0.61" stop-color="#b93a21"/><stop offset="1" stop-color="#480408"/></radialGradient><radialGradient id="未命名漸層_4-80" cx="409.16" cy="-1393.26" r="11.73" xlink:href="#未命名漸層_4"/><radialGradient id="未命名漸層_5" cx="408.67" cy="-1392.42" r="15" gradientTransform="matrix(0.75, 0, 0, -0.75, -296.18, -978.38)" gradientUnits="userSpaceOnUse"><stop offset="0" stop-color="#b65227"/><stop offset="1" stop-color="#ce3c30" stop-opacity="0"/></radialGradient><radialGradient id="未命名漸層_4-81" cx="21.54" cy="-1045.22" r="28.3" gradientTransform="matrix(1, 0, 0, -1, -16.72, -961.49)" xlink:href="#未命名漸層_4"/><radialGradient id="未命名漸層_4-82" cx="7.92" cy="-449.59" r="18.15" gradientTransform="matrix(1, 0, 0, -1, 0, -385)" xlink:href="#未命名漸層_4"/><linearGradient id="未命名漸層_3" x1="29.33" y1="-1035.01" x2="43.48" y2="-1019.7" gradientTransform="matrix(1, 0, 0, -1, -16.72, -961.49)" gradientUnits="userSpaceOnUse"><stop offset="0.27" stop-color="#e0b93c"/><stop offset="0.41" stop-color="#deb63e"/><stop offset="0.52" stop-color="#d4ac3b"/><stop offset="0.62" stop-color="#c49d38"/><stop offset="0.71" stop-color="#af8635"/><stop offset="0.81" stop-color="#916c2c"/><stop offset="0.89" stop-color="#6f4e22"/><stop offset="0.98" stop-color="#4a2a12"/><stop offset="1" stop-color="#40220f"/></linearGradient><linearGradient id="未命名漸層_3-2" x1="27.24" y1="-1020.67" x2="53.92" y2="-1008.62" xlink:href="#未命名漸層_3"/><radialGradient id="未命名漸層_2" cx="2.87" cy="-450.99" r="15.12" gradientTransform="matrix(1, 0, 0, -1, 0, -385)" gradientUnits="userSpaceOnUse"><stop offset="0.2" stop-color="#b93a21"/><stop offset="0.37" stop-color="#ba3e20"/><stop offset="0.52" stop-color="#be4920"/><stop offset="0.66" stop-color="#c5571e"/><stop offset="0.8" stop-color="#ce6d1e"/><stop offset="0.94" stop-color="#db8a1f"/><stop offset="1" stop-color="#e3981f"/></radialGradient></defs><title>goldenio</title><g id="Silver"><g id="goldenio"><g id="logo"><path class="cls-1" d="M34.06,61c3.09,5.78-4.15,14.08-15,16.55C10,79.58,4.1,75.93,4.61,70.66c.45-4.43,5.39-9.37,11.72-11.95C23.46,55.9,31.59,56.35,34.06,61Z"/><path class="cls-2" d="M39,62.13c-2.69-5.55-11.61-8.08-20.7-6.23C8.54,57.92.07,64.6.07,71.67c0,8.41,11.39,13.07,24.35,9.2C36.19,77.33,42.14,68.64,39,62.13ZM22.79,75.43c-10.1,3.2-19.35.28-19.86-5.95-.45-5.55,6.4-11.33,14.81-13.3,7.85-1.85,15.43.06,17.45,4.54C37.37,65.78,32.21,72.45,22.79,75.43Z"/><path class="cls-3" d="M34.45,59.49a9.41,9.41,0,0,0-7.4-3.7c12.73,6.11,2.75,16.32,2.75,16.32C36.75,67.29,36.47,62,34.45,59.49Z"/><path class="cls-4" d="M34.45,59.49a9.41,9.41,0,0,0-7.4-3.7h.06a9.43,9.43,0,0,1,7,3.53c2.36,2.92,2.41,7.85-4.32,12.79C36.75,67.29,36.47,62,34.45,59.49Z"/><path class="cls-5" d="M34.4,59.66a9.88,9.88,0,0,0-7.24-3.87c12.68,6.11,2.69,16.32,2.69,16.32C36.47,67.12,36.36,62.24,34.4,59.66Z"/><path class="cls-6" d="M25.81,74.3a32.32,32.32,0,0,1-3.09,1.18c-10.1,3.14-19.35.22-19.86-6-.34-4.26,3.65-8.64,9.37-11.33L12,57.92h0C5.11,61,0,66.23,0,71.72v.39C.23,72.57,5.56,84.35,25.81,74.3Z"/><path class="cls-7" d="M11.45,78.18a12.92,12.92,0,0,1-8.75-3A9,9,0,0,1,.23,72v-.34c0-4.82,4.15-9.82,10.6-13-5.27,2.92-8.41,7-8.08,10.83.34,4.43,5.1,7.4,11.89,7.4a25.84,25.84,0,0,0,7-1,27.81,27.81,0,0,1-10.21,2.3Z"/><path class="cls-8" d="M9.71,59.55c-.34.17-.62.39-.9.56H8.76c-.28.22-.56.39-.84.62l-.06.06a9.77,9.77,0,0,0-.79.67.05.05,0,0,0-.06.06c-.11.11-.28.22-.39.34h0c-.11.11-.28.22-.39.34l-.06.06-.34.34-.06.06a1.49,1.49,0,0,0-.28.34L5.45,63a1.49,1.49,0,0,0-.28.34l-.06.06c-.11.11-.17.22-.28.34h0c-.06.11-.17.22-.28.39a.05.05,0,0,1-.06.06,4.68,4.68,0,0,0-.45.67.05.05,0,0,1-.06.06,4.18,4.18,0,0,0-.39.67.05.05,0,0,1-.06.06,2.74,2.74,0,0,0-.17.39v.06l-.17.34a.05.05,0,0,1-.06.06A2,2,0,0,1,3,66.9C3,67,3,67,2.93,67s-.06.22-.11.34,0,.06-.06.06a.83.83,0,0,0-.06.39v.06c.22-.06.22.06.22.17V68a.83.83,0,0,0-.06.39v.06c0,.11-.06.22-.06.34v.9c.5,6.23,9.76,9.14,19.86,5.95a4.4,4.4,0,0,0,.79-.28c.06,0,.06,0,.06-.06a3.9,3.9,0,0,0,.73-.28c.06,0,.06,0,.06-.06A3.9,3.9,0,0,0,25,74.7h.06a3.9,3.9,0,0,1,.73-.28c7.46-3.31,11.28-9.09,9.37-13.52-2-4.66-9.54-6.51-17.45-4.66a30.32,30.32,0,0,0-5.5,1.91,18.91,18.91,0,0,0-2.52,1.4Z"/><path class="cls-2" d="M9.55,59.1a11.87,11.87,0,0,1,1.18-.62C10.33,58.71,9.94,58.88,9.55,59.1Z"/><path class="cls-2" d="M11.4,58.15c.22-.11.39-.17.62-.28A2.07,2.07,0,0,1,11.4,58.15Z"/><path class="cls-2" d="M10.78,58.48c.22-.11.39-.17.62-.28A3,3,0,0,0,10.78,58.48Z"/><path class="cls-2" d="M5.23,62.13a2.81,2.81,0,0,1,.45-.39C5.51,61.91,5.34,62,5.23,62.13Z"/><path class="cls-2" d="M8.37,59.83c.39-.22.73-.45,1.12-.67C9.1,59.38,8.76,59.61,8.37,59.83Z"/><path class="cls-2" d="M5.73,61.74c.17-.17.34-.28.45-.39C6,61.46,5.9,61.63,5.73,61.74Z"/><path class="cls-2" d="M7.25,60.56a6.86,6.86,0,0,1,1.07-.67A8.14,8.14,0,0,0,7.25,60.56Z"/><path class="cls-2" d="M6.69,61c.17-.11.34-.28.5-.39A5.43,5.43,0,0,1,6.69,61Z"/><path class="cls-2" d="M3.15,67.12c0-.06,0-.06.06-.06S3.15,67.07,3.15,67.12Z"/><path class="cls-2" d="M24.36,74.87c-.06,0-.06,0-.06.06Z"/><path class="cls-2" d="M23.63,75.2c-.06,0-.06,0-.06.06S23.57,75.2,23.63,75.2Z"/><path class="cls-9" d="M2.93,69.14v-.06C2.87,69.09,2.93,69.09,2.93,69.14Z"/><path class="cls-2" d="M.57,68.58a2.73,2.73,0,0,1,.17-.39C.63,68.3.63,68.47.57,68.58Z"/><path class="cls-2" d="M.29,69.59A3.57,3.57,0,0,1,.4,69.2C.35,69.37.35,69.42.29,69.59Z"/><path class="cls-2" d="M.74,68.13c.06-.17.11-.28.17-.45C.85,67.85.79,68,.74,68.13Z"/><path class="cls-2" d="M.18,70.15a1.24,1.24,0,0,0,.06-.45A1.39,1.39,0,0,1,.18,70.15Z"/><path class="cls-2" d="M3.26,66.73c0-.06,0-.06.06-.06A.05.05,0,0,0,3.26,66.73Z"/><path class="cls-2" d="M.4,69.14a1.47,1.47,0,0,1,.17-.45A3.86,3.86,0,0,0,.4,69.14Z"/><path class="cls-2" d="M.12,70.6c0-.17.06-.28.06-.39A1.1,1.1,0,0,0,.12,70.6Z"/><path class="cls-2" d="M0,71.11c0-.17.06-.28.06-.45A1.09,1.09,0,0,1,0,71.11Z"/><path class="cls-2" d="M1.47,66.62a2,2,0,0,1,.28-.45A1.41,1.41,0,0,0,1.47,66.62Z"/><path class="cls-2" d="M3.09,64.26a1.31,1.31,0,0,1,.39-.39Z"/><path class="cls-2" d="M2.7,64.77A2.44,2.44,0,0,1,3,64.38C2.93,64.49,2.81,64.66,2.7,64.77Z"/><path class="cls-2" d="M3.49,63.87a2.59,2.59,0,0,1,.39-.39A1.31,1.31,0,0,0,3.49,63.87Z"/><path class="cls-2" d="M2.37,65.22a2.37,2.37,0,0,1,.28-.39A2.37,2.37,0,0,0,2.37,65.22Z"/><path class="cls-2" d="M4.78,62.58a2.81,2.81,0,0,1,.45-.39C5.06,62.24,4.95,62.41,4.78,62.58Z"/><path class="cls-2" d="M1,67.57c.17-.28.28-.56.45-.9C1.24,67,1.08,67.29,1,67.57Z"/><path class="cls-2" d="M1.69,66.17A1,1,0,0,1,2,65.78C1.92,65.89,1.8,66,1.69,66.17Z"/><path class="cls-2" d="M2,65.67c.11-.17.17-.28.28-.45A3.13,3.13,0,0,1,2,65.67Z"/><path class="cls-2" d="M6.18,61.29a3.21,3.21,0,0,0,.45-.39A1,1,0,0,1,6.18,61.29Z"/><path class="cls-2" d="M4.72,64a.05.05,0,0,1,.06-.06A.05.05,0,0,0,4.72,64Z"/><path class="cls-2" d="M4.22,64.77a.05.05,0,0,1,.06-.06A.05.05,0,0,0,4.22,64.77Z"/><path class="cls-2" d="M7.08,61.46Z"/><path class="cls-2" d="M4.72,62.58l-.79.79A10.31,10.31,0,0,1,4.72,62.58Z"/><path class="cls-2" d="M3.77,65.55a.05.05,0,0,1,.06-.06C3.77,65.5,3.77,65.5,3.77,65.55Z"/><path class="cls-2" d="M3.43,66.34a.05.05,0,0,1,.06-.06C3.43,66.28,3.43,66.28,3.43,66.34Z"/><path class="cls-10" d="M39,62.13c-2.69-5.55-11.61-8.08-20.7-6.23a33.5,33.5,0,0,0-6.23,2h0l.28.22h0a27.6,27.6,0,0,1,5.5-1.91c7.85-1.85,15.43.06,17.45,4.54s-1.85,10.21-9.37,13.52h0C7,83.62.68,75.15.18,72.51.91,80.36,12,84.63,24.47,80.87,36.19,77.33,42.14,68.64,39,62.13Z"/><path class="cls-11" d="M15.32,82.1A19.53,19.53,0,0,1,4.83,79.47,9.51,9.51,0,0,1,.51,74.08c1.29,2.08,4.43,4.66,10.15,4.66h0c4.32,0,9.42-1.46,15.2-4.32A20,20,0,0,0,34.12,68c1.74-2.52,2.13-5.16,1.12-7.35-1.07-2.36-3.59-4.1-7.07-4.88,5,.79,9,3.09,10.6,6.4a8.74,8.74,0,0,1-.06,7.57c-2.08,4.77-7.46,8.81-14.47,10.94a29.28,29.28,0,0,1-8.92,1.4Z"/><path class="cls-12" d="M6.69,61.79c.11-.11.28-.22.39-.34A2.44,2.44,0,0,1,6.69,61.79Z"/><path class="cls-12" d="M.4,69.2c0-.06,0-.06.06-.06S.4,69.14.4,69.2Z"/><path class="cls-12" d="M2.31,65.27a.05.05,0,0,1,.06-.06Z"/><path class="cls-12" d="M3,64.32a.05.05,0,0,1,.06-.06Z"/><path class="cls-12" d="M.07,72.57c0-.17-.06-.28-.06-.45A1.39,1.39,0,0,0,.07,72.57Z"/><path class="cls-12" d="M2.65,64.82h0C2.7,64.77,2.65,64.77,2.65,64.82Z"/><path class="cls-12" d="M2,65.78a.05.05,0,0,1,.06-.06C2,65.67,2,65.72,2,65.78Z"/><path class="cls-12" d="M6.35,62.13a2.44,2.44,0,0,1,.39-.34A2.44,2.44,0,0,1,6.35,62.13Z"/><path class="cls-12" d="M.23,69.65c0-.06,0-.06.06-.06A.05.05,0,0,1,.23,69.65Z"/><path class="cls-12" d="M8.82,60.11a4.84,4.84,0,0,1,.9-.56A7.86,7.86,0,0,0,8.82,60.11Z"/><path class="cls-12" d="M.91,67.68c0-.06.06-.06.06-.11S1,67.68.91,67.68Z"/><path class="cls-12" d="M12.24,58.09a26.86,26.86,0,0,0-2.52,1.4C10.56,59,11.4,58.54,12.24,58.09Z"/><path class="cls-12" d="M.57,68.69c0-.06.06-.06.06-.11S.57,68.64.57,68.69Z"/><path class="cls-12" d="M3.82,63.48l.06-.06Z"/><path class="cls-12" d="M.12,70.21V70.1C.18,70.15.12,70.15.12,70.21Z"/><path class="cls-12" d="M1.41,66.73a.05.05,0,0,1,.06-.06A.05.05,0,0,0,1.41,66.73Z"/><path class="cls-12" d="M7.13,61.4c.28-.22.5-.45.79-.67C7.64,61,7.36,61.18,7.13,61.4Z"/><path class="cls-12" d="M8,60.78a8,8,0,0,1,.84-.62A3.27,3.27,0,0,0,8,60.78Z"/><path class="cls-12" d="M23.51,75.2a4.4,4.4,0,0,0-.79.28C23,75.37,23.29,75.31,23.51,75.2Z"/><path class="cls-12" d="M3.77,65.5c.11-.22.28-.45.39-.67C4,65,3.94,65.22,3.77,65.5Z"/><path class="cls-12" d="M24.36,74.92a6.29,6.29,0,0,0-.73.28A2.82,2.82,0,0,1,24.36,74.92Z"/><path class="cls-12" d="M4.22,64.71c.17-.22.28-.45.45-.67C4.55,64.21,4.39,64.43,4.22,64.71Z"/><path class="cls-12" d="M25.09,74.58c-.22.11-.45.17-.73.28C24.64,74.75,24.86,74.7,25.09,74.58Z"/><path class="cls-12" d="M3.26,66.68a2,2,0,0,1,.17-.39A2.73,2.73,0,0,0,3.26,66.68Z"/><path class="cls-12" d="M3,67.85c0-.11.06-.22.06-.34A.71.71,0,0,1,3,67.85Z"/><path class="cls-12" d="M3,67.46a.83.83,0,0,0,.06-.39A.46.46,0,0,1,3,67.46Z"/><path class="cls-12" d="M25.81,74.3a2.82,2.82,0,0,1-.73.28A6.29,6.29,0,0,1,25.81,74.3Z"/><path class="cls-12" d="M3.6,65.89a2.74,2.74,0,0,0,.17-.39A2.73,2.73,0,0,1,3.6,65.89Z"/><path class="cls-12" d="M2.93,68.64A.71.71,0,0,1,3,68.3.71.71,0,0,0,2.93,68.64Z"/><path class="cls-12" d="M4.72,62.58a.05.05,0,0,0,.06-.06Z"/><path class="cls-12" d="M2.93,68.25c0-.11.06-.22.06-.39A1.1,1.1,0,0,0,2.93,68.25Z"/><path class="cls-12" d="M3.49,66.23c.06-.11.06-.22.17-.34A.48.48,0,0,0,3.49,66.23Z"/><path class="cls-12" d="M5.68,62.86A1.49,1.49,0,0,0,6,62.52,1.49,1.49,0,0,1,5.68,62.86Z"/><path class="cls-12" d="M6,62.47l.34-.34C6.24,62.24,6.07,62.36,6,62.47Z"/><path class="cls-12" d="M5.34,63.2c.11-.11.17-.22.28-.34A1.49,1.49,0,0,1,5.34,63.2Z"/><path class="cls-12" d="M4.72,63.93c.06-.11.17-.22.28-.39A1,1,0,0,1,4.72,63.93Z"/><path class="cls-12" d="M3.15,67.07c.06-.11.06-.22.11-.34A.8.8,0,0,1,3.15,67.07Z"/><path class="cls-12" d="M5.06,63.59a1.49,1.49,0,0,1,.28-.34A1.49,1.49,0,0,0,5.06,63.59Z"/><path class="cls-13" d="M22.79,75.43c-10.1,3.2-19.35.28-19.86-5.95-.34-4.21,3.59-8.58,9.2-11.33h0c.06,0,.06-.06.11-.06a.05.05,0,0,0,.06-.06h0a27.13,27.13,0,0,1,4.43-1.63L18.3,56c-.22.06-1.68.34-2.13.45a18.15,18.15,0,0,0-2.75.9c-.17.06-1,.45-1.29.56h0a.05.05,0,0,0-.06.06H11.9C5.11,61,0,66.23,0,71.67v.39c-.28,1.85,5.55,12.29,25.8,2.19A24.27,24.27,0,0,1,22.79,75.43Z"/><path class="cls-14" d="M12,61.91c7.69-5.5,13.07-6.11,15.37-6.06-.06-.06-.17-.06-.22-.11a24.35,24.35,0,0,0-9.37.45c-8.41,2-15.26,7.74-14.81,13.3.17,2.47,1.8,4.43,4.26,5.67C7.19,75.15,2,69,12,61.91Z"/><path class="cls-15" d="M6.91,74.92A7,7,0,0,1,3,69.48c-.22-2.58,1.23-5.39,4-7.85a24.46,24.46,0,0,1,10.66-5.27,27.85,27.85,0,0,1,6-.73,18.58,18.58,0,0,1,3.09.22c-2.64.06-7.85,1.07-14.87,6.11-3.76,2.58-5.78,5.33-6.11,8.19A7.26,7.26,0,0,0,6.91,74.92Z"/><path class="cls-16" d="M7.19,75.2,7,75.15a6.8,6.8,0,0,1-4.15-5.61C2.65,66.9,4.1,64,7,61.57a25.38,25.38,0,0,1,10.71-5.33,27.78,27.78,0,0,1,5.95-.73,16.92,16.92,0,0,1,3.42.28h0a.21.21,0,0,0,.17.06l.28.11h-.28C24.75,56,19.42,56.75,12,62c-3.65,2.52-5.67,5.27-6.11,8.13a10.37,10.37,0,0,0-.06,1.29A6.46,6.46,0,0,0,7.08,75ZM23.63,55.51a26.86,26.86,0,0,0-5.89.73A26,26,0,0,0,7,61.51C4.16,64,2.7,66.84,2.93,69.42,3.09,71.78,4.55,73.69,7,75a6.85,6.85,0,0,1-1.18-4.88c.39-2.86,2.41-5.67,6.06-8.25,7.35-5.22,12.79-6,15.37-6-.06,0-.17-.11-.17-.11A17.14,17.14,0,0,0,23.63,55.51Z"/><path class="cls-17" d="M27.27,55.9h0c-2.3,0-8-1.12-15.6,4.38C9.6,61.74,6,65.89,5.84,70.6v.45c3.65-7.35,13-9.7,16.66-10.1s10,.39,10.94,4.54C34.45,60.62,31,57.53,27.27,55.9Z"/><path class="cls-18" d="M11.73,60.39c4.43-3.14,8.36-4.49,12.79-4.49.67,0,1.29,0,1.85.06.39.06.73,0,.9.06,2.19,1,5.27,3,6.17,6.68C33,60.34,31.31,57.92,27.33,56h0c-2.3,0-8-1.12-15.6,4.38a13.54,13.54,0,0,0-4.32,4.94A13.23,13.23,0,0,1,11.73,60.39Z"/><path class="cls-19" d="M30.58,69.93C22.79,54.5,14.71,55.34,14.71,55.34,15.16,61,8.48,74.75,8.48,74.75c8.13,2.58,18.18-.84,22-4.66.17-.17.11-.17.11-.17Z"/><path class="cls-20" d="M21.61,39.13A12.88,12.88,0,0,0,13.47,38l3.25,2.58S5.45,49.34,2.7,51.42A14.68,14.68,0,0,1,.4,53l1.12,2a28.15,28.15,0,0,0,11.33,1.07c1.4-.17,7.91-2.13,17.67,14C30.58,69.93,35,46.59,21.61,39.13Z"/><path class="cls-21" d="M10.72,78.46c-5.27,0-8-2.19-9.14-3.53A4.82,4.82,0,0,1,.23,72.17h0v-.39c0-4.82,4.1-9.82,10.6-13-5.22,2.86-8.36,7-8.08,10.83C3.09,74,7.92,77,14.71,77a26.63,26.63,0,0,0,7.12-1,30.54,30.54,0,0,1-11.11,2.47Z"/></g><g id="logotype"><path class="cls-22" d="M62.67,62.3a11.45,11.45,0,0,1-3.25,1.23,14.38,14.38,0,0,1-3.48.39,10.79,10.79,0,0,1-3.87-.67,8.76,8.76,0,0,1-5-4.88,10.49,10.49,0,0,1-.73-3.81A9.71,9.71,0,0,1,47,50.69a8.61,8.61,0,0,1,2.08-3,9.2,9.2,0,0,1,3.09-1.91A10.48,10.48,0,0,1,56,45.13a11.75,11.75,0,0,1,3.42.5,6.89,6.89,0,0,1,2.92,1.8l-1.63,1.68a5.69,5.69,0,0,0-2.24-1.51,7.05,7.05,0,0,0-2.64-.45,6.86,6.86,0,0,0-2.86.56,8.19,8.19,0,0,0-2.3,1.51,6.54,6.54,0,0,0-1.51,2.36,7.39,7.39,0,0,0-.56,3,7.58,7.58,0,0,0,.56,3,7.39,7.39,0,0,0,1.51,2.36A7.35,7.35,0,0,0,56.05,62a11.19,11.19,0,0,0,2.3-.28A9.21,9.21,0,0,0,60.54,61v-5.5H56.39v-2h6.28V62.3Z"/><path class="cls-22" d="M66.09,57.59a6,6,0,0,1,.5-2.52,6.11,6.11,0,0,1,1.35-2,6.23,6.23,0,0,1,2-1.29,7.32,7.32,0,0,1,5,0,5.43,5.43,0,0,1,2,1.29,6.31,6.31,0,0,1,0,9,6.23,6.23,0,0,1-2,1.29,7.32,7.32,0,0,1-5,0,5.43,5.43,0,0,1-2-1.29,6.11,6.11,0,0,1-1.35-2A6,6,0,0,1,66.09,57.59Zm2.13,0a5.94,5.94,0,0,0,.28,1.74,4.45,4.45,0,0,0,.84,1.4,4.53,4.53,0,0,0,1.35,1,4.66,4.66,0,0,0,3.48,0,4.53,4.53,0,0,0,1.35-1,3.25,3.25,0,0,0,.84-1.4,5.65,5.65,0,0,0,.28-1.74,5.94,5.94,0,0,0-.28-1.74,4.45,4.45,0,0,0-.84-1.4,3.91,3.91,0,0,0-1.35-1,4.66,4.66,0,0,0-3.48,0,4.53,4.53,0,0,0-1.35,1,3.25,3.25,0,0,0-.84,1.4A5.94,5.94,0,0,0,68.22,57.59Z"/><path class="cls-22" d="M82.08,44.4h2V63.48h-2Z"/><path class="cls-22" d="M97.9,61.4h0a5.19,5.19,0,0,1-1.8,1.68,5.61,5.61,0,0,1-2.8.67,6.52,6.52,0,0,1-2.36-.45A6.36,6.36,0,0,1,89,62a5.54,5.54,0,0,1-1.23-2,7,7,0,0,1,0-4.94,5.8,5.8,0,0,1,3.25-3.25,6.41,6.41,0,0,1,2.58-.45,5.38,5.38,0,0,1,2.36.5,5.44,5.44,0,0,1,1.91,1.51H98v-9h2V63.53H98V61.4Zm0-3.81a5.94,5.94,0,0,0-.28-1.74,4.45,4.45,0,0,0-.84-1.4,3.91,3.91,0,0,0-1.35-1,4.66,4.66,0,0,0-3.48,0,4.53,4.53,0,0,0-1.35,1,3.25,3.25,0,0,0-.84,1.4,5.65,5.65,0,0,0-.28,1.74,5.94,5.94,0,0,0,.28,1.74,4.45,4.45,0,0,0,.84,1.4,4.53,4.53,0,0,0,1.35,1,4.66,4.66,0,0,0,3.48,0,4.53,4.53,0,0,0,1.35-1,3.25,3.25,0,0,0,.84-1.4A5.65,5.65,0,0,0,97.9,57.59Z"/><path class="cls-22" d="M114.22,61.35a6.12,6.12,0,0,1-2.36,1.91,8,8,0,0,1-3,.56,6,6,0,0,1-2.52-.5A5.87,5.87,0,0,1,104.46,62a6.32,6.32,0,0,1-1.18-2,6.8,6.8,0,0,1-.39-2.41,7.46,7.46,0,0,1,.45-2.52,5.21,5.21,0,0,1,1.29-2,6.36,6.36,0,0,1,1.91-1.29,6.9,6.9,0,0,1,2.47-.45,6.2,6.2,0,0,1,2.3.39A4.91,4.91,0,0,1,113.1,53a5.24,5.24,0,0,1,1.18,2,7.67,7.67,0,0,1,.39,2.64v.62H105a4.33,4.33,0,0,0,.39,1.46,6,6,0,0,0,.84,1.23,4.49,4.49,0,0,0,1.18.84A3.32,3.32,0,0,0,109,62a5.24,5.24,0,0,0,2.19-.45,4.55,4.55,0,0,0,1.63-1.35Zm-1.74-4.82a3.29,3.29,0,0,0-1-2.41,3.53,3.53,0,0,0-2.58-.9,3.82,3.82,0,0,0-2.69.9A4,4,0,0,0,105,56.52Z"/><path class="cls-22" d="M117.7,54.5a12.69,12.69,0,0,0-.06-1.51,10.37,10.37,0,0,1-.06-1.29h1.91v2h.06a3.66,3.66,0,0,1,.56-.84,3.92,3.92,0,0,1,.9-.73,4,4,0,0,1,1.12-.5,5.53,5.53,0,0,1,1.35-.17,5.44,5.44,0,0,1,2,.34,3.24,3.24,0,0,1,1.4,1,4,4,0,0,1,.84,1.51,7.21,7.21,0,0,1,.28,2v7.29h-2V56.41a3.68,3.68,0,0,0-.67-2.36,2.47,2.47,0,0,0-2.08-.84,4.1,4.1,0,0,0-1.68.34,2.63,2.63,0,0,0-1.12,1,5,5,0,0,0-.67,1.46,6.44,6.44,0,0,0-.22,1.85v5.78h-2V54.5Z"/><path class="cls-22" d="M131.17,63.37v-.22a3.63,3.63,0,0,0,1.18-.34,3.69,3.69,0,0,0,1-.67.55.55,0,0,0,.17-.45c.06-.17.06-.39.11-.67s.06-.5.06-.79V48.33a4.25,4.25,0,0,0-.06-.84,2.84,2.84,0,0,0-.11-.73,1.06,1.06,0,0,0-.22-.5,1.73,1.73,0,0,0-.9-.62,6.06,6.06,0,0,0-1.18-.28v-.28h7.63v.28a10.91,10.91,0,0,0-1.12.28,1.63,1.63,0,0,0-1,.79,2.14,2.14,0,0,0-.22,1.07,8.69,8.69,0,0,1-.06,1.23V61.07a1.81,1.81,0,0,0,.22,1,2.08,2.08,0,0,0,1,.67,5.85,5.85,0,0,0,1.18.28v.22h-7.63Z"/><path class="cls-22" d="M159.21,57.87a9.17,9.17,0,0,1-2.08,3,9.7,9.7,0,0,1-3,2,10.31,10.31,0,0,1-3.7.67,9.8,9.8,0,0,1-3.65-.67,8.44,8.44,0,0,1-3-1.91A9.86,9.86,0,0,1,141.66,58a9.17,9.17,0,0,1-.73-3.76,9.81,9.81,0,0,1,.79-3.93,8,8,0,0,1,2.13-2.92A9.7,9.7,0,0,1,147,45.53a10.58,10.58,0,0,1,3.76-.62,9.35,9.35,0,0,1,3.87.73,9,9,0,0,1,2.92,2,9.91,9.91,0,0,1,1.85,2.92,9.87,9.87,0,0,1-.17,7.29Zm-2.8-6.79a11.8,11.8,0,0,0-1.18-2.86,7.12,7.12,0,0,0-2-2.08,5.13,5.13,0,0,0-2.8-.79,5.19,5.19,0,0,0-2.86.79,6.33,6.33,0,0,0-2,2.08,9.23,9.23,0,0,0-1.12,2.86,15.64,15.64,0,0,0-.39,3.25,13,13,0,0,0,.39,3.31,8.53,8.53,0,0,0,1.23,2.8,6.74,6.74,0,0,0,2,2,5.57,5.57,0,0,0,5.61-.06,6.33,6.33,0,0,0,2-2.08,10.94,10.94,0,0,0,1.18-2.86,12.48,12.48,0,0,0,.39-3.2A14.63,14.63,0,0,0,156.41,51.08Z"/><path class="cls-22" d="M58.46,70.83a.28.28,0,0,1-.56,0c0-.56-.28-.9-.73-.9h-2c-.45,0-.73.28-.73.9v2.86c0,.56.28.9.73.9h2c.45,0,.73-.34.73-.9V72.51H56.22a.25.25,0,1,1,0-.5h2a.26.26,0,0,1,.28.22v1.46A1.27,1.27,0,0,1,57.23,75h-2A1.27,1.27,0,0,1,54,73.69V70.83a1.27,1.27,0,0,1,1.23-1.35h2A1.27,1.27,0,0,1,58.46,70.83Z"/><path class="cls-22" d="M59.81,72a1.09,1.09,0,0,1,1-1.07h1.23a1.05,1.05,0,0,1,1,1.07v2a1.05,1.05,0,0,1-1,1.07H60.82a1.05,1.05,0,0,1-1-1.07Zm.5,0v2c0,.39.11.56.45.56H62c.34,0,.45-.17.45-.56V72c0-.34-.17-.56-.45-.56H60.76C60.48,71.44,60.31,71.67,60.31,72Z"/><path class="cls-22" d="M64.35,69.42a.28.28,0,0,1,.56,0V74c0,.39.17.56.45.56a.25.25,0,1,1,0,.5,1.05,1.05,0,0,1-1-1.07Z"/><path class="cls-22" d="M70.24,71.22v3.59A.26.26,0,0,1,70,75H68A1.05,1.05,0,0,1,67,74V72a1.09,1.09,0,0,1,1-1.07h1.68V69.42a.28.28,0,0,1,.56,0Zm-.56.22H68c-.28,0-.45.22-.45.56v2c0,.39.11.56.45.56h1.68Z"/><path class="cls-22" d="M71.59,73V72a1.09,1.09,0,0,1,1-1.07h1.35A1.05,1.05,0,0,1,75,72v1a.26.26,0,0,1-.28.22H72.15V74c0,.34.17.56.5.56H74c.34,0,.45-.22.45-.56A.28.28,0,0,1,75,74,1.05,1.05,0,0,1,74,75H72.66a1,1,0,0,1-1-1.07V73Zm.5-.22h2.3v-.73c0-.39-.17-.56-.45-.56H72.6c-.34,0-.5.22-.5.56v.73Z"/><path class="cls-22" d="M76.81,74.81a.28.28,0,0,1-.56,0V72a1.09,1.09,0,0,1,1-1.07h1.23a1.05,1.05,0,0,1,1,1.07v2.8a.28.28,0,0,1-.56,0V72c0-.34-.17-.56-.45-.56H77.26c-.28,0-.45.22-.45.56Z"/><path class="cls-22" d="M80.9,71.22a.28.28,0,0,1,.56,0v3.59a.28.28,0,0,1-.56,0Zm.28-1.12a.25.25,0,1,1,0-.5h0a.25.25,0,1,1,0,.5Z"/><path class="cls-22" d="M82.81,72a1.09,1.09,0,0,1,1-1.07h1.23a1.05,1.05,0,0,1,1,1.07v2a1.05,1.05,0,0,1-1,1.07H83.82a1.05,1.05,0,0,1-1-1.07Zm.56,0v2c0,.39.11.56.45.56h1.23c.34,0,.45-.17.45-.56V72c0-.34-.17-.56-.45-.56H83.82C83.54,71.44,83.37,71.67,83.37,72Z"/><path class="cls-22" d="M92.51,69.42h2a.25.25,0,1,1,0,.5H92.8v4.88a.28.28,0,0,1-.56,0V69.93H90.55a.25.25,0,1,1,0-.5Z"/><path class="cls-22" d="M96.1,73V72a1.09,1.09,0,0,1,1-1.07h1.35a1.05,1.05,0,0,1,1,1.07v1a.26.26,0,0,1-.28.22H96.67V74c0,.34.17.56.5.56h1.35c.34,0,.45-.22.45-.56a.28.28,0,0,1,.56,0,1.05,1.05,0,0,1-1,1.07H97.17a1,1,0,0,1-1-1.07V73Zm.56-.22H99v-.73c0-.39-.17-.56-.45-.56H97.17c-.34,0-.5.22-.5.56v.73Z"/><path class="cls-22" d="M104.07,72a.28.28,0,0,1-.56,0c0-.39-.17-.56-.45-.56h-1.23c-.28,0-.45.22-.45.56v2c0,.39.11.56.45.56h1.29c.28,0,.45-.17.45-.56a.28.28,0,0,1,.56,0,1,1,0,0,1-1,1.07h-1.29a1.05,1.05,0,0,1-1-1.07V72a1.09,1.09,0,0,1,1-1.07h1.23A1.09,1.09,0,0,1,104.07,72Z"/><path class="cls-22" d="M105.92,71.11a1.06,1.06,0,0,1,.45-.11h1.23a1.05,1.05,0,0,1,1,1.07v2.8a.28.28,0,0,1-.56,0v-2.8c0-.34-.17-.56-.45-.56h-1.23c-.28,0-.45.22-.45.56v2.8a.28.28,0,0,1-.56,0V69.48a.28.28,0,0,1,.56,0Z"/><path class="cls-22" d="M110.52,74.81a.28.28,0,0,1-.56,0V72a1.09,1.09,0,0,1,1-1.07h1.23a1.05,1.05,0,0,1,1,1.07v2.8a.28.28,0,0,1-.56,0V72c0-.34-.17-.56-.45-.56H111c-.28,0-.45.22-.45.56Z"/><path class="cls-22" d="M114.56,72a1.09,1.09,0,0,1,1-1.07h1.23a1.05,1.05,0,0,1,1,1.07v2a1.05,1.05,0,0,1-1,1.07h-1.23a1.05,1.05,0,0,1-1-1.07Zm.56,0v2c0,.39.11.56.45.56h1.23c.34,0,.45-.17.45-.56V72c0-.34-.17-.56-.45-.56h-1.23C115.29,71.44,115.12,71.67,115.12,72Z"/><path class="cls-22" d="M119.16,69.42a.28.28,0,0,1,.56,0V74c0,.39.17.56.45.56a.25.25,0,1,1,0,.5,1.05,1.05,0,0,1-1-1.07Z"/><path class="cls-22" d="M121.74,72a1.09,1.09,0,0,1,1-1.07H124A1.05,1.05,0,0,1,125,72v2A1.05,1.05,0,0,1,124,75h-1.23a1.05,1.05,0,0,1-1-1.07Zm.56,0v2c0,.39.11.56.45.56H124c.34,0,.45-.17.45-.56V72c0-.34-.17-.56-.45-.56h-1.23C122.47,71.44,122.3,71.67,122.3,72Z"/><path class="cls-22" d="M127.35,76.72a.25.25,0,1,1,0-.5h1.23a.51.51,0,0,0,.45-.56v-.56h-1.68a1.05,1.05,0,0,1-1-1.07V72a1.09,1.09,0,0,1,1-1.07h2a.26.26,0,0,1,.28.22v4.43a1.09,1.09,0,0,1-1,1.07h-1.23ZM129,74.58V71.44h-1.68c-.28,0-.45.22-.45.56v2c0,.39.11.56.45.56Z"/><path class="cls-22" d="M133.86,70.94c.11,0,.28.11.28.22v.11l-1.35,3.59c-.28,1-.73,1.8-1.23,1.8h-.34a.25.25,0,1,1,0-.5h.34c.17,0,.45-.5.73-1.4l-1.35-3.53c-.11-.28.39-.45.5-.17L132.57,74l1.07-2.92A.43.43,0,0,1,133.86,70.94Z"/><path class="cls-22" d="M139,69.7a.28.28,0,0,1,.56,0v4.88h2.86a.25.25,0,1,1,0,.5H139.3a.26.26,0,0,1-.28-.22Z"/><path class="cls-22" d="M144.74,71.44V74c0,.34.11.56.34.56h.45a.25.25,0,1,1,0,.5h-.45a1,1,0,0,1-.9-1.07V71.44h-.06a.25.25,0,1,1,0-.5h.06V69.42a.28.28,0,0,1,.56,0v1.51h.5a.25.25,0,1,1,0,.5Z"/><path class="cls-22" d="M150.13,71.22v3.59a.26.26,0,0,1-.28.22h-2a1.05,1.05,0,0,1-1-1.07V72a1.09,1.09,0,0,1,1-1.07h1.68V69.42a.28.28,0,0,1,.56,0Zm-.56.22h-1.68c-.28,0-.45.22-.45.56v2c0,.39.11.56.45.56h1.68Z"/><path class="cls-22" d="M152,75a.25.25,0,1,1,0-.5h0c.39.06.39.5,0,.5Z"/></g></g></g></svg>