<svg xmlns="http://www.w3.org/2000/svg" viewBox="0 0 300 80"><defs><style>.cls-1{fill:#fff;}.cls-2{fill:#ffcb00;}</style></defs><title>honestbee</title><g id="Party"><path class="cls-1" d="M260.75,29.55a59.65,59.65,0,0,1,2.79-5.44A23.38,23.38,0,0,0,254,29.19l0,0c-.47.45-.63.72-.63,1a1.14,1.14,0,0,0,.39.86l.05,0h0c.13.11,1.54,1.21,5.56,1.84C259.76,31.85,260.23,30.7,260.75,29.55Z"/><path class="cls-1" d="M272,45.75c.63,4,1.74,5.41,1.84,5.53l0,0v0a1.11,1.11,0,0,0,.85.4c.32,0,.6-.17,1-.64l0,0a17.43,17.43,0,0,0,2.24-3,26.56,26.56,0,0,0,2.83-6.52c-1.34.77-3.17,1.75-5.4,2.77C274.36,44.84,273.2,45.31,272,45.75Z"/><path class="cls-1" d="M280.8,47.25l.11-.36-.29.59Z"/><path class="cls-2" d="M284.71,20.35a11.49,11.49,0,1,0,3.36,8.12A11.4,11.4,0,0,0,284.71,20.35ZM272.8,23a1.65,1.65,0,1,1-1.65,1.65A1.65,1.65,0,0,1,272.8,23Zm3.62,12.34h-.31A6.38,6.38,0,0,1,269.74,29c0-.11,0-.22,0-.33a1,1,0,0,1,1-.91,1,1,0,0,1,.92,1,1.69,1.69,0,0,0,0,.23,4.44,4.44,0,0,0,4.44,4.44h.22a1,1,0,1,1,.09,1.92Zm4-1.4a1.65,1.65,0,1,1,1.65-1.65A1.65,1.65,0,0,1,280.45,33.91Z"/><path class="cls-2" d="M261,34a16.65,16.65,0,0,0,10,10c1.21-.45,2.43-.95,3.65-1.5l1.53-.72a13.35,13.35,0,0,1-13-13c-.24.49-.48,1-.73,1.54C261.93,31.6,261.44,32.82,261,34Z"/><path class="cls-2" d="M258.38,43.57c-.19,1.2-.35,2.39-.44,3.56,1.16-.09,2.35-.25,3.55-.45A24,24,0,0,1,258.38,43.57Z"/><path class="cls-2" d="M268.34,45a18.62,18.62,0,0,1-8.29-8.29c-.19.59-.37,1.18-.54,1.76-.24.86-.44,1.7-.63,2.54A21.94,21.94,0,0,0,264,46.19c.84-.19,1.69-.4,2.54-.64C267.16,45.39,267.75,45.21,268.34,45Z"/><path d="M247.79,50.74a.68.68,0,0,0,.91,0h0l0,0h0l3.18-2.37h0l0,0a1.24,1.24,0,0,0,0-1.76,1.26,1.26,0,0,0-1.76,0l0,0h0l-2.4,3.22h0A.65.65,0,0,0,247.79,50.74Z"/><path d="M257.1,52.57v0h0l-2.43,3.24h0a.66.66,0,0,0,0,.9.65.65,0,0,0,.9,0h0l0,0h0l3.19-2.4h0s0,0,0,0a1.23,1.23,0,0,0,0-1.75A1.25,1.25,0,0,0,257.1,52.57Z"/><path d="M252.69,52.14a1.23,1.23,0,0,0-1.73,0h0l-4.88,5.66,0,0a.66.66,0,0,0,0,.92.65.65,0,0,0,.92,0h0l5.71-4.87h0A1.22,1.22,0,0,0,252.69,52.14Z"/><path d="M286.07,19a13.35,13.35,0,0,0-21,2.67l0,0,0,.08a29,29,0,0,0-9.09,3.58,18.67,18.67,0,0,0-3.29,2.48,3.32,3.32,0,0,0-1.22,2.42,3,3,0,0,0,1.05,2.3c.29.28,1.89,1.55,6.22,2.29-.36,1-.69,2.08-1,3.11s-.54,2.08-.77,3.11v0a42.81,42.81,0,0,0-.95,7,.91.91,0,0,0,.28.73,1,1,0,0,0,.68.28h0a46.06,46.06,0,0,0,10.17-1.72c1-.29,2.05-.62,3.08-1,.74,4.31,2,5.89,2.28,6.19a3.07,3.07,0,0,0,2.3,1,3.29,3.29,0,0,0,2.43-1.22,19,19,0,0,0,2.47-3.29c.3-.48.61-1,.94-1.66l.29-.59a29.47,29.47,0,0,0,2.34-6.77l.13-.09s0,0,0,0A13.51,13.51,0,0,0,286.07,38a13.4,13.4,0,0,0,0-19ZM253.75,31.15l-.05,0a1.14,1.14,0,0,1-.39-.86c0-.32.16-.59.63-1l0,0a23.38,23.38,0,0,1,9.58-5.08,59.65,59.65,0,0,0-2.79,5.44c-.52,1.15-1,2.3-1.43,3.45-4-.63-5.43-1.73-5.56-1.84Zm9.46-2.3a13.35,13.35,0,0,0,13,13l-1.53.72c-1.22.55-2.44,1.05-3.65,1.5a16.65,16.65,0,0,1-10-10c.46-1.22.95-2.44,1.5-3.65C262.73,29.85,263,29.34,263.21,28.85Zm-5.27,18.28c.09-1.17.25-2.36.44-3.56a24,24,0,0,0,3.11,3.11C260.29,46.88,259.1,47,257.94,47.13Zm.94-6.1c.19-.84.39-1.68.63-2.54.17-.58.35-1.17.54-1.76A18.62,18.62,0,0,0,268.34,45c-.59.19-1.18.37-1.77.53-.85.24-1.7.45-2.54.64A21.94,21.94,0,0,1,258.88,41ZM276.59,40a11.47,11.47,0,1,1,8.12-3.36A11.41,11.41,0,0,1,276.59,40Zm1.49,8.12a17.43,17.43,0,0,1-2.24,3l0,0c-.44.47-.72.64-1,.64a1.11,1.11,0,0,1-.85-.4v0l0,0c-.1-.12-1.21-1.52-1.84-5.53,1.16-.44,2.32-.91,3.47-1.43,2.23-1,4.06-2,5.4-2.77A26.56,26.56,0,0,1,278.08,48.07Z"/><path d="M280.45,30.61a1.65,1.65,0,1,0,1.65,1.65A1.65,1.65,0,0,0,280.45,30.61Z"/><path d="M272.8,26.27a1.65,1.65,0,1,0-1.65-1.65A1.65,1.65,0,0,0,272.8,26.27Z"/><path d="M276.33,33.39h-.22A4.44,4.44,0,0,1,271.67,29a1.69,1.69,0,0,1,0-.23,1,1,0,0,0-.92-1,1,1,0,0,0-1,.91c0,.11,0,.22,0,.33a6.38,6.38,0,0,0,6.37,6.37h.31a1,1,0,1,0-.09-1.92Z"/><path d="M29.74,58.48A2.51,2.51,0,0,0,32.27,56V40.47c0-5.07-2.73-7.74-7.9-7.74a11.65,11.65,0,0,0-8.74,4l-.56.67V19.26a2.53,2.53,0,0,0-5.06,0V29.84a2.58,2.58,0,0,0,0,.4V56a2.44,2.44,0,0,0,2.47,2.47A2.5,2.5,0,0,0,15,56V40.68l.06-.08a8.62,8.62,0,0,1,6.69-3.51c3.69,0,5.48,1.78,5.48,5.43V56a2.45,2.45,0,0,0,2.47,2.47"/><path d="M48.86,32.73c-7.54,0-12.8,5.35-12.8,13s5.26,13,12.8,13,12.79-5.37,12.79-13-5.26-13-12.79-13m0,21.7c-4.47,0-7.59-3.57-7.59-8.69,0-4.17,2.37-8.65,7.59-8.65s7.54,4.48,7.54,8.65c0,5.12-3.1,8.69-7.54,8.69"/><path d="M85.19,58.48A2.5,2.5,0,0,0,87.71,56V40.57c0-5.13-2.73-7.84-7.89-7.84a11.67,11.67,0,0,0-8.71,4l-.57.68V35.46a2.5,2.5,0,0,0-5,0V56A2.44,2.44,0,0,0,68,58.48,2.5,2.5,0,0,0,70.54,56V40.68l.06-.08a8.42,8.42,0,0,1,6.69-3.51c3.65,0,5.43,1.81,5.43,5.54V56a2.44,2.44,0,0,0,2.47,2.47"/><path d="M115.64,41.56a11.56,11.56,0,0,0-11.54-8.83c-7.18,0-12.59,5.59-12.59,13,0,7.68,5.35,13,13,13,3.31,0,9.47-1.33,9.47-3.89a2,2,0,0,0-2-2,2,2,0,0,0-1,.27,11.27,11.27,0,0,1-5.85,1.73,7.93,7.93,0,0,1-8.33-7.3l0-.35h17.1a2.42,2.42,0,0,0,2.42-2.42,11.89,11.89,0,0,0-.62-3.28M96.69,44l0-.35c.29-3.39,2.72-7,7.38-7a7.08,7.08,0,0,1,7.38,7.05V44Z"/><path d="M128.43,58.79c6.24,0,10.27-3,10.27-7.68,0-5.81-5.38-7-9.69-7.94-3-.66-5.64-1.23-5.64-3.28s2-3.43,4.95-3.43a11.19,11.19,0,0,1,6.24,1.84,2,2,0,0,0,1,.26,1.89,1.89,0,0,0,1.94-1.83,1.62,1.62,0,0,0-.39-1.06c-1.77-2-5.68-2.94-8.77-2.94-5.76,0-9.79,3.05-9.79,7.42,0,5.47,5,6.57,9.37,7.53,3.23.71,6,1.32,6,3.64s-2,3.69-5.27,3.69a13.38,13.38,0,0,1-7.19-2.32,1.88,1.88,0,0,0-1.08-.31,2.13,2.13,0,0,0-2.1,2,1.77,1.77,0,0,0,.45,1.16c2,2.2,6.4,3.2,9.71,3.2"/><path d="M150.42,58.79c3.18,0,4.79-.81,4.79-2.41a2,2,0,0,0-2.15-2.1,3,3,0,0,0-.48.06,3.26,3.26,0,0,1-.68.09c-1.37,0-2.75-1-2.75-3.32V37.67h3.43a2.08,2.08,0,0,0,2-2.1,2.11,2.11,0,0,0-2-2.21h-3.43v-4.8a2.44,2.44,0,0,0-2.41-2.47,2.53,2.53,0,0,0-2.58,2.47v4.8h-2.43a2.13,2.13,0,0,0-2.1,2.1,2.16,2.16,0,0,0,2.1,2.21h2.43V52.53c0,4.1,2.17,6.26,6.26,6.26"/><path d="M171.35,32.73a9.9,9.9,0,0,0-7.94,4l-.58.76,0-18.26a2.45,2.45,0,0,0-4.89,0V56a2.45,2.45,0,0,0,2.47,2.47A2.51,2.51,0,0,0,162.92,56v-2l.57.76a9.67,9.67,0,0,0,7.86,4c6.65,0,11-5.1,11-13s-4.4-13.06-11-13.06m-1.69,21.7A8.47,8.47,0,0,1,163,51l-.05-.08V40.74l.05-.08a8.42,8.42,0,0,1,6.69-3.57c4.48,0,7.49,3.5,7.49,8.7s-3,8.64-7.49,8.64"/><path d="M209,41.56a11.57,11.57,0,0,0-11.54-8.83c-7.18,0-12.59,5.59-12.59,13,0,7.68,5.35,13,13,13,3.3,0,9.47-1.33,9.47-3.89a2,2,0,0,0-3.05-1.72,11.23,11.23,0,0,1-5.84,1.73,7.93,7.93,0,0,1-8.33-7.3l0-.35h17.11a2.43,2.43,0,0,0,2.42-2.42,12.2,12.2,0,0,0-.62-3.28M190,44l0-.35c.3-3.39,2.73-7,7.39-7a7.09,7.09,0,0,1,7.38,7.05V44Z"/><path d="M236.19,41.56a11.57,11.57,0,0,0-11.54-8.83c-7.18,0-12.59,5.59-12.59,13,0,7.68,5.35,13,13,13,3.3,0,9.47-1.33,9.47-3.89a2.05,2.05,0,0,0-2-2,2,2,0,0,0-1,.27,11.3,11.3,0,0,1-5.85,1.73,7.93,7.93,0,0,1-8.33-7.3l0-.35h17.11a2.43,2.43,0,0,0,2.42-2.42,12.27,12.27,0,0,0-.62-3.28M217.24,44l0-.35c.29-3.39,2.72-7,7.38-7A7.09,7.09,0,0,1,232,43.67V44Z"/></g></svg>