<svg xmlns="http://www.w3.org/2000/svg" viewBox="0 0 300 80"><defs><style>.cls-1{fill:#fff;}.cls-2{fill:#ffcb00;}</style></defs><title>honestbee</title><g id="Party"><path class="cls-1" d="M267.87,29.08a64.94,64.94,0,0,1,3-5.8,25.11,25.11,0,0,0-10.2,5.41l0,0c-.5.48-.67.76-.67,1.11a1.19,1.19,0,0,0,.42.91l.05,0h0c.14.12,1.64,1.29,5.92,2C266.82,31.52,267.32,30.29,267.87,29.08Z"/><path class="cls-1" d="M279.89,46.32c.67,4.26,1.84,5.75,1.95,5.87l0,0v0a1.19,1.19,0,0,0,.91.42c.35,0,.63-.17,1.11-.67l0,0a18.31,18.31,0,0,0,2.38-3.2,28,28,0,0,0,3-6.93c-1.42.82-3.36,1.86-5.74,2.94C282.35,45.34,281.12,45.84,279.89,46.32Z"/><path class="cls-1" d="M289.21,47.91l.12-.38c-.11.21-.21.43-.32.63Z"/><path class="cls-2" d="M293.37,19.28A12.22,12.22,0,1,0,297,27.92,12.12,12.12,0,0,0,293.37,19.28ZM280.7,22.06a1.76,1.76,0,1,1-1.76,1.76A1.76,1.76,0,0,1,280.7,22.06Zm3.85,13.14h-.33a6.79,6.79,0,0,1-6.78-6.78c0-.11,0-.23,0-.35a1,1,0,0,1,2.05.11,1.93,1.93,0,0,0,0,.24,4.73,4.73,0,0,0,4.73,4.73h.23a1,1,0,1,1,.1,2Zm4.28-1.48A1.76,1.76,0,1,1,290.59,32,1.76,1.76,0,0,1,288.83,33.72Z"/><path class="cls-2" d="M268.11,33.85a17.75,17.75,0,0,0,10.7,10.69c1.29-.49,2.59-1,3.88-1.6l1.64-.77a14.22,14.22,0,0,1-13.85-13.85c-.25.53-.51,1.07-.77,1.64C269.13,31.26,268.6,32.55,268.11,33.85Z"/><path class="cls-2" d="M265.35,44c-.21,1.27-.38,2.54-.47,3.78,1.24-.1,2.5-.27,3.78-.48A25.17,25.17,0,0,1,265.35,44Z"/><path class="cls-2" d="M275.94,45.53a19.85,19.85,0,0,1-8.82-8.82c-.2.63-.39,1.26-.57,1.88-.25.91-.47,1.81-.67,2.7a23.22,23.22,0,0,0,5.48,5.49c.9-.2,1.8-.42,2.7-.68C274.69,45.93,275.32,45.73,275.94,45.53Z"/><path d="M254.08,51.62a.7.7,0,0,0,1,0h0s0,0,0,0h0l3.39-2.52h0l0,0a1.33,1.33,0,0,0-1.88-1.87l0,0h0L254,50.66h0A.7.7,0,0,0,254.08,51.62Z"/><path d="M264,53.58s0,0,0,0h0l-2.58,3.45h0a.69.69,0,0,0,1,1h0l0,0h0l3.4-2.55h0l0,0A1.3,1.3,0,1,0,264,53.58Z"/><path d="M259.29,53.12a1.31,1.31,0,0,0-1.84,0h0l-5.19,6,0,0a.69.69,0,0,0,0,1,.7.7,0,0,0,1,0h0L259.29,55h0A1.3,1.3,0,0,0,259.29,53.12Z"/><path d="M294.82,17.83a14.22,14.22,0,0,0-22.37,2.85s0,0,0,0l-.06.09a30.84,30.84,0,0,0-9.67,3.81,19.93,19.93,0,0,0-3.5,2.64,3.47,3.47,0,0,0-1.3,2.58A3.22,3.22,0,0,0,259,32.26c.32.3,2,1.66,6.63,2.44-.39,1.11-.74,2.21-1.05,3.31s-.58,2.21-.81,3.31a.06.06,0,0,0,0,0,46.44,46.44,0,0,0-1,7.46,1,1,0,0,0,.29.78,1.06,1.06,0,0,0,.73.3h.05a49,49,0,0,0,10.81-1.83c1.09-.31,2.19-.67,3.29-1,.78,4.58,2.13,6.27,2.43,6.58a3.22,3.22,0,0,0,2.44,1.11,3.47,3.47,0,0,0,2.58-1.3,19.93,19.93,0,0,0,2.64-3.5c.31-.51.65-1.1,1-1.76.11-.2.21-.42.32-.63a32,32,0,0,0,2.49-7.21l.13-.09,0,0a14.26,14.26,0,0,0,2.84-22.37Zm-34.4,12.94-.05,0a1.19,1.19,0,0,1-.42-.91c0-.35.17-.63.67-1.11l0,0a25.11,25.11,0,0,1,10.2-5.41,64.94,64.94,0,0,0-3,5.8c-.55,1.21-1.05,2.44-1.52,3.66-4.28-.67-5.78-1.84-5.92-2Zm10.06-2.45a14.22,14.22,0,0,0,13.85,13.85l-1.64.77c-1.29.58-2.59,1.11-3.88,1.6a17.75,17.75,0,0,1-10.7-10.69c.49-1.3,1-2.59,1.6-3.89C270,29.39,270.23,28.85,270.48,28.32Zm-5.6,19.46c.09-1.24.26-2.51.47-3.78a25.17,25.17,0,0,0,3.31,3.3C267.38,47.51,266.12,47.68,264.88,47.78Zm1-6.49c.2-.89.42-1.79.67-2.7.18-.62.37-1.25.57-1.88a19.85,19.85,0,0,0,8.82,8.82c-.62.2-1.25.4-1.88.57-.9.26-1.8.48-2.7.68A23.22,23.22,0,0,1,265.88,41.29Zm18.85-1.15a12.22,12.22,0,1,1,8.64-3.58A12.14,12.14,0,0,1,284.73,40.14Zm1.58,8.64a18.31,18.31,0,0,1-2.38,3.2l0,0c-.48.5-.76.67-1.11.67a1.19,1.19,0,0,1-.91-.42v0l0,0c-.11-.12-1.28-1.61-1.95-5.87,1.23-.48,2.46-1,3.69-1.53,2.38-1.08,4.32-2.12,5.74-2.94A28,28,0,0,1,286.31,48.78Z"/><path d="M288.83,30.2A1.76,1.76,0,1,0,290.59,32,1.76,1.76,0,0,0,288.83,30.2Z"/><path d="M280.7,25.58a1.76,1.76,0,1,0-1.76-1.76A1.76,1.76,0,0,0,280.7,25.58Z"/><path d="M284.45,33.16h-.23a4.73,4.73,0,0,1-4.73-4.73,1.93,1.93,0,0,1,0-.24,1,1,0,0,0-2.05-.11c0,.12,0,.24,0,.35a6.79,6.79,0,0,0,6.78,6.78h.33a1,1,0,1,0-.1-2Z"/><path d="M22,59.86a2.67,2.67,0,0,0,2.69-2.63V40.69c0-5.39-2.91-8.23-8.41-8.23A12.43,12.43,0,0,0,7,36.68l-.6.71V18.12a2.67,2.67,0,0,0-2.7-2.64A2.67,2.67,0,0,0,1,18.12V29.38a2,2,0,0,0,.05.42V57.23a2.6,2.6,0,0,0,2.63,2.63,2.66,2.66,0,0,0,2.68-2.63V40.92l.07-.09a9.16,9.16,0,0,1,7.12-3.73c3.92,0,5.83,1.89,5.83,5.78V57.23A2.6,2.6,0,0,0,22,59.86"/><path d="M42.36,32.46c-8,0-13.62,5.69-13.62,13.84s5.6,13.9,13.62,13.9S56,54.48,56,46.3s-5.6-13.84-13.61-13.84m0,23.09c-4.76,0-8.08-3.8-8.08-9.25,0-4.43,2.53-9.2,8.08-9.2s8,4.77,8,9.2c0,5.45-3.3,9.25-8,9.25"/><path d="M81,59.86a2.66,2.66,0,0,0,2.69-2.63V40.8c0-5.46-2.91-8.34-8.4-8.34A12.38,12.38,0,0,0,66,36.71l-.61.71V35.36a2.66,2.66,0,0,0-5.31,0V57.23a2.6,2.6,0,0,0,2.63,2.63,2.66,2.66,0,0,0,2.68-2.63V40.92l.06-.09a9,9,0,0,1,7.13-3.73C76.51,37.1,78.4,39,78.4,43V57.23A2.59,2.59,0,0,0,81,59.86"/><path d="M113.43,41.86a12.3,12.3,0,0,0-12.28-9.4c-7.64,0-13.4,5.95-13.4,13.84,0,8.18,5.69,13.89,13.84,13.89,3.52,0,10.09-1.42,10.09-4.14a2.18,2.18,0,0,0-2.18-2.12,2.14,2.14,0,0,0-1.06.29,12,12,0,0,1-6.23,1.84,8.44,8.44,0,0,1-8.86-7.77l0-.37h18.21a2.58,2.58,0,0,0,2.57-2.58,12.53,12.53,0,0,0-.66-3.48M93.26,44.45l0-.37c.31-3.61,2.9-7.49,7.86-7.49A7.54,7.54,0,0,1,109,44.1v.35Z"/><path d="M127,60.2C133.68,60.2,138,57,138,52c0-6.19-5.72-7.44-10.31-8.45-3.22-.71-6-1.32-6-3.5s2.16-3.65,5.27-3.65a11.92,11.92,0,0,1,6.64,2,2.21,2.21,0,0,0,1,.27,2,2,0,0,0,2.07-1.95,1.68,1.68,0,0,0-.42-1.12c-1.88-2.17-6-3.13-9.33-3.13-6.13,0-10.42,3.24-10.42,7.89,0,5.82,5.3,7,10,8,3.43.75,6.4,1.41,6.4,3.87s-2.1,3.93-5.61,3.93a14.27,14.27,0,0,1-7.65-2.47,2,2,0,0,0-1.15-.33,2.26,2.26,0,0,0-2.24,2.18,1.86,1.86,0,0,0,.48,1.23c2.07,2.35,6.81,3.42,10.33,3.42"/><path d="M150.45,60.2c3.38,0,5.1-.87,5.1-2.58a2.14,2.14,0,0,0-2.3-2.23,2.49,2.49,0,0,0-.5.07,3.64,3.64,0,0,1-.73.09c-1.45,0-2.92-1.09-2.92-3.53V37.71h3.65a2.21,2.21,0,0,0,2.18-2.23,2.25,2.25,0,0,0-2.18-2.35H149.1V28a2.61,2.61,0,0,0-2.57-2.63A2.69,2.69,0,0,0,143.78,28v5.11H141.2A2.27,2.27,0,0,0,139,35.36a2.29,2.29,0,0,0,2.24,2.35h2.58V53.53c0,4.36,2.31,6.67,6.67,6.67"/><path d="M172.72,32.46a10.55,10.55,0,0,0-8.45,4.24l-.62.81,0-19.44a2.6,2.6,0,1,0-5.2,0V57.23a2.6,2.6,0,0,0,2.63,2.63,2.67,2.67,0,0,0,2.69-2.63V55.14l.61.82a10.3,10.3,0,0,0,8.36,4.24c7.08,0,11.66-5.44,11.66-13.85s-4.68-13.89-11.66-13.89m-1.79,23.09a9.06,9.06,0,0,1-7.13-3.68l-.05-.09V41l.05-.08a9,9,0,0,1,7.13-3.8c4.76,0,8,3.72,8,9.25s-3.21,9.2-8,9.2"/><path d="M212.75,41.86c-1.7-5.89-6.29-9.4-12.29-9.4-7.63,0-13.39,5.95-13.39,13.84,0,8.18,5.69,13.89,13.84,13.89,3.52,0,10.09-1.42,10.09-4.14a2.18,2.18,0,0,0-2.18-2.12,2.21,2.21,0,0,0-1.07.29,12,12,0,0,1-6.22,1.84,8.43,8.43,0,0,1-8.86-7.77l0-.37h18.21a2.58,2.58,0,0,0,2.57-2.58,12.91,12.91,0,0,0-.66-3.48m-20.17,2.59,0-.37c.31-3.61,2.9-7.49,7.85-7.49a7.54,7.54,0,0,1,7.86,7.51v.35Z"/><path d="M241.73,41.86c-1.7-5.89-6.29-9.4-12.29-9.4-7.63,0-13.39,5.95-13.39,13.84,0,8.18,5.69,13.89,13.84,13.89,3.52,0,10.09-1.42,10.09-4.14a2.18,2.18,0,0,0-2.18-2.12,2.11,2.11,0,0,0-1.06.29,12,12,0,0,1-6.23,1.84,8.43,8.43,0,0,1-8.86-7.77l0-.37h18.21a2.58,2.58,0,0,0,2.57-2.58,12.91,12.91,0,0,0-.66-3.48m-20.17,2.59,0-.37c.31-3.61,2.9-7.49,7.85-7.49a7.54,7.54,0,0,1,7.86,7.51v.35Z"/></g></svg>