<?xml version="1.0" encoding="utf-8"?>
<!-- Generator: Adobe Illustrator 21.1.0, SVG Export Plug-In . SVG Version: 6.00 Build 0)  -->
<svg version="1.1" id="圖層_1" xmlns="http://www.w3.org/2000/svg" xmlns:xlink="http://www.w3.org/1999/xlink" x="0px" y="0px"
	 viewBox="0 0 152.8 46.7" style="enable-background:new 0 0 152.8 46.7;" xml:space="preserve">
<style type="text/css">
	.st0{fill:#191918;}
	.st1{fill:#A12224;}
	.st2{fill:#FFFFFF;}
</style>
<title>sliver_icook</title>
<g>
	<path id="Fill-2" class="st0" d="M9.7,25.4c-1.2,1.7-2,3.7-2.4,5.8c-0.4,1.6,0.3,2.5,2.5,3.3s2.3,0.3,3.3-0.8s1.6-6.6,1.6-6.6
		s-0.1-2.1-1.6-2.5C11.8,24.4,10.7,24.8,9.7,25.4L9.7,25.4z M17.1,31.1c-0.1,0.5-0.3,6,7.4,8.2c6.7,2,19.9,1.5,23-3.3
		c1.8-2.9,0.9-6.3-1.6-6.6c-1.5-0.1-1.8-1.4-1.6,0s-1.9,5.4-6.8,5.9s-11.1-0.6-13-2.5s-1.1-4.3-3.3-5C17.2,26.5,17.2,30.6,17.1,31.1
		L17.1,31.1z M30.3,26.4c0.3,1.4,0.3,2.7,0.1,4.1c-0.3,2.2,2.2,2.5,4.9,2.2s2.5-3.1,2.2-3.9S34.4,23.4,30.3,26.4z M49.8,23.6
		c-0.1,6.2,2.6,7.4,2.6,7.4c4,1.6,3.4-0.1,3.4-0.1s1.3-1.8-0.5-5.2C54.2,23.6,51.8,22.8,49.8,23.6L49.8,23.6z M0.6,27.1
		c-0.7,3.8-1.1,6.7,1.3,11c2.3,4,9.9,5.8,16.8,7.5s18.3,1.2,23,0.6s19.9-5.6,21.1-12.6S62,21.6,59,18.7s-16.4-3.5-20.4-4
		s-22.9,2.2-26.4,2.5C6.1,17.8,2.1,19,0.6,27.1L0.6,27.1z M5,24.1c0.9-1.9,2.8-3.2,4.9-3.3c5.4-0.5,17.2-1.8,24.5-2.1
		s19.3,0.1,21.9,3.3s2.8,7,2.3,11.1S47.2,42,38.1,42.8s-22.6-1.2-29.5-4.3c-4.1-1.8-4.8-5-4.8-8.4C4.1,28.1,4.4,26.1,5,24.1L5,24.1z
		 M6.4,14.6c0,0,25.5-4.1,47.6-1.6l1.6-1.6c-7-1.8-14.2-3.2-21.3-4.1c-0.6-0.1,5.8-5.1,4.1-6.6s-14,0-14,0s5.3,5.3,4.1,5.8
		S14,9.1,5.5,12.2S6.4,14.6,6.4,14.6L6.4,14.6z"/>
	<path id="Fill-3" class="st1" d="M68.8,17.4c-0.2-2.9-1.1-4.6,8.3-4.7s51.9,0.1,61.3-0.5s12.9,1.9,12.9,1.9s2.2,18.3,1.3,25.8
		c0,0,2.5,2.8-8.3,3.1c-6.5,0.2-12.9,0.1-19.4-0.3l-1.6-1.6v1.6c0,0-29.4,1.1-35.5,0.9S71.8,44.7,70,43s-1.4-9.7-1.4-9.7
		S69.1,20.3,68.8,17.4"/>
	<path id="Fill-4" class="st2" d="M84.3,25c0,0,0.5,1.1,0.8,1.8s1.7,0.1,1.7,0.1s0.6-0.8,0.1-1.3C86.1,25.2,85.2,25,84.3,25L84.3,25
		z M96.3,27.2c-0.1-1.5,0-2.9,0.1-4.4c-1.5,0-3.1-0.1-4.6-0.2L91.4,22c0,0,1.6-1.3,1.8-1.7S92.7,19,92.7,19l1.7,0.1
		c-0.1-0.8-0.8-1.8-1.6-1.8c-0.6-0.1-1.1-0.1-1.7-0.1c-1.5,0.8-15.9,1.6-15.9,1.6s-0.5,0.4,0.8,1.3s1.2,0.1,1.2,0.1l1.3,0.1
		c0,0-0.1,0.7,0.4,0.8c0.3,0.1,0.6,0.1,0.8,0l-0.1,1.8c-1.6,0.1-3.1,0-4.7-0.1L75,25c-0.1,1.8-0.5,1.8-0.5,1.8
		c0.2,0.9,2.2,1.2,2.6,0.5c0.2-1,0.3-2.1,0.2-3.2c0.6-0.3,3.9,0.1,3.9,0.1c-0.2,1.8-0.1,3.6,0.2,5.3l0.8,0.1c0,0.7-0.4,1.3-0.9,1.8
		c-1.9,1.3-3.9,2.5-6.1,3.3c0.1,1.2,2.1,1.4,2.1,1.4c2.1-0.6,3.8-2,4.9-3.8l2.5,3.2c-3.6,3-9,1.8-9.5,1.8s2.1,2.3,2.1,2.3
		c4.5-0.4,9.5-3.2,9.5-3.2c2.8,1.4,5.8,2.4,8.9,3c0.4-0.8,0.8-1.7,0.9-2.6c-7-0.1-8.1-1.2-8.1-1.2S88,35.8,89,34.8
		c0.9-0.9,2-1.8,3.1-2.5c-0.3-0.4-0.7-0.8-1.2-1c-0.8-0.3-6.2,0-6.4-0.2s0.1-1.3,0.1-1.3c1.7,0.1,3.5,0.1,5.2-0.2
		c1.1-0.3,0.7-0.3,0.8-1.3s-1.2-1.3-1.2-1.3c-0.1,0.5-0.4,1-0.8,1.3c-0.7,0.3-4.7,0.3-4.7,0.3s-0.3-0.1-0.3-1.3
		c-0.1-0.9-0.3-1.9-0.8-2.7c0,0,10.8,0,11.6-0.1s0.3,2.2,0.3,2.2h-0.4c-0.6-0.6-1.3-1.1-2.1-1.4c-0.9-0.1-1.3,0.8-1.3,0.8
		c1.1,0.8,2.1,1.7,2.9,2.8l1.3-1.3l-0.4-0.5L96.3,27.2L96.3,27.2z M81.1,20l2.6,0.1c0,0,1.4,2.6,2.1,2.7l-3.5,0.3l-0.4-0.1
		C80.6,23,81.1,20,81.1,20L81.1,20z M85.8,19.7l4.3,0.1c-0.1,0.9-0.4,1.8-0.9,2.6L87,22.4C87,22.4,85.7,21.8,85.8,19.7L85.8,19.7z
		 M85.3,32.6c0.8,0.1,1.7,0.1,2.6,0.1c1.1,0.1,0,1.8-1.3,1.7s-1.3,0.4-1.6-1.4C84.9,33,84.8,32.5,85.3,32.6L85.3,32.6z M79.2,25.7
		h-0.4c0.1,0.6-1.4,3-1.4,3c0.5,0.4,1.1,0.6,1.7,0.5c0.6-0.1,0.8-0.8,0.8-0.8C80.5,26.3,79.1,25.7,79.2,25.7L79.2,25.7z M100.3,21.1
		c0.8,1,1.5,2.1,2.1,3.2c0.1,0.1,1.3-1.3,1.3-1.3c-0.6-1.1-1.3-2.2-2.1-3.2C101.1,20.2,100.7,20.7,100.3,21.1z M107.5,23.2l1.3,0.5
		c0.6-0.7,1.2-1.4,1.8-2.2c-0.5-0.8-1.2-1.3-2.1-1.4C108.1,21,107.5,23.2,107.5,23.2z M104.7,18.2c0.1,0,0.4,7.1,0.1,7.1l-4.3-0.1
		c0,0-0.1,2.3-0.1,2.2c1.2-0.5,2.6-0.6,3.9-0.3c0,0-1.3,4.2-3.3,6.1c-0.4,0-0.9,0-1.3-0.1l-0.1,1.8c0.3,0.4,0.7,0.8,1.2,0.9
		c0,0,2.6-2.8,3.6-4.3c0.3,1,0.4,2.1,0.3,3.1c-0.1,1.2-0.3,2.4-0.5,3.5c0,0-0.1,0.9,1.2,0.9s1.3-0.4,1.3-0.4
		c-0.2-1.2-0.3-2.4-0.3-3.5l0.1-4.4l2.1,2.3c0,0,0.8-0.1,0.9-0.4c0.1,0.5,0.4,1,0.9,1.3c0,0,4.8-2,6.5-2.4c-0.1,2.5-0.3,5-0.7,7.5
		c0.3,0.3,0.8,0.5,1.3,0.5c0.4-0.1,0.9,0,1.3,0.1l0.1-2.2c0,0-0.4,0.1-0.3-3.5l0.1-2.6c0.8-0.4,1.7-0.7,2.6-0.8l0.1-1.8
		c-0.9,0.1-1.8,0.4-2.6,0.8c0,0-0.3-5-0.1-9.4c0.1-0.6,0.3-1.2,0.5-1.8c-0.5-0.3-1.1-0.5-1.7-0.5c-1.1,0.1-1.3,0.4-1.3,0.4
		s0.6,1.6,0.6,6.2c-0.1,1.8,0,3.6,0.2,5.3c0,0-5.8,2-7,2v-0.5c-1.3-0.9-2.6-1.8-3.8-2.8l0.1-1.3l1.3-0.4v-0.5l0.4,0.5
		c0.7,0.1,1.4,0.1,2.1,0.1c0,0,0.1,0.5,0.4,0.5s0.9-0.6,1.3,0.1c0.3,0.3,0.5,0.6,0.9,0.9c0.5-0.2,0.9-0.4,1.3-0.8v-0.5
		c0-0.1-0.8-0.6-1.2-0.9c-0.3-0.2-0.5-0.4-0.9-0.5l-1.8,0.8l0.1-0.8c0,0-2.8-0.2-3.9-0.1c0,0,0.1-6.5,0.7-7l-0.8-0.5
		C105.7,18,105.2,18.2,104.7,18.2L104.7,18.2z M111.3,22c1,0.6,2,1.2,2.9,1.9c0.4-0.5,0.7-1.1,0.9-1.8c0,0-0.7-0.4-2.1-1.4
		C113.1,20.7,112.6,20.6,111.3,22L111.3,22z M124.7,19.3c-0.4-0.1-0.1,1.8-0.1,1.8l0.9,0.5c0.3-0.2,0.6-0.3,0.9-0.4
		c0.1,0,0.6,0,1.4,0.1c0.1,1.5,0.2,3,0.1,4.5c-1.2,0-2.3,0.1-3.5,0.3c-0.2,2.4,1.2,2.2,1.2,2.2c0.8-0.1,1.5-0.4,2.2-0.8l-0.2,6.2
		c-1,0.3-2,0.4-3,0.3c0,0-0.5,0-0.5,1.3s0.9,1.3,0.9,1.3c2.2-0.8,6.6-2.1,7-2s0.5-0.4,0.5-0.4c-0.1-1.2-0.4-1.3-0.4-1.3
		c-0.8,0.3-1.7,0.4-2.6,0.3c0,0,0.3-4.8,0.1-5.8s1.8,0.5,2.1,0.1c0.1-0.6,0.1-1.2,0.1-1.8c0-0.1-2.1-0.1-2.1-0.1
		c0.1-2.6,0.4-3.9,0.6-4.4l2.1,0.1l0.1-2.2C130,19.3,127.4,19.4,124.7,19.3L124.7,19.3z M133.3,19.2c-0.3-0.1-0.1,4.4-0.1,4.4
		s1,0.6,0.9,0.9s-0.9,0.8-0.9,0.8C133,26.3,133,29,133,29l2.1,0.1c1,0,2,0,3.1-0.1c0,1.1-0.1,3.3-0.1,3.3c-1.7-0.4-3.4-0.6-5.1-0.6
		l-0.4,0.5l0.8,2.2l0.9-0.8l3,0.1l0.9,0.5l-0.1,2.2c-2.5,0.3-5.1,0.4-7.7,0.1l0.8,2.7c1.4-0.4,2.8-0.6,4.3-0.8
		c3.3-0.1,6.6,0,9.9,0.3l1.7,0.1l0.1-3.1c-1.4,0.4-2.8,0.7-4.3,0.8c-1,0.1-2,0-3-0.1l0.1-2.6c0,0,4.9,0.1,5.6,0.1l0.1-3.1
		c-1.4,0.6-2.8,1-4.3,1.2l-1.3-0.1l0.1-3l5.5,0.6l-0.9-0.9l-0.4-9.3C140.7,19,137,19,133.3,19.2L133.3,19.2z M134.9,21.9
		c0.1-0.2-0.1-0.6,0.5-0.8c0.7-0.2,1.5-0.3,2.2-0.3l0.4,0.5c0,0,0,2.2-0.1,2.2c-0.7,0.2-1.5,0.4-2.2,0.3c-0.6-0.1-0.9-0.4-0.9-0.5
		C134.9,22.8,134.9,22.4,134.9,21.9L134.9,21.9z M140.1,21.2c0.7-0.4,1.4-0.5,2.2-0.3c0,0,0.9,0.1,0.9,1.3l-0.1,1.3l-1.3,0.4
		l-2.1-0.5l0.1-2.2C139.6,21.2,140.1,21.3,140.1,21.2L140.1,21.2z M135.3,25.4c0,0,0.2-0.4,1.7-0.3s1.3,0.5,1.3,0.5s0.1,1.8-0.1,1.8
		s-1.6,0.3-2.6,0.3S135.3,25.4,135.3,25.4L135.3,25.4z M139.5,25.2c0.4-0.1,0.9-0.1,1.3,0.1c0.6,0,1.2-0.1,1.7-0.4
		c0.7,0.3-0.1,2.6-0.1,2.6c-0.9,0-1.7,0-2.6-0.1L139.5,25.2L139.5,25.2z"/>
</g>
</svg>
