<svg xmlns="http://www.w3.org/2000/svg" xmlns:xlink="http://www.w3.org/1999/xlink" viewBox="0 0 160 120"><defs><style>.cls-1{fill:url(#linear-gradient);}.cls-13,.cls-2{fill:none;}.cls-3{fill:#dbdcdc;}.cls-4{clip-path:url(#clip-path);}.cls-5{fill:url(#radial-gradient);}.cls-6{fill:url(#linear-gradient-2);}.cls-7{opacity:0.2;}.cls-8{clip-path:url(#clip-path-2);}.cls-9{clip-path:url(#clip-path-3);}.cls-10{mask:url(#mask);}.cls-11{fill:url(#linear-gradient-3);}.cls-12{fill:#69bfbf;}.cls-13{stroke:#5ab5ad;stroke-miterlimit:10;stroke-width:0.28px;}.cls-14{fill:#595a5a;}</style><linearGradient id="linear-gradient" x1="-170.07" y1="202.37" x2="-169.67" y2="202.37" gradientTransform="matrix(31.92, 0, 0, -31.92, 5493.32, 6520.88)" gradientUnits="userSpaceOnUse"><stop offset="0" stop-color="#fff"/><stop offset="0.02" stop-color="#f1f1f1"/><stop offset="0.11" stop-color="silver"/><stop offset="0.19" stop-color="#999"/><stop offset="0.26" stop-color="#7d7d7d"/><stop offset="0.33" stop-color="#6c6c6c"/><stop offset="0.38" stop-color="#666"/><stop offset="1"/></linearGradient><clipPath id="clip-path"><path class="cls-2" d="M74.55,49.17,65.73,38.76V50l-5.61-3.2V50s1.6,24,19.22,24S98.58,50,98.58,50v-3.2L93.77,50V38.76L84.16,49.17,79.35,30.75Z"/></clipPath><radialGradient id="radial-gradient" cx="-166.34" cy="205.83" r="0.4" gradientTransform="matrix(-109.26, 0, 0, 109.26, -18074.93, -22437.48)" gradientUnits="userSpaceOnUse"><stop offset="0" stop-color="#fff"/><stop offset="0.01" stop-color="#f8fcfc"/><stop offset="0.08" stop-color="#cee9e7"/><stop offset="0.16" stop-color="#aad9d5"/><stop offset="0.24" stop-color="#8dcbc6"/><stop offset="0.33" stop-color="#76c1bb"/><stop offset="0.42" stop-color="#66bab3"/><stop offset="0.52" stop-color="#5db5ae"/><stop offset="0.66" stop-color="#5ab4ad"/><stop offset="0.86" stop-color="#44918b"/><stop offset="1" stop-color="#347772"/><stop offset="1" stop-color="#347772"/></radialGradient><linearGradient id="linear-gradient-2" x1="-166.67" y1="204.86" x2="-166.27" y2="204.86" gradientTransform="matrix(0, 98.96, 98.96, 0, -20192.8, 16526.12)" gradientUnits="userSpaceOnUse"><stop offset="0" stop-color="#65c1c2"/><stop offset="0.4" stop-color="#65c1c2"/><stop offset="0.51" stop-color="#60bcc0"/><stop offset="0.64" stop-color="#53afb9"/><stop offset="0.78" stop-color="#3d99ad"/><stop offset="0.91" stop-color="#1e7a9d"/><stop offset="1" stop-color="#076291"/></linearGradient><clipPath id="clip-path-2"><rect class="cls-2" x="61.39" y="48.34" width="22.93" height="24.6"/></clipPath><clipPath id="clip-path-3"><path class="cls-2" d="M83.82,71.92C69.48,71.92,65.37,56.59,64.26,50l-2.87-1.64v2.89s1.45,21.71,17.37,21.71a14.74,14.74,0,0,0,5.56-1h-.5"/></clipPath><mask id="mask" x="50.74" y="38.41" width="44.23" height="44.46" maskUnits="userSpaceOnUse"><rect class="cls-1" x="56.78" y="44.26" width="32.16" height="32.77" transform="translate(-20.56 44.55) rotate(-30)"/></mask><linearGradient id="linear-gradient-3" x1="-170.07" y1="202.37" x2="-169.67" y2="202.37" gradientTransform="matrix(31.92, 0, 0, -31.92, 5493.32, 6520.84)" gradientUnits="userSpaceOnUse"><stop offset="0" stop-color="#fff"/><stop offset="0.38" stop-color="#fff"/><stop offset="1" stop-color="#f7f7f7"/></linearGradient></defs><title>工作區域 3</title><g id="Gold"><g id="Incubit"><g id="logo"><path class="cls-3" d="M93.32,73.6c0,.55-3.39,1-7.58,1s-7.58-.45-7.58-1,3.39-1,7.58-1,7.58.45,7.58,1"/><g class="cls-4"><rect class="cls-5" x="57.5" y="32.9" width="43.71" height="38.96" transform="translate(26.04 131.1) rotate(-89.32)"/><rect class="cls-6" x="50.72" y="23.45" width="57.26" height="57.85" transform="translate(-15.1 63.26) rotate(-40)"/><g class="cls-7"><g class="cls-8"><g class="cls-9"><g class="cls-10"><rect class="cls-11" x="56.78" y="44.26" width="32.16" height="32.77" transform="translate(-20.56 44.55) rotate(-30)"/></g></g></g></g></g><path class="cls-12" d="M79.35,23.2a1.6,1.6,0,1,0-1.6-1.6,1.6,1.6,0,0,0,1.6,1.6"/><circle class="cls-13" cx="79.35" cy="21.6" r="1.6"/><path class="cls-12" d="M64.93,38a1.6,1.6,0,1,0-1.6-1.6,1.6,1.6,0,0,0,1.6,1.6"/><circle class="cls-13" cx="64.93" cy="36.36" r="1.6"/><path class="cls-12" d="M94.57,38a1.6,1.6,0,1,0-1.6-1.6,1.6,1.6,0,0,0,1.6,1.6"/><circle class="cls-13" cx="94.57" cy="36.36" r="1.6"/></g><g id="logotype"><g id="it"><path class="cls-12" d="M114.31,81.83a1.8,1.8,0,0,1,1.63-1.8,1.82,1.82,0,0,1,1.68,1.85,1.65,1.65,0,0,1-3.31-.06m3.11,5.39V98.55a1.44,1.44,0,1,1-2.88,0V87.22a1.44,1.44,0,1,1,2.88,0"/><path class="cls-13" d="M114.31,81.83a1.8,1.8,0,0,1,1.63-1.8,1.82,1.82,0,0,1,1.68,1.85,1.65,1.65,0,0,1-3.31-.06Zm3.11,5.39V98.55a1.44,1.44,0,1,1-2.88,0V87.22a1.44,1.44,0,1,1,2.88,0Z"/><path class="cls-12" d="M127.34,96.15a1,1,0,0,0,1,1h2.54a1.44,1.44,0,1,1,0,2.88h-2.54a3.78,3.78,0,0,1-3.85-3.48v-15a1.44,1.44,0,1,1,2.88,0v4.36a5.31,5.31,0,0,1,1-.11h3.39a1.44,1.44,0,1,1,0,2.88h-3.39a1,1,0,0,0-1,1Z"/></g><path id="incub" class="cls-14" d="M32.89,97.31A2.37,2.37,0,0,1,35.47,100H26.84a2.31,2.31,0,0,1,2.62-2.67h.25V82.91H28.26a1.44,1.44,0,0,1,0-2.88H34a1.44,1.44,0,1,1,0,2.88H32.59v14.4h.3M45.1,85.74a3.83,3.83,0,0,0-3.85,3.85v9a1.44,1.44,0,1,0,2.88,0v-9a1,1,0,0,1,1-1H49a1,1,0,0,1,1,1v9a1.44,1.44,0,1,0,2.88,0v-9A3.83,3.83,0,0,0,49,85.74ZM69.44,98.57A1.46,1.46,0,0,0,68,97.12H63.56a1,1,0,0,1-1-1V89.59a1,1,0,0,1,1-1H67.7a1.44,1.44,0,1,0,0-2.88H63.48A4.06,4.06,0,0,0,59.71,90v5.82A4,4,0,0,0,63.48,100H68a1.45,1.45,0,0,0,1.45-1.43M84,100a3.83,3.83,0,0,0,3.85-3.85v-9a1.44,1.44,0,1,0-2.88,0v9a1,1,0,0,1-1,1H80.13a1,1,0,0,1-1-1v-9a1.44,1.44,0,1,0-2.88,0v9A3.83,3.83,0,0,0,80.13,100ZM96.17,80a1.45,1.45,0,0,0-1.43,1.45v15A3.78,3.78,0,0,0,98.59,100h3.88a3.85,3.85,0,0,0,3.85-3.85V89.59a3.87,3.87,0,0,0-3.85-3.85H98.59a3.61,3.61,0,0,0-1,.14V81.49A1.46,1.46,0,0,0,96.17,80m1.45,9.56a1,1,0,0,1,1-.94h3.88a1,1,0,0,1,.94.94v6.56a1,1,0,0,1-.94,1H98.59a1,1,0,0,1-1-1Z"/></g></g></g></svg>