<svg xmlns="http://www.w3.org/2000/svg" xmlns:xlink="http://www.w3.org/1999/xlink" viewBox="0 0 160 120"><defs><style>.cls-1{fill:url(#linear-gradient);}.cls-2{fill:#454547;}</style><linearGradient id="linear-gradient" x1="159" y1="39.58" x2="112.6" y2="39.58" gradientUnits="userSpaceOnUse"><stop offset="0" stop-color="#e42f2e"/><stop offset="0.15" stop-color="#db2c2c"/><stop offset="0.39" stop-color="#c42525"/><stop offset="0.68" stop-color="#9e1a1b"/><stop offset="1" stop-color="#6e0b0e"/></linearGradient></defs><title>kaligo_solutions</title><g id="Silver"><g id="Kaligo_Solutions" data-name="Kaligo Solutions"><path class="cls-1" d="M132.52,42.59s5.36-10.47,3.32-18.08a7.89,7.89,0,0,0-15.24,4.08C122.64,36.2,132.52,42.59,132.52,42.59Zm-5.43-20.26a4.37,4.37,0,1,1-3.1,5.35A4.39,4.39,0,0,1,127.09,22.33Zm-6.58,20.83A4.6,4.6,0,1,0,122.9,52c4.44-1.19,8.18-6.95,8.18-6.95S125,42,120.51,43.16Zm38.22-5.46a7.9,7.9,0,0,0-9.67-5.57c-7.62,2-14,11.91-14,11.91s10.5,5.35,18.12,3.31A7.88,7.88,0,0,0,158.73,37.7ZM152.24,44a4.37,4.37,0,1,1,3.09-5.35A4.38,4.38,0,0,1,152.24,44Zm-18.66,2.58s-3.12,6.11-1.93,10.55a4.6,4.6,0,0,0,8.89-2.38C139.35,50.27,133.58,46.54,133.58,46.54Z"/><path class="cls-2" d="M10.57,83.65,12,82.88A4,4,0,0,0,13.43,85a3.86,3.86,0,0,0,2.4.75,3.6,3.6,0,0,0,2.75-1,4,4,0,0,0,1-2.89,3.7,3.7,0,0,0-.67-2.24A9.16,9.16,0,0,0,16,77.53a13,13,0,0,1-3.74-2.61,4.17,4.17,0,0,1-.93-2.72A4.22,4.22,0,0,1,12.72,69a4.89,4.89,0,0,1,3.47-1.24,4.9,4.9,0,0,1,2.44.59,4.36,4.36,0,0,1,1.68,1.77L19,70.87a2.83,2.83,0,0,0-1.15-1.22,3.5,3.5,0,0,0-1.76-.42A3,3,0,0,0,13.9,70a2.94,2.94,0,0,0-.81,2.18c0,1.31,1.08,2.52,3.23,3.65l.89.47a9.31,9.31,0,0,1,3.18,2.47,5.28,5.28,0,0,1,.8,3,5.4,5.4,0,0,1-1.46,4,5.37,5.37,0,0,1-4,1.47,5.41,5.41,0,0,1-3.14-.91,5.91,5.91,0,0,1-2-2.72"/><path class="cls-2" d="M44.22,77.51a9.55,9.55,0,0,1-.75,3.75,10.14,10.14,0,0,1-13,5.28,9.79,9.79,0,0,1-3.23-2.12A10,10,0,0,1,25,81.24a9.55,9.55,0,0,1-.74-3.73A9.75,9.75,0,0,1,25,73.74a10,10,0,0,1,2.17-3.19,9.38,9.38,0,0,1,3.2-2.09,10.17,10.17,0,0,1,3.84-.72,10.31,10.31,0,0,1,3.86.72,9.69,9.69,0,0,1,3.2,2.09,10,10,0,0,1,2.17,3.19,9.57,9.57,0,0,1,.75,3.77m-10,8.25a8.08,8.08,0,0,0,3.13-.61A8.18,8.18,0,0,0,40,83.37a8.28,8.28,0,0,0,1.77-2.69,8.11,8.11,0,0,0,.62-3.17A8.23,8.23,0,0,0,40,71.65a7.94,7.94,0,0,0-2.64-1.78,8.15,8.15,0,0,0-3.15-.61,8,8,0,0,0-3.12.61,8.27,8.27,0,0,0-4.43,4.47,8.31,8.31,0,0,0,1.79,9,7.86,7.86,0,0,0,2.61,1.79,8.18,8.18,0,0,0,3.15.6"/><polygon class="cls-2" points="48.15 86.78 48.15 68.16 49.84 68.16 49.84 85.19 57.61 85.19 57.61 86.78 48.15 86.78"/><path class="cls-2" d="M60.64,68.16H62.3V80.32a5.8,5.8,0,0,0,1.26,4.1,5,5,0,0,0,3.85,1.34,5,5,0,0,0,3.82-1.34,5.8,5.8,0,0,0,1.26-4.1V68.16h1.69V79.77q0,3.78-1.68,5.64a6.51,6.51,0,0,1-5.09,1.87,6.54,6.54,0,0,1-5.1-1.87q-1.66-1.86-1.67-5.64Z"/><polygon class="cls-2" points="82.91 86.78 82.91 69.75 77.79 69.75 77.79 68.16 89.74 68.16 89.74 69.75 84.61 69.75 84.61 86.78 82.91 86.78"/><rect class="cls-2" x="93.43" y="68.16" width="1.69" height="18.62"/><path class="cls-2" d="M119.46,77.51a9.58,9.58,0,0,1-2.91,6.91,9.93,9.93,0,0,1-3.24,2.12,10.33,10.33,0,0,1-7.63,0,9.79,9.79,0,0,1-3.23-2.12,10,10,0,0,1-2.17-3.18,9.55,9.55,0,0,1-.74-3.73,9.75,9.75,0,0,1,.74-3.77,10,10,0,0,1,2.17-3.19,9.48,9.48,0,0,1,3.2-2.09,10.17,10.17,0,0,1,3.84-.72,10.31,10.31,0,0,1,3.86.72,9.69,9.69,0,0,1,3.2,2.09,10,10,0,0,1,2.17,3.19,9.57,9.57,0,0,1,.74,3.77m-10,8.25a8.08,8.08,0,0,0,3.13-.61,8.18,8.18,0,0,0,2.66-1.78,8.28,8.28,0,0,0,1.77-2.69,8.11,8.11,0,0,0,.62-3.17,8.21,8.21,0,0,0-.61-3.17,8.09,8.09,0,0,0-1.78-2.69,7.94,7.94,0,0,0-2.64-1.78,8.15,8.15,0,0,0-3.15-.61,8,8,0,0,0-3.12.61,8.18,8.18,0,0,0-4.43,4.47,8.54,8.54,0,0,0,0,6.34,8.25,8.25,0,0,0,1.78,2.69,8,8,0,0,0,2.62,1.79,8.18,8.18,0,0,0,3.15.6"/><polygon class="cls-2" points="123.86 86.78 123.86 67.38 137.04 82.95 137.04 68.16 138.62 68.16 138.62 87.33 125.44 71.72 125.44 86.78 123.86 86.78"/><path class="cls-2" d="M142.49,83.65l1.45-.77a4.07,4.07,0,0,0,1.4,2.13,3.9,3.9,0,0,0,2.4.75,3.6,3.6,0,0,0,2.76-1,4,4,0,0,0,1-2.89,3.63,3.63,0,0,0-.67-2.24A9.09,9.09,0,0,0,148,77.53a12.84,12.84,0,0,1-3.74-2.61,4.17,4.17,0,0,1-.93-2.72A4.25,4.25,0,0,1,144.63,69a4.91,4.91,0,0,1,3.48-1.24,4.86,4.86,0,0,1,2.43.59,4.32,4.32,0,0,1,1.69,1.77l-1.31.79a2.89,2.89,0,0,0-1.15-1.22,3.55,3.55,0,0,0-1.76-.42,2.81,2.81,0,0,0-3,3c0,1.31,1.08,2.52,3.24,3.65l.88.47a9.31,9.31,0,0,1,3.18,2.47,5.2,5.2,0,0,1,.81,3,5.54,5.54,0,0,1-8.58,4.54,5.91,5.91,0,0,1-2-2.72"/><polygon class="cls-2" points="11.67 59.87 5.04 51.53 4.62 51.95 4.62 59.87 1 59.87 1 41.28 4.62 41.28 4.62 49.13 11.45 41.28 16.02 41.28 8.16 49.86 16.44 59.87 11.67 59.87"/><path class="cls-2" d="M33,59.87l-1.59-3.93H23.78l-1.7,3.93H18.23l8.06-19H29l7.83,19ZM27.63,46.32,24.92,53h5.33Z"/><polygon class="cls-2" points="39.72 59.87 39.72 41.28 43.34 41.28 43.34 56.72 50.44 56.72 50.44 59.87 39.72 59.87"/><rect class="cls-2" x="54.55" y="41.28" width="3.62" height="18.59"/><path class="cls-2" d="M80.74,53.43c-.86,4.29-4.51,6.85-8.81,6.85a9.37,9.37,0,0,1-9.75-9.67A9.54,9.54,0,0,1,72,40.86a8.88,8.88,0,0,1,8,4.38l-3.15,1.69A5.44,5.44,0,0,0,72,44.18a6.14,6.14,0,0,0-6.1,6.43A6.09,6.09,0,0,0,72,57a4.58,4.58,0,0,0,4.85-4H72.49V49.92H81v.44a15.73,15.73,0,0,1-.28,3.07"/><path class="cls-2" d="M94,60.28a9.64,9.64,0,0,1-9.92-9.67A9.94,9.94,0,1,1,94,60.28m0-16.1a6.41,6.41,0,1,0,6.22,6.38A6.3,6.3,0,0,0,94,44.18"/></g></g></svg>