<svg xmlns="http://www.w3.org/2000/svg" viewBox="0 0 160 120"><defs><style>.cls-1{fill:#737373;}.cls-2{fill:#f25022;}.cls-3{fill:#7fba00;}.cls-4{fill:#00a4ef;}.cls-5{fill:#ffb900;}</style></defs><title>microsoft</title><g id="Gold"><g id="microsoft"><path class="cls-1" d="M66.68,49.89V70.11H63.17V54.26h-.06L56.84,70.11H54.51L48.08,54.26h0V70.11H44.8V49.89h5l5.81,15h.08l6.14-15Zm2.93,1.54A1.86,1.86,0,0,1,70.23,50a2.17,2.17,0,0,1,3,0,1.9,1.9,0,0,1,.59,1.4,1.8,1.8,0,0,1-.61,1.39,2.19,2.19,0,0,1-3,0A1.85,1.85,0,0,1,69.61,51.43Zm3.77,4.19V70.11H70V55.62Zm10.34,12a4.63,4.63,0,0,0,1.68-.36,6.62,6.62,0,0,0,1.69-.93v3.18a6.77,6.77,0,0,1-1.85.7,10.1,10.1,0,0,1-2.28.24,7,7,0,0,1-5.2-2,7.06,7.06,0,0,1-2-5.17,8.28,8.28,0,0,1,2-5.76,7.42,7.42,0,0,1,5.8-2.26,7.58,7.58,0,0,1,1.93.25,6,6,0,0,1,1.56.57v3.27a6.63,6.63,0,0,0-1.61-.9,4.69,4.69,0,0,0-1.69-.32,4.24,4.24,0,0,0-3.25,1.32A4.9,4.9,0,0,0,79.3,63a4.69,4.69,0,0,0,1.19,3.43A4.28,4.28,0,0,0,83.72,67.63ZM96.81,55.38a4.12,4.12,0,0,1,.73,0,4.36,4.36,0,0,1,.55.14V59a3.14,3.14,0,0,0-.78-.38,4.15,4.15,0,0,0-1.25-.17,2.64,2.64,0,0,0-2.12,1.05,5.08,5.08,0,0,0-.87,3.26v7.32H89.66V55.62h3.41V57.9h.06a4,4,0,0,1,1.41-1.85A3.79,3.79,0,0,1,96.81,55.38Zm1.46,7.69a7.86,7.86,0,0,1,2-5.69,7.5,7.5,0,0,1,5.64-2.1,6.93,6.93,0,0,1,5.31,2,7.65,7.65,0,0,1,1.91,5.46,7.71,7.71,0,0,1-2,5.61,7.36,7.36,0,0,1-5.53,2.09,6.84,6.84,0,0,1-7.33-7.39Zm3.56-.11a5.22,5.22,0,0,0,1,3.47,3.68,3.68,0,0,0,3,1.2,3.42,3.42,0,0,0,2.83-1.2,5.54,5.54,0,0,0,1-3.55,5.39,5.39,0,0,0-1-3.54,3.52,3.52,0,0,0-2.83-1.19,3.58,3.58,0,0,0-2.91,1.25A5.43,5.43,0,0,0,101.83,63Zm16.4-3.54a1.47,1.47,0,0,0,.47,1.15,7.84,7.84,0,0,0,2.06,1,7.07,7.07,0,0,1,2.87,1.84,3.81,3.81,0,0,1,.82,2.47,4,4,0,0,1-1.57,3.29,6.67,6.67,0,0,1-4.25,1.24,10,10,0,0,1-2-.22,8.46,8.46,0,0,1-1.85-.56V66.33a8.81,8.81,0,0,0,2,1,6,6,0,0,0,2,.38,3.37,3.37,0,0,0,1.7-.33,1.14,1.14,0,0,0,.55-1.08,1.5,1.5,0,0,0-.57-1.19A8.18,8.18,0,0,0,118.25,64a6.73,6.73,0,0,1-2.68-1.78,3.87,3.87,0,0,1-.79-2.51,4,4,0,0,1,1.56-3.22,6.22,6.22,0,0,1,4-1.26,10.06,10.06,0,0,1,1.7.17,7.22,7.22,0,0,1,1.58.44V59.1a7.5,7.5,0,0,0-1.58-.78,5.41,5.41,0,0,0-1.79-.32,2.54,2.54,0,0,0-1.51.38A1.19,1.19,0,0,0,118.23,59.42Zm7.69,3.65a7.82,7.82,0,0,1,2-5.69,7.46,7.46,0,0,1,5.63-2.1,6.93,6.93,0,0,1,5.31,2,7.6,7.6,0,0,1,1.91,5.46,7.67,7.67,0,0,1-2,5.61,7.34,7.34,0,0,1-5.52,2.09,7.22,7.22,0,0,1-5.35-2A7.31,7.31,0,0,1,125.92,63.07Zm3.55-.11a5.17,5.17,0,0,0,1,3.47,3.66,3.66,0,0,0,2.94,1.2,3.45,3.45,0,0,0,2.84-1.2,5.54,5.54,0,0,0,1-3.55,5.39,5.39,0,0,0-1-3.54,3.5,3.5,0,0,0-2.82-1.19,3.61,3.61,0,0,0-2.92,1.25A5.43,5.43,0,0,0,129.47,63Zm22.65-4.55H147v11.7h-3.45V58.41h-2.43V55.62h2.43v-2a5,5,0,0,1,1.48-3.74,5.2,5.2,0,0,1,3.82-1.46,9,9,0,0,1,1.1.06,4.36,4.36,0,0,1,.84.19v3a2.87,2.87,0,0,0-.59-.24,2.91,2.91,0,0,0-1-.14,2,2,0,0,0-1.65.67,2.91,2.91,0,0,0-.58,2v1.75h5.08V52.36l3.43-1v4.3H159v2.79h-3.45v6.78a2.9,2.9,0,0,0,.48,1.89,2,2,0,0,0,1.53.55,2.33,2.33,0,0,0,.71-.14,3.81,3.81,0,0,0,.73-.34V70a4.1,4.1,0,0,1-1.08.33,6.93,6.93,0,0,1-1.49.16,4.22,4.22,0,0,1-3.23-1.15,4.9,4.9,0,0,1-1.08-3.46Z"/><rect class="cls-2" x="1" y="43.15" width="16.01" height="16.01"/><rect class="cls-3" x="18.68" y="43.15" width="16.01" height="16.01"/><rect class="cls-4" x="1" y="60.83" width="16.01" height="16.01"/><rect class="cls-5" x="18.68" y="60.83" width="16.01" height="16.01"/></g></g></svg>