<?xml version="1.0" encoding="utf-8"?>
<!-- Generator: Adobe Illustrator 21.1.0, SVG Export Plug-In . SVG Version: 6.00 Build 0)  -->
<svg version="1.1" id="圖層_1" xmlns="http://www.w3.org/2000/svg" xmlns:xlink="http://www.w3.org/1999/xlink" x="0px" y="0px"
	 viewBox="0 0 181.8 38.8" style="enable-background:new 0 0 181.8 38.8;" xml:space="preserve">
<style type="text/css">
	.st0{fill:#E55125;}
	.st1{fill:#7BB22A;}
	.st2{fill:#777778;}
	.st3{fill:#269AD7;}
	.st4{fill:#F5B419;}
</style>
<title>gold_MS</title>
<g>
	<path class="st0" d="M0,0h18.5c0,6.2,0,12.3,0,18.5H0V0z"/>
	<path class="st1" d="M20.3,0h18.5c0,6.2,0,12.3,0,18.5H20.4C20.4,12.3,20.4,6.2,20.3,0L20.3,0z"/>
	<path class="st2" d="M166.5,7c1.8-1,3.9-1.3,5.8-0.7c0,1.1,0,2.3,0,3.4c-0.9-0.5-2-0.6-2.9-0.3c-0.7,0.3-1.2,1-1.3,1.9
		c-0.1,1-0.1,2-0.1,3h5.8c0-1.3,0-2.5,0-3.8c1.3-0.4,2.6-0.8,4-1.2c0,1.7,0,3.3,0,5c1.3,0,2.6,0,4,0v3.2c-1.3,0-2.6,0-4,0
		c0,1.9,0,3.7,0,5.6c0,1-0.1,2.1,0.1,3.1c0,0.6,0.3,1.2,0.9,1.6c1,0.5,2.1,0.3,3-0.3v3.2c-1.2,0.5-2.4,0.7-3.6,0.6
		c-1.2,0-2.4-0.5-3.2-1.4c-0.8-1.1-1.2-2.4-1.1-3.8c0-2.9,0-5.7,0-8.6h-5.8c0,4.5,0,9,0,13.5h-4c0-4.5,0-9,0-13.5
		c-0.9,0-1.9,0-2.8,0c0-1.1,0-2.1,0-3.2c0.9,0,1.8,0,2.8,0c-0.1-1.4,0-2.9,0.3-4.3C164.5,8.9,165.3,7.8,166.5,7L166.5,7z"/>
	<path class="st2" d="M81,7.3c0.8-0.1,1.7,0.2,2.2,0.8c0.6,0.7,0.7,1.8,0.3,2.6c-0.6,0.9-1.6,1.3-2.7,1.1c-1.1-0.2-1.8-1.1-1.8-2.2
		C79,8.4,79.8,7.4,81,7.3L81,7.3z"/>
	<path class="st2" d="M50.4,7.8h5.8c1.8,4.6,3.6,9.2,5.4,13.8c0.5,1.2,0.9,2.3,1.4,3.5c2.3-5.7,4.7-11.5,7-17.2c1.9,0,3.7,0,5.6,0
		c0,7.8,0,15.5,0,23.3c-1.3,0-2.7,0-4,0c0-5.7,0-11.5,0-17.2c0-0.3,0-0.5,0-0.8c-0.1,0.1-0.1,0.2-0.2,0.4c-2.3,5.9-4.7,11.7-7,17.6
		c-1,0-1.9,0-2.9,0c-2.4-5.9-4.7-11.7-7.1-17.6c-0.1-0.1-0.1-0.2-0.2-0.3c0,2.5,0,5,0,7.5c0,3.5,0,6.9,0,10.4h-3.8
		C50.4,23.3,50.4,15.5,50.4,7.8L50.4,7.8z"/>
	<path class="st2" d="M92,14.4c1.9-0.5,4-0.5,5.9,0c0.4,0.1,0.8,0.3,1.1,0.5c0,1.3,0,2.5,0,3.8c-1.3-1-2.9-1.5-4.6-1.4
		c-1.3,0.1-2.5,0.8-3.3,1.8c-0.9,1.3-1.3,3-1.1,4.6c0.1,1.3,0.7,2.5,1.6,3.3c1,0.9,2.4,1.3,3.7,1.1c1.3-0.2,2.5-0.7,3.6-1.5
		c0,1.2,0,2.4,0,3.6c-1.7,0.9-3.6,1.3-5.5,1.1c-1.9-0.1-3.8-0.8-5.2-2.2c-1.5-1.5-2.3-3.5-2.4-5.6c-0.2-2.2,0.4-4.4,1.6-6.2
		C88.6,15.9,90.2,14.8,92,14.4z"/>
	<path class="st2" d="M135.6,14.1c1.9-0.3,3.8-0.1,5.5,0.6c0,1.2,0,2.5,0,3.7c-1.2-0.9-2.7-1.3-4.2-1.2c-0.8,0-1.5,0.4-1.9,1
		c-0.3,0.7,0,1.5,0.6,2c1.1,0.8,2.5,1.1,3.7,1.8c1,0.5,1.8,1.2,2.3,2.2c0.9,1.9,0.5,4.2-1,5.6c-1.6,1.3-3.6,1.9-5.6,1.7
		c-1.4-0.1-2.8-0.4-4.1-0.9c0-1.3,0-2.6,0-3.9c1.1,0.8,2.3,1.3,3.6,1.6c0.9,0.2,1.9,0.1,2.8-0.2c0.8-0.5,1-1.4,0.5-2.2
		c0,0,0-0.1-0.1-0.1c-0.5-0.5-1.1-0.9-1.7-1.1c-1.2-0.5-2.4-1-3.4-1.8c-0.7-0.6-1.3-1.4-1.5-2.3c-0.4-1.4-0.2-2.8,0.6-4
		C132.5,15.2,134,14.3,135.6,14.1L135.6,14.1z"/>
	<path class="st2" d="M108,14.6c1.1-0.6,2.5-0.7,3.7-0.3c0,1.3,0,2.7,0,4c-0.8-0.5-1.8-0.7-2.7-0.6c-1.1,0.2-2.1,0.9-2.5,2
		c-0.5,1.1-0.7,2.2-0.6,3.4c0,2.7,0,5.3,0,8H102c0-5.6,0-11.1,0-16.7c1.3,0,2.6,0,3.9,0c0,1,0,1.9,0,2.9
		C106.3,16.2,107,15.3,108,14.6L108,14.6z"/>
	<path class="st2" d="M79.3,14.4c1.3,0,2.7,0,4,0c0,5.6,0,11.1,0,16.7h-4C79.3,25.5,79.3,19.9,79.3,14.4z"/>
	<path class="st2" d="M128.2,18.3c-0.7-1.6-1.9-2.8-3.5-3.5c-1.8-0.7-3.8-1-5.7-0.7c-2,0.2-3.9,1.2-5.2,2.8
		c-1.1,1.5-1.8,3.2-1.8,5.1c-0.2,2.2,0.3,4.4,1.5,6.2c1.1,1.5,2.8,2.6,4.6,3c1.5,0.3,3.1,0.3,4.7,0c1.8-0.4,3.5-1.4,4.6-2.9
		c1.1-1.4,1.7-3.1,1.8-4.9C129.2,21.7,128.9,19.9,128.2,18.3z M124.4,25.9c-0.4,0.9-1.1,1.6-2,1.9c-1,0.4-2.2,0.4-3.2,0.1
		c-1.1-0.3-2-1.1-2.5-2.1c-0.6-1.3-0.8-2.8-0.6-4.2c0.1-1.3,0.6-2.6,1.5-3.5c0.7-0.6,1.7-1,2.6-1c1.2-0.1,2.5,0.3,3.4,1.1
		c0.8,1,1.3,2.2,1.3,3.5C125.1,23.2,124.9,24.6,124.4,25.9L124.4,25.9z"/>
	<path class="st2" d="M160.2,18.7c-0.6-1.7-1.8-3.1-3.4-3.9c-1.9-0.8-3.9-1.1-5.9-0.8c-1.6,0.2-3.2,0.8-4.4,1.9
		c-1.5,1.3-2.4,3.2-2.6,5.1c-0.3,2-0.1,4,0.6,5.8c0.8,1.8,2.2,3.2,4.1,3.9c1.8,0.7,3.7,0.8,5.6,0.5c1.9-0.3,3.7-1.3,4.9-2.9
		c1.2-1.6,1.9-3.6,1.8-5.7C160.9,21.4,160.7,20,160.2,18.7z M156.6,24.4c-0.1,0.9-0.5,1.7-1,2.5c-0.6,0.7-1.4,1.1-2.3,1.3
		c-1,0.2-2,0.1-2.9-0.3c-1-0.4-1.7-1.2-2.1-2.2c-0.4-1.2-0.6-2.4-0.5-3.6c0-1.2,0.5-2.4,1.2-3.3c0.7-0.8,1.8-1.4,2.9-1.4
		c1.1-0.1,2.3,0.2,3.2,0.9c0.8,0.7,1.3,1.6,1.4,2.7C156.8,22,156.8,23.2,156.6,24.4z"/>
	<path class="st3" d="M0,20.4h18.5c0,6.2,0,12.3,0,18.5H0V20.4z"/>
	<path class="st4" d="M20.4,20.4h18.5v18.5H20.3C20.3,32.7,20.3,26.5,20.4,20.4L20.4,20.4z"/>
</g>
</svg>
