<svg xmlns="http://www.w3.org/2000/svg" viewBox="0 0 160 120"><defs><style>.cls-1,.cls-3{fill:#6a7e91;}.cls-2{fill:#fa8a3b;}.cls-3{fill-rule:evenodd;}</style></defs><title>mysql</title><g id="Silver"><g id="MySQL"><g id="logotype"><path class="cls-1" d="M49.42,92.88H44.88q-.24-11.51-1.33-21.64h0L36.59,92.88H33.13L26.25,71.24h0q-.77,9.74-1,21.64H21.1q.4-14.48,2-27.16h5.63l6.56,20h0l6.6-20h5.39q1.77,14.84,2.09,27.16m15.41-20a75.64,75.64,0,0,1-4.1,17.1,15.64,15.64,0,0,0-1-5.51L56.14,72.85H51.68l5,15.49A19.84,19.84,0,0,1,57.79,93a4,4,0,0,1-1.45,3A4.57,4.57,0,0,1,53.16,97a13.17,13.17,0,0,1-1.89-.12v2.42A7.65,7.65,0,0,0,54,100q4.22,0,7.76-5.26,4.55-6.83,7.32-21.89Z"/><path class="cls-2" d="M129.64,92.88H116.73V65.72h4.35V89.54h8.57Zm-18.06,3.71-6.5-3.78a12.52,12.52,0,0,1-3.56.48q-5.19,0-7.77-3-2.82-3.34-2.82-10.5t3.18-11a10,10,0,0,1,8.09-3.42q10.58,0,10.58,13.48,0,7.32-3.18,11.06a9.36,9.36,0,0,1-1.25,1.21l5,2.46Zm-14.4-9.14A5.23,5.23,0,0,0,102,89.9q6.23,0,6.24-10.34,0-5.79-1.65-8.45a5.24,5.24,0,0,0-4.79-2.45q-6.23,0-6.24,10.26,0,5.88,1.65,8.53M89,85.35a6.42,6.42,0,0,0-3.18-5.74S82,77.39,80,76.34c-2.12-1.18-3.27-2.57-3.27-4.18A3.36,3.36,0,0,1,78,69.59a4.66,4.66,0,0,1,3.22-1,13.32,13.32,0,0,1,5.23,1.12l1-2.33a12.37,12.37,0,0,0-6.88-2,8.72,8.72,0,0,0-6,2,6.75,6.75,0,0,0-2.31,5.33,6.5,6.5,0,0,0,3.1,5.78s3.81,2.18,5.71,3.23c2.06,1.16,3.19,2.53,3.19,4.15a3.7,3.7,0,0,1-1.48,3A6.12,6.12,0,0,1,79,90a13.24,13.24,0,0,1-5.83-1.61L72,90.7a13.62,13.62,0,0,0,7.72,2.54A10,10,0,0,0,86.51,91,7.21,7.21,0,0,0,89,85.35m49.17,5-.95,2.53h-.49l-.95-2.53h0v2.53h-.64V89.55h1l.9,2.27.83-2.27h1v3.33h-.68Zm-5.48-.23h-1v-.56h2.64v.56h-.94v2.76h-.72Z"/></g><g id="logo"><path class="cls-3" d="M135.09,56.63a15.17,15.17,0,0,0-6.37.92c-.49.2-1.28.2-1.35.82.26.26.3.69.53,1.05a7.66,7.66,0,0,0,1.71,2c.69.53,1.38,1,2.1,1.51,1.28.79,2.72,1.25,4,2,.72.46,1.44,1,2.17,1.54.36.26.59.69,1,.85v-.1c-.23-.29-.3-.72-.52-1.05l-1-.95A15.63,15.63,0,0,0,134,61.94c-1.05-.72-3.35-1.71-3.77-2.92l-.07-.07a13.19,13.19,0,0,0,2.26-.53c1.11-.29,2.13-.23,3.28-.52.53-.13,1.05-.3,1.58-.46v-.3c-.59-.59-1-1.38-1.64-1.94a43.93,43.93,0,0,0-5.41-4c-1-.66-2.33-1.08-3.41-1.64-.39-.2-1-.29-1.28-.62a13.17,13.17,0,0,1-1.35-2.53c-1-1.8-1.87-3.8-2.69-5.71a35.09,35.09,0,0,0-1.67-3.74,33.08,33.08,0,0,0-12.7-12.27,15.73,15.73,0,0,0-4.2-1.35c-.82,0-1.64-.1-2.46-.13A13.09,13.09,0,0,1,98.93,22c-1.87-1.18-6.69-3.74-8.07-.36C90,23.82,92.17,25.92,92.93,27a15.37,15.37,0,0,1,1.67,2.46c.23.56.3,1.15.53,1.74a39.11,39.11,0,0,0,1.71,4.4,15.51,15.51,0,0,0,1.21,2c.26.36.72.53.82,1.12a9.4,9.4,0,0,0-.76,2.46c-1.18,3.71-.72,8.3,1,11,.52.82,1.77,2.63,3.45,1.93,1.48-.59,1.15-2.46,1.57-4.1.1-.4,0-.66.23-.92v.07c.46.92.92,1.8,1.35,2.72a18.72,18.72,0,0,0,4.27,4.39c.79.59,1.41,1.61,2.39,2v-.1h-.06a3.61,3.61,0,0,0-.75-.66,16.14,16.14,0,0,1-1.71-2,42,42,0,0,1-3.67-6c-.53-1-1-2.13-1.41-3.15-.2-.39-.2-1-.53-1.18a12.31,12.31,0,0,0-1.57,2.23,18.56,18.56,0,0,0-.92,5c-.13,0-.07,0-.13.06-1-.26-1.41-1.34-1.8-2.26a14.2,14.2,0,0,1-.3-8.76c.23-.69,1.22-2.85.82-3.51-.2-.63-.85-1-1.21-1.48a13,13,0,0,1-1.18-2.1c-.79-1.84-1.18-3.87-2-5.71a17.53,17.53,0,0,0-1.64-2.53,16.24,16.24,0,0,1-1.81-2.56c-.16-.36-.39-1-.13-1.35a.53.53,0,0,1,.46-.43c.42-.36,1.64.1,2.07.3A16.67,16.67,0,0,1,98,23.78c.46.33,1,1,1.54,1.12h.69c1,.23,2.23.06,3.22.36a21,21,0,0,1,4.72,2.26,29.12,29.12,0,0,1,10.24,11.22c.39.75.56,1.44.92,2.23.69,1.61,1.54,3.25,2.23,4.82a21.57,21.57,0,0,0,2.33,4.4c.49.69,2.46,1,3.35,1.41a23.49,23.49,0,0,1,2.26.92c1.12.69,2.23,1.48,3.28,2.23.52.39,2.16,1.21,2.26,1.87"/><path class="cls-3" d="M101.62,28.11a5.24,5.24,0,0,0-1.35.16v.07h.06a11.08,11.08,0,0,0,1.05,1.35c.26.53.49,1,.76,1.57l.06-.07a1.84,1.84,0,0,0,.69-1.64,7.4,7.4,0,0,1-.39-.69c-.2-.33-.62-.49-.89-.75"/></g></g></g></svg>