<svg xmlns="http://www.w3.org/2000/svg" viewBox="0 0 160 80"><defs><style>.cls-1{fill:#e50914;}</style></defs><title>netflex</title><g id="Speaker"><g id="Netflix"><path class="cls-1" d="M118.12,57.32c2,.15,3.93.31,5.9.49V23.2h-5.9ZM23.28,44.48,15.6,23.2H10V60.81q2.94-.42,5.9-.81V39.55l6.82,19.61c2.15-.24,4.3-.48,6.46-.7V23.2h-5.9ZM34.85,57.91q8.15-.73,16.37-1.22V50.88c-3.5.21-7,.45-10.48.72V42.81c2.29,0,5.3-.1,8-.06V36.94c-2.13,0-5.55,0-8,.06V29.06H51.22V23.2H34.85ZM55,29.06h6.17V56.22l5.9-.19v-27h6.17V23.2H55ZM77,55.88h5.89V42.46h8V36.65h-8V29.06H93.47V23.2H77ZM150,23.2h-6.48l-4.26,9.89-3.84-9.89H129l6.86,17.68-7.49,17.34q3.1.3,6.2.65L139,48.78l4.31,11.12q3.38.43,6.72.91h0L142.32,41Zm-46.85,0h-5.9v33q8,.29,16,.81V51.16q-5-.33-10.11-.57Z"/></g></g></svg>