<?xml version="1.0" encoding="utf-8"?>
<!-- Generator: Adobe Illustrator 21.1.0, SVG Export Plug-In . SVG Version: 6.00 Build 0)  -->
<svg version="1.1" id="圖層_1" xmlns="http://www.w3.org/2000/svg" xmlns:xlink="http://www.w3.org/1999/xlink" x="0px" y="0px"
	 viewBox="0 0 169.4 20.6" style="enable-background:new 0 0 169.4 20.6;" xml:space="preserve">
<style type="text/css">
	.st0{fill:#282625;}
	.st1{fill:#EF7D32;}
</style>
<title>speaker_procore</title>
<g id="PROCORE">
	<path class="st0" d="M93.3,4.9c0-1.9-0.4-3.2-1.1-3.9c-0.7-0.7-2.1-1-4-1H75.9c-2,0-3.3,0.3-4,1c-0.7,0.7-1.1,2-1.1,3.9v10.8
		c0,1.9,0.4,3.2,1.1,3.9s2,1,4,1h12.3c2,0,3.3-0.3,4-1c0.7-0.7,1.1-2,1.1-3.9V13h-5.2L86,16.7h-7.5l-3.7-6.5l3.7-6.5H86l2,3.5h5.2
		L93.3,4.9z"/>
	<path class="st0" d="M69.3,13v2.7c0,1.9-0.4,3.2-1.1,3.9c-0.7,0.7-2,1-4,1H51.9c-2,0-3.3-0.3-4-1c-0.7-0.7-1.1-2-1.1-3.9V4.9
		c0-1.9,0.4-3.2,1.1-3.9s2-1,4-1h12.3c2,0,3.3,0.3,4,1s1.1,2,1.1,3.9L69.3,13L69.3,13z M50.8,10.2l3.7,6.5H62l3.7-6.5L62,3.7h-7.5
		L50.8,10.2z"/>
	<path class="st0" d="M117.2,13v2.7c0,1.9-0.4,3.2-1.1,3.9c-0.7,0.7-2,1-4,1H99.9c-2,0-3.3-0.3-4-1c-0.7-0.7-1.1-2-1.1-3.9V4.9
		c0-1.9,0.4-3.2,1.1-3.9s2.1-1,4-1h12.3c2,0,3.3,0.3,4,1c0.7,0.7,1.1,2,1.1,3.9L117.2,13L117.2,13z M98.7,10.2l3.7,6.5h7.5l3.8-6.5
		L110,3.7h-7.5L98.7,10.2z"/>
	<polygon class="st1" points="78.1,10.2 80.2,13.8 84.4,13.8 86.5,10.2 84.4,6.6 80.2,6.6 	"/>
	<path class="st0" d="M0,20.6V0h17c3.6,0,5.2,1.7,5.2,4.1v4.8c0,2.3-1.4,4.1-5.2,4.1H5.7v7.5L0,20.6z M14.7,4.6h-9v3.9h9
		c0.5,0,0.9,0,1.3-0.2c0.4-0.2,0.6-0.6,0.5-1V5.8c0.1-0.4-0.1-0.8-0.5-1C15.6,4.6,15.2,4.5,14.7,4.6z"/>
	<path class="st0" d="M23.3,20.6V0h16.9c3.6,0,5.2,1.7,5.2,4.1v4.8c0,2.3-1.4,4.1-5.2,4.1h-0.7l9,7.5h-8.3l-8-7.5H29v7.5L23.3,20.6z
		 M38,4.6H29v3.9H38c0.4,0,0.9,0,1.3-0.2c0.4-0.2,0.6-0.6,0.5-1V5.8c0.1-0.4-0.1-0.8-0.5-1C38.9,4.6,38.5,4.6,38,4.6L38,4.6z"/>
	<path class="st0" d="M118.8,20.6V0h16.9c3.6,0,5.2,1.7,5.2,4.1v4.8c0,2.3-1.4,4.1-5.2,4.1h-0.7l9,7.5h-8.4l-8-7.5h-3.3v7.5
		L118.8,20.6z M133.6,4.6h-9.1v3.9h9.1c0.4,0,0.9,0,1.3-0.2c0.4-0.2,0.6-0.6,0.5-1V5.8c0.1-0.4-0.1-0.8-0.5-1
		C134.4,4.6,134,4.6,133.6,4.6L133.6,4.6z"/>
	<path class="st0" d="M142.4,20.6V0h21v4.5h-15.3v3.1h8.9v4.5h-8.9v3.6h15.4v4.8L142.4,20.6z"/>
	<path class="st0" d="M169.4,2.2c0,1.3-1,2.3-2.2,2.4c-1.3,0-2.3-1-2.4-2.2c0-1.3,1-2.3,2.2-2.4c0,0,0.1,0,0.1,0
		C168.4,0,169.4,1,169.4,2.2C169.4,2.2,169.4,2.2,169.4,2.2z M165.4,2.2c0,1,0.7,1.8,1.7,1.8c0,0,0,0,0.1,0c0.9,0,1.7-0.8,1.7-1.7
		c0-1-0.8-1.7-1.7-1.7S165.4,1.3,165.4,2.2L165.4,2.2z M166.8,3.4h-0.5V1.2c0.3-0.1,0.6-0.1,0.9-0.1c0.3,0,0.5,0,0.8,0.2
		c0.1,0.1,0.2,0.3,0.2,0.5c0,0.3-0.2,0.5-0.5,0.5l0,0c0.2,0.1,0.4,0.3,0.4,0.5c0,0.2,0.1,0.4,0.2,0.6h-0.6c-0.1-0.2-0.1-0.4-0.2-0.5
		c0-0.2-0.2-0.4-0.5-0.4h-0.2V3.4z M166.8,2.2h0.2c0.3,0,0.5-0.1,0.5-0.3s-0.1-0.3-0.5-0.3c-0.1,0-0.2,0-0.3,0V2.2z"/>
</g>
</svg>
