<?xml version="1.0" encoding="utf-8"?>
<!-- Generator: Adobe Illustrator 21.1.0, SVG Export Plug-In . SVG Version: 6.00 Build 0)  -->
<svg version="1.1" id="圖層_1" xmlns="http://www.w3.org/2000/svg" xmlns:xlink="http://www.w3.org/1999/xlink" x="0px" y="0px"
	 viewBox="0 0 164.1 39.7" style="enable-background:new 0 0 164.1 39.7;" xml:space="preserve">
<style type="text/css">
	.st0{fill:#27A8CD;}
</style>
<title>speaker_quipper</title>
<g>
	<path class="st0" d="M57.2,11.1H46.7v5.3h2.7v6.4c0,1.8-1.1,3.1-2.6,3.1c-1.7,0-2.2-1.6-2.2-5.1v-9.8h-9.8v5.3h1.7v5.6
		c0,6.7,2,9.9,8.1,9.9c3.4,0,4.9-2.1,5.8-3.1l1.1,2.5h7.7V26h-2L57.2,11.1z"/>
	<path class="st0" d="M67.1,9.3c2.9,0,4.5-1.9,4.5-4.1c-0.1-2.4-2.1-4.2-4.5-4.1c-2.3-0.1-4.3,1.8-4.4,4.1c0,0,0,0,0,0
		C62.8,7.5,64.7,9.3,67.1,9.3z"/>
	<polygon class="st0" points="71,11.1 61.6,11.1 61.6,16.4 63.3,16.4 63.3,26.1 61.6,26.1 61.6,31.4 72.9,31.4 72.9,26.1 71,26.1 	
		"/>
	<path class="st0" d="M89.1,10.8c-1.8,0-3.5,0.6-4.9,1.7l-0.7-1.4h-9.3v5.4h1.7v17.8h-1.7v5.3h12.1v-5.3h-2.2v-4.1
		c1.5,1.1,3.4,1.7,5.3,1.6c5.2,0,9.2-4,9.2-10.4C98.6,15.7,95.4,10.8,89.1,10.8z M87.1,26.6c-1.5,0-2.9-2.1-2.9-4.9
		c-0.2-3.2,1.3-5.2,2.9-5.2c1.8,0,2.9,2.5,2.9,5C89.9,24.6,88.7,26.6,87.1,26.6L87.1,26.6z"/>
	<path class="st0" d="M114.5,10.8c-1.8,0-3.5,0.6-4.9,1.7l-0.7-1.4h-9.3v5.4h1.7v17.8h-1.7v5.3h12.1v-5.3h-2.2v-4.1
		c1.5,1.1,3.4,1.7,5.3,1.6c5.2,0,9.2-4,9.2-10.4C124.1,15.7,120.8,10.8,114.5,10.8z M113.6,26.6c-1.5,0-2.9-2.1-2.9-4.9
		c-0.2-3.2,1.3-5.2,2.9-5.2c1.8,0,2.9,2.5,2.9,5C116.5,24.6,115.3,26.6,113.6,26.6L113.6,26.6z"/>
	<path class="st0" d="M137.9,26.6c-3.4,0-3.9-2.2-4.2-3.3h12.8c0.7-2.2,0.6-4.6-0.1-6.8c-1.2-3.4-4.9-5.9-9.7-5.9
		c-6.1,0-10.9,3.9-10.9,10.6c0,7.8,5.7,11,10.7,11c4.2,0,7.5-0.9,10.4-3.5l-3.4-3.9C142,26,140,26.7,137.9,26.6z M136.2,16
		c2.6,0,3,1.7,3,3.2h-6.1C133,17.5,134.4,16.1,136.2,16C136.2,16,136.2,16,136.2,16L136.2,16z"/>
	<path class="st0" d="M164.1,17.4v-7.3c-4.2,0-5.2,1.7-6.3,3.6l-1.2-2.6h-7.6v5.3h1.7v9.7H149v5.3h11.5v-5.3h-2v-4.2
		C158.4,18.3,160.5,17.4,164.1,17.4z"/>
	<path class="st0" d="M30.3,28.7c0,0.8-0.1,2.1-0.9,2.1c-1.2,0-1.7-1.6-2-3c2.5-2.8,3.8-6.7,3.8-11.5C31.1,6.5,26.3,0,15.4,0
		C6.2,0,0,6.6,0,16c0,10.8,6.4,16.3,15.7,16.3c1.2,0,2.4-0.1,3.6-0.3c1,3.1,3.9,5.1,7.1,5.1c4.6,0,6.9-3.3,6.9-7.4v-2.3h-3
		L30.3,28.7z M15.6,25.5c-3,0-5.5-4.2-5.5-9.5s2.5-9.5,5.5-9.5s5.5,4.2,5.5,9.5S18.6,25.5,15.6,25.5z"/>
</g>
</svg>
