<?xml version="1.0" encoding="utf-8"?>
<!-- Generator: Adobe Illustrator 21.1.0, SVG Export Plug-In . SVG Version: 6.00 Build 0)  -->
<svg version="1.1" id="圖層_1" xmlns="http://www.w3.org/2000/svg" xmlns:xlink="http://www.w3.org/1999/xlink" x="0px" y="0px"
	 viewBox="0 0 145.8 57" style="enable-background:new 0 0 145.8 57;" xml:space="preserve">
<style type="text/css">
	.st0{fill:#D92620;}
	.st1{fill:#302C2C;}
</style>
<title>speaker_red-panthers</title>
<g>
	<path class="st0" d="M11.1,24.2c0.8,0.9,1.6,1.8,2.4,2.8c0.1,0.2,0.1,0.3,0.1,0.5c-0.8,3.5-1.6,6.9-2.4,10.4
		c-0.1,0.3,0,0.7,0.2,0.9c1.1,1.3,2.1,2.6,3.2,4c0,0,2.5-2.8,3.5-4c0.2-0.2,0.3-0.5,0.2-0.7c-0.8-3.5-1.6-7-2.4-10.5
		c-0.1-0.3,0-0.6,0.2-0.8c0.7-0.8,1.5-1.7,2.3-2.6c0.7,0.5,1.4,1,2.1,1.5c3.1,2.5,5,6,5.4,9.9c0.2,1.6,0,3.3-0.5,4.9
		c-0.9,2.9-1.8,5.8-2.6,8.7c-0.4,0.8-0.1,1.7,0.7,2.1c0.1,0,0.2,0.1,0.2,0.1c0.9,0.5,1.8,1,2.6,1.5c0.8,0.6,1.2,1.5,1,2.5
		c-0.1,1-1,1.8-2,1.8H4.3c-1.2,0.1-2.2-0.7-2.3-1.9c0-0.4,0-0.8,0.2-1.1c0.2-0.5,0.5-0.9,0.8-1.2c0.7-0.5,1.4-0.9,2.2-1.4
		c0.3-0.2,0.6-0.3,0.9-0.5c0.5-0.3,0.7-1,0.5-1.6c-0.6-2-1.2-4.1-1.8-6.1C4.5,41.8,4,40.4,3.7,39c-0.4-2.4-0.2-4.8,0.7-7
		c1.1-3.1,3.3-5.8,6.2-7.5C10.7,24.4,10.9,24.3,11.1,24.2z"/>
	<path class="st0" d="M30,2.6c0,2.2-0.5,4.5-1.5,6.5c-0.1,0.3-0.1,0.7-0.1,1c1.5,5-0.9,10.4-5.6,12.7L22,23.1
		c-1.2,0.6-2.6,0.7-3.8,0.2c-1.9-0.9-4.1-1-6.1-0.2c-2.7,1.1-4.9,0.1-7-1.4c-3.4-2.4-5-6.7-4-10.8c0.2-1,0.1-2.1-0.3-3.1
		C0.1,5.7-0.2,3.3,0.2,1C0.3,0.1,0.5,0,1.4,0c2.2,0.2,4.3,1.1,6,2.4c0.3,0.3,0.7,0.4,1.1,0.2c4.2-1.2,8.8-1.2,13,0
		c0.4,0.2,0.8,0.1,1.1-0.1c1.8-1.4,4-2.2,6.2-2.5C29.5,0,29.8,0.3,30,1c0,0.1,0,0.3,0,0.4C30,1.8,30,2.2,30,2.6z M6.6,9.7
		c-0.4,3.8,1.8,6.5,6.1,6.1C13,11.5,10.6,9.4,6.6,9.7z M17.6,15.8c4,0.3,6.5-1.8,6.1-6.1C19.7,9.3,17.3,11.6,17.6,15.8L17.6,15.8z"
		/>
	<path class="st0" d="M24.3,50.7c1.3-0.4,2.5-0.9,3.6-1.5c1.3-0.8,2.5-1.8,2.7-2.5c0.2-1.3,0.1-2.6-0.4-3.8
		c-0.5-1.5-1.8-3.3-2.5-4.8s-1.4-4.3-0.5-6.5s4.6-3.7,5.4-2.9s0.8,1.5,0.5,2s-1.4,0.4-2.5,1s-1.4,2.4-1.1,4s1.9,3.5,2.8,4.9
		s2.3,5.1,0.9,7.9s-6.1,4.2-6.1,4.2C26.2,51.8,25.3,51.2,24.3,50.7z"/>
	<path class="st1" d="M71.5,15c0,5.8-2.3,9.5-6.8,11.1L73.7,39h-9.8l-8-11.5h-5.6V39h-8V3.1h13.6c5.6,0,9.6,0.9,11.9,2.8
		C70.3,7.8,71.5,10.8,71.5,15z M61.8,19.3c1.1-1.1,1.6-2.7,1.5-4.2c0-1.9-0.5-3.3-1.5-4s-2.8-1.1-5.4-1.1h-6v10.7h5.9
		C59,20.6,60.8,20.2,61.8,19.3L61.8,19.3z"/>
	<path class="st1" d="M105.6,3.1v7.1H87.7v7.4h16.1v6.8H87.7v7.5h18.4V39H79.7V3.1H105.6z"/>
	<path class="st1" d="M140.7,7.8c3.4,3.1,5.1,7.5,5.1,13.1s-1.7,10-5,13.2c-3.3,3.3-8.4,4.9-15.3,4.9h-12.3V3.1H126
		C132.4,3.1,137.3,4.7,140.7,7.8z M134.8,29.2c2-1.8,3-4.5,3-8.1c0-3.5-1-6.2-3-8.1c-2-1.9-5-2.8-9.1-2.8h-4.5v21.8h5.1
		C130,31.9,132.9,31,134.8,29.2L134.8,29.2z"/>
	<path class="st1" d="M48.8,45.8c0.8,0.8,1.2,1.9,1.2,3c0.1,1.1-0.3,2.2-1.2,3c-1.1,0.7-2.3,1-3.6,0.9h-1.4v3.1h-2.4v-11h3.9
		C46.4,44.7,47.7,45.1,48.8,45.8z M47,50.1c0.3-0.4,0.5-0.9,0.4-1.4c0.1-0.5-0.2-1-0.6-1.3c-0.5-0.3-1.2-0.4-1.8-0.4h-1.4v3.7h1.6
		C45.9,50.7,46.5,50.5,47,50.1z"/>
	<path class="st1" d="M61.5,55.8l-1-2.4h-4.6l-1,2.4h-2.6L57,44.9h2.4l4.7,10.9H61.5z M58.2,48.1l-1.4,3.2h2.7L58.2,48.1z"/>
	<path class="st1" d="M75.5,44.9h2.4v10.9h-2.4l-5.2-6.9v6.8h-2.4V44.9h2.3l5.4,7V44.9z"/>
	<path class="st1" d="M87.8,47v8.8h-2.4V47h-3.1v-2.1h8.6V47H87.8z"/>
	<path class="st1" d="M102,44.9h2.4v10.9H102v-4.3h-4.3v4.3h-2.4v-11h2.4v4.6h4.3V44.9z"/>
	<path class="st1" d="M117.5,44.9V47H112v2.2h4.9v2.1H112v2.3h5.6v2.2h-8.1V44.9H117.5z"/>
	<path class="st1" d="M131.2,48.5c0.2,1.5-0.7,2.9-2.1,3.4l2.8,3.9h-3l-2.4-3.5h-1.7v3.5h-2.4v-11h4.1c1.3-0.1,2.6,0.2,3.6,0.9
		C130.9,46.4,131.3,47.5,131.2,48.5z M128.3,49.8c0.3-0.4,0.5-0.8,0.4-1.3c0.1-0.5-0.1-0.9-0.5-1.2c-0.5-0.3-1.1-0.4-1.6-0.3h-1.8
		v3.2h1.8C127.1,50.3,127.7,50.1,128.3,49.8L128.3,49.8z"/>
	<path class="st1" d="M138.8,47c-0.2,0.2-0.4,0.5-0.4,0.8c0,0.3,0.2,0.6,0.4,0.8c0.6,0.3,1.3,0.5,2,0.7c0.9,0.2,1.7,0.6,2.4,1.2
		c0.6,0.6,0.9,1.4,0.9,2.2c0,0.9-0.4,1.8-1.1,2.4c-0.8,0.6-1.9,1-2.9,0.9c-1.8,0-3.4-0.7-4.7-1.9l1.5-1.8c0.9,0.9,2,1.4,3.3,1.6
		c0.4,0,0.7-0.1,1.1-0.3c0.2-0.2,0.4-0.5,0.4-0.8c0-0.3-0.1-0.6-0.4-0.8c-0.5-0.3-1-0.5-1.6-0.6c-1-0.2-2-0.6-2.8-1.2
		c-0.6-0.6-1-1.4-0.9-2.3c0-0.9,0.4-1.8,1.1-2.4c0.8-0.6,1.8-0.9,2.8-0.8c0.7,0,1.5,0.1,2.2,0.4c0.7,0.2,1.3,0.6,1.9,1.1l-1.3,1.8
		c-0.8-0.7-1.9-1.1-2.9-1.1C139.4,46.7,139,46.8,138.8,47z"/>
</g>
</svg>
