<svg id="Platinum" xmlns="http://www.w3.org/2000/svg" viewBox="0 0 240 80"><defs><style>.cls-1{fill:#595857;}.cls-2{fill:#62cae3;}.cls-3{fill:none;stroke:#62cae3;stroke-miterlimit:10;stroke-width:0.5px;}</style></defs><title>saracares</title><g id="SARAcares"><path class="cls-1" d="M160.53,36.23c1.91-2.15,2.36-5.78,2.38-8.62,0-1.95-.1-4.23-1.32-5.85s-3.25-2.06-5.22-1.93a1.63,1.63,0,0,0-1.33,1.3,45.86,45.86,0,0,0-.24,6c-.05,3.61-.05,7.21-.05,10.82,0,6.14.19,12.32-.11,18.46-.08,1.67,2.5,1.66,2.58,0,.3-6,.11-12.12.11-18.17V38a5.54,5.54,0,0,0,.87-.21c1.2,6.48,2,13.05,4.84,19.06.72,1.5,3,.19,2.23-1.3-2.89-6-3.5-12.79-4.74-19.29m-3.16-8.66c0-1.26,0-2.52.07-3.78l.06-1.39h0a2.51,2.51,0,0,1,2,.84c.83,1.11.82,2.73.84,4,0,1.94,0,5.56-1.64,7.27a1.44,1.44,0,0,0-.65.52,2.76,2.76,0,0,1-.7.31c0-2.6,0-5.19,0-7.79"/><path class="cls-1" d="M160.53,36.23c1.91-2.15,2.36-5.78,2.38-8.62,0-1.95-.1-4.23-1.32-5.85s-3.25-2.06-5.22-1.93a1.63,1.63,0,0,0-1.33,1.3,45.86,45.86,0,0,0-.24,6c-.05,3.61-.05,7.21-.05,10.82,0,6.14.19,12.32-.11,18.46-.08,1.67,2.5,1.66,2.58,0,.3-6,.11-12.12.11-18.17V38a5.54,5.54,0,0,0,.87-.21c1.2,6.48,2,13.05,4.84,19.06.72,1.5,3,.19,2.23-1.3C162.38,49.48,161.77,42.73,160.53,36.23Zm-3.16-8.66c0-1.26,0-2.52.07-3.78l.06-1.39h0a2.51,2.51,0,0,1,2,.84c.83,1.11.82,2.73.84,4,0,1.94,0,5.56-1.64,7.27a1.44,1.44,0,0,0-.65.52,2.76,2.76,0,0,1-.7.31C157.34,32.76,157.35,30.17,157.37,27.57Z"/><path class="cls-1" d="M192.11,42.82c-.72-1.86-1.56-3.66-2.31-5.5-.86-2.13-2.21-4-2.89-6.24a11.56,11.56,0,0,1,.55-7.69c.25-.54.7-1.51,1.4-1.53.88,0,1.7,1.66,2,2.25a1.29,1.29,0,0,0,2.23-1.3c-.95-1.66-2.35-3.57-4.47-3.53s-3.17,2.12-3.83,3.76a14.64,14.64,0,0,0-.69,7.45,19.82,19.82,0,0,0,2.44,6A46.65,46.65,0,0,1,191.26,49a7,7,0,0,1-1.46,5.85c-1.45,1.55-2.73-.83-3.23-2-.65-1.53-2.87-.21-2.23,1.31s1.91,3.38,3.81,3.73,3.39-.88,4.37-2.36c2.59-3.9,1.12-8.7-.41-12.66"/><path class="cls-1" d="M192.11,42.82c-.72-1.86-1.56-3.66-2.31-5.5-.86-2.13-2.21-4-2.89-6.24a11.56,11.56,0,0,1,.55-7.69c.25-.54.7-1.51,1.4-1.53.88,0,1.7,1.66,2,2.25a1.29,1.29,0,0,0,2.23-1.3c-.95-1.66-2.35-3.57-4.47-3.53s-3.17,2.12-3.83,3.76a14.64,14.64,0,0,0-.69,7.45,19.82,19.82,0,0,0,2.44,6A46.65,46.65,0,0,1,191.26,49a7,7,0,0,1-1.46,5.85c-1.45,1.55-2.73-.83-3.23-2-.65-1.53-2.87-.21-2.23,1.31s1.91,3.38,3.81,3.73,3.39-.88,4.37-2.36C195.11,51.58,193.64,46.78,192.11,42.82Z"/><path class="cls-1" d="M146.46,25.91c-.14-1.92,0-4.66-1.42-6.14a2,2,0,0,0-2.78-.26,5.94,5.94,0,0,0-1.17,3c-.73,3.44-2,15.42-2.47,19.25a132.2,132.2,0,0,0-1.28,13.64,1.29,1.29,0,0,0,2.58,0A68.13,68.13,0,0,1,141,46c.05-.28.09-.57.13-.86a23,23,0,0,0,3.61-.22c.21,3.83.44,7.66.46,11.49a1.29,1.29,0,0,0,2.58,0c0-6.76-.61-13.53-.81-20.28-.1-3.41-.25-6.8-.48-10.2M141.4,42.55c.2-2.06.31-4.12.39-6.19a61.41,61.41,0,0,1,1-9.66c.24-1.24.6-2.46.86-3.7a39.38,39.38,0,0,1,.41,5.08c.22,3.51.29,7,.4,10.54,0,1.24.09,2.47.15,3.71a21.25,21.25,0,0,1-3.18.22"/><path class="cls-1" d="M146.46,25.91c-.14-1.92,0-4.66-1.42-6.14a2,2,0,0,0-2.78-.26,5.94,5.94,0,0,0-1.17,3c-.73,3.44-2,15.42-2.47,19.25a132.2,132.2,0,0,0-1.28,13.64,1.29,1.29,0,0,0,2.58,0A68.13,68.13,0,0,1,141,46c.05-.28.09-.57.13-.86a23,23,0,0,0,3.61-.22c.21,3.83.44,7.66.46,11.49a1.29,1.29,0,0,0,2.58,0c0-6.76-.61-13.53-.81-20.28C146.84,32.7,146.69,29.31,146.46,25.91Zm-3.24-5.1M141.4,42.55c.2-2.06.31-4.12.39-6.19a61.41,61.41,0,0,1,1-9.66c.24-1.24.6-2.46.86-3.7a39.38,39.38,0,0,1,.41,5.08c.22,3.51.29,7,.4,10.54,0,1.24.09,2.47.15,3.71A21.25,21.25,0,0,1,141.4,42.55Z"/><path class="cls-1" d="M125.72,19.08c1.52-1.64,4.07-.09,4.5,1.7a1.29,1.29,0,0,0,2.51-.57c-1.13-4.76-8-6.1-9.92-1.17a21,21,0,0,0-1,4.43c-.31,2.16-.49,4.34-.64,6.52A147,147,0,0,0,121,45.13c.07,2.12.21,4.25.48,6.36A11.38,11.38,0,0,0,123,56.4a3.9,3.9,0,0,0,5,1.44c2-.84,3.08-3.1,3.32-5.11.19-1.65-2.39-1.76-2.58-.12s-2.21,4.48-3.65,2.32c-.87-1.29-1-3.16-1.15-4.66a99.19,99.19,0,0,1-.38-13.79,104,104,0,0,1,1-13.54c.18-1.19.33-2.93,1.18-3.86"/><path class="cls-1" d="M125.72,19.08c1.52-1.64,4.07-.09,4.5,1.7a1.29,1.29,0,0,0,2.51-.57c-1.13-4.76-8-6.1-9.92-1.17a21,21,0,0,0-1,4.43c-.31,2.16-.49,4.34-.64,6.52A147,147,0,0,0,121,45.13c.07,2.12.21,4.25.48,6.36A11.38,11.38,0,0,0,123,56.4a3.9,3.9,0,0,0,5,1.44c2-.84,3.08-3.1,3.32-5.11.19-1.65-2.39-1.76-2.58-.12s-2.21,4.48-3.65,2.32c-.87-1.29-1-3.16-1.15-4.66a99.19,99.19,0,0,1-.38-13.79,104,104,0,0,1,1-13.54C124.72,21.75,124.87,20,125.72,19.08Z"/><path class="cls-1" d="M177.24,22.94a1.29,1.29,0,0,0,0-2.58c-1.64,0-3.32-.3-4.83.51s-1.49,2.93-1.54,4.41c-.12,4.56.08,9.15.13,13.72s-.22,9-.12,13.5c0,1.31-.27,4.06,1.15,4.83a3.2,3.2,0,0,0,1.75.3c1.09,0,2.19,0,3.27,0a1.29,1.29,0,0,0,0-2.58l-2.67,0-.81,0a12.17,12.17,0,0,1-.08-1.69c-.05-1-.05-2,0-3.06,0-3.6.16-7.2.13-10.8,0-.59,0-1.17,0-1.76,1.2.08,2.4.08,3.6.07a1.29,1.29,0,0,0,0-2.58c-1.21,0-2.41,0-3.62-.07,0-2.56,0-5.11-.08-7.66a20,20,0,0,1,.14-4.1c.2-1,2.88-.47,3.63-.46m-4,32.11c-.1,0-.07,0,0,0"/><path class="cls-1" d="M177.24,22.94a1.29,1.29,0,0,0,0-2.58c-1.64,0-3.32-.3-4.83.51s-1.49,2.93-1.54,4.41c-.12,4.56.08,9.15.13,13.72s-.22,9-.12,13.5c0,1.31-.27,4.06,1.15,4.83a3.2,3.2,0,0,0,1.75.3c1.09,0,2.19,0,3.27,0a1.29,1.29,0,0,0,0-2.58l-2.67,0-.81,0a12.17,12.17,0,0,1-.08-1.69c-.05-1-.05-2,0-3.06,0-3.6.16-7.2.13-10.8,0-.59,0-1.17,0-1.76,1.2.08,2.4.08,3.6.07a1.29,1.29,0,0,0,0-2.58c-1.21,0-2.41,0-3.62-.07,0-2.56,0-5.11-.08-7.66a20,20,0,0,1,.14-4.1C173.81,22.41,176.49,22.93,177.24,22.94Zm-4,32.11"/><path class="cls-2" d="M51.83,11.27a5.39,5.39,0,1,0-5.38-5.39,5.38,5.38,0,0,0,5.38,5.39"/><path class="cls-3" d="M51.83,11.27a5.39,5.39,0,1,0-5.38-5.39A5.38,5.38,0,0,0,51.83,11.27Z"/><path class="cls-2" d="M71.76,5.69a5.39,5.39,0,1,0,5.39,5.38,5.38,5.38,0,0,0-5.39-5.38"/><path class="cls-3" d="M71.76,5.69a5.39,5.39,0,1,0,5.39,5.38A5.38,5.38,0,0,0,71.76,5.69Z"/><path class="cls-2" d="M89.92,2.31A5.38,5.38,0,1,0,95.3,7.69a5.39,5.39,0,0,0-5.38-5.38"/><path class="cls-3" d="M89.92,2.31A5.38,5.38,0,1,0,95.3,7.69,5.39,5.39,0,0,0,89.92,2.31Z"/><path class="cls-2" d="M108.63,5.69A5.39,5.39,0,1,0,114,11.07a5.38,5.38,0,0,0-5.39-5.38"/><path class="cls-3" d="M108.63,5.69A5.39,5.39,0,1,0,114,11.07,5.38,5.38,0,0,0,108.63,5.69Z"/><path class="cls-2" d="M90.59,35.37a.68.68,0,0,0,0-.14c2.15-2,2.87-5.78,3.11-8.63.17-2,.18-4.21-.92-5.94s-3.19-2.23-5.13-2.26a1.16,1.16,0,0,0-1.16.75,1.24,1.24,0,0,0-.27.55,50.35,50.35,0,0,0-.75,6.59c-.34,3.89-.64,7.78-.94,11.66-.52,6.67-.82,13.4-1.67,20-.21,1.67,2.41,1.65,2.61,0,.84-6.53,1.14-13.16,1.65-19.73l.12-1.59a5.27,5.27,0,0,0,.9-.13c.79,7.18.95,14.52,3.59,21.33.6,1.55,3.12.88,2.51-.69-2.7-7-2.73-14.48-3.63-21.8M88,26.76c.12-1.4.25-2.8.4-4.19.07-.7.09-1.06.16-1.51a2.61,2.61,0,0,1,2,1.09c.73,1.15.55,2.83.48,4.11-.15,2.45-.68,7.17-3.67,7.74.19-2.42.38-4.83.59-7.24"/><path class="cls-3" d="M90.59,35.37a.68.68,0,0,0,0-.14c2.15-2,2.87-5.78,3.11-8.63.17-2,.18-4.21-.92-5.94s-3.19-2.23-5.13-2.26a1.16,1.16,0,0,0-1.16.75,1.24,1.24,0,0,0-.27.55,50.35,50.35,0,0,0-.75,6.59c-.34,3.89-.64,7.78-.94,11.66-.52,6.67-.82,13.4-1.67,20-.21,1.67,2.41,1.65,2.61,0,.84-6.53,1.14-13.16,1.65-19.73l.12-1.59a5.27,5.27,0,0,0,.9-.13c.79,7.18.95,14.52,3.59,21.33.6,1.55,3.12.88,2.51-.69C91.52,50.2,91.49,42.69,90.59,35.37ZM88,26.76c.12-1.4.25-2.8.4-4.19.07-.7.09-1.06.16-1.51a2.61,2.61,0,0,1,2,1.09c.73,1.15.55,2.83.48,4.11-.15,2.45-.68,7.17-3.67,7.74C87.62,31.58,87.81,29.17,88,26.76Z"/><path class="cls-2" d="M111,56.67c0-1-.22-22.78-.33-27.46,0-1.75-.11-3.5-.32-5.24a5.75,5.75,0,0,0-1-3.11c-.8-1-2.35-.39-3,.4C105,22.9,105,25.67,104.66,27.7c-.66,4.07-3,26.83-4,29.49-.6,1.57,2.19,2.51,2.77,1,1-2.74,1.49-11.42,1.62-12.76a21,21,0,0,0,3.15.48c0,2.47.15,9.79.2,11a4.52,4.52,0,0,0,.27,1.75,1.28,1.28,0,0,0,1.12.64h0a1.26,1.26,0,0,0,1.12-.64,1.81,1.81,0,0,0,.2-.79,1.18,1.18,0,0,0-.09-.64l0-.48m-5.69-13.9c.12-1.09.25-2.19.39-3.29.48-4,.85-7.95,1.58-11.87.18-1,.31-2,.52-3,.36,3.75.33,8.18.35,12.15l0,6.47a20.47,20.47,0,0,1-2.87-.48m3.2,15a1.1,1.1,0,0,1,.16-.53h0a1.37,1.37,0,0,0-.17.54"/><path class="cls-3" d="M111,56.67c0-1-.22-22.78-.33-27.46,0-1.75-.11-3.5-.32-5.24a5.75,5.75,0,0,0-1-3.11c-.8-1-2.35-.39-3,.4C105,22.9,105,25.67,104.66,27.7c-.66,4.07-3,26.83-4,29.49-.6,1.57,2.19,2.51,2.77,1,1-2.74,1.49-11.42,1.62-12.76a21,21,0,0,0,3.15.48c0,2.47.15,9.79.2,11a4.52,4.52,0,0,0,.27,1.75,1.28,1.28,0,0,0,1.12.64h0a1.26,1.26,0,0,0,1.12-.64,1.81,1.81,0,0,0,.2-.79,1.18,1.18,0,0,0-.09-.64Zm-5.69-13.9c.12-1.09.25-2.19.39-3.29.48-4,.85-7.95,1.58-11.87.18-1,.31-2,.52-3,.36,3.75.33,8.18.35,12.15l0,6.47A20.47,20.47,0,0,1,105.35,42.77Zm3.2,15a1.1,1.1,0,0,1,.16-.53h0A1.37,1.37,0,0,0,108.55,57.79Z"/><path class="cls-2" d="M73.94,27.35c-.11-1.76,0-5-1.83-6C69.5,20,69,23.51,68.56,25.17c-1,3.66-3.5,29.27-3.52,32.79a1.31,1.31,0,0,0,2.61,0,92.29,92.29,0,0,1,1.06-11.24,21.21,21.21,0,0,0,3.47-.21A53.28,53.28,0,0,0,74,57.94a1.31,1.31,0,0,0,2.52-.7c-1.93-6.66-2.37-26.78-2.56-29.89M69,44.12c.18-1.56.31-3.12.38-4.69a69.82,69.82,0,0,1,1-10.41c.23-1.22.58-2.42.84-3.64.18,1.26.18,2.57.27,3.81.24,3.5.32,7,.42,10.52q.06,2.1.15,4.2a21.86,21.86,0,0,1-3,.21"/><path class="cls-3" d="M73.94,27.35c-.11-1.76,0-5-1.83-6C69.5,20,69,23.51,68.56,25.17c-1,3.66-3.5,29.27-3.52,32.79a1.31,1.31,0,0,0,2.61,0,92.29,92.29,0,0,1,1.06-11.24,21.21,21.21,0,0,0,3.47-.21A53.28,53.28,0,0,0,74,57.94a1.31,1.31,0,0,0,2.52-.7C74.57,50.58,74.13,30.46,73.94,27.35ZM69,44.12c.18-1.56.31-3.12.38-4.69a69.82,69.82,0,0,1,1-10.41c.23-1.22.58-2.42.84-3.64.18,1.26.18,2.57.27,3.81.24,3.5.32,7,.42,10.52q.06,2.1.15,4.2A21.86,21.86,0,0,1,69,44.12Z"/><path class="cls-2" d="M57,16a6.2,6.2,0,0,0-5.86-.41c-2,.92-3.1,3.23-3.55,5.27-1.31,5.95,2.29,10.84,4.75,15.89,2.3,4.73,4.3,9.84,3.18,15.17a8,8,0,0,1-2,4.17c-1.55,1.48-3.87.55-5.46-.32s-2.79,1.44-1.31,2.25A8.55,8.55,0,0,0,53,59.29a6.42,6.42,0,0,0,3.78-3.23c2.06-3.62,2-8.34,1.06-12.26a38.43,38.43,0,0,0-3.26-8.33,79.16,79.16,0,0,1-3.89-7.76,10.38,10.38,0,0,1,.08-8.11c1-2,3-2.39,4.91-1.31A1.31,1.31,0,0,0,57,16"/><path class="cls-3" d="M57,16a6.2,6.2,0,0,0-5.86-.41c-2,.92-3.1,3.23-3.55,5.27-1.31,5.95,2.29,10.84,4.75,15.89,2.3,4.73,4.3,9.84,3.18,15.17a8,8,0,0,1-2,4.17c-1.55,1.48-3.87.55-5.46-.32s-2.79,1.44-1.31,2.25A8.55,8.55,0,0,0,53,59.29a6.42,6.42,0,0,0,3.78-3.23c2.06-3.62,2-8.34,1.06-12.26a38.43,38.43,0,0,0-3.26-8.33,79.16,79.16,0,0,1-3.89-7.76,10.38,10.38,0,0,1,.08-8.11c1-2,3-2.39,4.91-1.31A1.31,1.31,0,0,0,57,16Z"/><path class="cls-1" d="M51.93,65.73a.6.6,0,0,1,.39.15.49.49,0,0,1,.21.39,1.24,1.24,0,0,1-.06.31c-.12.53-.25,1-.4,1.48h3.31V65.87a.47.47,0,0,1,.53-.54q.6,0,.6.54v2.19h5.12a.48.48,0,0,1,.54.55.47.47,0,0,1-.54.53H56.51v3.57H61.1a.46.46,0,0,1,.53.53.47.47,0,0,1-.53.54H56.51v3.93h5.66a.48.48,0,0,1,.55.54c0,.36-.18.53-.55.53H49.6a.47.47,0,0,1-.54-.53.48.48,0,0,1,.54-.54h5.78V73.78H50.91a.48.48,0,0,1-.54-.54.47.47,0,0,1,.54-.53h4.47V69.14H51.7l-.18.41a13.86,13.86,0,0,1-1.21,2.22.76.76,0,0,1-.4.22q-.6,0-.6-.54a.42.42,0,0,1,.12-.29A12.21,12.21,0,0,0,50.59,69a15,15,0,0,0,.91-2.92A.42.42,0,0,1,51.93,65.73Z"/><path class="cls-1" d="M70.9,69.55a.57.57,0,0,1,.37.19,11.92,11.92,0,0,1,1.65,1.54.75.75,0,0,1,.14.37c0,.36-.2.53-.6.53a.6.6,0,0,1-.37-.13,18,18,0,0,0-1.67-1.59.85.85,0,0,1-.12-.32A.53.53,0,0,1,70.9,69.55Zm1.84,4.06c.37,0,.55.2.55.6a11.65,11.65,0,0,1-.55,2.35,12.18,12.18,0,0,1-1,2.28.59.59,0,0,1-.52.38q-.6,0-.6-.54a.58.58,0,0,1,.12-.25,12.57,12.57,0,0,0,.93-2.06A17.55,17.55,0,0,0,72.27,74,.43.43,0,0,1,72.74,73.61ZM72,65.55a.56.56,0,0,1,.35.18A11.14,11.14,0,0,1,74,67.18a.72.72,0,0,1,.1.34c0,.36-.19.54-.59.54a.68.68,0,0,1-.34-.11c-.52-.49-1.06-1-1.63-1.43a1.19,1.19,0,0,1-.1-.37C71.39,65.75,71.61,65.55,72,65.55Zm11.13.06q.54,0,.54.6t-.66.54c-.9.07-2.09.13-3.56.17v2.33h4.34a.55.55,0,0,1,0,1.09H79.49v2.72H82.4a.92.92,0,0,1,1,1v3.82a.9.9,0,0,1-1,1H75.74c-.69,0-1-.33-1-1V74.09a.91.91,0,0,1,1-1h2.68V70.34h-4a.55.55,0,0,1,0-1.09h4V67c-1.56.07-2.65.11-3.28.11-.43,0-.65-.2-.65-.6S74.67,66,75,66c1.42,0,2.74,0,4-.09C80.47,65.84,81.87,65.74,83.17,65.61ZM81.8,77.85a.48.48,0,0,0,.54-.54V74.69a.48.48,0,0,0-.54-.54H76.33a.47.47,0,0,0-.53.54v2.62a.47.47,0,0,0,.53.54Z"/><path class="cls-1" d="M94.71,65.55a.64.64,0,0,1,.39.14.52.52,0,0,1,.21.4,1.1,1.1,0,0,1-.06.31c-.2.81-.42,1.55-.65,2.22V78.84a.55.55,0,1,1-1.09,0V71a13.56,13.56,0,0,1-1.08,1.69A.77.77,0,0,1,92,73c-.4,0-.59-.18-.59-.54a.47.47,0,0,1,.1-.3,14.53,14.53,0,0,0,1.55-2.65,16.67,16.67,0,0,0,1.19-3.54A.43.43,0,0,1,94.71,65.55Zm2.39.38h6.32c.7,0,1,.31,1,.94v2.82c0,.67-.35,1-1,1h-2.51v1.55h3.82a.47.47,0,0,1,.53.54.46.46,0,0,1-.53.52h-3.54a21.55,21.55,0,0,0,1.7,1.88,18.45,18.45,0,0,0,2.43,2.13.86.86,0,0,1,.18.6.68.68,0,0,1-.61.52.85.85,0,0,1-.48-.18,17.38,17.38,0,0,1-1.65-1.61,20.7,20.7,0,0,1-1.85-2.27v4.47c0,.37-.2.56-.59.56a.49.49,0,0,1-.54-.56V74.39a23.75,23.75,0,0,1-3.38,3.8,1.07,1.07,0,0,1-.55.31c-.48,0-.72-.2-.72-.59a.62.62,0,0,1,.18-.38,24.52,24.52,0,0,0,2.82-2.65,14.27,14.27,0,0,0,1.2-1.58h-3.6c-.36,0-.54-.17-.54-.52a.48.48,0,0,1,.54-.54h4V70.69H97.1a.89.89,0,0,1-1-1V66.87C96.07,66.24,96.41,65.93,97.1,65.93Zm5.84,3.75c.28,0,.42-.16.42-.47V67.35a.37.37,0,0,0-.42-.41H97.56c-.23,0-.34.14-.34.41v1.86c0,.31.11.47.34.47Z"/><path class="cls-1" d="M114.58,65.93h1.66c.51,0,.77.24.77.71a2,2,0,0,1-.1.54l-.85,2.72a2,2,0,0,0,0,.44,1.22,1.22,0,0,0,.12.5,9.53,9.53,0,0,1,.69,1.73A6.59,6.59,0,0,1,117,73.9a3,3,0,0,1-.43,1.65,1.64,1.64,0,0,1-1.47.79,3.47,3.47,0,0,1-.78-.1v2.54c0,.37-.18.56-.53.56a.49.49,0,0,1-.54-.56V66.87c0-.63.34-.94,1-.94Zm-.31,9.2a3.18,3.18,0,0,0,.66.15.76.76,0,0,0,.7-.43,1.89,1.89,0,0,0,.26-1,4.43,4.43,0,0,0-.11-1A8.43,8.43,0,0,0,115,71a1.19,1.19,0,0,1-.1-.49A2.23,2.23,0,0,1,115,70l.84-2.86c0-.13-.08-.19-.25-.19h-1a.27.27,0,0,0-.31.31Zm5.32-.1a.55.55,0,0,1,.31.1.37.37,0,0,1,.15.33,1,1,0,0,1-.06.29,2,2,0,0,1-.1.32l0,.05a10.09,10.09,0,0,1,1.49,1.37.71.71,0,0,1,.08.28q0,.42-.48.42a.79.79,0,0,1-.25,0c-.41-.41-.83-.81-1.27-1.19a2,2,0,0,1-.12.21,6.21,6.21,0,0,1-.85,1.18,4.64,4.64,0,0,1-1,.82.59.59,0,0,1-.34.12.5.5,0,0,1-.39-.2.6.6,0,0,1-.15-.4.5.5,0,0,1,.16-.37,4.38,4.38,0,0,0,.91-.72,7.79,7.79,0,0,0,.81-1,5.71,5.71,0,0,0,.56-1.24A.45.45,0,0,1,119.59,75Zm2.49-9.64a1.61,1.61,0,0,1,.88.37,10.08,10.08,0,0,0,1.5.9,16.57,16.57,0,0,0,2.16.68.53.53,0,0,1,.29.43.61.61,0,0,1-.6.66,1.7,1.7,0,0,1-.28,0,17,17,0,0,1-2-.72,11.18,11.18,0,0,1-1.72-1,.45.45,0,0,0-.28-.12.36.36,0,0,0-.2.06,9.78,9.78,0,0,1-2,1.25,14.36,14.36,0,0,1-2,.73.76.76,0,0,1-.27,0A.56.56,0,0,1,117,68a.65.65,0,0,1,.31-.48,16.53,16.53,0,0,0,2.32-.77,8.13,8.13,0,0,0,1.81-1.12A1,1,0,0,1,122.08,65.39Zm-3.68,5.07h2.19c.6,0,.91.27.91.81v2.56a.8.8,0,0,1-.91.9H118.4a.8.8,0,0,1-.91-.9V71.27C117.49,70.73,117.79,70.46,118.4,70.46Zm6.91-1.91c.31,0,.46.16.46.48s-.15.53-.46.53h-6.26c-.31,0-.47-.17-.47-.53a.42.42,0,0,1,.47-.48ZM120,73.72c.29,0,.43-.16.43-.47V71.88c0-.27-.14-.41-.43-.41h-1a.37.37,0,0,0-.41.41v1.37c0,.31.14.47.41.47ZM124.06,75a.55.55,0,0,1,.31.1.37.37,0,0,1,.15.33,1,1,0,0,1-.06.29c-.06.22-.12.43-.19.62a8.37,8.37,0,0,0,1,1.07,7.47,7.47,0,0,0,1,.75.45.45,0,0,1,.24.43c0,.34-.18.52-.46.54a1.19,1.19,0,0,1-.44-.14,4.66,4.66,0,0,1-.86-.64,10,10,0,0,1-1-1,6.19,6.19,0,0,1-.7,1,5.15,5.15,0,0,1-.9.84.65.65,0,0,1-.37.12.49.49,0,0,1-.37-.18.64.64,0,0,1-.17-.42.48.48,0,0,1,.2-.37,4.8,4.8,0,0,0,.82-.73,7.7,7.7,0,0,0,.74-1,6.57,6.57,0,0,0,.52-1.27A.45.45,0,0,1,124.06,75Zm-.79-4.57h2.34c.59,0,.88.27.88.81v2.56a.79.79,0,0,1-.88.9h-2.34a.79.79,0,0,1-.88-.9V71.27C122.39,70.73,122.68,70.46,123.27,70.46ZM125,73.72c.29,0,.43-.16.43-.47V71.88c0-.27-.14-.41-.43-.41h-1.13a.37.37,0,0,0-.41.41v1.37c0,.31.14.47.41.47Z"/><path class="cls-1" d="M139.39,66.05c.32,0,.49.15.49.47s-.17.46-.49.46H139V79A.54.54,0,1,1,138,79v-1.5a13.77,13.77,0,0,1-1.42.43,16.61,16.61,0,0,1-2.05.42c-.3,0-.45-.22-.46-.6a.48.48,0,0,1,.4-.53l.71-.09V67h-.34c-.33,0-.49-.15-.49-.46s.16-.47.49-.47Zm-3.16,3.44H138V67h-1.74Zm0,3.47H138V70.4h-1.74Zm0,3.93A14,14,0,0,0,138,76.4V73.84h-1.74Zm5-2.56c.36,0,.53.14.53.42a1.55,1.55,0,0,1-.06.4,28.29,28.29,0,0,1-.65,3.47.52.52,0,0,1-.48.28c-.37,0-.55-.15-.55-.47a.59.59,0,0,1,.12-.35,24.9,24.9,0,0,0,.6-3.39A.45.45,0,0,1,141.19,74.33Zm2.6-9.06a.65.65,0,0,1,.43.17.57.57,0,0,1,.18.43.52.52,0,0,1-.12.34,1.82,1.82,0,0,1-.07.25h2.64c.59,0,.88.28.88.84v5.41a.77.77,0,0,1-.88.85h-5.67a.75.75,0,0,1-.84-.85V67.3a.74.74,0,0,1,.84-.84H143a.31.31,0,0,0,.06-.13c.09-.27.17-.55.25-.84A.61.61,0,0,1,143.79,65.27Zm2.55,7.32c.25,0,.38-.12.38-.35V67.77a.34.34,0,0,0-.38-.37h-4.68c-.2,0-.31.13-.31.37v4.47c0,.23.11.35.31.35Zm-1.65-5a.37.37,0,0,1,.42.42.51.51,0,0,1-.17.37,6.65,6.65,0,0,1-.8.79l0,0c.2.2.4.41.59.64.34-.3.65-.61.94-.92a.73.73,0,0,1,.3-.14.37.37,0,0,1,.42.42.51.51,0,0,1-.17.37,7.55,7.55,0,0,1-.92,1,10.78,10.78,0,0,1,.67,1,.58.58,0,0,1,.13.28.38.38,0,0,1-.43.43.73.73,0,0,1-.41-.12l-.7-.92a11.93,11.93,0,0,1-1.6,1,.94.94,0,0,1-.33.12c-.32,0-.47-.18-.47-.55a.4.4,0,0,1,.25-.36,10,10,0,0,0,1.56-1c-.17-.22-.34-.41-.49-.57l-.13-.12c-.34.23-.71.45-1.1.67a.81.81,0,0,1-.27.09c-.27,0-.4-.18-.4-.54a.3.3,0,0,1,.23-.28c.33-.19.64-.38.93-.58-.2-.21-.41-.41-.64-.61a.52.52,0,0,1-.18-.37c0-.27.14-.41.43-.41a1.28,1.28,0,0,1,.34.06c.29.26.56.52.81.76a9.91,9.91,0,0,0,.88-.82A.58.58,0,0,1,144.69,67.64Zm-2.18,6.69a.47.47,0,0,1,.53.54v2.62a1.23,1.23,0,0,0,.11.67,1.05,1.05,0,0,0,.65.15,11.71,11.71,0,0,0,1.26,0,.47.47,0,0,0,.3-.12c.08-.06.12-.27.12-.65a.44.44,0,0,1,.46-.49c.34,0,.52.24.54.65a3.55,3.55,0,0,1-.08.73.9.9,0,0,1-.47.7,4.54,4.54,0,0,1-1.76.2,3.46,3.46,0,0,1-1.72-.27,1.73,1.73,0,0,1-.43-1.36V74.87C142,74.51,142.18,74.33,142.51,74.33Zm1.66-.18a.5.5,0,0,1,.46.28,8.47,8.47,0,0,1,.6,1.85,3,3,0,0,1,.06.37c0,.31-.18.47-.53.47a.44.44,0,0,1-.47-.47,11.21,11.21,0,0,0-.55-1.92l-.05-.18C143.69,74.29,143.85,74.15,144.17,74.15Zm2.62.22a.49.49,0,0,1,.46.32,17,17,0,0,1,.87,3.13,2.83,2.83,0,0,1,.1.61c0,.32-.18.47-.55.47a.43.43,0,0,1-.48-.47,18.66,18.66,0,0,0-.8-3.34l-.08-.28C146.31,74.52,146.47,74.37,146.79,74.37Z"/><path class="cls-1" d="M157,66.4h2.74c.68,0,1,.32,1,.94v8.33a.9.9,0,0,1-1,1H157a.89.89,0,0,1-1-1V67.34C156,66.72,156.32,66.4,157,66.4Zm.06,4.4h2.62v-3c0-.25-.11-.37-.34-.37h-1.91a.33.33,0,0,0-.37.37Zm2.28,4.89c.23,0,.34-.14.34-.42V71.81h-2.62v3.46c0,.28.13.42.37.42Zm3.74-1.32q-.09.64-.21,1.23a18.06,18.06,0,0,1-.86,3.18.65.65,0,0,1-.7.5q-.6,0-.6-.54a2.21,2.21,0,0,1,.1-.33,16.91,16.91,0,0,0,.91-3.14,18.19,18.19,0,0,0,.41-4V66.75a.84.84,0,0,1,1-.94h5.07a.83.83,0,0,1,.94.94V78.19c0,.59-.53.89-1.6.89a6.38,6.38,0,0,1-2-.3.54.54,0,0,1-.42-.59q0-.6.48-.6l1.77.32c.4,0,.6-.11.6-.32V74.37Zm.18-3.93v.82c0,.74,0,1.44-.08,2.1H168V70.44Zm4.71-1V67.35c0-.35-.12-.53-.35-.53h-4.12c-.16,0-.24.18-.24.53v2.08Z"/><path class="cls-1" d="M177.64,72.42h1.55a.68.68,0,0,1,.78.76V76a1.53,1.53,0,0,0,.76,1.29,4.59,4.59,0,0,0,2.54.62h7.12c.37,0,.55.17.55.52s-.18.53-.55.53h-6.65a7.7,7.7,0,0,1-2.25-.31,4.91,4.91,0,0,1-1.68-.92l-.21-.14s-.1,0-.16.15a4.65,4.65,0,0,1-1.19,1.16,1.11,1.11,0,0,1-.5.26.54.54,0,0,1-.59-.54.47.47,0,0,1,.37-.48,3.39,3.39,0,0,0,1-.76,2,2,0,0,0,.35-1.38V73.72c0-.15-.08-.22-.23-.22h-1a.54.54,0,0,1,0-1.08Zm.11-3.87a.86.86,0,0,1,.38.1,18.06,18.06,0,0,1,1.41,1.25.65.65,0,0,1,.24.5.41.41,0,0,1-.46.47.65.65,0,0,1-.43-.13,13.91,13.91,0,0,0-1.36-1.25c-.25-.14-.37-.28-.37-.4C177.16,68.73,177.36,68.55,177.75,68.55Zm.72-2.88a.84.84,0,0,1,.42.14,13,13,0,0,1,1.2,1.11.68.68,0,0,1,.23.48c0,.33-.16.49-.46.49a.66.66,0,0,1-.42-.12c-.36-.39-.76-.79-1.19-1.19-.2-.15-.3-.29-.3-.43C178,65.83,178.12,65.67,178.47,65.67ZM181,69.25V66.64c0-.51.29-.77.85-.77h2.68c.44,0,.66.2.66.59v1.66c0,.39-.22.59-.66.59H182v.43c0,.31.05.51.15.59a1.6,1.6,0,0,0,.79.13c.62,0,1.05,0,1.31,0a.49.49,0,0,0,.31-.09c.07,0,.11-.2.11-.48a.46.46,0,0,1,.49-.48q.45,0,.48.6a2,2,0,0,1-.09.59.74.74,0,0,1-.48.57,2.47,2.47,0,0,1-.74.12v1.16h2.6V70.65a1.48,1.48,0,0,1-.48-.13,1.36,1.36,0,0,1-.47-1.21V66.7c0-.56.3-.83.91-.83h2.62c.44,0,.66.2.66.59v1.66c0,.39-.22.59-.66.59H187v.49c0,.31.06.51.18.59a2.5,2.5,0,0,0,.94.11c.61,0,1,0,1.29,0a.47.47,0,0,0,.33-.11c.07-.06.1-.25.1-.57a.48.48,0,0,1,.5-.49c.29,0,.45.22.47.6a2.73,2.73,0,0,1-.07.64.85.85,0,0,1-.49.63,6.25,6.25,0,0,1-1.82.16H188v1.07h1.9a.43.43,0,0,1,.48.49.42.42,0,0,1-.48.48H188V74h2.34a.42.42,0,0,1,.47.47c0,.36-.16.55-.47.55h-9.12c-.32,0-.48-.19-.48-.55a.42.42,0,0,1,.48-.47h2.14V72.78h-1.74a.42.42,0,0,1-.48-.48.43.43,0,0,1,.48-.49h1.74V70.68h-.06a4.61,4.61,0,0,1-1.79-.22A1.46,1.46,0,0,1,181,69.25Zm3,6c.37,0,.55.18.55.53a.55.55,0,0,1-.23.44,10.34,10.34,0,0,1-2.4,1,.81.81,0,0,1-.24.06c-.35,0-.52-.18-.52-.54a.47.47,0,0,1,.24-.43,10.27,10.27,0,0,0,2.32-.94A.58.58,0,0,1,184,75.27Zm-2-7.38h2c.19,0,.28-.12.28-.37v-.46c0-.24-.09-.36-.28-.36h-1.69c-.18,0-.28.12-.28.36ZM184.33,74h2.6V72.78h-2.6ZM187,67.89h2c.19,0,.29-.12.29-.37v-.46c0-.24-.1-.36-.29-.36h-1.68c-.19,0-.28.12-.28.36Zm.65,7.38a.44.44,0,0,1,.29.13,11.4,11.4,0,0,0,2.44,1.19c.25.09.37.23.37.41a.52.52,0,0,1-.59.59,6.4,6.4,0,0,1-1.46-.61,10.06,10.06,0,0,1-1.3-.8.78.78,0,0,1-.22-.43A.42.42,0,0,1,187.6,75.27Z"/></g></svg>