<svg id="Platinum" xmlns="http://www.w3.org/2000/svg" viewBox="0 0 240 80"><defs><style>.cls-1{fill:#333f47;}</style></defs><title>shopline</title><g id="Shopline"><path id="logotype" class="cls-1" d="M2.48,53.07l4.16-6a15.47,15.47,0,0,0,11.3,5c4.21,0,6.18-1.91,6.18-4,0-6.32-20.47-1.91-20.47-15.57,0-6,5.12-11.05,13.48-11.05,5.65,0,10.34,1.74,13.86,5.06l-4.21,5.77a15.08,15.08,0,0,0-10.34-4c-3.2,0-5,1.42-5,3.59,0,5.72,20.41,1.85,20.41,15.41,0,6.64-4.69,11.65-14.23,11.65C10.75,58.85,5.84,56.5,2.48,53.07Zm58.26,5.12V42.89H44v15.3H36.38V21.87H44V36.14H60.74V21.87h7.62V58.19Zm53.57,0V21.87h16.63c7.73,0,11.94,5.34,11.94,11.71s-4.26,11.65-11.94,11.65h-9.06v13Zm20.84-24.61c0-3-2.29-4.9-5.28-4.9h-8v9.75h8C132.86,38.43,135.15,36.57,135.15,33.58Zm12.1,24.61V21.87h3.09V55.36h17.22v2.83Zm23.88,0V21.87h3V58.19Zm34.64,0L183.38,27v31.2h-3V21.87h3.09l22.28,30.77V21.87h3V58.19Zm9.17,0V21.87h22.55V24.7H218V38.15h19.13V41H218V55.36h19.51v2.83Z"/><g id="ellipse"><path class="cls-1" d="M91.72,22a17.93,17.93,0,1,0,17.55,17.93A17.74,17.74,0,0,0,91.72,22ZM88.08,55.1c-.57-2.35-2.28-9.33-2.28-9.33l8.08,9.85S90.29,56.11,88.08,55.1Zm6.59.26C91.66,51.73,85.18,44,85.18,44l15,8.71S98.89,54.39,94.66,55.36Zm6-3L85.2,43.09l-2.61-9.44a3.87,3.87,0,0,1,0-1.26c.07-.24.88-.51.88-.51l9.49-2.7s8.38,4.3,14.13,7.43C108.45,42.91,104.23,50,100.69,52.4ZM89.85,34.23a2.06,2.06,0,1,0,2,2.06A2,2,0,0,0,89.85,34.23Z"/></g></g></svg>