<?xml version="1.0" encoding="utf-8"?>
<!-- Generator: Adobe Illustrator 21.1.0, SVG Export Plug-In . SVG Version: 6.00 Build 0)  -->
<svg version="1.1" id="圖層_1" xmlns="http://www.w3.org/2000/svg" xmlns:xlink="http://www.w3.org/1999/xlink" x="0px" y="0px"
	 viewBox="0 0 173.2 27.5" style="enable-background:new 0 0 173.2 27.5;" xml:space="preserve">
<style type="text/css">
	.st0{fill:#1B2026;}
</style>
<title>gold_shopline</title>
<g>
	<path class="st0" d="M3,19c2.1,2.3,5.2,3.6,8.3,3.6c3,0,4.5-1.5,4.5-3c0-2-2.3-2.7-5.3-3.4C6.2,15.2,0.8,14,0.8,8
		c0-4.4,3.8-8,9.9-8c3.7-0.1,7.4,1.2,10.2,3.7l-3.1,4.1c-2-1.9-4.7-2.9-7.5-2.9C7.8,4.9,6.5,6,6.5,7.6c0,1.8,2.2,2.4,5.2,3.1
		c4.3,1,9.8,2.3,9.8,8.2c0,4.9-3.4,8.6-10.5,8.6c-5,0-8.6-1.7-11-4.2L3,19z"/>
	<path class="st0" d="M42.7,15.8H30.4V27h-5.6V0.4h5.6v10.5h12.3V0.4h5.6V27h-5.6V15.8z"/>
	<path class="st0" d="M82,0.4h12.2c5.7,0,8.8,3.9,8.8,8.6s-3.1,8.5-8.8,8.5h-6.7V27H82L82,0.4z M93.4,5.2h-5.9v7.4h5.9
		c2,0,3.7-1.6,3.7-3.7S95.5,5.2,93.4,5.2z"/>
	<path class="st0" d="M106.7,0.4h2.2V25h12.7V27h-14.9V0.4z"/>
	<path class="st0" d="M124.5,0.4h2.2V27h-2.2V0.4z"/>
	<path class="st0" d="M133.5,4v23h-2.2V0.4h2.3l16.4,22.7V0.4h2.2V27h-2.2L133.5,4z"/>
	<path class="st0" d="M156.7,0.4h16.6v2.1h-14.3v9.9h14.1v2.1h-14.1V25h14.3V27h-16.6V0.4z"/>
	<g id="Ellipse_3">
		<path class="st0" d="M65.5,0.4C58.2,0.3,52.2,6.1,52,13.3s5.6,13.3,12.9,13.5c7.3,0.2,13.3-5.6,13.5-12.9c0-0.1,0-0.2,0-0.3
			C78.5,6.4,72.7,0.5,65.5,0.4C65.5,0.5,65.5,0.4,65.5,0.4z M62.8,24.7c-0.4-1.7-1.7-6.8-1.7-6.8l5.9,7.2
			C65.6,25.3,64.2,25.2,62.8,24.7z M67.6,24.9c-2.2-2.7-7-8.3-7-8.3l11,6.4C71.6,23,70.8,24.3,67.6,24.9L67.6,24.9z M72.1,22.7
			L60.7,16L58.8,9c-0.1-0.3-0.1-0.6,0-0.9c0.1-0.2,0.7-0.4,0.7-0.4l7-2c0,0,6.2,3.2,10.4,5.5C77.8,15.8,74.7,21,72.1,22.7z
			 M64.1,9.4c-0.8,0-1.5,0.7-1.5,1.5c0,0.8,0.7,1.5,1.5,1.5c0.8,0,1.5-0.7,1.5-1.5C65.6,10.1,64.9,9.5,64.1,9.4L64.1,9.4z"/>
	</g>
</g>
</svg>
