<svg id="Platinum" xmlns="http://www.w3.org/2000/svg" viewBox="0 0 240 80"><defs><style>.cls-1{fill:#333f48;}</style></defs><title>shopline</title><g id="SHOPLINE"><g id="logotype"><path class="cls-1" d="M2.5,53l4.16-6a15.47,15.47,0,0,0,11.3,5c4.21,0,6.18-1.91,6.18-4,0-6.32-20.47-1.91-20.47-15.57,0-6,5.12-11.05,13.48-11.05C22.81,21.24,27.5,23,31,26.3L26.8,32.08a15.08,15.08,0,0,0-10.34-4c-3.2,0-5,1.42-5,3.59,0,5.72,20.41,1.85,20.41,15.41,0,6.64-4.69,11.65-14.23,11.65C10.76,58.76,5.86,56.42,2.5,53Z"/><path class="cls-1" d="M60.76,58.11V42.8H44v15.3H36.4V21.79H44V36.05H60.76V21.79h7.62V58.11Z"/><path class="cls-1" d="M114.32,58.11V21.79H131c7.73,0,11.94,5.34,11.94,11.71S138.63,45.15,131,45.15h-9.06v13Zm20.84-24.61c0-3-2.29-4.9-5.28-4.9h-8v9.75h8C132.87,38.34,135.16,36.49,135.16,33.49Z"/><path class="cls-1" d="M147.26,58.11V21.79h3.09V55.27h17.22v2.83Z"/><path class="cls-1" d="M171.14,58.11V21.79h3V58.11Z"/><path class="cls-1" d="M205.79,58.11,183.4,26.9v31.2h-3V21.79h3.09l22.28,30.77V21.79h3V58.11Z"/><path class="cls-1" d="M215,58.11V21.79H237.5v2.83H218V38.07h19.13V40.9H218V55.27H237.5v2.83Z"/></g><g id="logo"><path class="cls-1" d="M91.73,21.9a17.93,17.93,0,1,0,17.55,17.93A17.74,17.74,0,0,0,91.73,21.9ZM88.09,55c-.57-2.35-2.28-9.33-2.28-9.33l8.08,9.85S90.3,56,88.09,55Zm6.59.26c-3-3.63-9.48-11.35-9.48-11.35l15,8.71S98.9,54.3,94.68,55.28Zm6-3L85.21,43,82.6,33.57a3.87,3.87,0,0,1,0-1.26c.07-.24.88-.51.88-.51l9.49-2.7s8.38,4.3,14.13,7.43C108.47,42.82,104.25,49.94,100.71,52.31ZM89.86,34.14a2.06,2.06,0,1,0,2,2.06A2,2,0,0,0,89.86,34.14Z"/></g></g></svg>