<?xml version="1.0" encoding="utf-8"?>
<!-- Generator: Adobe Illustrator 21.1.0, SVG Export Plug-In . SVG Version: 6.00 Build 0)  -->
<svg version="1.1" id="圖層_1" xmlns="http://www.w3.org/2000/svg" xmlns:xlink="http://www.w3.org/1999/xlink" x="0px" y="0px"
	 viewBox="0 0 240.2 53.7" style="enable-background:new 0 0 240.2 53.7;" xml:space="preserve">
<style type="text/css">
	.st0{fill:#E41635;}
	.st1{fill:#FFFFFF;}
	.st2{fill:#00264B;}
	.st3{enable-background:new    ;}
	.st4{fill:#65667E;}
</style>
<title>ruby_ shopmatic</title>
<g>
	<circle class="st0" cx="24.4" cy="29.4" r="24.4"/>
	<path class="st1" d="M33,20.9v0.2l0,0V20.9c-1.5,0.1-3,0.6-4.2,1.4c-1.5,1.2-2.8,2.5-3.9,4.1c-0.1,0.1-1,1.3-2,2.7
		s-2.1,2.7-2.5,3.2c-0.6,0.8-1.3,1.5-2.1,2.2c-0.7,0.4-1.4,0.7-2.2,0.8l0,0c-3-0.1-5.4-2.5-5.4-5.5c0-1.5,0.5-2.9,1.6-3.9
		c1-1,2.4-1.6,3.8-1.6l0,0c0.7,0.1,1.4,0.4,2,0.8c1.1,0.8,2.1,1.8,3,2.9l0.2,0.2l2.1-2.8l-0.1-0.1c-0.2-0.2,0-0.1-0.2-0.2
		c-0.8-1-1.7-1.9-2.8-2.7C19,21.5,17.5,21,16,20.9c-4.9,0-8.8,3.9-8.8,8.8s3.9,8.8,8.8,8.8l0,0c1.5-0.1,3-0.5,4.2-1.4
		c1.5-1.2,2.8-2.5,3.9-4.1c0.1-0.1,1-1.3,2-2.7s2.1-2.7,2.5-3.2c0.7-0.8,1.5-1.5,2.4-2.1c0.6-0.4,1.2-0.7,1.9-0.8l0,0
		c3,0,5.4,2.5,5.4,5.4c0,1.5-0.6,2.9-1.6,3.9c-1,1-2.4,1.6-3.8,1.7l0,0c-0.8-0.1-1.6-0.4-2.3-0.9c-1.1-0.9-2-1.9-2.8-3l-0.2-0.2
		L25.6,34l0.1,0.1c0.1,0.2,0.1,0.1,0.3,0.3c0.8,1,1.7,1.9,2.8,2.7c1.2,0.8,2.7,1.3,4.2,1.4c4.9,0,8.8-3.9,8.8-8.8
		C41.6,24.9,37.8,21.1,33,20.9z"/>
	<path class="st2" d="M69,41.2c-1.8,0-3.7-0.3-5.4-0.9c-1.8-0.6-3.4-1.6-4.8-2.9l3.1-3.8c1,0.9,2.2,1.6,3.4,2.1
		c1.2,0.5,2.5,0.8,3.8,0.8c0.9,0.1,1.8-0.2,2.6-0.6c0.6-0.4,0.9-1,0.9-1.7v-0.1c0-0.3-0.1-0.6-0.2-0.9c-0.2-0.3-0.4-0.6-0.7-0.7
		c-0.4-0.3-0.9-0.5-1.4-0.7c-0.8-0.3-1.6-0.5-2.5-0.7c-1.1-0.3-2.2-0.6-3.3-1c-0.9-0.3-1.8-0.8-2.5-1.4c-0.7-0.5-1.2-1.2-1.6-2
		c-0.4-0.9-0.6-2-0.6-3v-0.1c0-1,0.2-2.1,0.6-3c0.4-0.9,1-1.7,1.7-2.3c0.8-0.7,1.7-1.2,2.7-1.5c1.1-0.4,2.2-0.5,3.4-0.5
		c1.7,0,3.3,0.2,4.9,0.8c1.5,0.5,2.9,1.3,4.1,2.3l-2.8,4c-1-0.7-2-1.3-3.2-1.7c-1-0.4-2-0.6-3.1-0.6c-0.8-0.1-1.6,0.2-2.3,0.6
		c-0.5,0.3-0.8,0.9-0.8,1.5v0.1c0,0.3,0.1,0.7,0.2,1c0.2,0.3,0.5,0.6,0.8,0.8c0.5,0.3,1,0.5,1.6,0.7c0.7,0.2,1.5,0.4,2.6,0.7
		c1.1,0.3,2.2,0.6,3.3,1.1c0.9,0.3,1.7,0.8,2.4,1.4c0.6,0.5,1.1,1.2,1.5,2c0.4,0.9,0.5,1.8,0.5,2.7v0.1c0,1.1-0.2,2.2-0.7,3.2
		c-0.4,0.9-1,1.7-1.8,2.3c-0.8,0.7-1.8,1.2-2.8,1.4C71.4,41.1,70.2,41.2,69,41.2z"/>
	<path class="st2" d="M79.1,15.8h5.2v9.3c0.3-0.4,0.6-0.8,1-1.1c0.4-0.4,0.8-0.7,1.2-1c0.4-0.3,0.9-0.5,1.4-0.7
		c0.6-0.2,1.2-0.2,1.8-0.2c1.7-0.1,3.4,0.6,4.6,1.8c1.2,1.4,1.7,3.2,1.6,5v12h-5.2V30.6c0.1-1-0.2-2-0.8-2.8c-0.6-0.6-1.5-1-2.3-0.9
		c-0.9,0-1.8,0.3-2.4,0.9c-0.6,0.8-1,1.8-0.9,2.8v10.3h-5.2V15.8z"/>
	<path class="st2" d="M107.5,41.3c-1.4,0-2.7-0.2-4-0.7c-1.2-0.5-2.2-1.1-3.1-2c-0.9-0.9-1.6-1.9-2.1-3c-0.5-1.2-0.8-2.4-0.8-3.7
		v-0.1c0-1.3,0.2-2.6,0.8-3.7c0.5-1.1,1.2-2.1,2.1-3c0.9-0.9,2-1.6,3.2-2.1c2.6-1,5.4-1,8,0c1.2,0.5,2.2,1.1,3.1,2
		c0.9,0.9,1.6,1.9,2.1,3c0.5,1.2,0.8,2.4,0.8,3.7v0.1c0,1.3-0.2,2.6-0.8,3.7c-0.5,1.1-1.2,2.1-2.1,3c-0.9,0.9-2,1.6-3.2,2.1
		C110.2,41,108.9,41.3,107.5,41.3z M107.6,36.8c0.7,0,1.4-0.1,2-0.4c0.6-0.3,1.1-0.6,1.5-1.1c0.4-0.5,0.7-1,0.9-1.6
		c0.2-0.6,0.3-1.3,0.3-1.9v-0.1c0-0.7-0.1-1.3-0.4-1.9c-0.2-0.6-0.6-1.2-1-1.6c-0.4-0.5-1-0.9-1.6-1.1c-0.6-0.3-1.3-0.4-2-0.4
		c-0.7,0-1.4,0.1-2,0.4c-0.6,0.3-1.1,0.6-1.5,1.1c-0.4,0.5-0.7,1-0.9,1.6c-0.2,0.6-0.3,1.3-0.3,1.9v0.1c0,0.7,0.1,1.3,0.3,1.9
		c0.2,0.6,0.6,1.1,1,1.6c0.4,0.5,1,0.9,1.5,1.1C106.2,36.6,106.9,36.8,107.6,36.8L107.6,36.8z"/>
	<path class="st2" d="M119.2,22.4h5.2v2.6c0.6-0.9,1.4-1.6,2.3-2.2c1-0.6,2.2-0.9,3.4-0.8c1.1,0,2.1,0.2,3.1,0.6
		c1,0.4,1.9,1,2.7,1.8c0.8,0.9,1.5,1.9,1.9,3c0.5,1.3,0.7,2.7,0.7,4.1v0.1c0,1.4-0.2,2.8-0.7,4.1c-0.4,1.1-1.1,2.1-1.9,3
		c-0.7,0.8-1.7,1.4-2.7,1.8c-1,0.4-2.1,0.6-3.2,0.6c-1.2,0-2.4-0.2-3.5-0.8c-0.9-0.5-1.6-1.2-2.3-1.9v7.9h-5.2V22.4z M128.8,36.8
		c0.6,0,1.2-0.1,1.7-0.4c0.5-0.2,1-0.6,1.4-1c0.4-0.5,0.8-1,1-1.6c0.2-0.7,0.4-1.4,0.4-2.1v-0.1c0-0.7-0.1-1.4-0.4-2.1
		c-0.2-0.6-0.6-1.1-1-1.6c-0.4-0.4-0.9-0.8-1.4-1c-1.1-0.5-2.4-0.5-3.5,0c-0.5,0.2-1,0.6-1.4,1c-0.4,0.5-0.8,1-1,1.6
		c-0.2,0.7-0.4,1.4-0.4,2.1v0.1c0,0.7,0.1,1.4,0.4,2.1c0.2,0.6,0.6,1.1,1,1.6c0.4,0.4,0.9,0.8,1.4,1
		C127.7,36.7,128.3,36.8,128.8,36.8L128.8,36.8z"/>
	<path class="st2" d="M140.4,22.4h5.2v2.6c0.3-0.4,0.6-0.8,1-1.1c0.4-0.4,0.7-0.7,1.2-1c0.5-0.3,0.9-0.5,1.5-0.7
		c0.6-0.2,1.2-0.2,1.8-0.2c1.1,0,2.2,0.3,3.1,0.8c0.9,0.5,1.6,1.3,2,2.2c0.7-0.9,1.6-1.7,2.7-2.2c1.1-0.5,2.2-0.8,3.4-0.8
		c1.7-0.1,3.4,0.5,4.6,1.7c1.2,1.4,1.8,3.2,1.7,5v12h-5.2V30.6c0.1-1-0.2-2-0.8-2.8c-0.6-0.7-1.4-1-2.3-0.9c-0.9,0-1.7,0.3-2.3,0.9
		c-0.6,0.8-0.9,1.8-0.8,2.8v10.2h-5.2V30.6c0.1-1-0.2-2-0.8-2.8c-0.6-0.7-1.4-1-2.3-0.9c-0.9,0-1.7,0.3-2.3,0.9
		c-0.6,0.8-0.9,1.8-0.8,2.8v10.3h-5.2L140.4,22.4z"/>
	<path class="st2" d="M176.2,41.2c-0.8,0-1.7-0.1-2.5-0.4c-0.7-0.2-1.4-0.6-2-1.1c-0.6-0.5-1-1.1-1.4-1.8c-0.3-0.8-0.5-1.6-0.5-2.4
		v-0.1c0-0.9,0.2-1.8,0.6-2.6c0.4-0.7,0.9-1.4,1.5-1.8c0.7-0.5,1.5-0.9,2.3-1.1c1-0.2,2-0.4,3-0.4c0.8,0,1.6,0.1,2.5,0.2
		c0.7,0.1,1.3,0.3,2,0.6v-0.3c0.1-0.9-0.3-1.9-1-2.5c-0.9-0.6-1.9-1-3-0.9c-0.9,0-1.8,0.1-2.7,0.3c-0.8,0.2-1.6,0.4-2.4,0.7l-1.3-4
		c1-0.4,2.1-0.8,3.2-1.1c1.3-0.3,2.7-0.4,4-0.4c1.3,0,2.5,0.1,3.7,0.5c0.9,0.3,1.8,0.8,2.5,1.5c0.7,0.7,1.2,1.6,1.5,2.5
		c0.3,1.1,0.5,2.2,0.5,3.3v10.7h-5.1v-2c-0.6,0.7-1.4,1.3-2.3,1.7C178.4,41,177.3,41.2,176.2,41.2z M177.8,37.6
		c1.1,0.1,2.1-0.3,3-0.9c0.7-0.6,1.1-1.4,1.1-2.3v-0.9c-0.5-0.2-1-0.4-1.5-0.5c-0.6-0.1-1.2-0.2-1.8-0.2c-0.9-0.1-1.9,0.2-2.6,0.7
		c-0.6,0.4-1,1.1-1,1.9v0.1c0,0.6,0.3,1.3,0.8,1.7C176.3,37.4,177.1,37.6,177.8,37.6L177.8,37.6z"/>
	<path class="st2" d="M195.5,41.2c-0.7,0-1.5-0.1-2.2-0.3c-0.6-0.2-1.2-0.5-1.7-0.9c-0.5-0.5-0.9-1.1-1.1-1.7
		c-0.3-0.9-0.4-1.8-0.4-2.7v-8.8H188v-4.4h2.2v-4.7h5.2v4.7h4.3v4.4h-4.3v7.9c0,1.2,0.6,1.8,1.7,1.8c0.9,0,1.8-0.2,2.6-0.7v4.2
		c-0.6,0.3-1.2,0.6-1.8,0.8C197.1,41.1,196.3,41.2,195.5,41.2z"/>
	<path class="st2" d="M201.6,15.8h5.5v4.6h-5.5V15.8z M201.8,22.4h5.2v18.4h-5.2V22.4z"/>
	<path class="st2" d="M217.9,41.3c-1.3,0-2.6-0.2-3.8-0.8c-3.5-1.5-5.8-5-5.8-8.8v-0.1c0-2.5,1-5,2.7-6.8c0.9-0.9,1.9-1.6,3-2.1
		c1.2-0.5,2.6-0.8,3.9-0.8c1.5,0,3,0.2,4.3,0.8c1.1,0.6,2.2,1.3,3,2.3l-3.2,3.4c-0.5-0.6-1.2-1.1-1.8-1.5c-0.7-0.4-1.5-0.6-2.4-0.6
		c-0.6,0-1.2,0.1-1.8,0.4c-0.5,0.3-1,0.6-1.4,1.1c-0.4,0.5-0.7,1-0.9,1.6c-0.2,0.6-0.3,1.3-0.3,1.9v0.1c0,0.7,0.1,1.4,0.3,2
		c0.2,0.6,0.5,1.2,0.9,1.6c0.4,0.5,1,0.9,1.6,1.1c0.6,0.3,1.3,0.4,1.9,0.4c0.8,0,1.6-0.2,2.3-0.5c0.7-0.4,1.4-0.9,1.9-1.4l3,3.1
		c-0.9,1-1.9,1.8-3.1,2.4C221,41,219.4,41.3,217.9,41.3z"/>
	<polygon class="st2" points="214.1,7.2 215.2,9.5 217.7,9.9 215.9,11.7 216.3,14.2 214.1,13 211.8,14.2 212.2,11.7 210.4,9.9 
		212.9,9.5 	"/>
	<polygon class="st2" points="189.6,0 191.3,3.3 195,3.9 192.3,6.5 192.9,10.2 189.6,8.4 186.3,10.2 186.9,6.5 184.3,3.9 188,3.3 	
		"/>
	<g class="st3">
		<path class="st4" d="M229.4,22.4v-6.2H227v-0.8h5.6v0.8h-2.3v6.2H229.4z"/>
		<path class="st4" d="M233.5,22.4v-7h1.4l1.7,5c0.2,0.5,0.3,0.8,0.3,1c0.1-0.3,0.2-0.6,0.4-1.1l1.7-4.9h1.2v7h-0.9v-5.9l-2,5.9
			h-0.8l-2-6v6H233.5z"/>
	</g>
</g>
</svg>
