<svg xmlns="http://www.w3.org/2000/svg" viewBox="0 0 160 120"><defs><style>.cls-1{fill:#fff000;}.cls-2{fill:#40210f;}.cls-3,.cls-4{fill:none;stroke:#804f21;stroke-miterlimit:10;}.cls-3{stroke-width:1.42px;}.cls-4{stroke-width:4.26px;}.cls-5{fill:#b4b4b5;}.cls-6{fill:#888;}.cls-7{fill:#437b49;}.cls-8{fill:#c5ba53;}.cls-9{fill:#aaa147;}.cls-10{fill:#f6b875;}.cls-11{fill:#dbdcdc;}.cls-12{fill:#d59d25;}.cls-13{fill:#eeeeef;}.cls-14{fill:#f7b52c;}.cls-15{fill:#58995d;}.cls-16{fill:#a50319;}.cls-17{fill:#940012;}.cls-18{fill:#ecb170;}.cls-19{fill:#311301;}.cls-20{fill:#c30d23;}</style></defs><title>skymizer</title><g id="Silver"><g id="Skymizer"><polygon class="cls-1" points="58.95 110.27 64.13 108.89 66.3 111.26 66.3 115.8 63.83 116.7 58.95 110.27"/><polygon class="cls-1" points="87.42 108.89 87.54 112.73 102.5 113.73 102.5 108.82 87.42 108.89"/><circle class="cls-2" cx="108.71" cy="52.31" r="15.12"/><polyline class="cls-3" points="122.78 46.74 117.3 55.88 108.71 67.43"/><polyline class="cls-3" points="119.19 40.96 113.07 51.45 101.9 64.97"/><polyline class="cls-3" points="112.39 37.64 105.65 48.02 96.94 60.92"/><polyline class="cls-3" points="104.67 38.15 99.36 45.8 93.59 55.15"/><circle class="cls-4" cx="108.71" cy="52.31" r="15.12"/><polygon class="cls-5" points="102.19 47.28 106.47 52.81 114.1 57.03 112.45 58.82 105.37 54.87 100.31 48.68 102.19 47.28"/><polygon class="cls-6" points="110.34 54.95 108.71 56.74 105.12 54.94 107.2 53.21 110.34 54.95"/><polygon class="cls-7" points="59.2 56.63 59.2 52.31 63.81 48.16 65.53 52.31 63.33 56.47 59.2 56.63"/><polygon class="cls-8" points="64.08 58.22 54.55 50.4 50.23 38.7 53.59 36.78 59.59 46.08 63.81 48.16 66.21 53.92 64.08 58.22"/><polygon class="cls-9" points="52.23 37.55 58.35 47.67 63.37 50.57 64.08 54.65 60.57 55.92 54.55 50.4 50.23 38.7 52.23 37.55"/><circle class="cls-8" cx="56.57" cy="49.28" r="1.29"/><polygon class="cls-8" points="85.83 51.21 96.02 54.27 101.73 54.21 103.8 55.92 96.77 60.99 87.99 60.51 85.83 51.21"/><polygon class="cls-10" points="101.57 54.21 101.69 50.37 102.38 51.22 104.55 50.32 103.93 49.53 106.46 49.53 107.99 53.77 103.8 55.92 101.57 54.21"/><polygon class="cls-9" points="82.94 52.4 89.79 54.27 96.17 55.92 102.24 54.73 103.8 55.92 96.77 60.99 88.33 60.51 82.94 52.4"/><circle class="cls-8" cx="96.11" cy="58.78" r="1.29"/><circle class="cls-8" cx="92.85" cy="83.53" r="2.2"/><circle class="cls-8" cx="61.93" cy="82.09" r="2.2"/><polygon class="cls-8" points="82.64 81.03 93.68 94.99 96.68 94.36 96.94 89.44 90.88 74.64 82.64 81.03"/><polygon class="cls-9" points="92.69 79.06 90.43 80.07 94.54 87.98 96.43 88.19 96.17 92.12 90.08 90.44 81.95 80.07 92.19 77.85 92.69 79.06"/><polygon class="cls-8" points="63.99 72.57 58.48 87.62 58.65 92.48 62.32 93.37 73.46 77.7 63.99 72.57"/><polygon class="cls-9" points="62.37 77.01 63.69 78.33 60.93 86.18 58.95 86.35 58.48 87.08 64.83 89.78 72.5 79.17 62.91 75.27 62.37 77.01"/><path class="cls-2" d="M89,89.87c1.91-.28,8.23-1.89,8.23-1.89l2,9.17L93.95,97Z"/><path class="cls-10" d="M65.75,31.48s-2.41,6-1.44,10a24.6,24.6,0,0,0,1.83,5.33c.62,1.07,6.36,5.92,6.36,5.92L82.64,54.2l3.47-4.12,6.37-20.33L78.28,20.91Z"/><path class="cls-2" d="M70.58,49.42l12.23,3.64s1.28-.71,4.48-2.71c2.22-1.39,4.95-4.77,6.54-6.85,3.43-4.48,2.33-10.64,1.36-14.2C93.36,22.57,85.62,19.65,81.36,19c-4.78-.7-10.41,2.53-12.72,5.05A23.53,23.53,0,0,0,64,34.19C63.31,42.08,70.58,49.42,70.58,49.42Z"/><path class="cls-10" d="M65.44,32.7a1,1,0,0,0-1-.21c-1.11.77-1.72,1.53-1,4.41a8.43,8.43,0,0,0,.89,1.55S66.06,34,65.44,32.7Z"/><polygon class="cls-11" points="50.3 28.15 63.23 2.34 70.24 1 70.83 8.12 53.24 30.41 50.3 28.15"/><polygon class="cls-12" points="49.93 28.51 45.14 36.56 47.68 37.98 53.24 30.41 49.93 28.51"/><polygon class="cls-13" points="70.24 1 66.41 5.84 70.83 8.12 70.24 1"/><polygon class="cls-13" points="63.23 2.34 66.41 5.84 51.66 28.78 50.55 27.65 63.23 2.34"/><polygon class="cls-14" points="46.52 23.74 46.83 27.8 54.95 32.8 58.72 31.31 54.56 28.73 53.75 28.96 51.4 27.48 51.09 26.58 46.52 23.74"/><polygon class="cls-15" points="63.81 48.16 68.67 48.91 77.84 52.98 85.83 51.21 89.16 52.31 90.71 62.88 88.75 68.69 95.39 76.7 83.36 81.03 67.41 79.11 58.48 74.01 65.05 66.81 65.53 60.92 59.2 56.63 62.85 53.44 63.81 48.16"/><polygon class="cls-10" points="53.59 36.78 50.23 38.7 45.14 34.13 46.87 30.78 48.8 30.41 49.09 31.65 51.61 32.63 53.59 36.78"/><polygon class="cls-7" points="68.67 48.91 65.58 58.78 65.49 67.83 62.91 75.27 58.48 74.01 67.41 79.11 83.36 81.03 95.39 76.7 92.47 73.18 70.61 70.62 68.67 48.91"/><polygon class="cls-14" points="65.29 63.94 90.43 69.69 89.23 72.57 65.05 66.81 65.29 63.94"/><path class="cls-7" d="M85.91,51.21l3.72,1.15.44,5.75a25.58,25.58,0,0,0-4-.74C85.64,57.49,85.91,51.21,85.91,51.21Z"/><polygon class="cls-7" points="65.05 66.81 64.33 67.6 67.63 68.25 67.63 67.43 65.05 66.81"/><polygon class="cls-12" points="66.35 64.19 66.02 67.06 67.63 67.43 68 64.59 66.35 64.19"/><polygon class="cls-2" points="58.5 86.18 66.3 89.06 61.29 95.71 56.12 95.54 58.5 86.18"/><polygon class="cls-7" points="65.53 60.92 59.2 56.63 62.85 53.44 63.37 50.57 68 51.03 69.48 59.55 65.53 60.92"/><polygon class="cls-16" points="68.67 48.91 68.29 62.21 66.69 75.46 82.16 78.57 101.9 70.49 92.59 60.2 85.91 51.21 79.16 50.89 68.67 48.91"/><circle class="cls-8" cx="66.01" cy="83.53" r="1.29"/><circle class="cls-8" cx="89.51" cy="84.82" r="1.29"/><polygon class="cls-15" points="89.64 52.35 89.74 53.73 86.85 52.47 85.91 51.21 89.64 52.35"/><path class="cls-17" d="M68.69,48.91l10.49,2,6.75.31,1.87,2.52s1.45,4.36-8.81,2.85c0,0-8.61-1.4-10.43-3.86Z"/><polygon class="cls-18" points="52.23 37.55 49.26 33.83 45.14 34.13 50.23 38.7 52.23 37.55"/><polygon class="cls-18" points="102.24 54.73 105.33 53.06 107.99 53.77 103.8 55.92 102.24 54.73"/><polygon class="cls-12" points="46.52 23.74 48.42 27.2 53.86 30.52 57.26 30.41 58.72 31.31 54.96 33.05 46.85 28.06 46.52 23.74"/><path class="cls-19" d="M78.28,25.37s-6.65.27-9.11,9.65c0,0-1.73,3.3-2.76,4.92,0,0-.62,3,.85,5.16,0,0,1.79,3.61,3.58,4.75,0,0,12.37,3.23,15.1,1.34,0,0,11.45-6.85,10.18-16.3C96.11,34.91,94.81,24.06,78.28,25.37Z"/><circle class="cls-14" cx="86.74" cy="14.34" r="1.29" transform="translate(71.65 100.96) rotate(-89.5)"/><circle class="cls-14" cx="92.94" cy="18.96" r="1.29" transform="translate(73.18 111.73) rotate(-89.5)"/><circle class="cls-14" cx="78.72" cy="14.28" r="1.29" transform="translate(63.76 92.87) rotate(-89.5)"/><polygon class="cls-14" points="77.74 21.31 78.94 14.28 82.27 18.14 86.74 14.35 88.25 19.42 92.69 19.46 90.85 24.58 84.28 24.01 77.74 21.31"/><polygon class="cls-17" points="72.51 52.77 74.51 64.3 75.54 77.24 82.16 78.57 101.9 70.49 92.59 60.2 86.74 52.9 72.51 52.77"/><polygon class="cls-12" points="85.83 18.18 86.29 20.91 84.5 22.14 83.58 20.41 85.83 18.18"/><polygon class="cls-12" points="79.86 17.09 80.97 19.59 79.05 20.75 79.86 17.09"/><polygon class="cls-12" points="88.03 21.22 90.88 21.22 90.08 23.74 88.03 21.22"/><polygon class="cls-14" points="84.66 55.13 76.63 56.84 76.99 64 81.89 63.83 82.25 67.3 77.62 68.15 77.62 71.76 87.42 69.22 86.17 61.77 81.18 61.77 81 58.44 85.63 58.05 84.66 55.13"/><polygon class="cls-20" points="45.33 115.56 44.42 113.26 50.2 113.26 50.2 112.39 44.9 112.39 44.9 106.95 53.88 106.95 53.88 109.26 48.63 109.26 48.63 110.05 53.86 110.05 53.86 115.56 45.33 115.56"/><path class="cls-1" d="M53.4,107.43v1.34H48.14v1.76h5.23v4.54H45.66l-.53-1.33h5.56V111.9h-5.3v-4.47h8m1-1h-10v6.31H43.7l.53,1.33.53,1.33L45,116h9.34v-6.3h0v-3.28Z"/><polygon class="cls-20" points="59.94 115.56 57.96 111.9 57.78 111.9 57.78 115.56 54.09 115.56 54.09 103.69 57.78 103.69 57.78 109.59 58.02 109.59 59.99 106.95 64.3 106.95 61.42 110.78 64.11 115.56 59.94 115.56"/><path class="cls-1" d="M57.3,104.17v5.9h1l2-2.64h3.1l-2.49,3.31,2.44,4.33H60.23l-2-3.66H57.3v3.66H54.57v-10.9H57.3m1-1H53.6V116h4.66v-2.55l1.11,2,.27.51h5.29l-.81-1.44L62,110.82,64.1,108l1.16-1.55H59.74l-.29.39-1.19,1.59v-5.23Z"/><polygon class="cls-20" points="64.05 118.52 63.11 116.22 65.58 116.22 66.13 114.99 62.81 106.95 66.71 106.95 68.11 110.36 69.6 106.95 73.47 106.95 68.43 118.52 64.05 118.52"/><path class="cls-1" d="M72.73,107.43,68.12,118H64.37l-.54-1.33h2.06l.77-1.7-3.13-7.57h2.86l1.71,4.17,1.81-4.17h2.81m1.48-1H69.28L69,107l-.9,2.07-.84-2.05-.25-.6h-5l.55,1.34,3,7.18-.34.75H62.39l.55,1.33.54,1.33.25.6h5l.25-.58,4.61-10.6.59-1.35Z"/><polygon class="cls-20" points="81.39 115.55 81.39 109.29 80.73 109.29 80.73 115.55 77.12 115.55 77.12 109.29 76.46 109.29 76.46 115.55 72.87 115.55 72.87 106.95 80.73 106.95 80.73 107.1 80.84 106.95 85 106.95 85 115.55 81.39 115.55"/><path class="cls-1" d="M84.52,107.43v7.63H81.87V108.8H80.24v6.26H77.6V108.8H76v6.26H73.36v-7.63H76v1.13l.74-1.13h3.53v1.13l.84-1.13h3.43m1-1H72.39V116H85.48v-9.56Z"/><rect class="cls-20" x="85.69" y="103.69" width="3.7" height="11.87"/><path class="cls-1" d="M88.9,104.17v2.37H86.17v-2.37H88.9m0,3.26v7.64H86.17v-7.64H88.9m1-4.23H85.2V116h4.66V103.21Z"/><polygon class="cls-20" points="90.05 115.56 90.05 113.44 94.03 109.32 90.05 109.32 90.05 106.96 98.98 106.96 98.98 109.17 95.17 113.22 99.74 113.22 98.47 115.56 90.05 115.56"/><path class="cls-1" d="M98.5,107.45V109L94,113.7h4.89l-.74,1.37H90.53v-1.44l4.64-4.8H90.53v-1.39h8m1-1H89.56v3.32h3.33L89.83,113l-.27.28V116h9.2l.27-.51.74-1.37.77-1.43H96.29l2.92-3.1.26-.28v-2.88Z"/><path class="cls-20" d="M99.27,115.56v-8.61h8.94v5.7H103l0-.07v.67h5.81l-1,2.31Zm5.24-5.27v-1H103v1Z"/><path class="cls-1" d="M107.73,107.43v4.73h-4.44L102.5,111v2.73h5.56l-.57,1.34H99.76v-7.64h8m-5.23,3.34H105v-2h-2.5v2m6.2-4.31H98.79V116h9.34l.25-.59.57-1.34.57-1.35h-.82v-6.3Zm-5.23,3.32H104v0h-.56v0Z"/><polygon class="cls-20" points="108.49 115.56 108.49 106.95 112.26 106.95 112.26 107.1 112.37 106.95 115.81 106.95 115.81 109.29 112.26 109.29 112.26 115.56 108.49 115.56"/><path class="cls-1" d="M115.33,107.43v1.37h-3.56v6.27H109v-7.64h2.8v1.13l.84-1.13h2.71m1-1H108V116h4.74v-6.27h3.56v-3.31Z"/></g></g></svg>