<svg xmlns="http://www.w3.org/2000/svg" viewBox="0 0 160 80"><defs><style>.cls-1{fill:#242437;}</style></defs><title>space_pirates</title><g id="Speaker"><g id="Space_Pirates" data-name="Space Pirates"><path class="cls-1" d="M64.2,75s0,0,0,0l-.24-2.28s0,0,0,0l-.74.07s0,0,0,0l-.05-.47a0,0,0,0,1,0,0l2.16-.23a.07.07,0,0,1,.05,0l0,.48a.07.07,0,0,1,0,.05l-.74.07s0,0,0,0l.24,2.29a0,0,0,0,1,0,0Z"/><path class="cls-1" d="M66.37,71.87a0,0,0,0,1,0-.05l.55-.06a.07.07,0,0,1,0,0l.11,1.09a0,0,0,0,0,0,0l1-.1s0,0,0,0L68,71.7s0,0,0,0l.54-.06s0,0,0,0l.3,2.83a0,0,0,0,1,0,0l-.55.06a0,0,0,0,1,0,0l-.12-1.12s0,0,0,0l-1,.1s0,0,0,0l.11,1.12s0,0,0,.05l-.55,0s0,0,0,0Z"/><path class="cls-1" d="M69.89,71.5s0,0,0,0l1.87-.2a0,0,0,0,1,0,0l0,.46s0,0,0,0l-1.25.13s0,0,0,0l.06.58,0,0,1-.11s0,0,.05,0l0,.45a0,0,0,0,1,0,0l-1,.11s0,0,0,0l.06.6s0,0,0,0l1.26-.13a0,0,0,0,1,0,0l0,.46a.05.05,0,0,1,0,0l-1.86.19s0,0,0,0Z"/><path class="cls-1" d="M74.88,73.52s0,0,0-.08l.29-.4s0,0,.06,0a1.3,1.3,0,0,0,.8.22c.3,0,.46-.2.44-.4s-.14-.27-.49-.28h-.16c-.6,0-1-.27-1-.78s.31-.93.94-1a1.66,1.66,0,0,1,1,.2s0,0,0,.06l-.22.42s0,0-.06,0a1.19,1.19,0,0,0-.7-.15c-.26,0-.38.17-.36.36s.15.26.49.27h.16c.6,0,1,.26,1,.79s-.3,1-1,1A1.75,1.75,0,0,1,74.88,73.52Z"/><path class="cls-1" d="M78.35,73.51a0,0,0,0,1,0,0L78,70.64a.05.05,0,0,1,0,0l1.13-.11a.91.91,0,0,1,1.11.83.92.92,0,0,1-.91,1l-.52.05s0,0,0,0l.1,1s0,0,0,0Zm1.3-2.14a.39.39,0,0,0-.46-.35l-.48,0s0,0,0,0l.07.73s0,0,0,0l.48,0A.38.38,0,0,0,79.65,71.37Z"/><path class="cls-1" d="M81.71,70.25s0,0,.05,0l.54-.06a.07.07,0,0,1,.06,0l1.29,2.72s0,0,0,0l-.55.06A.05.05,0,0,1,83,73l-.23-.49-1,.11-.1.52s0,0-.06,0l-.56.06s0,0,0,0ZM82.56,72l-.44-1h0l-.23,1Z"/><path class="cls-1" d="M84.4,71.4a2,2,0,0,1,0-.8,1.12,1.12,0,0,1,2-.29,0,0,0,0,1,0,.06l-.45.26s0,0-.06,0a.49.49,0,0,0-.5-.28.44.44,0,0,0-.4.37,1.91,1.91,0,0,0,0,.63,2.13,2.13,0,0,0,.11.62.43.43,0,0,0,.47.27.47.47,0,0,0,.43-.37,0,0,0,0,1,.06,0l.49.16s0,0,0,0a1,1,0,0,1-.94.75,1,1,0,0,1-1.12-.6A2.46,2.46,0,0,1,84.4,71.4Z"/><path class="cls-1" d="M87.5,69.64s0,0,0,0l1.87-.19a0,0,0,0,1,0,0l0,.46s0,0,0,0l-1.26.13s0,0,0,0l.06.58s0,0,0,0l1-.11a0,0,0,0,1,0,0l0,.45s0,0,0,0l-1,.11a0,0,0,0,0,0,0l.07.6a0,0,0,0,0,0,0l1.25-.14a0,0,0,0,1,0,0l0,.46s0,0,0,0l-1.87.2a.07.07,0,0,1,0,0Z"/><path class="cls-1" d="M92.71,72a.05.05,0,0,1,0,0l-.29-2.82a0,0,0,0,1,0,0L93.54,69a.94.94,0,1,1,.19,1.87l-.52.06s0,0,0,0l.1,1s0,0,0,0ZM94,69.86a.39.39,0,0,0-.47-.35l-.48,0s0,0,0,0l.08.73s0,0,0,0l.48,0A.38.38,0,0,0,94,69.86Z"/><path class="cls-1" d="M95.66,68.78a0,0,0,0,1,0,0l.54-.06a0,0,0,0,1,.05,0l.3,2.83s0,0,0,0l-.54,0a0,0,0,0,1-.05,0Z"/><path class="cls-1" d="M99.46,71.28a.07.07,0,0,1-.07,0l-.61-1-.39,0s0,0,0,0l.11,1a0,0,0,0,1,0,0l-.55.06a0,0,0,0,1,0,0l-.3-2.83s0,0,0,0l1.16-.12a.9.9,0,0,1,1.08.8.84.84,0,0,1-.43.86l.69,1.09s0,0,0,.06Zm-.26-2a.35.35,0,0,0-.43-.32l-.51.05a0,0,0,0,0,0,0l.07.67s0,0,0,0l.52-.06A.34.34,0,0,0,99.2,69.28Z"/><path class="cls-1" d="M101.73,68.14a0,0,0,0,1,0,0l.54-.06a.07.07,0,0,1,.06,0l1.28,2.72s0,0,0,0l-.56.06a.05.05,0,0,1-.06,0l-.22-.49-1,.11-.11.52a0,0,0,0,1,0,0l-.56.06s0,0,0,0Zm.84,1.71-.44-1h0l-.22,1Z"/><path class="cls-1" d="M105.09,70.69a0,0,0,0,1,0,0l-.24-2.28a0,0,0,0,0,0,0l-.74.08a0,0,0,0,1,0,0l0-.47s0,0,0,0l2.15-.23s0,0,.05,0l0,.48a0,0,0,0,1,0,0l-.74.08s0,0,0,0l.24,2.28s0,0,0,0Z"/><path class="cls-1" d="M107.26,67.56s0,0,0,0l1.86-.2s0,0,0,0l.05.46a.05.05,0,0,1,0,0L108,68a0,0,0,0,0,0,0l.06.57s0,0,0,0l1-.11s0,0,0,0l0,.45s0,0,0,0l-1,.11s0,0,0,0l.06.6s0,0,0,0l1.25-.13s0,0,0,0l.05.46a0,0,0,0,1,0,0l-1.87.2a0,0,0,0,1,0,0Z"/><path class="cls-1" d="M110.55,69.76a.06.06,0,0,1,0-.08l.29-.4a0,0,0,0,1,.06,0,1.18,1.18,0,0,0,.8.22c.3,0,.46-.19.43-.39s-.13-.27-.48-.28h-.16c-.6,0-1-.26-1-.77s.31-.94.94-1a1.61,1.61,0,0,1,1,.2s0,0,0,.06l-.22.42s0,0-.06,0a1.12,1.12,0,0,0-.7-.15c-.26,0-.38.17-.36.35s.15.27.49.28h.15c.61,0,1,.26,1,.79s-.29,1-1,1A1.81,1.81,0,0,1,110.55,69.76Z"/><path class="cls-1" d="M115.43,66.69s0,0,0,0l.54-.06s0,0,0,0l.24,2.28s0,0,0,0l1.28-.13s0,0,0,0l0,.47s0,0,0,0l-1.9.2a0,0,0,0,1,0,0Z"/><path class="cls-1" d="M118.5,66.37s0,0,0-.05l.54,0a0,0,0,0,1,0,0l.24,2.29s0,0,0,0l1.29-.14a0,0,0,0,1,0,0l0,.48s0,0,0,.05l-1.9.2a0,0,0,0,1,0,0Z"/><path class="cls-1" d="M121.63,67.47a2.54,2.54,0,0,1,0-.8,1,1,0,0,1,1-.82,1,1,0,0,1,1.09.54s0,0,0,0l-.44.26a0,0,0,0,1-.07,0,.49.49,0,0,0-.49-.29.45.45,0,0,0-.41.37,2.3,2.3,0,0,0,0,.63,2.47,2.47,0,0,0,.11.62.44.44,0,0,0,.48.28.48.48,0,0,0,.42-.38,0,0,0,0,1,.06,0l.49.16s0,0,0,0a1,1,0,0,1-1,.75,1,1,0,0,1-1.11-.6A2.09,2.09,0,0,1,121.63,67.47Z"/><path class="cls-1" d="M125,68a0,0,0,0,1,0,0l.51,0a0,0,0,0,1,0,0l.06.52a.07.07,0,0,1,0,0l-.51,0s0,0,0,0Z"/><path class="cls-1" d="M24.14,61.51l3.76-.4a.47.47,0,0,0,.38-.25l3.3-6A.49.49,0,0,1,32,54.6l15.68-1.67a.5.5,0,0,1,.49.75L45.77,58a.49.49,0,0,1-.39.26l-1.23.13a.5.5,0,0,0-.38.26.49.49,0,0,0,.48.74l.8-.08,3.63-.39,1.08-.11a.51.51,0,0,0,.39-.26l3.54-6.46a.5.5,0,0,0-.49-.74l-9,1a.51.51,0,0,1-.49-.75l.55-1a.51.51,0,0,0-.49-.75l-8.49.9a.52.52,0,0,0-.38.26.51.51,0,0,0,.49.75l2.82-.3a.5.5,0,0,1,.49.74l-.3.54A.5.5,0,0,1,38,53l-10.41,1.1a.52.52,0,0,0-.39.26l-3.54,6.46A.49.49,0,0,0,24.14,61.51Z"/><path class="cls-1" d="M84.14,50.07a.46.46,0,0,0-.36.23l-2.41,4.39a.47.47,0,0,0,.45.69L85.67,55a.48.48,0,0,0,.36-.24l2.41-4.39a.46.46,0,0,0-.45-.68Z"/><path class="cls-1" d="M89.55,48.32l1.63-3a.37.37,0,0,0-.36-.55h0a.37.37,0,0,0-.28.22A3.86,3.86,0,0,1,90,46a1.46,1.46,0,0,1-1.93.34,1.43,1.43,0,0,1-.33-.32.84.84,0,0,0-1.07,0c-.14.27-.31.61-.49.94a1.46,1.46,0,0,1-.63.6,1.13,1.13,0,0,0-.51.48l-.19.34a.37.37,0,0,0,.36.55l4.08-.43A.4.4,0,0,0,89.55,48.32Z"/><path class="cls-1" d="M29.05,52.38l4.34-.46a.53.53,0,0,0,.39-.26.51.51,0,0,0-.49-.75L29,51.38a.48.48,0,0,0-.39.25A.51.51,0,0,0,29.05,52.38Z"/><path class="cls-1" d="M105.38,62.46l5.76-4.06a.4.4,0,0,1,.23-.08l1.6-.17a.53.53,0,0,0,.39-.26.51.51,0,0,0-.49-.75h-.08a.5.5,0,0,1-.49-.74L115.84,50a.53.53,0,0,1,.39-.26l1.47-.15a.51.51,0,0,0-.1-1h-.08a.5.5,0,0,1-.49-.74L119.1,44a.5.5,0,0,1,.38-.26l1.47-.15a.53.53,0,0,0,.39-.26l.59-1.08a.5.5,0,0,0-.49-.74l-5.75.61a.49.49,0,0,0-.38.26L104.66,61.8A.5.5,0,0,0,105.38,62.46Z"/><path class="cls-1" d="M111.9,61.81l-1.47.15a.52.52,0,0,0-.39.26.5.5,0,0,0,.49.74l3.76-.39a.52.52,0,0,0,.38-.26l3.84-7a.5.5,0,0,0-.49-.74l-1.77.19a.47.47,0,0,0-.38.25l-3.59,6.53A.52.52,0,0,1,111.9,61.81Z"/><path class="cls-1" d="M18.38,73.77,16.67,74a.5.5,0,0,0,.1,1l1.71-.18a.5.5,0,0,0-.1-1Z"/><path class="cls-1" d="M143.25,39.22l-3.8.4a.51.51,0,0,0-.37.25L138.47,41a.49.49,0,0,0,.47.72l3.8-.4a.49.49,0,0,0,.37-.25l.61-1.11A.49.49,0,0,0,143.25,39.22Z"/><path class="cls-1" d="M119,63.08l-15.68,1.67a.49.49,0,0,0-.38.26.5.5,0,0,0,.49.74l15.68-1.67a.48.48,0,0,0,.38-.25A.51.51,0,0,0,119,63.08Z"/><path class="cls-1" d="M40,58.3v0l4.7-.49a.52.52,0,0,0,.38-.26.5.5,0,0,0-.49-.75L31.14,58.23a.48.48,0,0,0-.38.25h0a.5.5,0,0,0,.48.75l2.83-.3a.5.5,0,0,1,.49.74l-.9,1.63a.47.47,0,0,1-.38.25L23,62.65a.48.48,0,0,0-.38.25h0a.5.5,0,0,0,.49.75l9.82-1,0,0-5.47,10a.47.47,0,0,1-.38.25l-6.73.72a.51.51,0,0,0-.39.26h0a.5.5,0,0,0,.49.74l11-1.17a.49.49,0,0,0,.38-.26L40,58.3Z"/><path class="cls-1" d="M142.12,46.4l-8,.85,1.71-3.11a.49.49,0,0,1,.39-.26l5.44-.58a.48.48,0,0,0,.38-.26.49.49,0,0,0-.48-.74l-4.06.43a.51.51,0,0,1-.49-.75l.77-1.39a.5.5,0,0,0-.49-.74l-3.76.4a.48.48,0,0,0-.38.25l-1.45,2.63a.5.5,0,0,1-.38.26l-5.45.58a.48.48,0,0,0-.38.25A.51.51,0,0,0,126,45l4.05-.43a.5.5,0,0,1,.49.74l-3.33,6.06a.49.49,0,0,1-.38.26l-.6.07,2-3.59a.43.43,0,0,0-.42-.63l-3.94.42a.45.45,0,0,0-.33.22l-2.25,4.1-.18,0a.49.49,0,0,1-.48-.74l5.27-9.61a.5.5,0,0,0-.49-.74l-1.77.18a.52.52,0,0,0-.38.26l-6,10.84a.51.51,0,0,1-.39.26l-1.47.16a.47.47,0,0,0-.38.25.5.5,0,0,0,.49.75l5.14-.55-3.8,6.91a.43.43,0,0,0,.66.52l7.22-6.58a2.27,2.27,0,0,0,.43-.55l.45-.82a.51.51,0,0,1,.4.75l-5.28,9.6a.51.51,0,0,0,.49.75l3.76-.4a.48.48,0,0,0,.38-.26l8.17-14.87,8.64-.92a.5.5,0,0,0,.39-.25A.51.51,0,0,0,142.12,46.4Z"/><path class="cls-1" d="M141.3,54.18l-1.71.19a.48.48,0,0,0-.39.25.51.51,0,0,0,.49.75l1.71-.18a.52.52,0,0,0,.39-.26A.51.51,0,0,0,141.3,54.18Z"/><path class="cls-1" d="M137.52,54.59l-1.87.19,2.11-3.85a.31.31,0,0,0-.3-.46l-4.22.45a.31.31,0,0,0-.24.16l-6.43,11.71a.31.31,0,0,0,.3.46l2.67-.28a.31.31,0,0,1,.3.46l-3,5.42a.31.31,0,0,0,.49.37L136.86,59a.32.32,0,0,0-.25-.53l-2.54.24a.31.31,0,0,1-.3-.46l1.29-2.34,2.57-.27a.52.52,0,0,0,.38-.26A.5.5,0,0,0,137.52,54.59Z"/><path class="cls-1" d="M67.76,62.16l-2.06.2a.42.42,0,0,1-.4-.62l4.84-8.82a.42.42,0,0,0-.55-.58l-5.11,2.54a.46.46,0,0,0-.17.17l-1.88,3.41,0,0L51.69,59.6a.41.41,0,0,0-.32.21l-6.1,11.11-4.16.44a.53.53,0,0,0-.39.26.5.5,0,0,0,.49.74l8.73-.92.06,0,8.45-.91a.44.44,0,0,0,.32-.21l.1-.19a.42.42,0,0,0-.41-.62L51,70.28a.42.42,0,0,1-.4-.62l2.26-4.11a.38.38,0,0,1,.32-.21l4.53-.48a.42.42,0,0,0,.32-.22l.1-.18a.42.42,0,0,0-.4-.62l-3.38.36a.42.42,0,0,1-.41-.62l1.76-3.2a.38.38,0,0,1,.32-.21l5.74-.61.06-.06-3.75,6.83a.42.42,0,0,0,.4.62l2.26-.24a.42.42,0,0,1,.41.62l-2.52,4.45a.42.42,0,0,0,.67.49l8.77-9.4A.42.42,0,0,0,67.76,62.16Z"/><path class="cls-1" d="M49,60.68a.5.5,0,0,0-.49-.74l-8.55.91a.49.49,0,0,0-.38.26.5.5,0,0,0,.49.74l8.54-.91A.49.49,0,0,0,49,60.68Z"/><path class="cls-1" d="M77.65,56.84l-9.12,1a.32.32,0,0,0-.26.17l-.19.34a.35.35,0,0,0,.34.51l3.66-.39a.35.35,0,0,1,.34.51l-1.85,3.36a.33.33,0,0,1-.26.18l-.81.08a.33.33,0,0,0-.21.11l-.33.35a.34.34,0,0,0,.28.58.35.35,0,0,1,.34.51l-2.35,4.27a.33.33,0,0,1-.26.18L63.39,69a.36.36,0,0,0-.21.11l-.34.36a.34.34,0,0,0,.28.58l8.21-.86A.36.36,0,0,0,71.6,69L78,57.35A.35.35,0,0,0,77.65,56.84Z"/><path class="cls-1" d="M83.8,56.18l-3,.32a.82.82,0,0,0-.62.41L74.3,67.57a.8.8,0,0,0,.78,1.19l3-.32a.82.82,0,0,0,.62-.41l5.85-10.66A.8.8,0,0,0,83.8,56.18Z"/><path class="cls-1" d="M98.11,32.4a.51.51,0,0,0,.68.49l1.51-.56a.47.47,0,0,0,.24-.67,6.62,6.62,0,0,1-.78-2.92.47.47,0,0,0-.61-.44l-1.3.48a.46.46,0,0,0-.29.52A5.23,5.23,0,0,0,98,30.62,2,2,0,0,1,98.16,32,3.15,3.15,0,0,0,98.11,32.4Z"/><path class="cls-1" d="M101.37,30.24a6,6,0,0,0,10.93.44,1.48,1.48,0,0,0,.08-1.15l-.22-.63a.41.41,0,0,0-.53-.26l-4.31,1.59a.82.82,0,0,1-.82-.16l-1.4-1.23a.87.87,0,0,1-.28-.81l.33-1.86a.86.86,0,0,1,.54-.65L109.87,24a.59.59,0,0,0,.34-.74L110,22.7a1.3,1.3,0,0,0-.7-.77,5.86,5.86,0,0,0-4.42-.13A6.34,6.34,0,0,0,101.37,30.24Z"/><path class="cls-1" d="M111.31,46.9a6.16,6.16,0,0,0-3.83-8.06,5.91,5.91,0,0,0-7.23,3.66,7.32,7.32,0,0,0-.26.88.63.63,0,0,1-.54.5l-.33,0a.3.3,0,0,1-.32-.37c.1-.39.23-1,.33-1.26A6.57,6.57,0,0,1,99.74,41a.57.57,0,0,0-.28-.85l-4.28-1.57a2.46,2.46,0,0,0-1.47-.08l-.58.16a.53.53,0,0,0-.34.67l.13.42a.59.59,0,0,1,0,.41c-.22.44-.42.84-.58,1.23a.52.52,0,0,0,.29.69l4.24,1.56a.27.27,0,0,1-.07.52l-4,.43a.5.5,0,0,0-.39.25l-5,9.15a.51.51,0,0,0,.49.75l3.76-.4a.52.52,0,0,0,.38-.26l3.08-5.6a.49.49,0,0,1,.38-.26l4.92-.52a.32.32,0,0,1,.32.16c.09.15.18.29.28.43a.34.34,0,0,1-.24.52l-5,.52a.47.47,0,0,0-.37.25l0,0a.49.49,0,0,0,.47.72l1.33-.14a.48.48,0,0,1,.47.71l-1.18,2.15a.48.48,0,0,0,.47.71.48.48,0,0,1,.47.72l0,0a.51.51,0,0,1-.37.25L86.56,55.89a.49.49,0,0,0-.37.24l-4,7.21a.48.48,0,0,0,.75.58l7.58-7.34a.53.53,0,0,1,.29-.14l3.07-.32a.48.48,0,0,1,.47.71l-3.87,7a.47.47,0,0,1-.37.25l-2.66.28a.51.51,0,0,0-.37.25l0,0a.49.49,0,0,0,.47.72l9.77-1a.47.47,0,0,0,.36-.25l0,0a.48.48,0,0,0-.47-.72l-1.15.12a.48.48,0,0,1-.47-.71l3.87-7a.47.47,0,0,1,.36-.25l2.49-.26a.49.49,0,0,0,.37-.25l0,0a.49.49,0,0,0-.47-.72l-1.15.13a.49.49,0,0,1-.47-.72l1.87-3.39a.32.32,0,0,1,.44-.13,6,6,0,0,0,1.1.47,6.41,6.41,0,0,0,1.34.24.34.34,0,0,1,.27.5L98.13,65.07a.45.45,0,0,1-.37.24L80.37,67.16a.49.49,0,0,0-.37.25l0,0a.48.48,0,0,0,.47.72l19.7-2.1a.48.48,0,0,0,.37-.24L101,65l8.25-15a3.56,3.56,0,0,1,.65-.84A6,6,0,0,0,111.31,46.9Zm-14.56.17a.51.51,0,0,1-.49-.75l.51-.93a.52.52,0,0,1,.39-.26l2.35-.25a.33.33,0,0,1,.36.31,6.33,6.33,0,0,0,.2,1.14.34.34,0,0,1-.29.42Zm9,.75-1.8-.66a1.1,1.1,0,0,1-.71-.86l-.37-2.08a1.14,1.14,0,0,1,.37-1.06l1.56-1.37a1,1,0,0,1,1.07-.21l1.8.66a1.13,1.13,0,0,1,.71.87l.37,2.07a1.17,1.17,0,0,1-.36,1.07l-1.56,1.37A1.07,1.07,0,0,1,105.72,47.82Z"/><path class="cls-1" d="M56.71,33.33A6,6,0,0,0,63.3,32a1.13,1.13,0,0,1,1.18-.28l4.1,1.51a.57.57,0,0,1,.32.76c-.55,1.3-1.11,2.55.82,3.67a.5.5,0,0,0,.4,0,5.82,5.82,0,0,1,2.54-.14.23.23,0,0,1,0,.45l-6.86,2.52a1.07,1.07,0,0,1-1.11-.25,5.8,5.8,0,0,0-5.81-1.47,6.18,6.18,0,0,0-3.76,8.25,6,6,0,0,0,3.15,3.24.25.25,0,0,1-.07.47L56.46,51a.52.52,0,0,0-.38.26L52.53,57.7a.5.5,0,0,0,.49.74l3.76-.4a.48.48,0,0,0,.38-.25l3.3-6a.48.48,0,0,1,.38-.26l4.75-.5a.5.5,0,0,1,.49.74l-.24.43a.5.5,0,0,0,.66.7l4.93-2.46a.37.37,0,0,1,.17,0l4.92-.53a.51.51,0,0,1,.49.75l-2.36,4.3a.51.51,0,0,1-.39.26l-1.21.13a.51.51,0,0,0-.4.25.5.5,0,0,0,.48.75l.8-.08,3.63-.39,1.08-.11a.52.52,0,0,0,.38-.26L82.57,49a.5.5,0,0,0-.49-.74l-9,1a.51.51,0,0,1-.49-.75l.55-1a.51.51,0,0,0-.49-.75l-6,.64a.39.39,0,0,1-.41-.52,6.12,6.12,0,0,0,.33-1.42,1.11,1.11,0,0,1,.71-.93L75,41.66a.56.56,0,0,1,.73.35c.28.85.45,1.56.67,2.22a3.94,3.94,0,0,0,.58,1.2.5.5,0,0,0,.88-.4c-.28-1.43-.26-3.19.55-3.18a.5.5,0,0,1,.44.62c-.21,1,.45,1.31,1.26,2.56.14.22.43.86.77,1.47a.49.49,0,0,0,.92-.3,10.51,10.51,0,0,1,.69-5.12.68.68,0,0,1,1.28,0,10.49,10.49,0,0,1,.7,5.12.49.49,0,0,0,.91.3c.34-.61.63-1.25.78-1.47.8-1.25,1.46-1.54,1.26-2.55a.51.51,0,0,1,.44-.63c.8,0,.82,1.75.55,3.18a.49.49,0,0,0,.87.4,3.72,3.72,0,0,0,.58-1.2,27.37,27.37,0,0,1,1.41-4.06.5.5,0,0,0-.5-.72,2.13,2.13,0,0,1-.51,0,.51.51,0,0,1,0-1c1.44-.27,3.55-1.4,5.87-.71a.48.48,0,0,0,.39,0c3-1.77-.14-3.88.36-6a1.35,1.35,0,0,0-.18-1A4.81,4.81,0,0,1,96,28.86a.2.2,0,0,0,0-.11c-1.53-3.91-10-6.83-16.64-6.51a.37.37,0,0,1-.1-.73c6.59-1.54,14.59,1,16.77,4a.48.48,0,0,0,.84-.06c2.34-4.85,9.24-5.81,4.77-13.19a.49.49,0,0,0-.91.2c-.71,4.87-7.61,1.42-9.77-4.51a.72.72,0,0,0-1-.43,20.53,20.53,0,0,0-3.41,2c-.21.15-.05.41.25.45,1.07.16,2.12.36,3.17.6.35.08.41.39.1.48-5.06,1.38-8.66,4.41-10.2,8.18-.12.3-.5.05-.45-.29a14.44,14.44,0,0,1,2-5.37.3.3,0,0,0-.32-.44c-1,.08-1.89.2-2.83.36-.26,0-.5-.2-.41-.42a17.37,17.37,0,0,1,6-7.52.28.28,0,0,0-.18-.5c-10.82,1.16-16.28,15.11-20,13.56a.49.49,0,0,0-.67.53c.88,7.14,7,5.9,7.13,10.15,0,0,0,.09,0,.14l-4.33-1.59a1.16,1.16,0,0,1-.74-1,6.31,6.31,0,0,0-3.35-4.93A5.92,5.92,0,0,0,57,21.59a1.43,1.43,0,0,0-.82.8l-.25.62a.46.46,0,0,0,.23.57l4.24,1.81a.87.87,0,0,1,.5.68L61.15,28a.86.86,0,0,1-.32.79L59.37,29.9a.81.81,0,0,1-.83.11l-4.1-1.75a.55.55,0,0,0-.74.31l-.2.52a1.38,1.38,0,0,0,0,1.09A6.17,6.17,0,0,0,56.71,33.33Zm1,11.89.38-2.16a1.07,1.07,0,0,1,.67-.81l1.87-.69a1,1,0,0,1,1,.19l1.62,1.43a1.08,1.08,0,0,1,.35,1l-.39,2.16a1,1,0,0,1-.66.81l-1.88.69a1,1,0,0,1-1-.19L58,46.22A1.07,1.07,0,0,1,57.67,45.22Zm9.4,3.11a.51.51,0,0,1,.49.75l-.3.54a.52.52,0,0,1-.38.26l-3,.31a.17.17,0,0,1-.11-.32A5.67,5.67,0,0,0,64.87,49a1.57,1.57,0,0,1,1-.49ZM85.24,32.6c1.8-.85,4-3.3,7.05-3.77a.49.49,0,0,1,.55.41c.31,1.56,1.49,2.58,1.27,4-.39,2.47-3.54,2.8-4.44,2.84-3.21.15-3.91-1.72-4.62-2.7A.53.53,0,0,1,85.24,32.6Zm-3.77,3.61c.32-.4.7-.72,1.18-1.24a.79.79,0,0,1,1.18,0c.47.52.85.84,1.17,1.24s.12,1.47-.73,1.22c-.41-.12-.68-.55-1-.55s-.63.43-1,.55C81.35,37.68,81.13,36.66,81.47,36.21Zm-8.26-7.08a.52.52,0,0,1,.53-.32c3.14.43,5.33,2.93,7.14,3.79a.52.52,0,0,1,.2.77c-.71,1-1.41,2.86-4.63,2.71-.89,0-4-.37-4.43-2.84C71.79,31.79,72.61,30.7,73.21,29.13Z"/></g></g></svg>