<svg xmlns="http://www.w3.org/2000/svg" xmlns:xlink="http://www.w3.org/1999/xlink" viewBox="0 0 160 120"><defs><style>.cls-1{fill:none;}.cls-2{fill:url(#名称未設定グラデーション_3);}.cls-3{fill:url(#名称未設定グラデーション_6);}.cls-4{fill:url(#名称未設定グラデーション_3-2);}.cls-5{fill:url(#名称未設定グラデーション_3-3);}.cls-6{fill:url(#名称未設定グラデーション_6-2);}.cls-7{fill:url(#名称未設定グラデーション_3-4);}.cls-8{clip-path:url(#clip-path);}.cls-9{fill:#231815;}</style><linearGradient id="名称未設定グラデーション_3" x1="3407.61" y1="-1619.66" x2="3373.31" y2="-1639.46" gradientTransform="matrix(-0.94, -0.34, 0.34, -0.94, 3840.66, -326.23)" gradientUnits="userSpaceOnUse"><stop offset="0" stop-color="#080059"/><stop offset="1" stop-color="#008ccd"/></linearGradient><linearGradient id="名称未設定グラデーション_6" x1="3386.83" y1="-1653.04" x2="3416.3" y2="-1653.04" gradientTransform="matrix(-0.94, -0.34, 0.34, -0.94, 3840.66, -326.23)" gradientUnits="userSpaceOnUse"><stop offset="0" stop-color="#080059"/><stop offset="1" stop-color="#0075c2"/></linearGradient><linearGradient id="名称未設定グラデーション_3-2" x1="3379.48" y1="-1641.21" x2="3419.18" y2="-1648.21" xlink:href="#名称未設定グラデーション_3"/><linearGradient id="名称未設定グラデーション_3-3" x1="2085.23" y1="-967.33" x2="2050.93" y2="-987.13" gradientTransform="matrix(0.94, 0.34, -0.34, 0.94, -2214.53, 263.53)" xlink:href="#名称未設定グラデーション_3"/><linearGradient id="名称未設定グラデーション_6-2" x1="2064.44" y1="-1000.71" x2="2093.92" y2="-1000.71" gradientTransform="matrix(0.94, 0.34, -0.34, 0.94, -2214.53, 263.53)" xlink:href="#名称未設定グラデーション_6"/><linearGradient id="名称未設定グラデーション_3-4" x1="2057.1" y1="-988.88" x2="2096.8" y2="-995.88" gradientTransform="matrix(0.94, 0.34, -0.34, 0.94, -2214.53, 263.53)" xlink:href="#名称未設定グラデーション_3"/><clipPath id="clip-path"><path class="cls-1" d="M86.59,36.12a16.12,16.12,0,0,1,8.19,7.14L99.47,30.4a27.88,27.88,0,0,0-9.22-5.55l-1.11-.41L85.09,35.57,86.2,36Z"/></clipPath></defs><title>speee</title><g id="Silver"><g id="Speee"><g id="logo"><path class="cls-2" d="M87,35a25.65,25.65,0,0,1,15,32.38A26.86,26.86,0,0,0,89.85,26l-3.24,8.9Z"/><path class="cls-3" d="M74.72,67.51A17.3,17.3,0,0,1,68,63.07l-6.91,6.49h0a24.49,24.49,0,0,0,35.74-12A17.37,17.37,0,0,1,74.72,67.51Z"/><path class="cls-4" d="M65.62,71.75a24.58,24.58,0,0,1-4.53-2.19,26.86,26.86,0,0,0,41-2.16A25.65,25.65,0,0,0,87,35,17.37,17.37,0,0,1,97.13,56.7l-.15.42-.16.42A24.47,24.47,0,0,1,65.62,71.75Z"/><path class="cls-5" d="M73.36,63a25.65,25.65,0,0,1-15-32.38A26.86,26.86,0,0,0,70.54,72.08l3.24-8.9Z"/><path class="cls-6" d="M85.66,30.53A17.3,17.3,0,0,1,92.39,35l6.91-6.49h0a24.49,24.49,0,0,0-35.74,12A17.37,17.37,0,0,1,85.66,30.53Z"/><path class="cls-7" d="M94.77,26.28a24.58,24.58,0,0,1,4.53,2.19,26.86,26.86,0,0,0-41,2.16A25.65,25.65,0,0,0,73.36,63,17.37,17.37,0,0,1,63.25,41.33l.15-.42.16-.42A24.47,24.47,0,0,1,94.77,26.28Z"/><g class="cls-8"><path class="cls-2" d="M87,35a25.65,25.65,0,0,1,15,32.38A26.86,26.86,0,0,0,89.85,26l-3.24,8.9Z"/><path class="cls-3" d="M74.72,67.51A17.3,17.3,0,0,1,68,63.07l-6.91,6.49h0a24.49,24.49,0,0,0,35.74-12A17.37,17.37,0,0,1,74.72,67.51Z"/><path class="cls-4" d="M65.62,71.75a24.58,24.58,0,0,1-4.53-2.19,26.86,26.86,0,0,0,41-2.16A25.65,25.65,0,0,0,87,35,17.37,17.37,0,0,1,97.13,56.7l-.15.42-.16.42A24.47,24.47,0,0,1,65.62,71.75Z"/></g></g><g id="logotype"><path class="cls-9" d="M97.46,91.69a5.77,5.77,0,0,0,0-.73,5.67,5.67,0,0,0-.55-1.82,5,5,0,0,0-4.46-2.85,5.25,5.25,0,0,0-5.06,5.41,5.33,5.33,0,0,0,5.23,5.41,5.14,5.14,0,0,0,4.18-2.15l-1.69-1.23A3.07,3.07,0,0,1,92.58,95a3.19,3.19,0,0,1-3-2.48H97.4A5.84,5.84,0,0,0,97.46,91.69Zm-8-.73a3.07,3.07,0,0,1,2.9-2.59A2.94,2.94,0,0,1,95,90.07a3.54,3.54,0,0,1,.3.88Z"/><path class="cls-9" d="M109.29,91.69a5.78,5.78,0,0,0,0-.73,5.67,5.67,0,0,0-.55-1.82,5,5,0,0,0-4.46-2.85,5.25,5.25,0,0,0-5.06,5.41,5.33,5.33,0,0,0,5.23,5.41,5.14,5.14,0,0,0,4.18-2.15l-1.69-1.23a3.07,3.07,0,0,1-2.49,1.3,3.19,3.19,0,0,1-3-2.48h7.87A5.84,5.84,0,0,0,109.29,91.69Zm-8-.73a3.07,3.07,0,0,1,2.9-2.59,2.94,2.94,0,0,1,2.59,1.7,3.54,3.54,0,0,1,.3.88Z"/><path class="cls-9" d="M85.63,91.69a5.78,5.78,0,0,0,0-.73A5.67,5.67,0,0,0,85,89.13a5,5,0,0,0-4.46-2.85,5.25,5.25,0,0,0-5.06,5.41,5.33,5.33,0,0,0,5.23,5.41,5.14,5.14,0,0,0,4.18-2.15l-1.69-1.23A3.07,3.07,0,0,1,80.75,95a3.19,3.19,0,0,1-3-2.48h7.87A5.84,5.84,0,0,0,85.63,91.69Zm-8-.73a3.07,3.07,0,0,1,2.9-2.59,2.94,2.94,0,0,1,2.59,1.7,3.54,3.54,0,0,1,.3.88Z"/><path class="cls-9" d="M68.57,86.28a5.09,5.09,0,0,0-3,1v-.79H63.25V100h2.27V96.08a5.09,5.09,0,0,0,3,1,5.41,5.41,0,0,0,0-10.82Zm0,8.73a3.33,3.33,0,1,1,3.15-3.32A3.24,3.24,0,0,1,68.57,95Z"/><path class="cls-9" d="M56.34,88.28h0c-2.16-.52-3-1-3-2s1.19-1.66,2.54-1.66h0a5.14,5.14,0,0,1,3.14,1l1.23-2.09a7.63,7.63,0,0,0-4.37-1.34,5.58,5.58,0,0,0-3.39,1.09,3.79,3.79,0,0,0-1.57,3c0,3.14,3.36,4,4.8,4.3,2.18.57,3,1.15,3,2.12s-1.16,1.92-2.54,1.92h0a6.27,6.27,0,0,1-4-1.32l-.8,1-.72.89a8.73,8.73,0,0,0,5.49,1.87c2.73,0,5-1.95,5-4.34C61.15,89.54,57.78,88.66,56.34,88.28Z"/></g></g></g></svg>