<svg xmlns="http://www.w3.org/2000/svg" viewBox="0 0 160 80"><defs><style>.cls-1{fill:#00a19a;}.cls-2{fill:#2f3237;}</style></defs><title>stitch_fix</title><g id="Speaker"><g id="Stitch_Fix" data-name="Stitch Fix"><path class="cls-1" d="M12.28,35.06l-7-7a18.9,18.9,0,0,1,1.92-2.07l7.12,7.12ZM7.67,25.48a19.18,19.18,0,0,1,2.85-2l6.69,6.68-2.45,2.45Zm10,4.15-6.55-6.55a19.29,19.29,0,0,1,2.78-1.21l5.76,5.77Zm5.46.49,6.68-6.68a19.81,19.81,0,0,1,2.86,2l-7.1,7.09ZM28.09,45l7.05,7c-.39.48-1.07,1.17-1.52,1.64l-.41.42-7.12-7.11Zm-2.48,2.48,7.09,7.09a19.07,19.07,0,0,1-2.86,2l-6.68-6.68Zm-2.94,2.94,6.55,6.55c-.87.45-2.52,1.11-2.79,1.21l-5.76-5.76Zm-2.49,2.48,5.52,5.52a19.21,19.21,0,0,1-11,0Zm-3-3-6.68,6.68a19.07,19.07,0,0,1-2.86-2l7.09-7.09Zm6.4-14.33,2-2,2,2-2,2Zm-6.85,8.91-2,2-2-2,2-2Zm-4.21-4.7a.32.32,0,0,0-.11.24.34.34,0,0,0,.11.25L14.27,42l-2,2-4-4,4-4,2,2Zm.21-4.22,2-2,2,2-2,2Zm2.49-2.48,2.45-2.45,2,2-2.44,2.45Zm7.87,2-2.45-2.45,2-2,2.45,2.45Zm2,11.88-2.45,2.45-2-2,2.45-2.46Zm-7.88-2,2.45,2.46-2,2-2.45-2.45ZM17,40.24a.32.32,0,0,0,0-.48L15.25,38l2-2,2.44,2.45-1.27,1.28a.35.35,0,0,0-.1.24.31.31,0,0,0,.1.24l1.27,1.28L17.24,44l-2-2ZM19.15,40l1-1,1,1-1,1Zm1,2,2.45,2.45-2.45,2.45-2.45-2.45Zm3.21-2.25a.34.34,0,0,0,0,.48L25.12,42l-2,2-2.45-2.45L22,40.24a.34.34,0,0,0,0-.48l-1.28-1.28L23.12,36l2,2Zm-5.66-4.21,2.45-2.45,2.45,2.45L20.18,38ZM24.12,40l1.48-1.48L27.09,40l-1.48,1.49Zm-7.88,0-1.48,1.49L13.28,40l1.48-1.48Zm5.94,9.88-2,2-2-2,2-2Zm5.43-5.42-2,2-2-2,2-2Zm.21-4.21a.39.39,0,0,0,.1-.25.35.35,0,0,0-.1-.24L26.09,38l2-2,4,4-4,4-2-2ZM18.18,30.12l2-2,2,2-2,2Zm10.4,14.34,4.21-4.21a.35.35,0,0,0,.1-.25.31.31,0,0,0-.1-.24l-4.21-4.22,7-7a19.18,19.18,0,0,1,0,22.89Zm-21-4.7a.36.36,0,0,0,0,.49l4.22,4.21-7,7a19.14,19.14,0,0,1,0-22.89l7,7Zm6.7,7.18L7.15,54.06A18.9,18.9,0,0,1,5.23,52l7-7Zm3.43,3.43,2,2-5.76,5.76a18.24,18.24,0,0,1-2.78-1.21ZM28.09,35.06l-2-2,7.12-7.12A18,18,0,0,1,35.14,28Zm-7.42-7.42,5.77-5.77a19.78,19.78,0,0,1,2.78,1.21l-6.55,6.55Zm-6-6a19.21,19.21,0,0,1,11,0l-5.52,5.52Z"/><path class="cls-2" d="M55.79,39.23l-.13,0c-1.92-.51-2.82-.92-2.82-2.46a1.9,1.9,0,0,1,2.09-2s2.73,0,3.51,2.26l0,.09h.85V33.64h-.88L58.1,34.9A4.38,4.38,0,0,0,55,33.65a3.52,3.52,0,0,0-3.85,3.49c0,2.31,1.93,3,4.07,3.52s3.07,1,3.07,2.55a2,2,0,0,1-2.19,2A4.64,4.64,0,0,1,52,43.05L52,43h-.83v3.43H52l.39-1.51A5,5,0,0,0,56,46.41,3.7,3.7,0,0,0,60,42.7C60,40.35,58,39.83,55.79,39.23Z"/><path class="cls-2" d="M61.74,36.29h.84l0-.25c.27-1.39.33-1.39,1.32-1.38h2.22V45.39H64.94v1h4.17v-1H68V34.66h2.16c1,0,1.11,0,1.37,1.37l0,.26h.83V33.64H61.74Z"/><path class="cls-2" d="M81.47,36.29h.83l0-.25c.27-1.39.33-1.39,1.31-1.38h2.22V45.39H84.69v1h4.17v-1H87.69V34.66h2.15c1,0,1.11,0,1.38,1.37l0,.26h.83V33.64H81.47Z"/><polygon class="cls-2" points="74.83 34.66 76.01 34.66 76.01 45.39 74.83 45.39 74.83 46.41 79 46.41 79 45.39 77.82 45.39 77.82 34.66 79 34.66 79 33.64 74.83 33.64 74.83 34.66"/><polygon class="cls-2" points="114.73 34.66 115.93 34.66 115.93 39.87 109.99 39.87 109.99 34.66 111.1 34.66 111.1 33.64 106.93 33.64 106.93 34.66 108.17 34.66 108.17 45.39 107.01 45.39 107.01 46.41 111.19 46.41 111.19 45.39 109.99 45.39 109.99 40.9 115.93 40.9 115.93 45.39 114.73 45.39 114.73 46.41 118.9 46.41 118.9 45.39 117.74 45.39 117.74 34.66 118.9 34.66 118.9 33.64 114.73 33.64 114.73 34.66"/><polygon class="cls-2" points="140.68 34.66 141.86 34.66 141.86 45.39 140.68 45.39 140.68 46.41 144.85 46.41 144.85 45.39 143.68 45.39 143.68 34.66 144.85 34.66 144.85 33.64 140.68 33.64 140.68 34.66"/><polygon class="cls-2" points="159 34.66 159 33.64 154.83 33.64 154.83 34.66 155.8 34.66 153.11 38.55 150.5 34.66 151.48 34.66 151.48 33.64 147.31 33.64 147.31 34.66 148.5 34.66 152.14 40.07 148.55 45.39 147.24 45.39 147.24 46.41 151.41 46.41 151.41 45.39 150.09 45.39 152.88 41.2 155.64 45.39 154.6 45.39 154.6 46.41 158.77 46.41 158.77 45.39 157.65 45.39 153.88 39.7 157.34 34.66 159 34.66"/><path class="cls-2" d="M128.66,34.66h1.27V45.39h-1.27v1h4.18v-1h-1.09V40.9h1.93c.72,0,.76.09,1,.82l0,.08,0,.11h.83V38.72h-.83v.11a1.54,1.54,0,0,0-.08.19c-.22.6-.32.85-1,.85h-1.93V34.66h4.36c.84,0,1,.25,1.48,1.44l0,.1h1V33.64h-9.92Z"/><path class="cls-2" d="M103.12,41.38c-.37,2.47-1.75,3.89-3.78,3.89-2.45,0-4-2.05-4-5.35,0-3.13,1.48-5.15,3.78-5.15a4.14,4.14,0,0,1,3.9,2.6l0,.1H104V33.64h-1L102.63,35a4.59,4.59,0,0,0-3.44-1.35c-3.28,0-5.75,2.75-5.75,6.4A6.79,6.79,0,0,0,95,44.66a5.38,5.38,0,0,0,4.06,1.75c2.89,0,4.71-1.77,5.12-5l0-.15h-1.11Z"/></g></g></svg>