<svg xmlns="http://www.w3.org/2000/svg" viewBox="0 0 160 120"><defs><style>.cls-1{fill:#002c6c;}.cls-2{fill:#ec2281;}.cls-3{fill:#20b8a0;}.cls-4{fill:#faa928;}</style></defs><title>ticketsolve</title><g id="Silver"><g id="ticketsolve"><path class="cls-1" d="M110.11,52,109,54.24a7.8,7.8,0,0,0-3.81-1.12c-1.46,0-2.36.64-2.36,1.59,0,1.21,1.33,1.53,3.15,2.06,2.4.7,4.36,1.6,4.36,4.15,0,2.94-2.35,4.66-5.83,4.66A8.74,8.74,0,0,1,99.49,64l.87-2.52a7,7,0,0,0,4,1.27c1.82,0,2.78-.75,2.78-1.76,0-1.28-1.59-1.39-3.62-2.1-2.39-.84-3.77-1.86-3.77-4.14,0-2.66,2.23-4.27,5.45-4.27A8.48,8.48,0,0,1,110.11,52Z"/><path class="cls-1" d="M126,58.05c0,5.25-3.51,7.53-7.19,7.53s-7.19-2.28-7.19-7.53,3.52-7.53,7.19-7.53S126,52.8,126,58.05Zm-11,0c0,3,1.47,4.65,3.86,4.65s3.86-1.72,3.86-4.65-1.45-4.64-3.86-4.64S115,55.1,115,58.05Z"/><path class="cls-1" d="M127.73,65.18V44.72H131V65.18Z"/><path class="cls-1" d="M141.21,65.2h-3L132.56,51h3.5l3.69,10.82L143.47,51h3.58Z"/><path class="cls-1" d="M160,57.27a10.16,10.16,0,0,1-.17,1.92h-9.78c.39,2.71,2,3.72,4.06,3.72a6.29,6.29,0,0,0,4.06-1.44l1.36,2.12a8.71,8.71,0,0,1-5.9,2c-3.73,0-6.88-2.4-6.88-7.46,0-4.64,2.74-7.6,6.77-7.6,4.38,0,6.48,3.31,6.48,6.75ZM157,57c-.1-2.37-1.37-3.88-3.4-3.88S150.24,54.33,150,57Z"/><path class="cls-2" d="M39.2,50.93V53.7H35.72v7.69c0,.93.47,1.27,1.12,1.27a5.31,5.31,0,0,0,1.86-.4l.81,2.35a6.44,6.44,0,0,1-3.46,1c-2.32,0-3.62-1-3.62-3.54V53.71H30.19V50.93h2.24V49.09l1.86-1.86h1.43v3.7Z"/><rect class="cls-2" x="41.87" y="50.93" width="3.24" height="14.25"/><path class="cls-2" d="M54.23,50.52a7.72,7.72,0,0,1,5.06,1.73L58,54.53a5.24,5.24,0,0,0-3.41-1.18c-2.37,0-4.13,1.59-4.13,4.62s1.81,4.78,4.16,4.78a5.59,5.59,0,0,0,3.6-1.34l1.45,2.14a7.5,7.5,0,0,1-5.31,2c-4,0-7.19-2.74-7.19-7.61s3.26-7.45,7.11-7.45Z"/><path class="cls-2" d="M66.05,59.15l-1.59,1.78v4.25H61.2V44.72h3.26V57l4.92-6.07h4l-5.27,5.89,6.18,8.36h-4Z"/><path class="cls-2" d="M87.28,57.27a10.16,10.16,0,0,1-.17,1.92H77.33c.39,2.71,2,3.72,4.07,3.72a6.28,6.28,0,0,0,4-1.44l1.36,2.12a8.69,8.69,0,0,1-5.9,2c-3.73,0-6.87-2.4-6.87-7.46,0-4.64,2.74-7.6,6.76-7.6,4.38,0,6.48,3.31,6.48,6.75Zm-3-.28c-.1-2.37-1.37-3.88-3.4-3.88s-3.36,1.22-3.6,3.88Z"/><rect class="cls-2" x="41.87" y="45.11" width="3.24" height="3.24" transform="translate(-20.31 44.44) rotate(-45)"/><path class="cls-2" d="M97.2,50.93V53.7H93.71v7.69c0,.93.47,1.27,1.12,1.27a5.31,5.31,0,0,0,1.86-.4l.81,2.35a6.43,6.43,0,0,1-3.45,1c-2.33,0-3.63-1-3.63-3.54V53.71H88.19V50.93h2.23V49.09l1.87-1.86h1.42v3.7Z"/><polygon class="cls-2" points="8.09 48.95 16.18 57.05 24.27 48.95 8.09 48.95"/><rect class="cls-1" x="8.09" y="57.04" width="8.09" height="8.09"/><polygon class="cls-3" points="16.18 40.87 16.18 48.96 8.09 48.96 16.18 40.87"/><polygon class="cls-4" points="8.09 48.96 8.09 40.87 16.18 40.87 8.09 48.96"/><polygon class="cls-3" points="16.18 73.22 8.09 65.14 16.18 65.14 16.18 73.22"/><polygon class="cls-1" points="24.27 65.14 16.18 73.22 16.18 65.14 24.27 65.14"/><polygon class="cls-4" points="16.18 57.05 8.09 57.05 8.09 48.95 16.18 57.05"/><polygon class="cls-2" points="0 57.05 8.09 57.05 8.09 48.95 0 57.05"/><path class="cls-2" d="M33.65,72.63A1.79,1.79,0,0,1,35.1,72c1.21,0,2.09.91,2.09,2.55s-.94,2.73-2.3,2.73a1.72,1.72,0,0,1-1.42-.67h0l-.19.53h-.75V70h1.15v2.68Zm0,1v2.1a1.28,1.28,0,0,0,1.09.51c.77,0,1.31-.65,1.31-1.7S35.51,73,34.8,73A1.46,1.46,0,0,0,33.63,73.64Z"/><path class="cls-2" d="M41.59,76.42a1.91,1.91,0,0,1-1.64.81,1.58,1.58,0,0,1-1.7-1.77V72.12h1.14V75.2c0,.77.35,1,.81,1a1.57,1.57,0,0,0,1.27-.81V72.12h1.14v5h-.8Z"/><path class="cls-2" d="M45.24,70.72a.7.7,0,0,1-1.4,0,.7.7,0,0,1,1.4,0ZM44,77.12v-5H45.1v5Z"/><path class="cls-2" d="M46.49,77.12V70h1.14v7.17Z"/><path class="cls-2" d="M51.66,72.12v1H50.44v2.69c0,.32.17.44.4.44a1.69,1.69,0,0,0,.65-.14l.28.83a2.28,2.28,0,0,1-1.21.34A1.11,1.11,0,0,1,49.29,76V73.1h-.78v-1h.78v-.64l.51-.65h.64v1.29Z"/><path class="cls-2" d="M57.31,69.81a2.25,2.25,0,0,1,.87.14l-.19.84a1.82,1.82,0,0,0-.51-.06c-.46,0-.68.22-.68.63v.76H58v1H56.8v4H55.65v-4H55v-1h.69v-.78a1.45,1.45,0,0,1,1.66-1.53Z"/><path class="cls-2" d="M63.52,74.62A2.52,2.52,0,1,1,61,72,2.42,2.42,0,0,1,63.52,74.62Zm-3.87,0c0,1,.51,1.63,1.35,1.63s1.35-.6,1.35-1.63S61.85,73,61,73,59.65,73.58,59.65,74.62Z"/><path class="cls-2" d="M67.49,72.13l-.2,1a1.42,1.42,0,0,0-.51-.12c-.44,0-.81.29-1,1v3H64.58v-5h.88l.18.74h0a1.28,1.28,0,0,1,1.82-.73Z"/><path class="cls-2" d="M73.62,72.12v1H72.4v2.69c0,.32.17.44.39.44a1.62,1.62,0,0,0,.65-.14l.29.83a2.28,2.28,0,0,1-1.21.34c-.82,0-1.27-.37-1.27-1.24V73.1h-.79v-1h.79v-.64l.51-.65h.64v1.29Z"/><path class="cls-2" d="M75.75,72.76A2,2,0,0,1,77.34,72,1.56,1.56,0,0,1,79,73.74v3.38H77.89V73.94A.82.82,0,0,0,77,73a1.48,1.48,0,0,0-1.24.83v3.27H74.62V70h1.13Z"/><path class="cls-2" d="M84.73,74.34a3.82,3.82,0,0,1-.06.68H81.25a1.31,1.31,0,0,0,1.42,1.3,2.25,2.25,0,0,0,1.42-.5l.48.74a3.06,3.06,0,0,1-2.07.7,2.34,2.34,0,0,1-2.41-2.62A2.38,2.38,0,0,1,82.46,72a2.2,2.2,0,0,1,2.27,2.36Zm-1-.09c0-.83-.48-1.36-1.19-1.36s-1.18.43-1.26,1.36Z"/><path class="cls-2" d="M90.37,72c1.41,0,2,.61,2,1.83v2.13c0,.25.09.38.28.38h.22l-.1.75a.86.86,0,0,1-.56.15.75.75,0,0,1-.81-.56,1.9,1.9,0,0,1-1.5.61c-1,0-1.77-.47-1.77-1.55s.88-1.45,2-1.45a7.39,7.39,0,0,1,1.13.1v-.49c0-.73-.39-1-1-1a2.18,2.18,0,0,0-1.38.46l-.46-.72a3.14,3.14,0,0,1,2-.68Zm-1.12,3.7c0,.54.43.71.86.71a1.27,1.27,0,0,0,1.16-.59v-.69a4.16,4.16,0,0,0-1-.11C89.66,75,89.25,75.17,89.25,75.68Z"/><path class="cls-2" d="M96.69,72.13l-.2,1a1.37,1.37,0,0,0-.51-.12c-.44,0-.81.29-1,1v3H93.79v-5h.87l.19.74h0a1.24,1.24,0,0,1,1.2-.88A1.23,1.23,0,0,1,96.69,72.13Z"/><path class="cls-2" d="M100.43,72.12v1H99.21v2.69c0,.32.17.44.4.44a1.69,1.69,0,0,0,.65-.14l.28.83a2.28,2.28,0,0,1-1.21.34A1.11,1.11,0,0,1,98.06,76V73.1h-.78v-1h.78v-.64l.51-.65h.64v1.29Z"/><path class="cls-2" d="M105,72.5l-.37.78a2.89,2.89,0,0,0-1.34-.39c-.51,0-.83.22-.83.56s.47.53,1.11.72c.84.25,1.52.56,1.52,1.46s-.82,1.63-2,1.63a3.05,3.05,0,0,1-1.77-.54l.3-.89a2.4,2.4,0,0,0,1.39.45c.64,0,1-.26,1-.62s-.55-.48-1.26-.73-1.32-.66-1.32-1.45c0-.94.78-1.5,1.9-1.5A3,3,0,0,1,105,72.5Z"/><path class="cls-2" d="M107.47,76.62a2.28,2.28,0,0,1-1,1.79l-.36-.28a2,2,0,0,0,.6-1,.67.67,0,0,1-.59-.67.59.59,0,0,1,.63-.62A.7.7,0,0,1,107.47,76.62Z"/><path class="cls-2" d="M112.59,72.63A1.81,1.81,0,0,1,114,72c1.22,0,2.1.91,2.1,2.55s-1,2.73-2.31,2.73a1.72,1.72,0,0,1-1.42-.67h0l-.19.53h-.75V70h1.14v2.68Zm0,1v2.1a1.28,1.28,0,0,0,1.09.51c.77,0,1.31-.65,1.31-1.7S114.46,73,113.74,73A1.47,1.47,0,0,0,112.57,73.64Z"/><path class="cls-2" d="M119.75,77.44c-.41,1.12-1,1.69-1.94,1.69a3.25,3.25,0,0,1-1.07-.15l.2-.87a2.29,2.29,0,0,0,.68.11,1,1,0,0,0,.89-.73l.09-.22-2.08-5.16h1.2l1.43,4,1.3-4h1.22Z"/><path class="cls-2" d="M127.88,72.12v1h-1.23v2.69c0,.32.17.44.4.44a1.69,1.69,0,0,0,.65-.14l.28.83a2.28,2.28,0,0,1-1.21.34A1.11,1.11,0,0,1,125.5,76V73.1h-.78v-1h.78v-.64l.52-.65h.63v1.29Z"/><path class="cls-2" d="M130,72.76a2,2,0,0,1,1.58-.76,1.56,1.56,0,0,1,1.7,1.74v3.38h-1.15V73.94a.82.82,0,0,0-.89-.92,1.45,1.45,0,0,0-1.23.83v3.27h-1.15V70H130Z"/><path class="cls-2" d="M139,74.34a3.82,3.82,0,0,1-.06.68H135.5a1.33,1.33,0,0,0,1.42,1.3,2.26,2.26,0,0,0,1.43-.5l.47.74a3,3,0,0,1-2.07.7,2.35,2.35,0,0,1-2.41-2.62A2.38,2.38,0,0,1,136.72,72,2.21,2.21,0,0,1,139,74.34Zm-1.05-.09c0-.83-.49-1.36-1.2-1.36s-1.18.43-1.26,1.36Z"/><path class="cls-2" d="M146.66,73.81v2.13c0,.25.09.38.28.38h.21l-.09.75a.89.89,0,0,1-.57.15.75.75,0,0,1-.81-.56,1.9,1.9,0,0,1-1.5.61c-1,0-1.76-.47-1.76-1.55s.87-1.45,2-1.45a7.25,7.25,0,0,1,1.13.1v-.49c0-.73-.39-1-1-1a2.21,2.21,0,0,0-1.39.46l-.45-.72a3.09,3.09,0,0,1,2-.68C146,72,146.66,72.59,146.66,73.81Zm-3.16,1.87c0,.54.43.71.87.71a1.29,1.29,0,0,0,1.16-.59v-.69a4.26,4.26,0,0,0-1-.11C143.91,75,143.5,75.17,143.5,75.68Z"/><path class="cls-2" d="M151,72.13l-.21,1a1.37,1.37,0,0,0-.51-.12c-.44,0-.8.29-1,1v3H148v-5h.88l.18.74h0a1.28,1.28,0,0,1,1.82-.73Z"/><path class="cls-2" d="M154.69,72.12v1h-1.22v2.69c0,.32.16.44.39.44a1.69,1.69,0,0,0,.65-.14l.29.83a2.29,2.29,0,0,1-1.22.34A1.11,1.11,0,0,1,152.31,76V73.1h-.78v-1h.78v-.64l.52-.65h.64v1.29Z"/><path class="cls-2" d="M159.27,72.5l-.37.78a2.82,2.82,0,0,0-1.34-.39c-.51,0-.82.22-.82.56s.46.53,1.1.72c.84.25,1.53.56,1.53,1.46s-.83,1.63-2.05,1.63a3.05,3.05,0,0,1-1.77-.54l.31-.89a2.37,2.37,0,0,0,1.38.45c.64,0,1-.26,1-.62s-.56-.48-1.27-.73-1.32-.66-1.32-1.45c0-.94.78-1.5,1.91-1.5A2.94,2.94,0,0,1,159.27,72.5Z"/></g></g></svg>