<?xml version="1.0" encoding="utf-8"?>
<!-- Generator: Adobe Illustrator 21.1.0, SVG Export Plug-In . SVG Version: 6.00 Build 0)  -->
<svg version="1.1" id="圖層_1" xmlns="http://www.w3.org/2000/svg" xmlns:xlink="http://www.w3.org/1999/xlink" x="0px" y="0px"
	 viewBox="0 0 174.9 54.5" style="enable-background:new 0 0 174.9 54.5;" xml:space="preserve">
<style type="text/css">
	.st0{fill:#CE293D;}
	.st1{fill:#F8F3B2;}
	.st2{fill:#EAD4B1;}
	.st3{fill:#686F66;}
	.st4{fill:#EAD2A6;}
	.st5{fill:#CDBA9B;}
	.st6{fill:#EFDD9A;}
	.st7{fill:#2C3035;}
	.st8{fill:#F3FAFD;}
	.st9{opacity:0.8;}
	.st10{opacity:0.75;fill:#EFDD9A;enable-background:new    ;}
</style>
<title>speaker_travis-ci</title>
<g>
	<path class="st0" d="M13.1,23.7c0,0-8.6,6-8.9,8.3l0.6-0.1c0,0,10.2-6.8,18.4-7.6l0.2-1L13.1,23.7z"/>
	<path class="st0" d="M26.6,22.9l-6.7,4.8l0.4,0.3c0.3-0.2,12-3.8,12-3.8l2.5-1.5C33,22.8,26.6,22.9,26.6,22.9z"/>
	<path class="st0" d="M32.5,28.7c4.8,0,12-4.7,12-4.7l-2.3-0.4c-0.1,0.1-3.7-0.1-3.7-0.1l-1.7-0.5l-4.2,4.7l-0.3,0.8
		C32.5,28.3,32.5,28.7,32.5,28.7z"/>
	<path class="st0" d="M48,43.6L46.6,44l-6.8-0.2l-4.3-3.3l-5.2,1.3l-6-0.5L20.9,45l-6.3,1.9l-3.1-1l-0.1-0.1l1.4,3.4
		c0,0,3.2,3.4,5,3.8c1.8,0.4,5,0,7.4-0.4s4.3-1.2,5.1-2.6c0.3-0.6,0.6-1.2,0.9-1.8c0,0,2.3,3.2,4.3,3.6s7.9-1.6,7.9-1.6
		s3.6-1,4.2-2.2s2.3-5.3,2.3-5.3L48,43.6z M12.2,46.4h-0.1l-0.5-0.5L12.2,46.4z"/>
	<path class="st1" d="M53.9,19.2c0-0.2,0-0.4-0.1-0.5s0-0.3-0.1-0.4c-0.5-0.4-1.1-0.8-1.6-1.1c-0.6-0.4-1.3-0.7-2-1
		c-0.7-0.3-1.4-0.6-2-0.9l-1-0.4l-1-0.4c0.7,0.1,1.5,0.3,2.2,0.5c0.5,0.1,1,0.3,1.4,0.4C46.3,6.7,38.3,1,29.6,1s-16.7,5.7-20,14.4
		c0.5-0.2,0.9-0.3,1.4-0.4c0.7-0.2,1.5-0.4,2.2-0.5l-1.1,0.4l-1,0.4c-0.7,0.3-1.4,0.6-2,0.9c-0.7,0.3-1.4,0.6-2,1
		c-0.6,0.3-1.1,0.7-1.7,1.1c0,0.1,0,0.3-0.1,0.4s0,0.4-0.1,0.5c0,0.4,0,0.7,0,1.1c0,1.5,0.2,3,0.6,4.4c0.1,0.4,0.2,0.7,0.3,1
		c0.1,0.2,0.1,0.3,0.2,0.5l0.1,0.2v0.1l0.2,0.1l0.3,0.2l0.6,0.3l0,0l-0.6-2.3c0.1,0,1.3-0.3,3.3-0.7l-0.5-0.1
		c-0.5-0.1-0.9-0.3-1.4-0.4c-0.2-0.1-0.4-0.2-0.6-0.3c-0.2-0.1-0.4-0.3-0.6-0.4c2.2,0.7,6.8,0.4,10.8,0c3.7-0.4,7.5-0.6,11.2-0.7
		c3.7,0,7.5,0.2,11.2,0.6c4.1,0.4,8.6,0.8,10.8,0c-0.2,0.2-0.4,0.3-0.6,0.4c-0.2,0.1-0.4,0.2-0.6,0.3c-0.4,0.2-0.9,0.3-1.3,0.4h-0.2
		c2.2,0.4,3.5,0.7,3.6,0.8l-0.6,2.2l0.3-0.2l0.3-0.2l0.2-0.1v-0.1l0.1-0.2c0.1-0.2,0.2-0.3,0.2-0.5c0.1-0.3,0.2-0.7,0.3-1
		c0.2-0.7,0.3-1.5,0.4-2.2c0.1-0.7,0.1-1.5,0.1-2.2C53.9,19.9,53.9,19.6,53.9,19.2z"/>
	<path class="st2" d="M32.1,50.2c-0.3,0-0.6,0.1-0.9,0.1h-0.6h-0.1l0.5-1.2C31.4,49.4,31.7,49.8,32.1,50.2z"/>
	<path class="st2" d="M32.8,50.8c0.9,0.9,2,1.4,3.3,1.5c-1.8,0.7-3.7,1.1-5.6,1.3c-1.5,0.1-3.1-0.1-4.5-0.5l0.3-0.1
		c0.1,0,2.8-0.4,4-2.2h0.4h0.6c0.4,0,0.9-0.1,1.3-0.2L32.8,50.8z"/>
	<path class="st3" d="M35.3,23.9L35,24.2c-0.7,0.8-1.4,1.6-2.1,2.4c-1,0-2.1,0-3.1,0c-1.8,0-3.5,0-5.1,0.1c2.6-1.1,5.3-1.9,8-2.4
		C33.5,24.1,34.5,24,35.3,23.9z"/>
	<path class="st3" d="M22,24.9c-0.9,0.7-1.8,1.4-2.6,2.2c-2.3,0.2-4.3,0.5-5.9,0.8C16.1,26.6,19,25.6,22,24.9z"/>
	<path class="st3" d="M49.9,29.6L49,36.1l-4.5,3.1l-11.6-1.3l-1.8-5.7c0-0.1-0.2-0.2-0.3-0.3c-0.7-0.1-1.5-0.1-2.3,0
		c-0.1,0-0.3,0.1-0.3,0.3l-1.7,5.6L15,40.4l-4.5-3.2l-0.9-7.3l0.6-0.3l1-0.2l0.9,6.9c0,0.1,0.1,0.2,0.2,0.3l3.1,2.2
		c0.1,0,0.1,0.1,0.2,0.1h0.1l9.5-2.1h0.1c0.1,0,0.2-0.1,0.2-0.2l1.7-5.6c0.9-0.2,1.8-0.4,2.7-0.4c0.9,0,1.8,0.2,2.7,0.4l1.7,5.6
		c0,0.1,0.2,0.3,0.3,0.3l9.5,1.1c0.1,0,0.2,0,0.3-0.1l3.2-2.2c0.1-0.1,0.1-0.2,0.1-0.3l0.8-5.9L49.9,29.6z"/>
	<path class="st3" d="M51.1,25.5l-0.8,3.1c-3.4-0.7-6.9-1.3-10.4-1.6c1.7-0.7,3.3-1.6,4.8-2.7C47.7,24.8,49.9,25.3,51.1,25.5z"/>
	<path class="st4" d="M17.5,35.2c0.8-0.3,1.7-0.4,2.5-0.3h0.7c1.2,0,2.2,0.1,2.2-1.8c0-1.9-0.8-3.4-2-3.3s-2.4,1.6-2.3,3.4
		c0,0.4,0.1,0.7,0.2,1.1C18.3,34.4,17.8,34.7,17.5,35.2z M31.8,27.6c-0.5,0.4-0.9,0.7-1.4,1l-1.7,1c-0.7,0.1-1.3,0.2-2,0.4h-0.1
		c-0.1,0-0.1,0.1-0.2,0.2l-1.7,5.7l-9.1,2l-2.9-2l-0.8-6.7c1.6-0.3,3.8-0.7,6.4-0.9c-0.3,0.3-0.5,0.7-0.8,1.1l-1.6,2.2l2.3-1.5
		c1.2-0.8,2.5-1.5,3.8-2.1c2.4-0.2,5-0.3,7.8-0.3L31.8,27.6z"/>
	<path class="st4" d="M41.8,34.5c0,0-0.3-0.8-1.4-0.7c0.1-0.4,0.2-0.8,0.1-1.2c-0.2-1.8-1.2-3.3-2.4-3.3s-1.9,1.6-1.9,3.4
		c0.1,1.8,1.1,1.8,2.2,1.8C40.1,34.6,41,34.1,41.8,34.5z M47.6,29.2L46.8,35l-2.9,2l-9.1-1L33,30.4c0-0.1-0.1-0.2-0.3-0.3
		c-0.8-0.2-1.6-0.4-2.4-0.4h0.2c2.4-0.3,4.8-0.9,7.1-1.7C41,28.2,44.3,28.6,47.6,29.2z"/>
	<path class="st5" d="M17.5,35.2c0.8-0.3,1.7-0.4,2.5-0.3h0.7c1.2,0,2.2,0.1,2.2-1.8c0-1.9-0.8-3.4-2-3.3s-2.4,1.6-2.3,3.4
		c0,0.4,0.1,0.7,0.2,1.1C18.3,34.4,17.8,34.7,17.5,35.2z M31.8,27.6c-0.5,0.4-0.9,0.7-1.4,1l-1.7,1c-0.7,0.1-1.3,0.2-2,0.4h-0.1
		c-0.1,0-0.1,0.1-0.2,0.2l-1.7,5.7l-9.1,2l-2.9-2l-0.8-6.7c1.6-0.3,3.8-0.7,6.4-0.9c-0.3,0.3-0.5,0.7-0.8,1.1l-1.6,2.2l2.3-1.5
		c1.2-0.8,2.5-1.5,3.8-2.1c2.4-0.2,5-0.3,7.8-0.3L31.8,27.6z"/>
	<path class="st5" d="M41.8,34.5c0,0-0.3-0.8-1.4-0.7c0.1-0.4,0.2-0.8,0.1-1.2c-0.2-1.8-1.2-3.3-2.4-3.3s-1.9,1.6-1.9,3.4
		c0.1,1.8,1.1,1.8,2.2,1.8C40.1,34.6,41,34.1,41.8,34.5z M47.6,29.2L46.8,35l-2.9,2l-9.1-1L33,30.4c0-0.1-0.1-0.2-0.3-0.3
		c-0.8-0.2-1.6-0.4-2.4-0.4h0.2c2.4-0.3,4.8-0.9,7.1-1.7C41,28.2,44.3,28.6,47.6,29.2z"/>
	<path class="st2" d="M51.5,31.7c0.1,0.1,0.2,0.4,0.1,1.8c-0.2,1.7-0.9,4.7-1.3,5.2c-0.7,0.1-1.4,0-2.1-0.2c0.1-0.4,0.1-0.6,0.2-1.1
		l1.1-0.8c0.1-0.1,0.1-0.2,0.2-0.3l0.7-5.4C50.8,31.2,51.2,31.5,51.5,31.7z"/>
	<path class="st2" d="M11.2,38.7l0.2,0.6c-0.8,0.2-1.5,0.3-2.3,0.2c-0.5-0.5-1.3-3.6-1.5-5.2c-0.1-1.3,0-1.6,0.1-1.7
		C8.1,32.3,8.5,32,9,31.8l0.7,5.6c0,0.1,0.1,0.2,0.2,0.3L11.2,38.7z"/>
	<path class="st2" d="M33.4,38.8v0.4c-0.9,0.8-2.1,1.3-3.3,1.4c-1.3,0.1-2.6-0.2-3.6-1c0.1,0.4,0.3,0.8,0.6,1.1
		c-0.6-0.1-1.2-0.1-1.7-0.1h-0.7c-1.2,0.1-3,2-4.2,3.8c-0.6,0.2-2.5,0.8-4.7,1.4c-1.3-1.8-2.4-3.9-3.1-6l0,0l-0.1-0.3l0.5,0.4l0,0
		l1.3,0.9l0.4,0.3c0.1,0,0.1,0.1,0.2,0.1H15L27,38.5c0.1,0,0.2-0.1,0.3-0.3l1.7-5.6c0.5-0.1,1-0.1,1.5,0l1.8,5.8
		c0,0.1,0.2,0.3,0.3,0.3L33.4,38.8z"/>
	<path class="st2" d="M47,38.4l0.4-0.3c-0.1,0.3-0.1,0.5-0.2,0.8c-0.5,1.6-1.1,3.1-1.9,4.6h-0.5c-0.5,0-1.1,0-1.7-0.1
		c-1.1-0.1-2.8-0.3-3.3-0.3l-3.4-2.6l-0.1-0.1c-0.3-0.3-0.6-0.4-1-0.4c-1,0.1-2,0.3-2.9,0.7c0.5-0.3,0.8-0.9,0.9-1.5v-0.4L44.5,40
		c0.1,0,0.2,0,0.3-0.1l1.2-0.7L47,38.4z"/>
	<path class="st6" d="M38.8,14.9c0.1,1.5-0.1,3-0.5,4.5c0,0.1,0,0.1,0,0.2l-1.8-0.2c0.5-1.1,0.8-2.2,0.8-3.4
		C37.8,15.7,38.3,15.3,38.8,14.9z"/>
	<path class="st6" d="M21.8,16c0.1,1.2,0.4,2.3,0.8,3.4l-1.8,0.2c0-0.1,0-0.1,0-0.2c-0.4-1.5-0.5-3-0.5-4.5
		C20.9,15.3,21.4,15.7,21.8,16z"/>
	<path class="st7" d="M41.8,34.5c-0.8-0.4-1.7,0.1-3.2,0.1c-1.2,0-2.2,0-2.2-1.8c-0.1-1.8,0.7-3.4,1.9-3.4s2.3,1.4,2.4,3.3
		c0.1,0.4,0,0.8-0.1,1.2C41.5,33.7,41.7,34.4,41.8,34.5z M38,31.8c0.3,0,0.6-0.3,0.6-0.6c0-0.3-0.3-0.6-0.6-0.6s-0.6,0.3-0.6,0.6
		c0,0,0,0,0,0C37.5,31.5,37.7,31.8,38,31.8L38,31.8z"/>
	
		<ellipse transform="matrix(0.9998 -1.832493e-02 1.832493e-02 0.9998 -0.5646 0.7022)" class="st8" cx="38" cy="31.2" rx="0.6" ry="0.6"/>
	<path class="st7" d="M23,33.2c0,1.9-1,1.7-2.2,1.8h-0.7c-0.9-0.1-1.7,0-2.5,0.3c0.3-0.5,0.8-0.8,1.3-0.9c-0.1-0.3-0.2-0.7-0.2-1.1
		c-0.1-1.9,1.1-3.4,2.2-3.4C22.1,29.9,22.9,31.3,23,33.2z M21.1,32.2c0.3,0,0.6-0.3,0.6-0.6S21.4,31,21.1,31c-0.3,0-0.6,0.3-0.6,0.6
		C20.5,31.9,20.8,32.2,21.1,32.2C21.1,32.2,21.1,32.2,21.1,32.2z"/>
	
		<ellipse transform="matrix(0.9997 -2.565353e-02 2.565353e-02 0.9997 -0.804 0.5519)" class="st8" cx="21.1" cy="31.6" rx="0.6" ry="0.6"/>
	<g class="st9">
		<path class="st6" d="M13.9,20.6c0.1-1.1,0.2-2.2,0.5-3.3c0.2-0.5,1.4-0.8,2.3-1c0.9-0.2,2.3-0.6,2.6,0.6c0.2,0.9,0.5,1.8,1,2.6
			L20,14.3l-6.2,1.5l-0.3,4.6l0.2,0.4L13.9,20.6"/>
		<path class="st6" d="M45.3,20.6c-0.1-1.1-0.3-2.2-0.6-3.3c-0.2-0.5-1.4-0.8-2.3-1s-2.3-0.6-2.6,0.6c-0.2,0.9-0.5,1.8-1,2.6
			l0.4-5.2l6.2,1.5l0.4,4.6l-0.2,0.4L45.3,20.6"/>
	</g>
	<path class="st10" d="M36.6,5c0,0-0.2,12.5-3.1,12.5h-7.6C22.9,17.5,22.7,5,22.7,5l-1.4,4.2V15l1,0.8l0.5,2.5l0.7,1.5H36l0.6-1
		l0.5-1.8l0.1-1.1l1.3-4L36.6,5z"/>
	<path class="st10" d="M45.8,16.6c0,0,0.6,4.3,2.2,5.1l0,0l-2.2-0.7L45.8,16.6z"/>
	<path class="st10" d="M13.4,16.6c0,0-0.6,4.3-2.2,5.1l0,0l2.2-0.7V16.6z"/>
	<path class="st7" d="M46.2,21c0.8,0.2,1.5,0.5,2.2,0.9c-0.4-0.1-0.7-0.3-1.1-0.3c-0.4-0.1-0.8-0.2-1.2-0.2
		c-0.8-0.2-1.5-0.3-2.3-0.4s-1.6-0.2-2.3-0.2s-1.6-0.1-2.4-0.2c-3.2-0.2-6.3-0.2-9.5-0.2s-6.3,0.1-9.5,0.2c-0.8,0-1.6,0.1-2.4,0.2
		s-1.6,0.2-2.4,0.2c-0.8,0.1-1.6,0.2-2.3,0.4c-0.4,0.1-0.8,0.2-1.2,0.2c-0.4,0.1-0.8,0.2-1.1,0.3c0.7-0.4,1.4-0.7,2.2-0.9l0.2-0.1
		l0,0c-0.2-1.7-0.1-3.4,0.2-5.1c0-0.1,0.1-0.3,0.3-0.3l0.8-0.2c0.2-6.2,2.7-9.1,2.8-9.2c-1.6,2.8-2.3,5.9-2.2,9.1l5-1.4h0.2h0.1l0,0
		l0,0l0,0l0.3,0.3c-0.1-3.6,0.6-7.1,2.3-10.3c-1.1,3.6-1.5,7.4-1.2,11.2c0.2,0.2,0.4,0.3,0.6,0.5c0.1,0.1,0.2,0.2,0.2,0.3
		c0.1,1.2,0.4,2.4,1,3.5v0.1c2-0.1,4.1-0.2,6.1-0.2s4.1,0.1,6.1,0.2v-0.1c0.5-1.1,0.8-2.3,0.9-3.5c0-0.1,0.1-0.2,0.2-0.3
		c0.2-0.1,0.4-0.3,0.6-0.5c0.3-3.8-0.1-7.6-1.2-11.2c1.6,3.2,2.4,6.7,2.3,10.3l0.3-0.3l0,0l0,0l0,0h0.1H39l5,1.4
		c0.1-3.2-0.7-6.3-2.2-9.1c0.1,0.1,2.6,3,2.8,9.2l0.8,0.2c0.1,0,0.2,0.2,0.3,0.3c0.3,1.7,0.4,3.4,0.2,5.1v0L46.2,21z M45.3,20.8
		c0.1-1.5,0.1-3.1-0.2-4.6l-5.7-1.7c0.1,1.7-0.1,3.4-0.5,5v0.1h0.2c1.6,0.2,3.2,0.4,4.7,0.8L45.3,20.8z M38.3,19.4
		c0.4-1.5,0.5-3,0.5-4.5c-0.4,0.4-0.9,0.8-1.4,1.1c-0.1,1.2-0.4,2.3-0.8,3.4l1.8,0.2C38.3,19.5,38.3,19.4,38.3,19.4L38.3,19.4z
		 M22.7,19.4c-0.5-1.1-0.8-2.2-0.8-3.4c-0.5-0.3-0.9-0.7-1.4-1.1c-0.1,1.5,0.1,3,0.5,4.5c0,0.1,0,0.1,0,0.2L22.7,19.4z M20.2,19.6
		L20.2,19.6c-0.4-1.7-0.6-3.4-0.5-5.1l-5.7,1.7c-0.2,1.5-0.3,3.1-0.2,4.6l1.4-0.3c0.8-0.2,1.6-0.3,2.3-0.5c0.8-0.1,1.6-0.2,2.4-0.3
		L20.2,19.6z"/>
	<path class="st7" d="M35.5,5.1v4.7h-3.3V8.5h-0.8v6.3h1.1v3.5h-5.8v-3.5h1.1V8.5h-0.8v1.4h-3.3V5.1H35.5z M34.5,8.8V6.1h-9.7v2.7
		h1.3V7.5h2.7v8.3h-1.1v1.5h3.8v-1.5h-1.2V7.5h2.7v1.4H34.5z"/>
	<polygon class="st0" points="34.5,6.1 34.5,8.8 33.2,8.8 33.2,7.5 30.5,7.5 30.5,15.8 31.6,15.8 31.6,17.3 27.8,17.3 27.8,15.8 
		28.9,15.8 28.9,7.5 26.2,7.5 26.2,8.8 24.9,8.8 24.9,6.1 30.5,6.1 33.1,6.1 	"/>
	<path class="st3" d="M8.4,25.5c0.5-0.1,1.1-0.2,1.9-0.4c-0.5,0.3-1.1,0.8-1.7,1.3L8.4,25.5z"/>
	<path class="st5" d="M26.2,38.4c0,0,0.1,0.9-1.1,1.2s-8.9,2.7-9.8,2.6c-1.1-0.4-2.1-0.9-3.1-1.6l-0.5-1.9l3.3,2.1L26.2,38.4z"/>
	<path class="st5" d="M33.1,38.2c0,0-0.1,0.9,1.1,1.2s9,2.3,9.9,2.1c1.1-0.5,2.1-1,3-1.8l0.5-1.9l-3,1.8L33.1,38.2z"/>
	<path class="st5" d="M7.8,36.8c0,0,1.1,2.1,2.8,1.4l1.2,0.4l-0.1,0.9l-2.6,0.3l-0.7-0.4L7.8,36.8z"/>
	<path class="st5" d="M51.6,36.2c0,0-1.8,2.2-3.5,1.5l-0.6,0.4l0.1,0.9l2.6,0.3l0.7-0.4L51.6,36.2z"/>
	<path class="st5" d="M24.5,53C29,54.8,34,54.4,38,51.8l-2.3-0.2c0,0-5,2-9,0.9L24.5,53z"/>
	<path class="st7" d="M31,47.1l0.4,0.5c0,0,1,1.2,2.2,2.3c0.8,0.8,1.8,1.2,2.9,1.2c0.4,0,0.8,0,1.2-0.1l1.2-0.3c1.5-0.3,3.2-0.8,4-1
		l0.5-0.1c1.4-0.1,2.6-1,3.3-2.2c0.6-1.2,1.4-2.7,2-3.8c-0.5,0.2-1,0.5-1.4,0.7c-0.7,0.3-1.5,0.5-2.3,0.5c-0.6,0-1.2,0-1.8-0.1
		c-1.3-0.1-3.5-0.4-3.5-0.4h-0.2l-0.1-0.1l-3.5-2.7l-0.2-0.1c-0.2-0.1-0.2-0.1-0.3-0.1c-1.7,0.3-3.4,0.8-5.1,1.4l-0.2,0.1l-0.2-0.1
		c-1.5-0.5-3-0.8-4.6-0.8h-0.6c-0.2,0-1.6,0.7-3.4,3.5l-0.1,0.2L21,45.5c0,0-3.1,1-6.3,1.9l-0.2,0.1l-0.2-0.1l-2.5-1.2
		c0.7,1,1.5,2.2,2.2,3.1c1.3,2,3.6,3.3,6.1,3.2c0.4,0,0.8,0,1.2-0.1c3.2-0.4,4-0.5,4.5-0.6l0.4-0.1c0,0,2.6-0.3,3.4-2
		s0.9-2.1,0.9-2.1l0.3-0.7c0-0.1,0-0.2,0.1-0.2l0,0C30.8,46.9,30.9,47,31,47.1z M11.1,15.2c-0.7,0.3-1.4,0.6-2,0.9s-1.3,0.6-2,1
		c-0.6,0.3-1.1,0.7-1.6,1.2c0,0.1,0,0.3-0.1,0.4s0,0.4-0.1,0.5c0,0.4,0,0.7,0,1.1c0,0.7,0,1.5,0.1,2.2c0.1,0.7,0.2,1.5,0.4,2.2
		c0.1,0.4,0.2,0.7,0.3,1c0.1,0.2,0.1,0.3,0.2,0.5l0.1,0.2v0.1l0.2,0.1l0.3,0.2l0.6,0.3l0,0l-0.6-2.3c0.1,0,1.3-0.3,3.3-0.7l-0.5-0.1
		c-0.5-0.1-0.9-0.3-1.4-0.4c-0.2-0.1-0.4-0.2-0.6-0.3c-0.2-0.1-0.4-0.3-0.6-0.4c2.2,0.7,6.8,0.4,10.8,0c3.7-0.4,7.5-0.6,11.2-0.7
		c3.7,0,7.5,0.2,11.2,0.6c4.1,0.4,8.6,0.8,10.8,0c-0.2,0.2-0.4,0.3-0.6,0.4c-0.2,0.1-0.4,0.2-0.6,0.3c-0.4,0.2-0.9,0.3-1.3,0.4h-0.2
		c2.2,0.4,3.5,0.7,3.6,0.8l-0.6,2.2l0.3-0.2l0.3-0.2l0.2-0.1v-0.1l0.1-0.2c0.1-0.2,0.2-0.3,0.2-0.5c0.1-0.3,0.2-0.7,0.3-1
		c0.2-0.7,0.3-1.5,0.4-2.2c0.1-0.7,0.1-1.5,0.1-2.2c0-0.4,0-0.8,0-1.1c0-0.2,0-0.4-0.1-0.5s0-0.3-0.1-0.4c-0.5-0.4-1.1-0.8-1.6-1.1
		c-0.6-0.4-1.3-0.7-2-1c-0.7-0.3-1.4-0.6-2-0.9l-1-0.4l-1-0.4c0.7,0.1,1.5,0.3,2.2,0.5c0.5,0.1,1,0.3,1.4,0.4
		C46.3,6.6,38.3,1,29.6,1S13,6.6,9.6,15.3c0.5-0.2,0.9-0.3,1.4-0.4c0.7-0.2,1.5-0.4,2.2-0.5l-1.1,0.4L11.1,15.2z M55,20.2
		c0,0.8,0,1.6-0.1,2.4c-0.1,0.8-0.2,1.6-0.5,2.4c-0.1,0.4-0.2,0.8-0.4,1.2c-0.1,0.2-0.2,0.4-0.2,0.6l-0.1,0.3l-0.1,0.1l-0.1,0.2
		l-0.1,0.1l-0.1,0.1l-0.4,0.2l-0.4,0.2l-0.7,0.3l-0.5,0.2L51,29.9l-0.3-0.1V30c0.6,0.3,1.1,0.6,1.6,0.9c0.6,0.5,0.6,1.3,0.5,2.7
		c-0.1,1.2-0.4,2.4-0.7,3.5c-0.6,2.3-0.9,2.5-1.3,2.7c-0.3,0.1-0.5,0.1-0.8,0.1c-0.7,0-1.3,0-2-0.1c-0.4,1.2-0.9,2.4-1.5,3.6
		l0.1-0.1c1-0.5,3-1.4,3.1-1.4l1.5-0.7l-0.7,1.5c0,0-1.7,3.2-2.8,5.3c-0.9,1.5-2.4,2.6-4.1,2.8l-0.5,0.1c-0.8,0.2-2.5,0.6-4,1h0
		c-1,0.6-2,1.1-3,1.5c-3.9,1.5-8.2,1.5-12.1,0l-2.5,0.3c-0.5,0.1-0.9,0.1-1.4,0.1c-2.8,0-5.4-1.3-7-3.7c-1.5-1.9-3.4-4.8-3.5-4.9
		l-1.1-1.7l1.8,0.8l4.2,1.9l0.2-0.1c-1.3-1.8-2.3-3.8-2.9-5.9c-0.7,0.2-1.5,0.3-2.3,0.3c-0.2,0-0.5,0-0.7-0.1
		c-0.4-0.1-0.9-0.5-1.5-2.7c-0.3-1.1-0.6-2.3-0.7-3.4c-0.1-1.4-0.1-2.2,0.5-2.6c0.6-0.4,1.2-0.7,1.8-1l0-0.4
		c-2.1,1.2-4.2,2.7-6.1,4.2L0,36.9l1.9-3c1.4-2.2,3-4.1,4.9-5.8L6.6,28l-0.4-0.2l-0.4-0.2l-0.1-0.1l-0.1-0.1l-0.1-0.2l-0.1-0.1
		l-0.1-0.3c-0.1-0.2-0.2-0.4-0.2-0.6c-0.1-0.4-0.3-0.8-0.4-1.2c-0.4-1.6-0.6-3.2-0.5-4.8c0-0.4,0-0.8,0.1-1.2c0-0.2,0.1-0.4,0.1-0.6
		s0.1-0.4,0.1-0.6v-0.2l0.1-0.1c0.6-0.5,1.3-0.9,2-1.2c0.6-0.3,1.1-0.5,1.7-0.7c1.6-4.5,4.4-8.4,8.1-11.4c7.7-5.9,18.3-5.9,26,0
		c3.7,2.9,6.6,6.9,8.1,11.4c0.6,0.2,1.2,0.5,1.7,0.7c0.7,0.3,1.4,0.7,2,1.2l0.1,0.1V18c0.1,0.2,0.1,0.4,0.1,0.6s0.1,0.4,0.1,0.6
		C54.9,19.5,55,19.9,55,20.2L55,20.2z M51.7,33.4c0.1-1.4,0-1.7-0.1-1.8c-0.4-0.2-0.7-0.4-1.1-0.6l-0.8,5.3c0,0.1-0.1,0.2-0.2,0.3
		l-1.1,0.8c-0.1,0.4-0.1,0.6-0.2,1.1c0.7,0.2,1.4,0.2,2.1,0.2C50.8,38.2,51.5,35.2,51.7,33.4L51.7,33.4z M50.3,28.6l0.8-3.1
		c-1.2-0.3-3.4-0.7-6.3-1.1c-1.5,1.1-3.1,2-4.8,2.7C43.4,27.3,46.8,27.9,50.3,28.6L50.3,28.6z M49,36.1l0.9-6.5l-1.6-0.3l-0.9,6
		c0,0.1-0.1,0.2-0.2,0.3l-3.2,2.2c-0.1,0.1-0.2,0.1-0.3,0.1l-9.4-1.1c-0.2,0-0.3-0.1-0.3-0.3l-1.7-5.6c-0.9-0.2-1.8-0.4-2.7-0.4
		c-0.9,0-1.8,0.2-2.7,0.4l-1.7,5.6c0,0.1-0.1,0.2-0.2,0.2h-0.1l-9.5,2.1h-0.1c-0.1,0-0.2,0-0.2-0.1l-3.1-2.2
		c-0.1-0.1-0.1-0.2-0.2-0.3l-0.9-6.9l-1,0.2l-0.6,0.3l0.9,7.3l4.6,3.2l11.6-2.6l1.8-5.6c0-0.1,0.2-0.2,0.3-0.3
		c0.7-0.1,1.5-0.1,2.3,0c0.1,0,0.3,0.1,0.3,0.3l1.8,5.8l11.6,1.2L49,36.1z M46.8,34.9l0.8-5.7c-3.3-0.6-6.6-1-9.9-1.2
		c-2.3,0.8-4.7,1.4-7.1,1.7h-0.2c0.8,0.1,1.6,0.2,2.4,0.4c0.1,0,0.2,0.1,0.3,0.3l1.7,5.6l9.1,1L46.8,34.9z M47.4,38.2L47,38.5
		l-1,0.7L44.9,40c-0.1,0.1-0.2,0.1-0.3,0.1l-11.2-1.3l-0.8-0.1c-0.2,0-0.3-0.1-0.3-0.3l-1.8-5.8c-0.5-0.1-1-0.1-1.5,0l-1.7,5.6
		c0,0.1-0.1,0.2-0.3,0.3L15,41.1h-0.1c-0.1,0-0.2,0-0.2-0.1l-0.4-0.3L13,39.9l0,0l-0.5-0.4c0,0.1,0.1,0.2,0.1,0.3l0,0
		c0.8,2.1,1.8,4.2,3.1,6c2.2-0.7,4.1-1.2,4.7-1.4c1.2-1.9,3-3.8,4.2-3.8h0.7c0.6,0,1.2,0,1.7,0.1c-0.3-0.3-0.5-0.7-0.6-1.1
		c1,0.8,2.3,1.1,3.6,1c1.2-0.2,2.4-0.6,3.3-1.4c-0.1,0.6-0.4,1.2-0.9,1.5c0.9-0.3,1.9-0.6,2.9-0.7c0.4,0,0.7,0.2,1,0.4l0.1,0.1
		l3.3,2.6c0.5,0.1,2.2,0.2,3.3,0.3c0.6,0.1,1.2,0.1,1.7,0.1h0.5c0.8-1.5,1.4-3,1.9-4.6C47.2,38.7,47.3,38.4,47.4,38.2z M43.2,24
		L43.2,24l-2.7-0.2c-1.3-0.1-2.5-0.1-3.8-0.2l-0.4,0.6c-1.1,1.5-2.4,2.9-3.8,4c3.7-0.6,7.2-2,10.4-4L43.2,24z M35,24.2l0.3-0.4
		c-0.9,0.1-1.8,0.2-2.7,0.4c-2.7,0.5-5.4,1.3-8,2.4c1.6-0.1,3.3-0.1,5.1-0.1c1.1,0,2.1,0,3.1,0C33.7,25.8,34.4,25,35,24.2z M36,52.3
		c-1.2-0.1-2.4-0.6-3.3-1.5l-0.1-0.1c-0.4,0.1-0.9,0.2-1.3,0.2h-0.6h-0.4c-1.2,1.8-3.9,2.2-4,2.2L26,53.1c1.5,0.4,3,0.6,4.5,0.5
		C32.4,53.4,34.3,53,36,52.3L36,52.3z M31.3,50.2c0.3,0,0.6-0.1,0.9-0.1c-0.4-0.4-0.7-0.8-1-1.1l-0.5,1.2h0.1L31.3,50.2z M30.3,28.6
		c0.5-0.3,1-0.6,1.4-1h-2c-2.8,0-5.4,0.1-7.8,0.3c-1.3,0.6-2.6,1.3-3.9,2.1l-2.3,1.5l1.5-2.2c0.3-0.4,0.5-0.7,0.8-1.1
		c-2.6,0.3-4.8,0.6-6.4,0.9l0.8,6.8l2.9,2l9.1-2l1.7-5.6c0-0.1,0.1-0.2,0.2-0.2h0.1c0.7-0.2,1.3-0.3,2-0.4L30.3,28.6z M31.3,23.4
		h-1.9l0,0h-2.8l-1.7,0.8l0,0c-1.7,0.9-3.3,2-4.7,3.3c2.6-1.4,5.2-2.5,8-3.3C29.3,24,30.3,23.7,31.3,23.4L31.3,23.4z M19.3,27
		c0.8-0.8,1.7-1.5,2.6-2.2c-2.9,0.7-5.8,1.7-8.6,3C15,27.6,17,27.3,19.3,27L19.3,27z M19.9,24.3c1.1-0.3,2.1-0.5,3.2-0.8
		c-1.6,0.1-3.2,0.1-4.8,0.2c-0.9,0.1-1.8,0.1-2.8,0.2l-1.4,0.1h-0.4c-3.4,2-6.4,4.5-9,7.4C9.5,28.3,14.5,25.9,19.9,24.3L19.9,24.3z
		 M11.4,39.3c-0.1-0.2-0.1-0.4-0.2-0.6l-1.4-1c-0.1-0.1-0.1-0.2-0.2-0.3L9,31.8c-0.4,0.2-0.9,0.5-1.3,0.7c-0.1,0.1-0.2,0.4-0.1,1.7
		c0.2,1.7,1,4.8,1.5,5.2C9.9,39.5,10.7,39.5,11.4,39.3z M10.4,25.1c-0.8,0.2-1.5,0.3-1.9,0.4l0.2,0.9C9.3,25.9,9.9,25.5,10.4,25.1
		L10.4,25.1z"/>
	<path class="st7" d="M70.2,20.4h-6.4V17h16.6v3.3h-6.3v18.8h-3.9V20.4z"/>
	<path class="st7" d="M80.1,22.6h3.2l0.3,3h0.1c1.2-2.2,2.9-3.3,4.7-3.3c0.7,0,1.3,0.1,1.9,0.3l-0.7,3.4c-0.6-0.2-1.1-0.3-1.7-0.3
		c-1.3,0-2.9,0.9-3.9,3.4v10.1h-3.9V22.6z"/>
	<path class="st7" d="M101,28.6c0-1.8-0.8-3.2-3-3.2c-1.7,0.1-3.3,0.7-4.7,1.6l-1.4-2.6c2-1.3,4.4-2.1,6.8-2.1
		c4.2,0,6.2,2.5,6.2,7.2v9.8h-3.2l-0.3-1.8h-0.1c-1.4,1.3-3.2,2.1-5.2,2.2c-2.6,0.2-4.8-1.8-4.9-4.4c0-0.2,0-0.3,0-0.5
		C91.2,31.2,94.2,29.3,101,28.6z M97.4,36.6c1.4-0.1,2.7-0.8,3.6-1.8V31c-4.5,0.6-6,1.8-6,3.4C95,35.9,96,36.5,97.4,36.6L97.4,36.6z
		"/>
	<path class="st7" d="M106,22.6h4l2.6,8.6c0.4,1.6,0.9,3.3,1.4,5h0.1c0.5-1.7,0.9-3.4,1.4-5l2.6-8.6h3.8l-5.7,16.6h-4.5L106,22.6z"
		/>
	<path class="st7" d="M123.4,17.5c-0.1-1.3,0.9-2.5,2.2-2.6c1.3-0.1,2.5,0.9,2.6,2.2s-0.9,2.5-2.2,2.6c-0.1,0-0.1,0-0.2,0
		c-1.2,0.1-2.3-0.8-2.4-2.1C123.5,17.5,123.5,17.5,123.4,17.5z M123.9,22.6h3.9v16.6h-3.9L123.9,22.6z"/>
	<path class="st7" d="M131.8,34.8c1.3,1.1,2.9,1.8,4.6,1.9c1.8,0,2.6-0.8,2.6-2c0-1.4-1.8-2-3.6-2.7c-2.2-0.8-4.7-2.1-4.7-4.8
		s2.3-5,6.1-5c2,0,4,0.8,5.6,2.1l-1.8,2.4c-1-0.9-2.3-1.4-3.7-1.4c-1.7,0-2.4,0.8-2.4,1.8c0,1.3,1.7,1.8,3.4,2.5
		c2.3,0.8,4.8,1.9,4.8,5c0,2.8-2.3,5.2-6.5,5.2c-2.3-0.1-4.5-0.9-6.3-2.3L131.8,34.8z"/>
	<path class="st7" d="M161.8,16.6c2.4,0,4.7,1,6.3,2.8l-2.2,2.4c-1.1-1.2-2.5-1.8-4.1-1.8c-3.6,0-6.2,3-6.2,8s2.4,8.1,6.1,8.1
		c1.8,0,3.5-0.8,4.7-2.2l2.2,2.4c-1.7,2.1-4.2,3.2-6.9,3.2c-5.6,0-10.1-4.1-10.1-11.4S156.1,16.6,161.8,16.6z"/>
	<path class="st7" d="M171,17h3.9v22.2H171V17z"/>
</g>
</svg>
