<?xml version="1.0" encoding="utf-8"?>
<!-- Generator: Adobe Illustrator 21.1.0, SVG Export Plug-In . SVG Version: 6.00 Build 0)  -->
<svg version="1.1" id="圖層_1" xmlns="http://www.w3.org/2000/svg" xmlns:xlink="http://www.w3.org/1999/xlink" x="0px" y="0px"
	 viewBox="0 0 87.6 80.8" style="enable-background:new 0 0 87.6 80.8;" xml:space="preserve">
<style type="text/css">
	.st0{fill:#040000;}
	.st1{fill:url(#SVGID_1_);}
	.st2{fill:url(#SVGID_2_);}
	.st3{fill:url(#SVGID_3_);}
	.st4{fill:url(#SVGID_4_);}
	.st5{fill:#F5C0C1;}
</style>
<title>speaker_treasure-data</title>
<g>
	<polygon class="st0" points="0,58 2.8,58 2.8,65.8 4.5,65.8 4.5,58 7.3,58 7.3,57.9 7.3,56.6 0,56.6 	"/>
	<path class="st0" d="M18.2,60.9c0.3-0.5,0.5-1,0.4-1.5c0.1-0.8-0.2-1.6-0.8-2.1c-0.7-0.5-1.6-0.8-2.4-0.7h-3.1v9.2h1.7v-3.4h1.5
		l1.8,3.4h1.7v-0.3L17,61.8C17.4,61.6,17.9,61.3,18.2,60.9z M16.9,59.4c0,0.4-0.1,0.8-0.4,1c-0.3,0.2-0.8,0.4-1.2,0.3h-1.4V58h1.5
		c0.4,0,0.8,0.1,1.2,0.3C16.8,58.6,16.9,59,16.9,59.4z"/>
	<polygon class="st0" points="29.8,64.4 25.5,64.4 25.5,61.7 29.2,61.7 29.2,61.7 29.2,60.3 25.5,60.3 25.5,58 29.8,58 29.8,56.6 
		23.7,56.6 23.7,65.8 29.8,65.8 	"/>
	<path class="st0" d="M36.3,63.6h3.3l0.7,2.2h1.8l-3.4-9.2h-1.5l-3.4,9.2h1.8L36.3,63.6z M36.8,62.2l1.2-3.4l1.2,3.4H36.8z"/>
	<path class="st0" d="M48,65.4c0.6,0.2,1.2,0.4,1.8,0.4c0.8,0,1.7-0.2,2.4-0.7c0.6-0.4,0.9-1.1,0.9-1.8c0-0.4-0.1-0.9-0.3-1.2
		c-0.2-0.4-0.6-0.7-1-0.9c-0.5-0.3-1.1-0.5-1.7-0.7c-0.5-0.1-1-0.3-1.5-0.6c-0.3-0.2-0.4-0.5-0.4-0.8c0-0.3,0.1-0.6,0.4-0.8
		c0.3-0.2,0.7-0.3,1.1-0.3c0.4,0,0.9,0.1,1.2,0.3c0.3,0.3,0.4,0.6,0.4,1v0.1h1.7v0c0-0.5-0.2-1-0.4-1.4c-0.3-0.4-0.7-0.8-1.2-1
		c-0.5-0.2-1.1-0.4-1.7-0.3c-0.8,0-1.7,0.2-2.3,0.7c-0.6,0.4-0.9,1.1-0.9,1.8c0,0.9,0.5,1.7,1.3,2.1c0.5,0.3,1.1,0.6,1.7,0.7
		c0.5,0.1,1,0.3,1.5,0.6c0.3,0.2,0.4,0.5,0.4,0.8c0,0.3-0.1,0.6-0.4,0.8c-0.3,0.2-0.8,0.3-1.2,0.3c-0.5,0-1-0.1-1.4-0.4
		c-0.3-0.3-0.5-0.7-0.5-1.1v-0.1h-1.7v0.1c0,0.5,0.2,1.1,0.5,1.5C47.1,64.8,47.5,65.2,48,65.4z"/>
	<path class="st0" d="M61.4,65.8c0.9,0,1.8-0.3,2.5-0.8c0.6-0.6,1-1.4,0.9-2.3v-6h-1.7v6c0,0.5-0.1,1-0.4,1.4
		c-0.3,0.3-0.8,0.5-1.3,0.5c-0.5,0-0.9-0.1-1.2-0.5c-0.3-0.4-0.4-0.8-0.4-1.3v-6h-1.7v6C58,63.5,58.3,64.4,59,65
		C59.6,65.6,60.5,65.8,61.4,65.8z"/>
	<path class="st0" d="M76.2,60.9c0.3-0.5,0.5-1,0.4-1.5c0-0.8-0.3-1.5-0.9-2.1c-0.7-0.5-1.6-0.8-2.4-0.7h-3.4v9.2h1.7v-3.5h1.7
		l1.8,3.4H77v-0.3l-2-3.7C75.4,61.6,75.9,61.3,76.2,60.9z M74.9,59.4c0,0.4-0.1,0.8-0.4,1c-0.3,0.2-0.8,0.4-1.2,0.3h-1.7V58h1.7
		c0.4,0,0.8,0.1,1.2,0.3C74.8,58.6,74.9,59,74.9,59.4z"/>
	<polygon class="st0" points="87.6,58 87.6,56.6 81.8,56.6 81.8,65.8 87.6,65.8 87.6,64.4 83.5,64.4 83.5,61.7 87,61.7 87,61.7 
		87,60.3 83.5,60.3 83.5,58 	"/>
	<path class="st0" d="M28.5,72.2c-0.7-0.4-1.4-0.6-2.1-0.6h-2.5v9.2h2.5c0.8,0,1.5-0.2,2.2-0.6c0.6-0.4,1.1-0.9,1.5-1.5
		c0.4-0.7,0.5-1.5,0.5-2.3V76c0-0.8-0.2-1.6-0.5-2.3C29.6,73.1,29.1,72.5,28.5,72.2z M25.5,73h0.9c0.7,0,1.3,0.3,1.8,0.8
		c0.5,0.6,0.7,1.4,0.7,2.2v0.5c0,0.8-0.2,1.5-0.7,2.2c-0.5,0.5-1.1,0.8-1.8,0.8h-0.8L25.5,73z"/>
	<path class="st0" d="M38.1,71.6l-3.4,9.2h1.8l0.7-2.2h3.3l0.7,2.2H43l-3.4-9.2H38.1z M40,77.2h-2.4l1.2-3.4L40,77.2z"/>
	<polygon class="st0" points="46.2,73 49,73 49,80.8 50.7,80.8 50.7,73 53.5,73 53.5,72.9 53.5,71.6 46.2,71.6 	"/>
	<path class="st0" d="M60.1,71.6l-3.4,9.2h1.8l0.7-2.2h3.3l0.7,2.2h1.8l-3.4-9.2H60.1z M62.1,77.2h-2.4l1.2-3.4L62.1,77.2z"/>
	
		<linearGradient id="SVGID_1_" gradientUnits="userSpaceOnUse" x1="43.83" y1="-98.66" x2="43.83" y2="-118.73" gradientTransform="matrix(1 0 0 -1 0 -98.72)">
		<stop  offset="0" style="stop-color:#E7794F"/>
		<stop  offset="1" style="stop-color:#E47276"/>
	</linearGradient>
	<path class="st1" d="M52.1,20L52.1,20L52.1,20l13-20l0,0H65h-0.1l0,0h-0.2H22.9h-0.2h-0.1h-0.1L52.1,20z"/>
	
		<linearGradient id="SVGID_2_" gradientUnits="userSpaceOnUse" x1="35.1514" y1="-100.9393" x2="32.6214" y2="-115.2593" gradientTransform="matrix(1 0 0 -1 0 -98.72)">
		<stop  offset="0" style="stop-color:#E56034"/>
		<stop  offset="1" style="stop-color:#E15662"/>
	</linearGradient>
	<path class="st2" d="M22.6,0L22.6,0l-0.2,0.1l0,0c-0.1,0-0.1,0.1-0.2,0.1l-8.1,8.5L14,8.8c0,0-0.1,0.1-0.1,0.2l0,0
		c0,0-0.1,0.1-0.1,0.1l0,0c0,0.1-0.1,0.2-0.1,0.4l0,0l38.4,10.4L22.6,0z"/>
	
		<linearGradient id="SVGID_3_" gradientUnits="userSpaceOnUse" x1="32.93" y1="-98.66" x2="32.93" y2="-140.98" gradientTransform="matrix(1 0 0 -1 0 -98.72)">
		<stop  offset="0" style="stop-color:#E14F27"/>
		<stop  offset="1" style="stop-color:#D81D82"/>
	</linearGradient>
	<path class="st3" d="M52.1,20L52.1,20L13.7,9.6c0,0.2,0.1,0.5,0.3,0.7l29.1,31.7c0.2,0.2,0.5,0.3,0.7,0.3L52.1,20L52.1,20z"/>
	
		<linearGradient id="SVGID_4_" gradientUnits="userSpaceOnUse" x1="60.6429" y1="-99.5372" x2="63.6629" y2="-116.6972" gradientTransform="matrix(1 0 0 -1 0 -98.72)">
		<stop  offset="0" style="stop-color:#EA8F6E"/>
		<stop  offset="1" style="stop-color:#EA8A8A"/>
	</linearGradient>
	<path class="st4" d="M73.9,9.4L73.9,9.4V9.3V9.2l-0.1-0.1v0l-0.1-0.1l-8.2-8.6l-0.2-0.1l-0.1-0.1h-0.1l-12.9,20L73.9,9.4z"/>
	<path class="st5" d="M73.8,9.9L73.8,9.9c0-0.1,0-0.1,0-0.2l0,0c0-0.1,0-0.1,0-0.2l0,0L52.1,20l-8.4,22.2l0,0c0.1,0,0.3,0,0.4-0.1
		l0,0l0.2-0.1l0,0c0.1,0,0.1-0.1,0.2-0.1l29.1-31.7c0-0.1,0.1-0.1,0.1-0.2l0,0C73.7,10,73.8,9.9,73.8,9.9z M52.2,20.1L52.2,20.1z"/>
</g>
</svg>
