<svg version="1" xmlns="http://www.w3.org/2000/svg" width="533.333" height="533.333" viewBox="0 0 400.000000 400.000000"><path d="M196.5 26c-1.1.5-23 21.9-48.7 47.7-45.4 45.5-46.8 47-46.8 50.7 0 3.7 1.2 5 35.9 39.7l35.8 35.9-35.8 35.9c-34.7 34.7-35.9 36-35.9 39.8 0 3.7 1.3 5.1 47.8 51.5l47.7 47.7 3.9-.4c3.7-.3 6.7-3.1 51.3-47.7 45.9-46 47.3-47.5 47.3-51.2 0-3.7-1.2-5-35.9-39.7L227.3 200l35.8-35.9c34.7-34.7 35.9-36 35.9-39.8 0-3.7-1.3-5.1-47.7-51.4-49.3-49-49.4-49.2-54.8-46.9zm45.7 55.7c23 23 41.8 42.2 41.8 42.7s-15.8 16.7-35.2 36c-32.9 32.9-35.1 35.4-35.6 39.1l-.4 4.1 35.6 35.6c19.6 19.5 35.6 35.9 35.6 36.4s-18.9 19.8-42 42.9l-42 42-42-42c-23.1-23.1-42-42.4-42-42.9s15.8-16.7 35.1-36c33-32.9 35.2-35.3 35.7-39.1l.4-4-35.6-35.7C132 141.3 116 124.9 116 124.4c0-.9 83.1-84.4 84-84.4.3 0 19.3 18.8 42.2 41.7z"/><path d="M153.5 111l-12 12 29.3 29.3 29.2 29.2 29.2-29.2 29.3-29.3-12-12-12-12h-69l-12 12zm87 8.3l3 1.4-3.2 1.6c-1.8 1-3.6 3-4.3 4.9l-1.2 3.3-1.5-3.6c-1.1-2.6-2.4-3.9-5.1-4.9l-3.7-1.4 3.4-1c2.6-.7 3.8-1.9 5-4.8l1.6-3.9 1.5 3.5c.8 2 2.7 4.1 4.5 4.9zM196.9 220.8c-15.3 16-22.7 37.7-17.3 51 1.7 4.4 6.9 9.7 11.1 11.3 7.1 2.7 18.9.9 24.6-3.7 3.9-3.2 6.8-9.5 6.9-15.2 0-6.4-2.5-12-9.2-20.2-6.5-7.9-9.7-14.7-10.5-22-.4-3-.7-5.6-.9-5.7-.1-.1-2.2 1.9-4.7 4.5zM178.7 298.1c-5.2.8-12 4.7-13.6 7.6-.7 1.5 2.2 4.9 17 19.7l17.9 17.8 18.1-18.1 18.1-18.1-2.9-1.1c-2.1-.8-4.2-.6-8.8.6-11.9 3.2-15.5 2.7-25.9-4-7.1-4.5-12.2-5.7-19.9-4.4z"/></svg>