<?xml version="1.0" encoding="utf-8"?>
<svg version="1.1" class="deco_wave bg-deco" xmlns="http://www.w3.org/2000/svg" xmlns:xlink="http://www.w3.org/1999/xlink" x="0px" y="0px"
	 viewBox="0 0 150 65" style="enable-background:new 0 0 300 65;" xml:space="preserve">
	<path class="deco-line sinewave" d="M0,22.5c16.7,0,16.7,20,33.3,20c16.7,0,16.7-20,33.3-20c16.7,0,16.7,20,33.3,20c16.7,0,16.7-20,33.3-20
		c16.7,0,16.7,20,33.3,20c16.7,0,16.7-20,33.3-20c16.7,0,16.7,20,33.3,20c16.7,0,16.7-20,33.3-20s16.7,20,33.3,20 M0,2.5
		c16.7,0,16.7,20,33.3,20c16.7,0,16.7-20,33.3-20c16.7,0,16.7,20,33.3,20c16.7,0,16.7-20,33.3-20c16.7,0,16.7,20,33.3,20
		c16.7,0,16.7-20,33.3-20c16.7,0,16.7,20,33.3,20c16.7,0,16.7-20,33.3-20s16.7,20,33.3,20 M0,42.5c16.7,0,16.7,20,33.3,20
		c16.7,0,16.7-20,33.3-20c16.7,0,16.7,20,33.3,20c16.7,0,16.7-20,33.3-20c16.7,0,16.7,20,33.3,20c16.7,0,16.7-20,33.3-20
		c16.7,0,16.7,20,33.3,20c16.7,0,16.7-20,33.3-20s16.7,20,33.3,20"/>
</svg>
