<?xml version="1.0" encoding="utf-8"?>
<svg version="1.1" class="main_logotype" xmlns="http://www.w3.org/2000/svg" xmlns:xlink="http://www.w3.org/1999/xlink" x="0px" y="0px"
	 viewBox="0 0 142 36" style="enable-background:new 0 0 142 36;" xml:space="preserve">
	<style type="text/css">
		.logotype_ruby{fill:url(#logotype_ruby_gradient);}
		.logotype_elixir{fill:url(#logotype_elixir_gradient);}
	</style>
	<title>Main Logotype</title>
	<g class="conf_taiwan_2018">
		<g class="conf">
			<path class="logotype-color" d="M10.7,33.7c-0.6,0.5-1.2,0.9-2,1.1c-0.7,0.3-1.5,0.4-2.2,0.4c-0.6,0-1.2-0.1-1.7-0.2
				c-0.5-0.2-1.1-0.4-1.5-0.7c-0.5-0.3-0.9-0.6-1.3-1c-0.4-0.4-0.7-0.8-1-1.3c-0.3-0.5-0.5-1-0.7-1.5C0.1,30,0,29.4,0,28.8
				s0.1-1.2,0.2-1.7c0.2-0.6,0.4-1.1,0.7-1.5c0.3-0.5,0.6-0.9,1-1.3c0.4-0.4,0.8-0.7,1.3-1c0.5-0.3,1-0.5,1.5-0.7
				c0.6-0.2,1.1-0.2,1.7-0.2c0.8,0,1.5,0.1,2.2,0.4c0.7,0.3,1.4,0.6,2,1.2L9.3,26C9,25.7,8.5,25.3,8,25.1c-0.5-0.2-1-0.3-1.6-0.3
				c-0.6,0-1.1,0.1-1.6,0.3S4,25.6,3.7,26c-0.4,0.4-0.6,0.8-0.9,1.3c-0.2,0.5-0.3,1-0.3,1.5c0,0.5,0.1,1.1,0.3,1.5
				c0.2,0.5,0.5,0.9,0.9,1.3c0.4,0.4,0.8,0.6,1.3,0.9c0.5,0.2,1,0.3,1.6,0.3c0.5,0,1.1-0.1,1.6-0.3c0.5-0.2,0.9-0.5,1.3-0.9
				L10.7,33.7z"/>
			<path class="logotype-color" d="M20.6,30.2c0,0.7-0.1,1.3-0.4,1.9s-0.6,1.1-1,1.6c-0.4,0.4-0.9,0.8-1.5,1c-0.6,0.3-1.2,0.4-1.9,0.4
				c-0.7,0-1.3-0.1-1.9-0.4c-0.6-0.3-1.1-0.6-1.5-1c-0.4-0.4-0.8-1-1-1.6c-0.3-0.6-0.4-1.3-0.4-1.9c0-0.7,0.1-1.4,0.4-2
				c0.3-0.6,0.6-1.1,1-1.6c0.4-0.4,0.9-0.8,1.5-1c0.6-0.2,1.2-0.4,1.9-0.4c0.7,0,1.3,0.1,1.9,0.4c0.6,0.2,1.1,0.6,1.5,1
				c0.4,0.4,0.8,1,1,1.6C20.5,28.8,20.6,29.5,20.6,30.2z M18.2,30.2c0-0.4-0.1-0.7-0.2-1c-0.1-0.3-0.3-0.6-0.5-0.8
				c-0.2-0.2-0.5-0.4-0.8-0.5c-0.3-0.1-0.6-0.2-0.9-0.2c-0.3,0-0.6,0.1-0.9,0.2c-0.3,0.1-0.5,0.3-0.8,0.5c-0.2,0.2-0.4,0.5-0.5,0.8
				c-0.1,0.3-0.2,0.7-0.2,1c0,0.4,0.1,0.7,0.2,1c0.1,0.3,0.3,0.6,0.5,0.8c0.2,0.2,0.5,0.4,0.8,0.5c0.3,0.1,0.6,0.2,0.9,0.2
				c0.3,0,0.6-0.1,0.9-0.2c0.3-0.1,0.5-0.3,0.8-0.5c0.2-0.2,0.4-0.5,0.5-0.8C18.1,31,18.2,30.6,18.2,30.2z"/>
			<path class="logotype-color" d="M24,35h-2.4v-9.3h0.6l0.8,0.9c0.4-0.3,0.8-0.6,1.3-0.8c0.5-0.2,1-0.3,1.5-0.3c0.6,0,1.1,0.1,1.6,0.3
				c0.5,0.2,0.9,0.5,1.3,0.9c0.4,0.4,0.7,0.8,0.9,1.3c0.2,0.5,0.3,1,0.3,1.6V35h-2.4v-5.3c0-0.2,0-0.5-0.1-0.7
				c-0.1-0.2-0.2-0.4-0.4-0.6c-0.2-0.2-0.4-0.3-0.6-0.4c-0.2-0.1-0.4-0.1-0.7-0.1c-0.3,0-0.5,0-0.7,0.1c-0.2,0.1-0.4,0.2-0.6,0.4
				c-0.2,0.2-0.3,0.4-0.4,0.6c-0.1,0.2-0.1,0.4-0.1,0.7V35z"/>
			<path class="logotype-color" d="M34.3,35h-2.4v-7h-1.2v-2.4h1.2v-0.4c0-0.6,0.1-1.1,0.3-1.6c0.2-0.5,0.5-0.9,0.9-1.3
				c0.4-0.4,0.8-0.7,1.3-0.9s1-0.3,1.6-0.3h1.8v2.4h-1.8c-0.3,0-0.5,0-0.7,0.1c-0.2,0.1-0.4,0.2-0.6,0.4c-0.2,0.2-0.3,0.3-0.4,0.6
				c-0.1,0.2-0.1,0.5-0.1,0.7v0.4h2.9V28h-2.9V35z"/>
		</g>
		<g class="taiwan">
			<path class="logotype-color" d="M48.8,35h-2.5V25h-3.8v-2.5h10V25h-3.8V35z"/>
			<path class="logotype-color" d="M61.2,35h-0.6l-0.9-1.3c-0.2,0.2-0.5,0.4-0.7,0.6c-0.3,0.2-0.5,0.3-0.8,0.5c-0.3,0.1-0.6,0.2-0.9,0.3
				c-0.3,0.1-0.6,0.1-0.9,0.1c-0.7,0-1.3-0.1-1.9-0.3c-0.6-0.2-1.1-0.5-1.5-1c-0.4-0.4-0.8-0.9-1-1.5c-0.3-0.6-0.4-1.3-0.4-2.1
				c0-0.7,0.1-1.4,0.4-2c0.3-0.6,0.6-1.1,1-1.6c0.4-0.4,0.9-0.8,1.5-1c0.6-0.2,1.2-0.4,1.9-0.4c0.3,0,0.6,0,0.9,0.1
				c0.3,0.1,0.6,0.2,0.9,0.3c0.3,0.1,0.5,0.3,0.8,0.5c0.3,0.2,0.5,0.4,0.7,0.6l0.9-1.1h0.6V35z M58.8,30.3c0-0.3-0.1-0.6-0.2-0.9
				c-0.1-0.3-0.3-0.6-0.5-0.8c-0.2-0.2-0.5-0.4-0.8-0.6c-0.3-0.1-0.6-0.2-0.9-0.2s-0.6,0.1-0.9,0.2c-0.3,0.1-0.5,0.3-0.8,0.5
				c-0.2,0.2-0.4,0.5-0.5,0.8c-0.1,0.3-0.2,0.7-0.2,1.1c0,0.4,0.1,0.8,0.2,1.1c0.1,0.3,0.3,0.6,0.5,0.8c0.2,0.2,0.5,0.4,0.8,0.5
				c0.3,0.1,0.6,0.2,0.9,0.2s0.6-0.1,0.9-0.2c0.3-0.1,0.5-0.3,0.8-0.6c0.2-0.2,0.4-0.5,0.5-0.8C58.8,30.9,58.8,30.6,58.8,30.3z"/>
			<path class="logotype-color" d="M65.8,23.2c0,0.2,0,0.4-0.1,0.6c-0.1,0.2-0.2,0.4-0.3,0.5c-0.1,0.1-0.3,0.3-0.5,0.3
				c-0.2,0.1-0.4,0.1-0.6,0.1s-0.4,0-0.6-0.1c-0.2-0.1-0.4-0.2-0.5-0.3c-0.1-0.1-0.3-0.3-0.3-0.5c-0.1-0.2-0.1-0.4-0.1-0.6
				c0-0.2,0-0.4,0.1-0.6c0.1-0.2,0.2-0.4,0.3-0.5c0.1-0.1,0.3-0.3,0.5-0.3c0.2-0.1,0.4-0.1,0.6-0.1s0.4,0,0.6,0.1
				c0.2,0.1,0.4,0.2,0.5,0.3c0.1,0.1,0.3,0.3,0.3,0.5C65.8,22.7,65.8,23,65.8,23.2z M65.4,35H63v-9.3h2.4V35z"/>
			<path class="logotype-color" d="M79,31.7c0,0.5-0.1,0.9-0.3,1.4c-0.2,0.4-0.4,0.8-0.8,1.1c-0.3,0.3-0.7,0.6-1.1,0.8
				c-0.4,0.2-0.9,0.3-1.4,0.3c-0.4,0-0.9-0.1-1.3-0.2c-0.4-0.2-0.8-0.4-1.1-0.7c-0.3,0.3-0.7,0.5-1.1,0.7c-0.4,0.2-0.8,0.2-1.3,0.2
				c-0.5,0-1-0.1-1.4-0.3s-0.8-0.4-1.1-0.8c-0.3-0.3-0.6-0.7-0.8-1.1c-0.2-0.4-0.3-0.9-0.3-1.4v-5.9h2.4v5.9c0,0.2,0,0.3,0.1,0.5
				c0.1,0.1,0.1,0.3,0.3,0.4c0.1,0.1,0.2,0.2,0.4,0.3c0.1,0.1,0.3,0.1,0.5,0.1s0.3,0,0.5-0.1c0.1-0.1,0.3-0.1,0.4-0.3
				c0.1-0.1,0.2-0.2,0.3-0.4c0.1-0.1,0.1-0.3,0.1-0.5v-5.9h2.4v5.9c0,0.2,0,0.3,0.1,0.5c0.1,0.1,0.1,0.3,0.3,0.4
				c0.1,0.1,0.2,0.2,0.4,0.3c0.1,0.1,0.3,0.1,0.5,0.1c0.2,0,0.3,0,0.5-0.1c0.1-0.1,0.3-0.1,0.4-0.3c0.1-0.1,0.2-0.2,0.3-0.4
				c0.1-0.1,0.1-0.3,0.1-0.5v-5.9H79V31.7z"/>
			<path class="logotype-color" d="M89.8,35h-0.6l-0.9-1.3c-0.2,0.2-0.5,0.4-0.7,0.6c-0.3,0.2-0.5,0.3-0.8,0.5c-0.3,0.1-0.6,0.2-0.9,0.3
				c-0.3,0.1-0.6,0.1-0.9,0.1c-0.7,0-1.3-0.1-1.9-0.3c-0.6-0.2-1.1-0.5-1.5-1c-0.4-0.4-0.8-0.9-1-1.5c-0.3-0.6-0.4-1.3-0.4-2.1
				c0-0.7,0.1-1.4,0.4-2c0.3-0.6,0.6-1.1,1-1.6c0.4-0.4,0.9-0.8,1.5-1c0.6-0.2,1.2-0.4,1.9-0.4c0.3,0,0.6,0,0.9,0.1
				c0.3,0.1,0.6,0.2,0.9,0.3c0.3,0.1,0.5,0.3,0.8,0.5c0.3,0.2,0.5,0.4,0.7,0.6l0.9-1.1h0.6V35z M87.4,30.3c0-0.3-0.1-0.6-0.2-0.9
				c-0.1-0.3-0.3-0.6-0.5-0.8c-0.2-0.2-0.5-0.4-0.8-0.6c-0.3-0.1-0.6-0.2-0.9-0.2s-0.6,0.1-0.9,0.2c-0.3,0.1-0.5,0.3-0.8,0.5
				c-0.2,0.2-0.4,0.5-0.5,0.8c-0.1,0.3-0.2,0.7-0.2,1.1c0,0.4,0.1,0.8,0.2,1.1c0.1,0.3,0.3,0.6,0.5,0.8c0.2,0.2,0.5,0.4,0.8,0.5
				c0.3,0.1,0.6,0.2,0.9,0.2s0.6-0.1,0.9-0.2c0.3-0.1,0.5-0.3,0.8-0.6c0.2-0.2,0.4-0.5,0.5-0.8C87.4,30.9,87.4,30.6,87.4,30.3z"/>
			<path class="logotype-color" d="M93.6,35h-2.4v-9.3h0.6l0.8,0.9c0.4-0.3,0.8-0.6,1.3-0.8c0.5-0.2,1-0.3,1.5-0.3c0.6,0,1.1,0.1,1.6,0.3
				c0.5,0.2,0.9,0.5,1.3,0.9c0.4,0.4,0.7,0.8,0.9,1.3c0.2,0.5,0.3,1,0.3,1.6V35h-2.4v-5.3c0-0.2,0-0.5-0.1-0.7
				c-0.1-0.2-0.2-0.4-0.4-0.6c-0.2-0.2-0.4-0.3-0.6-0.4s-0.4-0.1-0.7-0.1c-0.3,0-0.5,0-0.7,0.1s-0.4,0.2-0.6,0.4
				c-0.2,0.2-0.3,0.4-0.4,0.6c-0.1,0.2-0.1,0.4-0.1,0.7V35z"/>
		</g>
		<g class="year">
			<path class="logotype-color" d="M113.9,26.3c0,0.5-0.1,1-0.3,1.5c-0.2,0.5-0.5,0.9-0.8,1.2c-0.3,0.3-0.7,0.6-1.2,0.8
				c-0.5,0.2-0.9,0.3-1.5,0.3h-1.3c-0.2,0-0.3,0-0.5,0.1c-0.2,0.1-0.3,0.2-0.4,0.3c-0.1,0.1-0.2,0.2-0.3,0.4
				c-0.1,0.2-0.1,0.3-0.1,0.5v1.2h5.9V35h-8.4v-3.7c0-0.5,0.1-1,0.3-1.5c0.2-0.5,0.5-0.9,0.8-1.2c0.3-0.3,0.7-0.6,1.2-0.8
				c0.5-0.2,0.9-0.3,1.5-0.3h1.3c0.2,0,0.3,0,0.5-0.1c0.2-0.1,0.3-0.2,0.4-0.3c0.1-0.1,0.2-0.2,0.3-0.4c0.1-0.2,0.1-0.3,0.1-0.5
				c0-0.2,0-0.3-0.1-0.5c-0.1-0.2-0.2-0.3-0.3-0.4c-0.1-0.1-0.2-0.2-0.4-0.3c-0.2-0.1-0.3-0.1-0.5-0.1h-4.5v-2.5h4.5
				c0.5,0,1,0.1,1.5,0.3c0.5,0.2,0.9,0.5,1.2,0.8c0.3,0.3,0.6,0.7,0.8,1.2C113.8,25.3,113.9,25.8,113.9,26.3z"/>
			<path class="logotype-color" d="M125.3,28.8c0,1.2-0.1,2.2-0.4,3c-0.3,0.8-0.6,1.5-1.1,2s-1,0.9-1.6,1.1c-0.6,0.2-1.3,0.3-2,0.3
				c-0.7,0-1.3-0.1-2-0.3c-0.6-0.2-1.1-0.6-1.6-1.1c-0.5-0.5-0.8-1.2-1.1-2c-0.3-0.8-0.4-1.8-0.4-3c0-1.2,0.1-2.2,0.4-3
				c0.3-0.8,0.6-1.5,1.1-2c0.5-0.5,1-0.9,1.6-1.1c0.6-0.2,1.3-0.3,2-0.3c0.7,0,1.3,0.1,2,0.3c0.6,0.2,1.1,0.6,1.6,1.1
				c0.5,0.5,0.8,1.2,1.1,2C125.2,26.6,125.3,27.6,125.3,28.8z M123,28.8c0-1.4-0.2-2.4-0.7-3.1c-0.5-0.7-1.1-1-1.9-1
				c-0.8,0-1.5,0.3-1.9,1c-0.5,0.7-0.7,1.7-0.7,3.1c0,1.4,0.2,2.4,0.7,3.1c0.5,0.7,1.1,1,1.9,1c0.4,0,0.8-0.1,1.1-0.2
				c0.3-0.2,0.6-0.4,0.8-0.8c0.2-0.3,0.4-0.8,0.5-1.3C122.9,30.1,123,29.5,123,28.8z"/>
			<path class="logotype-color" d="M130.5,35H128V25h-1.2v-2.5h3.8V35z"/>
			<path class="logotype-color" d="M139.7,28.8l2-2c0.2-0.2,0.3-0.5,0.3-0.8c0-0.3-0.1-0.6-0.3-0.8l-3.3-3.3c-0.2-0.2-0.5-0.3-0.8-0.3
				c-0.3,0-0.6,0.1-0.8,0.3l-3.3,3.3c-0.2,0.2-0.3,0.5-0.3,0.8c0,0.3,0.1,0.6,0.3,0.8l2,2l-2,2c-0.2,0.2-0.3,0.5-0.3,0.8
				c0,0.3,0.1,0.6,0.3,0.8l3.3,3.3c0.2,0.2,0.5,0.3,0.8,0.3c0.3,0,0.6-0.1,0.8-0.3l3.3-3.3c0.2-0.2,0.3-0.5,0.3-0.8
				c0-0.3-0.1-0.6-0.3-0.8L139.7,28.8z M135.6,26l2-2l2,2l-2,2L135.6,26z M137.6,29.6l2,2l-2,2l-2-2L137.6,29.6z"/>
		</g>
	</g>
	<linearGradient id="logotype_ruby_gradient" gradientUnits="userSpaceOnUse" x1="21.673" y1="18.1525" x2="21.673" y2="1.5399">
		<stop  offset="0" style="stop-color:#CB1D23"/>
		<stop  offset="0.194" style="stop-color:#CC2126"/>
		<stop  offset="0.3949" style="stop-color:#D02E30"/>
		<stop  offset="0.5991" style="stop-color:#D64240"/>
		<stop  offset="0.8042" style="stop-color:#DE5F56"/>
		<stop  offset="1" style="stop-color:#E88271"/>
	</linearGradient>
	<path class="logotype_ruby logotype_ruby" d="M4,14.6H1.5V2.1h5c0.5,0,0.9,0.1,1.3,0.2C8.2,2.4,8.6,2.6,9,2.8C9.4,3,9.7,3.3,10,3.6
		c0.3,0.3,0.6,0.6,0.8,1c0.2,0.4,0.4,0.8,0.5,1.2c0.1,0.4,0.2,0.9,0.2,1.3c0,0.4-0.1,0.8-0.2,1.3c-0.1,0.4-0.3,0.8-0.5,1.2
		c-0.2,0.4-0.4,0.7-0.7,1c-0.3,0.3-0.6,0.6-1,0.8l1.4,3.3H7.9l-1.1-2.5l-2.8,0V14.6z M4,4.6v5h2.5c0.3,0,0.7-0.1,1-0.2
		C7.8,9.3,8,9.1,8.3,8.9c0.2-0.2,0.4-0.5,0.5-0.8C8.9,7.8,9,7.4,9,7.1c0-0.3-0.1-0.7-0.2-1C8.7,5.8,8.5,5.5,8.3,5.3
		C8,5.1,7.8,4.9,7.5,4.8c-0.3-0.1-0.6-0.2-1-0.2H4z M19.8,13.5c-0.2,0.2-0.4,0.3-0.6,0.5c-0.2,0.2-0.4,0.3-0.7,0.4
		c-0.2,0.1-0.5,0.2-0.7,0.3c-0.3,0.1-0.5,0.1-0.8,0.1c-0.6,0-1.1-0.1-1.6-0.3c-0.5-0.2-0.9-0.5-1.3-0.9c-0.4-0.4-0.7-0.8-0.9-1.4
		c-0.2-0.5-0.3-1.1-0.3-1.8V5.3h2.4v5.2c0,0.3,0,0.6,0.1,0.8c0.1,0.2,0.2,0.5,0.4,0.6c0.2,0.2,0.4,0.3,0.6,0.4
		c0.2,0.1,0.5,0.1,0.7,0.1c0.2,0,0.5-0.1,0.7-0.2c0.2-0.1,0.4-0.3,0.6-0.4c0.2-0.2,0.3-0.4,0.4-0.6c0.1-0.2,0.1-0.5,0.1-0.7V5.3h2.4
		v9.3h-0.6L19.8,13.5z M35.9,18.1v-2.4l1.3,0c0.2,0,0.5,0,0.7-0.1c0.2-0.1,0.4-0.2,0.6-0.3c0.2-0.1,0.3-0.3,0.5-0.5
		c0.1-0.2,0.3-0.4,0.3-0.6c-0.3,0.1-0.5,0.2-0.8,0.3c-0.3,0.1-0.5,0.2-0.8,0.2c-0.6,0-1.1-0.1-1.6-0.3c-0.5-0.2-0.9-0.5-1.3-0.9
		c-0.4-0.4-0.7-0.8-0.9-1.4c-0.2-0.5-0.3-1.1-0.3-1.8V5.3h2.4v5.2c0,0.3,0,0.6,0.1,0.9c0.1,0.2,0.2,0.5,0.4,0.6
		c0.2,0.2,0.4,0.3,0.6,0.4c0.2,0.1,0.5,0.1,0.7,0.1c0.2,0,0.5-0.1,0.7-0.2c0.2-0.1,0.4-0.3,0.6-0.4c0.2-0.2,0.3-0.4,0.4-0.6
		c0.1-0.2,0.1-0.5,0.1-0.7V5.3h2.4v8.2c0,0.7-0.1,1.3-0.4,1.8c-0.3,0.6-0.6,1.1-1,1.5c-0.4,0.4-0.9,0.8-1.5,1
		c-0.6,0.2-1.2,0.4-1.9,0.4L35.9,18.1z M31.9,7.9c-0.3-0.6-0.6-1.1-1-1.6c-0.4-0.4-0.9-0.8-1.5-1c-0.6-0.2-1.2-0.4-1.9-0.4
		c-0.2,0-0.4,0-0.7,0.1c-0.2,0-0.4,0.1-0.7,0.2c-0.2,0.1-0.4,0.2-0.6,0.3c-0.2,0.1-0.3,0.3-0.5,0.4V1.5h-2.4v8.3
		c0,0.7,0.1,1.4,0.4,2s0.6,1.1,1,1.6c0.4,0.4,0.9,0.8,1.5,1c0.6,0.2,1.2,0.4,1.9,0.4c0.7,0,1.3-0.1,1.9-0.4c0.6-0.2,1.1-0.6,1.5-1
		c0.4-0.4,0.8-1,1-1.6c0.3-0.6,0.4-1.3,0.4-2C32.2,9.1,32.1,8.5,31.9,7.9z M27.5,12.3l-2.7-2.9L26,8h2.8l1.3,1.5L27.5,12.3z"/>
	<linearGradient id="logotype_elixir_gradient" gradientUnits="userSpaceOnUse" x1="75.6567" y1="14.5305" x2="75.6567" y2="0">
		<stop  offset="0" style="stop-color:#65308A"/>
		<stop  offset="0.1991" style="stop-color:#68348C"/>
		<stop  offset="0.4054" style="stop-color:#714194"/>
		<stop  offset="0.615" style="stop-color:#7F55A0"/>
		<stop  offset="0.8255" style="stop-color:#9472B1"/>
		<stop  offset="1" style="stop-color:#A990C2"/>
	</linearGradient>
	<path class="logotype_elixir logotype_elixir" d="M65.4,14.5h-8.6V2h8.6v2.5h-6.1V7h4.1v2.5h-4.1V12h6.1V14.5z M69.3,14.5h-2.4v-13h2.4V14.5z
		M73.9,2.7c0,0.2,0,0.4-0.1,0.6c-0.1,0.2-0.2,0.4-0.3,0.5c-0.1,0.1-0.3,0.3-0.5,0.3c-0.2,0.1-0.4,0.1-0.6,0.1s-0.4,0-0.6-0.1
		c-0.2-0.1-0.4-0.2-0.5-0.3c-0.1-0.1-0.3-0.3-0.3-0.5c-0.1-0.2-0.1-0.4-0.1-0.6c0-0.2,0-0.4,0.1-0.6c0.1-0.2,0.2-0.4,0.3-0.5
		c0.1-0.1,0.3-0.3,0.5-0.3c0.2-0.1,0.4-0.1,0.6-0.1s0.4,0,0.6,0.1c0.2,0.1,0.4,0.2,0.5,0.3c0.1,0.1,0.3,0.3,0.3,0.5
		C73.8,2.2,73.9,2.5,73.9,2.7z M73.5,14.5h-2.4V5.2h2.4V14.5z M86.8,1.8c0.7,0.7,0.6,1.2,0.5,1.7c-0.2,0.7-1,0.9-1.6,0.8
		c-0.8-0.1-1.3-0.7-1.1-1.8c0.1-0.8,0.8-2,1.5-2.4C86,0.8,86.3,1.2,86.8,1.8z M83.9,14.5H81l-1.9-2.9l-1.9,2.9h-2.9l3.4-4.8
		l-3.4-4.6h2.9l1.9,2.7L81,5.1h2.9l-3.4,4.6L83.9,14.5z M87.1,14.5h-2.4V5.2h2.4V14.5z M90.6,14.5h-2.4V5.2h0.6l0.8,1.1
		C90,6,90.4,5.7,90.9,5.5c0.5-0.2,1-0.3,1.5-0.3h2.1v2.4h-2.1c-0.3,0-0.5,0-0.7,0.1c-0.2,0.1-0.4,0.2-0.6,0.4
		c-0.2,0.2-0.3,0.4-0.4,0.6c-0.1,0.2-0.1,0.5-0.1,0.7V14.5z"/>
	<path class="deco-color" d="M49.6,13.9c-0.1,0-0.1,0-0.2-0.1l-2.9-2.9c-0.1-0.1-0.1-0.1-0.1-0.2c0-0.1,0-0.1,0.1-0.2l2.2-2.2l-2.2-2.2
		c-0.1-0.1-0.1-0.1-0.1-0.2c0-0.1,0-0.1,0.1-0.2l2.9-2.9c0.1-0.1,0.3-0.1,0.4,0l2.9,2.9c0.1,0.1,0.1,0.1,0.1,0.2
		c0,0.1,0,0.1-0.1,0.2l-2.2,2.2l2.2,2.2c0.1,0.1,0.1,0.1,0.1,0.2c0,0.1,0,0.1-0.1,0.2l-2.9,2.9C49.7,13.9,49.7,13.9,49.6,13.9z"/>
</svg>
